<svg id="Layer_1" data-name="Layer 1" xmlns="http://www.w3.org/2000/svg" viewBox="0 0 260 200"><defs><style>.cls-1{fill:#ffc7e2;}.cls-2{fill:#ff97cc;}.cls-3{opacity:0.5;}.cls-4{fill:#ff5050;}.cls-5{fill:#fff;}</style></defs><ellipse class="cls-1" cx="130" cy="100" rx="125.07" ry="62.76"/><path class="cls-2" d="M40.72,63.42l1.55-.84,1.83,1.47-.22-2.33,1.56-.84L47.14,64,46,64.65l-1-1.78.21,2.18-1,.52L42.59,64.2l1,1.78-1.13.6Z"/><path class="cls-2" d="M46.12,60.56l2.82-1.36.42.88-1.6.77.16.35,1.44-.69.36.74-1.44.69.19.39,1.65-.79.43.88L47.68,63.8Z"/><path class="cls-2" d="M49.51,58.94l1.27-.57,1,2.26L53.24,60l.46,1L51,62.22Z"/><path class="cls-2" d="M52.73,57.52,54,57l1.4,3.32-1.29.53Z"/><path class="cls-2" d="M54.67,56.7l1.3-.51.38,1,.54-1.34,1.59-.62L57.72,57l2.07,1.58-1.57.61-1-.94-.21.49.32.82L56,60.05Z"/><path class="cls-2" d="M58.94,55l3-1.06.33.92-1.68.61.13.36,1.5-.54.27.78-1.5.54.15.41,1.73-.62.33.92-3,1.08Z"/><path class="cls-2" d="M64.59,53.09l1.34-.42L67,56.09l-1.33.43Z"/><path class="cls-2" d="M67.3,55.3l.61-.78a1.84,1.84,0,0,0,1.24,0c.33-.1.54-.22.49-.35s-.35-.13-.8,0c-.84.18-1.7.33-2-.59-.22-.76.39-1.4,1.46-1.72a2.13,2.13,0,0,1,1.79.11l-.48.76a1.48,1.48,0,0,0-1,0c-.31.1-.52.22-.49.35s.36.09.78,0c.87-.2,1.73-.27,2,.6s-.45,1.47-1.55,1.8A2.42,2.42,0,0,1,67.3,55.3Z"/><path class="cls-2" d="M74.1,51.45l-1,.27-.28-1.06,3.47-.9.28,1.06-1.06.28.63,2.41-1.36.36Z"/><path class="cls-2" d="M76.72,49.64l1.37-.32.28,1.19,1.22-.29L79.31,49l1.36-.32.82,3.51-1.36.32-.31-1.32-1.22.29.31,1.31-1.36.32Z"/><path class="cls-2" d="M81.37,48.56l3.07-.66.2,1-1.75.37.08.38,1.56-.34.17.81-1.56.33.09.44,1.8-.39.2,1-3.12.66Z"/><path class="cls-2" d="M87.62,50.27l.7-.7a1.85,1.85,0,0,0,1.24.15c.33-.06.55-.15.52-.29s-.33-.16-.79-.12c-.86.09-1.74.14-1.91-.81-.13-.78.55-1.34,1.65-1.54a2.14,2.14,0,0,1,1.77.31l-.56.7a1.43,1.43,0,0,0-1-.12c-.32.06-.54.15-.52.29s.34.13.77.08c.89-.09,1.76-.06,1.92.83s-.61,1.41-1.74,1.61A2.41,2.41,0,0,1,87.62,50.27Z"/><path class="cls-2" d="M91.12,46.65l1.4-.21,1,2.27.38-2.49L95.46,46l1.1,2.27.3-2.48,1.4-.2-.69,3.74-1.6.24-1.09-2.23-.39,2.45-1.6.24Z"/><path class="cls-2" d="M98.71,45.53l3.11-.39.13,1-1.78.22,0,.38,1.58-.19.11.81-1.59.2.06.44,1.82-.23.12,1-3.16.39Z"/><path class="cls-2" d="M102.41,45.07l3.12-.34.11,1-1.78.19,0,.38,1.59-.17.09.82L104,47.1l.05.43,1.83-.19.1,1-3.17.34Z"/><path class="cls-2" d="M107.12,45.69l-1.08.1-.1-1.1,3.55-.33.1,1.1-1.08.1.23,2.48-1.39.13Z"/><path class="cls-2" d="M110,44.31l3.13-.23.08,1-1.79.14,0,.38,1.6-.12.06.82-1.59.12,0,.44,1.83-.14.08,1-3.18.24Z"/><path class="cls-2" d="M113.74,47l.77-.61a1.84,1.84,0,0,0,1.21.3c.34,0,.57-.09.56-.23s-.32-.2-.78-.21c-.86,0-1.73-.07-1.79-1,0-.79.7-1.27,1.82-1.33a2.09,2.09,0,0,1,1.71.51l-.64.63a1.43,1.43,0,0,0-1-.24c-.33,0-.56.09-.56.23s.33.17.76.17c.9,0,1.75.14,1.81,1.05s-.77,1.32-1.92,1.39A2.36,2.36,0,0,1,113.74,47Z"/><path class="cls-2" d="M118.76,44.87l-1.08,0-.05-1.09,3.57-.16,0,1.09-1.09,0,.11,2.5-1.4.06Z"/><path class="cls-2" d="M121.47,48a.8.8,0,0,0,1-.81c-.57.33-1.13,0-1.15-.47A.62.62,0,0,1,122,46c.42,0,.72.34.74.87,0,.89-.5,1.42-1.28,1.25Z"/><path class="cls-2" d="M125.43,43.53h1.77l.92,2.16.9-2.17h1.78l0,3.6h-1.28l0-2-.83,2H127.6l-.88-2v2h-1.28Z"/><path class="cls-2" d="M131.33,45.3c0-1.16.95-1.86,2.33-1.84s2.28.76,2.26,1.91-.94,1.86-2.32,1.84S131.31,46.46,131.33,45.3Zm3.19.05c0-.5-.34-.78-.88-.79s-.9.27-.91.76.35.78.88.79S134.51,45.85,134.52,45.35Z"/><path class="cls-2" d="M136.28,46.51l.82-.53a1.9,1.9,0,0,0,1.18.41c.34,0,.57,0,.57-.18s-.29-.23-.75-.28c-.86-.1-1.72-.23-1.68-1.19,0-.79.81-1.2,1.92-1.16a2.17,2.17,0,0,1,1.67.68l-.7.56a1.41,1.41,0,0,0-1-.33c-.33,0-.57,0-.58.17s.31.2.74.25c.89.09,1.73.3,1.7,1.21s-.89,1.24-2,1.2A2.39,2.39,0,0,1,136.28,46.51Z"/><path class="cls-2" d="M141.5,44.88l-1.09-.06.06-1.09,3.56.18L144,45l-1.09,0-.12,2.49-1.4-.07Z"/><path class="cls-2" d="M147.65,45.24l-1.09-.08.08-1.1,3.57.27-.08,1.1L149,45.35l-.19,2.49-1.39-.1Z"/><path class="cls-2" d="M151.44,44.45l1.66.15,1.07,3.71-1.45-.13-.12-.56-1.25-.12-.22.53-1.45-.13Zm1,2.3-.29-1.29-.53,1.21Z"/><path class="cls-2" d="M154.94,44.78l1.4.15-.28,2.46,1.59.18-.12,1.12-3-.33Z"/><path class="cls-2" d="M158.46,45.17l3.11.4-.12,1-1.77-.23-.05.38,1.58.21-.1.81-1.58-.2-.06.44,1.82.23-.12,1L158,48.74Z"/><path class="cls-2" d="M162.16,45.64l1.6.24,1,2.25.3-2.06,1.29.19-.53,3.56-1.6-.24-1-2.26-.31,2.07-1.29-.19Z"/><path class="cls-2" d="M167.76,47.61l-1.07-.18.18-1.09,3.53.59L170.22,48l-1.08-.17-.41,2.46-1.38-.23Z"/><path class="cls-2" d="M170.9,47l3.08.58-.18,1-1.75-.33-.07.38,1.56.29-.15.81-1.56-.29-.09.43,1.81.34-.18,1-3.13-.59Z"/><path class="cls-2" d="M174.56,47.7l2,.43a1.82,1.82,0,1,1-.74,3.52l-2-.42Zm1.36,2.92a.77.77,0,1,0,.32-1.51l-.57-.12-.31,1.51Z"/><path class="cls-2" d="M181.41,49.19l2.34.58a1.36,1.36,0,0,1,1.15,1.62,1.34,1.34,0,0,1-1.78.87l-1-.23-.25,1-1.36-.33Zm1.52,2.13c.31.07.55,0,.61-.28s-.1-.45-.41-.52l-.57-.14-.2.8Z"/><path class="cls-2" d="M185.73,50.27l3,.82-.25.94-1.73-.47-.1.37,1.55.42-.22.8-1.54-.42-.11.42,1.77.49-.25.94-3.08-.84Z"/><path class="cls-2" d="M190.7,54.78l-.06-.3a.47.47,0,0,0-.34-.4L190,54l-.33,1.1-1.34-.39,1-3.45,2.35.69c.88.26,1.31.91,1.11,1.6a1,1,0,0,1-1.06.72.52.52,0,0,1,.18.36l.07.28c0,.11.07.2.17.22a.33.33,0,0,0,.22,0v.62a1.67,1.67,0,0,1-.94,0A1.06,1.06,0,0,1,190.7,54.78Zm.21-1.38a.41.41,0,0,0,.55-.22c.06-.21-.1-.4-.34-.47l-.67-.2-.21.69Z"/><path class="cls-2" d="M192.72,55.3l.95-.29a1.76,1.76,0,0,0,1,.72c.33.11.56.13.6,0s-.21-.3-.64-.48c-.8-.33-1.59-.7-1.29-1.61.25-.75,1.12-.93,2.18-.58a2.13,2.13,0,0,1,1.41,1.11l-.83.35a1.37,1.37,0,0,0-.83-.58c-.32-.1-.56-.13-.6,0s.24.28.63.44c.83.34,1.59.77,1.3,1.64s-1.2,1-2.29.6A2.43,2.43,0,0,1,192.72,55.3Z"/><path class="cls-2" d="M197.2,55.57c.39-1.08,1.49-1.45,2.79-1s1.92,1.45,1.52,2.53-1.49,1.46-2.79,1S196.8,56.66,197.2,55.57Zm3,1.08a.91.91,0,1,0-1.11.43A.79.79,0,0,0,200.2,56.65Z"/><path class="cls-2" d="M202.7,55.66l1.5.6.46,2.43.77-1.94,1.22.49-1.35,3.34-1.5-.6-.45-2.45-.78,1.95L201.36,59Z"/><path class="cls-2" d="M209.38,58.44l1.26.58-1.48,3.27-1.27-.58Z"/><path class="cls-2" d="M211.32,59.31l1.45.71.27,2.45L214,60.6l1.17.57-1.58,3.23-1.45-.71-.27-2.47-.92,1.89-1.17-.57Z"/><path class="cls-2" d="M218.07,64l-.94-.54.54-.95,3.11,1.77-.55,1-.94-.54L218,66.88l-1.21-.69Z"/><path class="cls-2" d="M221.29,64.61l1.18.76-.66,1,1.06.67.66-1,1.18.75-1.93,3-1.18-.75.72-1.14-1.06-.67-.72,1.14-1.18-.75Z"/><path class="cls-2" d="M225.36,67.24l2.56,1.82-.57.8-1.45-1-.23.31,1.3.93-.48.67-1.3-.92-.25.35,1.49,1.07-.57.8-2.59-1.86Z"/><path class="cls-2" d="M230.22,70.76l1,.95-1.12,2.23,2.18-1.27,1.14,1L232.4,76l2.11-1.32,1,.94-3.34,1.83L231,76.35l1.05-2.25-2.15,1.24-1.2-1.09Z"/><path class="cls-2" d="M236,76.19l.92,1-.92.81.83,1,.92-.81.92,1.06L236,81.61l-.92-1,1-.89-.82-1-1,.89-.92-1.06Z"/><path class="cls-2" d="M237.71,80.94c1-.66,2.07-.31,2.85.83s.7,2.3-.25,3-2.07.3-2.84-.83S236.76,81.59,237.71,80.94Zm1.81,2.62a.9.9,0,1,0-1.15-.29A.78.78,0,0,0,239.52,83.56Z"/><path class="cls-2" d="M242.2,84.46l.65,1.25-2.2,1.15.73,1.41-1,.52L239,86.13Z"/><path class="cls-2" d="M243.91,87.84,245,90.78l-.91.35-.64-1.68-.36.14.57,1.49-.77.3-.57-1.49-.42.16.67,1.72-.91.35-1.15-3Z"/><path class="cls-2" d="M246.09,94l.12,1.4-2.34.88,2.46.55.13,1.54-2.33,1,2.45.46.12,1.4-3.7-.92-.14-1.62,2.31-1-2.43-.54-.14-1.62Z"/><path class="cls-2" d="M246.42,102.07l-.13,1.39-3.58-.34.13-1.39Z"/><path class="cls-2" d="M246.22,104.44l-.46,2a1.82,1.82,0,1,1-3.51-.79l.45-2Zm-2.94,1.32a.78.78,0,1,0,1.51.34l.13-.56-1.52-.34Z"/><path class="cls-2" d="M245,109.36l-1.13,2.93-.91-.35.64-1.67-.36-.14-.57,1.49-.77-.3.57-1.49-.41-.15-.66,1.71-.91-.35,1.15-3Z"/><path class="cls-2" d="M242.53,115.21l-.8,1.16-2.36-.8,1.56,2-.88,1.27-2.4-.73,1.59,1.9-.79,1.16-2.27-3.05.92-1.33,2.37.72-1.52-2,.91-1.33Z"/><path class="cls-2" d="M236.66,120.37c.85.78.76,1.94-.17,2.95s-2.08,1.21-2.93.43-.77-1.94.16-3S235.81,119.59,236.66,120.37Zm-2.16,2.35a.78.78,0,0,0,1.18-.14.77.77,0,0,0,0-1.18.9.9,0,0,0-1.21,1.32Z"/><path class="cls-2" d="M230.59,124.83l.29.1a.47.47,0,0,0,.52-.09l.22-.2-.77-.85,1-.94,2.41,2.66-1.81,1.65a1.31,1.31,0,0,1-1.93.12,1,1,0,0,1-.07-1.28.52.52,0,0,1-.4,0l-.27-.09a.25.25,0,0,0-.28,0,.36.36,0,0,0-.11.2l-.52-.32a1.74,1.74,0,0,1,.49-.81A1.06,1.06,0,0,1,230.59,124.83Zm1.07.89a.41.41,0,0,0-.09.58.4.4,0,0,0,.58,0l.51-.47-.48-.54Z"/><path class="cls-2" d="M230.75,128.68l-1.09.87-1.55-1.93-1.24,1-.7-.88,2.34-1.86Z"/><path class="cls-2" d="M227.89,131l-1.68,1.18a1.82,1.82,0,1,1-2.07-2.94l1.68-1.19Zm-3.06-1a.78.78,0,1,0,.89,1.27l.48-.34-.9-1.27Z"/><path class="cls-2" d="M222.67,130.91a.68.68,0,1,1-.91-.16A.63.63,0,0,1,222.67,130.91Z"/><path class="cls-2" d="M218.72,136.9l-1.56.83-1.82-1.48.21,2.33-1.57.83-1.69-3.17,1.13-.6,1,1.78-.2-2.18,1-.51,1.72,1.38-.95-1.78,1.13-.6Z"/><path class="cls-2" d="M213.28,139.75l-2.83,1.35-.42-.89,1.61-.76-.16-.35-1.44.68-.36-.74,1.44-.69-.19-.39-1.66.78-.42-.88,2.89-1.37Z"/><path class="cls-2" d="M209.9,141.34l-1.28.56-1-2.27-1.46.64-.45-1,2.74-1.2Z"/><path class="cls-2" d="M206.64,142.75l-1.29.53L204,140l1.29-.53Z"/><path class="cls-2" d="M204.71,143.56l-1.31.5-.38-1-.55,1.34-1.59.61.77-1.77-2.07-1.59,1.57-.6,1,.94.22-.48-.32-.83,1.31-.5Z"/><path class="cls-2" d="M200.45,145.18l-3,1-.32-.92,1.68-.59-.12-.37-1.51.53-.27-.78,1.5-.52-.14-.42-1.74.61-.32-.92,3-1.06Z"/><path class="cls-2" d="M194.76,147.11l-1.33.42-1.09-3.43,1.34-.42Z"/><path class="cls-2" d="M192.09,144.89l-.61.77a1.88,1.88,0,0,0-1.25,0c-.33.09-.54.21-.49.35s.35.12.8,0c.85-.18,1.71-.33,2,.59.22.76-.39,1.39-1.47,1.71a2.13,2.13,0,0,1-1.79-.11l.48-.76a1.37,1.37,0,0,0,1,0c.32-.1.53-.21.5-.35s-.36-.09-.78,0c-.88.19-1.74.26-2-.62s.45-1.46,1.55-1.78A2.4,2.4,0,0,1,192.09,144.89Z"/><path class="cls-2" d="M185.26,148.71l1.05-.26.27,1.06-3.46.88-.28-1.06,1.06-.27-.62-2.42,1.36-.35Z"/><path class="cls-2" d="M182.62,150.52l-1.37.32-.28-1.2-1.22.29.27,1.19-1.36.31-.82-3.5,1.37-.32.3,1.32,1.23-.28-.3-1.32,1.36-.31Z"/><path class="cls-2" d="M178,151.58l-3.07.64-.2-1,1.75-.36-.08-.38-1.56.33-.17-.81,1.56-.32-.09-.43-1.8.37-.2-1,3.12-.64Z"/><path class="cls-2" d="M171.73,149.85l-.7.7a1.88,1.88,0,0,0-1.23-.16c-.34.06-.56.15-.53.29s.33.17.8.13c.86-.09,1.73-.14,1.89.81.14.78-.54,1.34-1.64,1.54a2.17,2.17,0,0,1-1.77-.32l.56-.7a1.41,1.41,0,0,0,1,.12c.33-.06.55-.15.53-.28s-.34-.13-.77-.09c-.89.09-1.76.06-1.92-.83s.61-1.41,1.75-1.61A2.41,2.41,0,0,1,171.73,149.85Z"/><path class="cls-2" d="M168.21,153.46l-1.4.21-1-2.27-.39,2.48-1.53.22-1.09-2.26-.32,2.47-1.39.2.7-3.74,1.6-.23,1.09,2.23.39-2.45,1.6-.23Z"/><path class="cls-2" d="M160.63,154.56l-3.12.38-.12-1,1.78-.23,0-.38-1.58.2-.1-.82,1.58-.2-.05-.43-1.83.22-.11-1,3.16-.39Z"/><path class="cls-2" d="M156.92,155l-3.12.33-.11-1,1.78-.19,0-.38-1.58.16-.09-.82,1.58-.16,0-.44-1.83.19-.1-1,3.17-.33Z"/><path class="cls-2" d="M152.22,154.38l1.09-.1.09,1.09-3.55.32-.1-1.09,1.08-.1-.22-2.49,1.39-.12Z"/><path class="cls-2" d="M149.35,155.74l-3.14.22-.07-1,1.79-.13,0-.38-1.6.11-.06-.82,1.6-.12,0-.43-1.83.13-.07-1,3.18-.24Z"/><path class="cls-2" d="M145.62,153.07l-.77.61a1.86,1.86,0,0,0-1.21-.3c-.34,0-.57.08-.56.22s.31.21.78.22c.86,0,1.73.07,1.78,1,0,.79-.7,1.27-1.82,1.33a2.13,2.13,0,0,1-1.71-.52l.64-.63a1.43,1.43,0,0,0,1,.24c.33,0,.56-.08.56-.22s-.33-.17-.76-.18c-.89,0-1.75-.14-1.8-1.05s.77-1.32,1.92-1.39A2.41,2.41,0,0,1,145.62,153.07Z"/><path class="cls-2" d="M140.56,155.16l1.09,0,0,1.1-3.57.14,0-1.09,1.08-.05-.1-2.49,1.4-.06Z"/><path class="cls-2" d="M137.88,152.06a.81.81,0,0,0-1,.81c.57-.33,1.13,0,1.15.47a.62.62,0,0,1-.62.64c-.43,0-.72-.34-.74-.87,0-.89.51-1.42,1.29-1.25Z"/><path class="cls-2" d="M133.93,156.47h-1.77l-.92-2.16-.9,2.17-1.77,0,0-3.61h1.29v2l.83-2h1.09l.88,2v-2h1.28Z"/><path class="cls-2" d="M128,154.7c0,1.15-1,1.86-2.34,1.83s-2.28-.77-2.26-1.92,1-1.86,2.33-1.83S128,153.54,128,154.7Zm-3.2-.06c0,.49.35.78.88.79s.9-.27.91-.76-.34-.78-.88-.79S124.8,154.14,124.79,154.64Z"/><path class="cls-2" d="M123.07,153.47l-.83.53a1.85,1.85,0,0,0-1.17-.41c-.34,0-.57,0-.57.17s.29.23.75.29c.85.1,1.71.24,1.68,1.19,0,.79-.82,1.2-1.93,1.16a2.13,2.13,0,0,1-1.66-.69l.69-.56a1.5,1.5,0,0,0,1,.34c.32,0,.56,0,.57-.17s-.31-.2-.73-.25c-.89-.1-1.73-.31-1.7-1.22s.89-1.24,2-1.2A2.42,2.42,0,0,1,123.07,153.47Z"/><path class="cls-2" d="M117.85,155.09l1.09.06-.06,1.1-3.57-.2.06-1.09,1.08,0,.13-2.49,1.4.08Z"/><path class="cls-2" d="M111.69,154.71l1.09.09-.09,1.09-3.57-.28.09-1.1,1.08.09.2-2.49,1.4.11Z"/><path class="cls-2" d="M107.88,155.49l-1.66-.16-1.06-3.71,1.45.14.12.56,1.25.12.23-.53,1.44.14Zm-1-2.3.28,1.28.53-1.21Z"/><path class="cls-2" d="M104.39,155.16,103,155l.28-2.47-1.58-.18.12-1.12,3,.34Z"/><path class="cls-2" d="M100.9,154.75l-3.12-.41.13-1,1.77.23,0-.38L98.15,153l.11-.82,1.58.21,0-.44-1.82-.24.13-1,3.16.41Z"/><path class="cls-2" d="M97.2,154.27,95.6,154l-1-2.26-.3,2.06L93,153.64l.52-3.56,1.6.24,1,2.27.31-2.07,1.29.19Z"/><path class="cls-2" d="M91.58,152.29l1.07.18-.18,1.08-3.53-.6.19-1.08,1.07.18.42-2.46,1.38.23Z"/><path class="cls-2" d="M88.43,152.86l-3.08-.59.18-1,1.76.34.07-.38-1.57-.3.15-.81,1.57.3.08-.43-1.8-.35.18-1,3.13.59Z"/><path class="cls-2" d="M84.78,152.17l-2-.43a1.82,1.82,0,1,1,.75-3.53l2,.43Zm-1.35-2.93a.78.78,0,1,0-.33,1.52l.57.12.32-1.52Z"/><path class="cls-2" d="M77.94,150.66l-2.33-.59a1.38,1.38,0,0,1-1.15-1.63,1.34,1.34,0,0,1,1.78-.86l1,.24.25-1,1.36.34Zm-1.51-2.13c-.31-.08-.55,0-.61.27s.1.45.41.53l.56.14.2-.8Z"/><path class="cls-2" d="M73.62,149.57l-3-.84.25-.94,1.73.48.1-.37-1.54-.43.22-.79,1.54.42.11-.42-1.76-.49.26-.94,3.07.85Z"/><path class="cls-2" d="M68.7,145l0,.3a.5.5,0,0,0,.35.4l.28.09.33-1.1,1.34.4-1,3.45-2.35-.71c-.87-.26-1.3-.91-1.09-1.59a1,1,0,0,1,1-.73.51.51,0,0,1-.17-.35l-.07-.28a.26.26,0,0,0-.16-.23.36.36,0,0,0-.23,0v-.62a1.67,1.67,0,0,1,.94,0A1.09,1.09,0,0,1,68.7,145Zm-.22,1.38a.41.41,0,0,0-.55.22c-.06.21.1.4.34.47l.67.2.21-.69Z"/><path class="cls-2" d="M66.65,144.5l-1,.28a1.8,1.8,0,0,0-1-.72c-.33-.11-.57-.13-.61,0s.22.3.65.48c.8.33,1.58.7,1.28,1.61-.25.75-1.12.93-2.18.58a2.14,2.14,0,0,1-1.41-1.12l.83-.35a1.41,1.41,0,0,0,.84.59c.31.1.55.13.6,0s-.25-.28-.64-.44c-.83-.34-1.58-.78-1.3-1.64s1.21-.95,2.3-.59A2.43,2.43,0,0,1,66.65,144.5Z"/><path class="cls-2" d="M62.18,144.21c-.4,1.09-1.51,1.45-2.8,1s-1.9-1.46-1.51-2.55,1.5-1.44,2.79-1S62.57,143.13,62.18,144.21Zm-3-1.1a.8.8,0,0,0,.58,1,.78.78,0,1,0,.53-1.46A.79.79,0,0,0,59.18,143.11Z"/><path class="cls-2" d="M56.68,144.11l-1.5-.61-.45-2.43L54,143l-1.21-.49,1.35-3.34,1.5.61.44,2.45.79-1.95,1.21.49Z"/><path class="cls-2" d="M50,141.29l-1.28-.58,1.51-3.28,1.27.58Z"/><path class="cls-2" d="M48.06,140.4l-1.45-.72-.26-2.46-.92,1.87-1.17-.58,1.6-3.22,1.45.72.25,2.47.94-1.88,1.16.58Z"/><path class="cls-2" d="M41.32,135.63l1,.55-.56.95-3.09-1.8.55-1,.94.55,1.26-2.16,1.21.71Z"/><path class="cls-2" d="M38.13,135,37,134.28l.67-1-1.06-.69-.66,1-1.18-.76,2-3,1.17.76-.73,1.13,1.06.69.73-1.14,1.18.76Z"/><path class="cls-2" d="M34.08,132.37l-2.54-1.86.57-.79,1.45,1.06.22-.31-1.29-.94.49-.67,1.29.94.26-.36L33,128.36l.58-.79,2.58,1.88Z"/><path class="cls-2" d="M29.23,128.8l-1-1,1.15-2.22-2.19,1.25L26,125.81l1.09-2.27L25,124.84l-1-1,3.37-1.79,1.18,1.1-1.07,2.25,2.17-1.22,1.19,1.1Z"/><path class="cls-2" d="M23.54,123.3l-.91-1.07.94-.79-.81-1-.94.79-.9-1.07,2.75-2.32.9,1.07-1,.87.81,1,1-.87.9,1.07Z"/><path class="cls-2" d="M21.87,118.52c-1,.63-2.08.26-2.83-.89s-.66-2.31.3-2.94,2.08-.27,2.83.88S22.83,117.88,21.87,118.52Zm-1.76-2.66a.9.9,0,1,0,1.14.32A.77.77,0,0,0,20.11,115.86Z"/><path class="cls-2" d="M17.45,114.91l-.63-1.26,2.22-1.1-.71-1.43,1-.5,1.34,2.68Z"/><path class="cls-2" d="M15.81,111.49l-1.06-3,.91-.33.61,1.68.36-.13-.54-1.5.78-.28.54,1.5.41-.15-.62-1.72.92-.34,1.07,3Z"/><path class="cls-2" d="M13.78,105.3l-.09-1.4,2.36-.82-2.44-.61-.1-1.54,2.35-.89-2.43-.53-.09-1.4,3.67,1,.1,1.62-2.32.88,2.41.61.09,1.62Z"/><path class="cls-2" d="M13.64,97.19l.17-1.38,3.57.44-.17,1.38Z"/><path class="cls-2" d="M13.91,94.83l.5-2a1.82,1.82,0,1,1,3.49.88l-.5,2Zm3-1.24a.75.75,0,0,0-.56-1,.74.74,0,0,0-1,.61l-.14.56,1.5.38Z"/><path class="cls-2" d="M15.25,90l1.2-2.91.9.38-.68,1.65.35.15.61-1.48.77.32-.61,1.47.4.17L18.9,88l.9.37-1.22,3Z"/><path class="cls-2" d="M17.82,84.19,18.63,83l2.35.84-1.52-2,.89-1.26,2.39.77-1.57-1.93L22,78.32,24.2,81.4l-.93,1.32L20.9,82l1.5,2-.93,1.32Z"/><path class="cls-2" d="M23.78,79.11c-.84-.8-.74-2,.21-3s2.09-1.18,2.94-.39.73,2-.21,3S24.62,79.9,23.78,79.11ZM26,76.78a.9.9,0,1,0,0,1.19A.78.78,0,0,0,26,76.78Z"/><path class="cls-2" d="M29.89,74.75l-.28-.11a.49.49,0,0,0-.53.08l-.23.2.77.86-1.05.93L26.18,74,28,72.39A1.32,1.32,0,0,1,30,72.3,1,1,0,0,1,30,73.57a.55.55,0,0,1,.39,0l.28.09a.27.27,0,0,0,.28,0,.36.36,0,0,0,.11-.2l.52.33a1.69,1.69,0,0,1-.5.8A1.09,1.09,0,0,1,29.89,74.75Zm-1.06-.91a.37.37,0,1,0-.48-.55l-.53.47.49.54Z"/><path class="cls-2" d="M29.78,70.87,30.89,70,32.42,72l1.25-1,.7.88L32,73.71Z"/><path class="cls-2" d="M32.64,68.65l1.68-1.17a1.82,1.82,0,1,1,2.06,3l-1.69,1.17Zm3,1a.77.77,0,1,0-.88-1.27l-.48.33L35.22,70Z"/><path class="cls-2" d="M37.88,68.73a.62.62,0,0,1,.23-.89.62.62,0,1,1,.67,1A.62.62,0,0,1,37.88,68.73Z"/><g class="cls-3"><path class="cls-2" d="M130,54.33A45.67,45.67,0,1,1,84.34,100,45.64,45.64,0,0,1,130,54.33Zm19.56,24.74A89.19,89.19,0,0,1,152,98.12h20a41.65,41.65,0,0,0-9.34-24.56Zm2.41,22.79a86.83,86.83,0,0,1-2.43,19l13.11,5.54A41.6,41.6,0,0,0,172,101.86ZM110.37,121a88.66,88.66,0,0,1-2.47-19H88a41.88,41.88,0,0,0,9.35,24.53Zm-2.46-22.84a89.72,89.72,0,0,1,2.47-19l-13-5.49C92.16,79.4,87,93.09,88.22,98.11Zm6-18.09a81.59,81.59,0,0,0-2.29,18.07h16.49V81.91Zm14.22,21.89H111.61A81.7,81.7,0,0,0,113.92,120l14.21-1.91ZM146,80,131.92,81.9V98.11h16.32A79.41,79.41,0,0,0,146,80ZM146,120a79.17,79.17,0,0,0,2.26-18H131.9v16.16ZM128.13,122A57.73,57.73,0,0,0,115,123.77a38.66,38.66,0,0,0,6,12.4,27.47,27.47,0,0,0,3.81,3.89,20.16,20.16,0,0,0,3.31,1.91Zm0-64C120.27,61.78,117.7,69,115,76.1c2.07.94,10.88,2.11,13.16,1.77Zm3.78,83.65c.52-.2,1-.36,1.46-.58a14.69,14.69,0,0,0,4.91-4.16,39,39,0,0,0,6.43-12.58c.07-.21.09-.44.19-.92l-13-1.72Zm0-83.38V78A59.26,59.26,0,0,0,145,76.23c-.88-2.17-1.63-4.24-2.53-6.24a27.64,27.64,0,0,0-6-8.84A11,11,0,0,0,131.9,58.32Zm16.67,66.18c-2,6-4.38,11.5-8.39,16.15a41.19,41.19,0,0,0,19.95-11.38Zm11.54-53.8a41.34,41.34,0,0,0-19.94-11.36c4,4.66,6.43,10.13,8.38,16.14Zm-40.58,70c-1.57-2.51-3.32-4.94-4.69-7.57s-2.4-5.52-3.68-8.52l-11.27,4.68A42,42,0,0,0,119.53,140.69Zm-19.61-70,11.28,4.68c1.26-3,2.24-5.82,3.61-8.45s3.15-5.12,4.72-7.62A41.84,41.84,0,0,0,99.92,70.7Z"/></g><path class="cls-4" d="M53.44,83.87a2,2,0,0,0-2.51,1.6c1.08-.56,2.22-.16,2.22.91a1.33,1.33,0,0,1-1.39,1.31,1.35,1.35,0,0,1-1.32-1.53,2.48,2.48,0,0,1,3.08-2.64Zm3.24,0a2,2,0,0,0-2.51,1.6c1.07-.56,2.21-.16,2.21.91A1.32,1.32,0,0,1,55,87.69a1.35,1.35,0,0,1-1.32-1.53,2.48,2.48,0,0,1,3.07-2.64Z"/><path class="cls-4" d="M57.47,83.75h3.7l1,4.32h0l2.43-4.32h3.7l-1.14,7.19H64.58l.67-4.14h0l-2.32,4.15H60.68l-1-4.15h0L59,90.94H56.33Z"/><path class="cls-4" d="M69.26,83.75H75.5l-.31,1.94H71.74l-.13.77h3.06l-.27,1.66H71.35l-.14.87h3.56l-.31,2H68.12Z"/><path class="cls-4" d="M76.24,83.75h2.89l-.79,4.94H81.5l-.35,2.25H75.1Z"/><path class="cls-4" d="M82.94,83.75h2.88l-1.14,7.19H81.8Z"/><path class="cls-4" d="M86.71,83.75H89.6l-.35,2.17h0l2.28-2.18H95L91.88,86.5l2,4.44H90.46l-.88-2.53-.84.72-.28,1.81H85.57Z"/><path class="cls-4" d="M95.47,83.75h6.24l-.31,1.94H98l-.13.77h3.06l-.27,1.66h-3l-.14.87H101l-.31,2H94.33Z"/><path class="cls-4" d="M104.24,83.75h2.88L106,90.94H103.1Z"/><path class="cls-4" d="M106.83,89.47l1.82-1.09a3,3,0,0,0,2.25.88c.65,0,1.06-.15,1.06-.43s-.3-.39-.84-.47l-1.06-.14c-1.8-.26-2.57-.86-2.57-2,0-1.86,1.82-2.68,3.91-2.68,1.75,0,3,.58,3.46,1.46l-1.69,1.06a2.44,2.44,0,0,0-1.77-.7c-.65,0-1.12.14-1.12.41s.34.34.89.43l.94.13c1.86.27,2.65.91,2.65,2.1,0,1.79-2,2.73-4.12,2.73C108.78,91.15,107.35,90.51,106.83,89.47Z"/><path class="cls-4" d="M119.4,85.94h-2.13l.35-2.19h7.16l-.35,2.19h-2.14l-.79,5h-2.89Z"/><path class="cls-4" d="M125.38,83.75h2.89l-.39,2.44h2.36l.39-2.44h2.88l-1.13,7.19h-2.89l.43-2.7h-2.36l-.43,2.7h-2.89Z"/><path class="cls-4" d="M134.42,83.75h6.24l-.31,1.94H136.9l-.13.77h3.06l-.27,1.66h-3.05l-.14.87h3.56l-.31,2h-6.34Z"/><path class="cls-4" d="M142,89.47l1.82-1.09a3,3,0,0,0,2.25.88c.65,0,1.06-.15,1.06-.43s-.3-.39-.84-.47l-1.06-.14c-1.8-.26-2.57-.86-2.57-2,0-1.86,1.82-2.68,3.91-2.68,1.75,0,3,.58,3.45,1.46l-1.68,1.06a2.44,2.44,0,0,0-1.77-.7c-.65,0-1.12.14-1.12.41s.34.34.89.43l.94.13c1.86.27,2.65.91,2.65,2.1,0,1.79-2,2.73-4.12,2.73C144,91.15,142.53,90.51,142,89.47Z"/><path class="cls-4" d="M150.56,83.75h2.9l.56,4.71h0l2.19-4.71h3.18l.71,4.71h0l2-4.71h2.9l-3.61,7.19h-3.31l-.72-4.69h0l-2.22,4.69h-3.32Z"/><path class="cls-4" d="M165.54,83.75h6.24l-.31,1.94H168l-.13.77H171l-.27,1.66h-3.05l-.14.87h3.56l-.31,2H164.4Z"/><path class="cls-4" d="M172.52,83.75h6.24l-.31,1.94H175l-.13.77h3.06l-.27,1.66h-3l-.14.87H178l-.31,2h-6.34Z"/><path class="cls-4" d="M181,85.94h-2.13l.35-2.19h7.16L186,85.94h-2.14l-.79,5h-2.89Z"/><path class="cls-4" d="M187,83.75h6.24l-.31,1.94h-3.45l-.13.77h3.06l-.27,1.66h-3l-.14.87h3.56l-.31,2h-6.34Z"/><path class="cls-4" d="M192.76,89.47l1.82-1.09a3,3,0,0,0,2.25.88c.65,0,1.06-.15,1.06-.43s-.3-.39-.84-.47L196,88.22c-1.8-.26-2.57-.86-2.57-2,0-1.86,1.82-2.68,3.91-2.68,1.75,0,3,.58,3.45,1.46l-1.68,1.06a2.44,2.44,0,0,0-1.77-.7c-.65,0-1.12.14-1.12.41s.34.34.89.43l.94.13c1.86.27,2.65.91,2.65,2.1,0,1.79-2,2.73-4.12,2.73C194.71,91.15,193.28,90.51,192.76,89.47Z"/><path class="cls-4" d="M203.14,85.94H201l.35-2.19h7.15l-.35,2.19H206l-.79,5h-2.89Z"/><path class="cls-4" d="M206.62,92.37a2,2,0,0,0,2.52-1.61c-1.08.57-2.22.16-2.22-.91a1.33,1.33,0,0,1,1.39-1.31c.81,0,1.31.62,1.31,1.53a2.48,2.48,0,0,1-3.07,2.65Z"/><path class="cls-4" d="M33.78,95.75h3.7l1,4.32h0L41,95.75h3.7l-1.14,7.19H40.89l.67-4.14h0l-2.32,4.15H37l-1.05-4.15h0l-.64,4.15H32.64Z"/><path class="cls-4" d="M44.74,100c0-2.69,2.36-4.48,5.22-4.48,2.57,0,4.14,1.23,4.14,3.18,0,2.68-2.36,4.49-5.22,4.49C46.31,103.18,44.74,101.94,44.74,100Zm6.44-1c0-.81-.57-1.31-1.53-1.31a1.94,1.94,0,0,0-2,2c0,.81.57,1.31,1.53,1.31A1.94,1.94,0,0,0,51.18,99Z"/><path class="cls-4" d="M54.13,101.47,56,100.38a3,3,0,0,0,2.25.88c.65,0,1.06-.15,1.06-.43s-.3-.39-.84-.47l-1.06-.14c-1.8-.26-2.57-.86-2.57-2,0-1.86,1.82-2.68,3.91-2.68,1.75,0,3,.58,3.46,1.46l-1.69,1.06a2.44,2.44,0,0,0-1.77-.7c-.65,0-1.12.14-1.12.41s.34.34.89.43l.94.13c1.86.27,2.65.91,2.65,2.1,0,1.79-2,2.73-4.12,2.73C56.08,103.15,54.65,102.51,54.13,101.47Z"/><path class="cls-4" d="M64.51,97.94H62.38l.35-2.19h7.16l-.35,2.19H67.4l-.79,5H63.72Z"/><path class="cls-4" d="M73.76,97.94H71.63L72,95.75h7.16l-.35,2.19H76.65l-.79,5H73Z"/><path class="cls-4" d="M81.25,95.75h3.44l1.62,7.19h-3l-.16-1.13H80.73l-.55,1.13H77.29ZM83,100.14l-.38-2.46h0l-1.21,2.46Z"/><path class="cls-4" d="M87.9,95.75h2.89L90,100.69h3.16l-.35,2.25h-6Z"/><path class="cls-4" d="M94.6,95.75h6.24l-.31,1.94H97.08l-.13.77H100l-.27,1.66h-3l-.14.87h3.56l-.31,2H93.46Z"/><path class="cls-4" d="M101.58,95.75h3.36l2,4.19h0l.67-4.19h2.66l-1.14,7.19h-3.36l-2-4.23h0l-.67,4.23h-2.66Z"/><path class="cls-4" d="M112.66,97.94h-2.13l.35-2.19H118l-.35,2.19h-2.14l-.79,5h-2.89Z"/><path class="cls-4" d="M118.64,95.75h6.24l-.31,1.94h-3.45l-.13.77h3.06l-.27,1.66h-3l-.14.87h3.56l-.31,2H117.5Z"/><path class="cls-4" d="M125.62,95.75h3.93c2.47,0,3.84,1,3.84,3,0,2.7-1.71,4.21-4.8,4.21h-4.11Zm3,5.14A1.7,1.7,0,0,0,130.53,99c0-.8-.49-1.23-1.38-1.23h-1.07l-.49,3.1Z"/><path class="cls-4" d="M136.42,95.75h4.73c1.77,0,2.75.78,2.75,2.19,0,1.87-1.23,2.92-3.45,2.92h-2l-.33,2.08h-2.88Zm3.44,3.36c.73,0,1.13-.34,1.13-1,0-.43-.31-.67-.87-.67H139l-.26,1.62Z"/><path class="cls-4" d="M144.91,95.75h6.24l-.31,1.94h-3.45l-.13.77h3.06l-.27,1.66H147l-.14.87h3.56l-.31,2h-6.34Z"/><path class="cls-4" d="M155.49,101.76l-.16-.62a.79.79,0,0,0-.77-.5H154l-.36,2.3h-2.89l1.14-7.19h4.79c1.79,0,2.8.71,2.8,2a2.41,2.41,0,0,1-2,2.35h0a.75.75,0,0,1,.47.61l.21.52a.4.4,0,0,0,.42.29.93.93,0,0,0,.43-.12l.17,1.18a3.91,3.91,0,0,1-1.93.52A1.73,1.73,0,0,1,155.49,101.76Zm0-2.77c.66,0,1-.3,1-.85,0-.39-.28-.6-.8-.6h-1.26L154.26,99Z"/><path class="cls-4" d="M159.51,101.47l1.82-1.09a3,3,0,0,0,2.25.88c.65,0,1.06-.15,1.06-.43s-.3-.39-.84-.47l-1.06-.14c-1.8-.26-2.57-.86-2.57-2,0-1.86,1.82-2.68,3.91-2.68,1.75,0,3,.58,3.46,1.46l-1.69,1.06a2.44,2.44,0,0,0-1.77-.7c-.65,0-1.12.14-1.12.41s.34.34.89.43l.94.13c1.86.27,2.65.91,2.65,2.1,0,1.79-2,2.73-4.12,2.73C161.46,103.15,160,102.51,159.51,101.47Z"/><path class="cls-4" d="M168,100c0-2.69,2.36-4.48,5.22-4.48,2.57,0,4.14,1.23,4.14,3.18,0,2.68-2.36,4.49-5.22,4.49C169.55,103.18,168,101.94,168,100Zm6.44-1c0-.81-.57-1.31-1.53-1.31a1.94,1.94,0,0,0-2,2c0,.81.57,1.31,1.53,1.31A1.94,1.94,0,0,0,174.42,99Z"/><path class="cls-4" d="M178.55,95.75h3.36l2,4.19h0l.67-4.19h2.66l-1.14,7.19h-3.36l-2-4.23h0l-.67,4.23h-2.66Z"/><path class="cls-4" d="M189.94,95.75h2.88l-1.14,7.19H188.8Z"/><path class="cls-4" d="M193.71,95.75h3.36l2,4.19h0l.67-4.19h2.65l-1.13,7.19h-3.36l-2-4.23h0l-.67,4.23h-2.66Z"/><path class="cls-4" d="M206.58,97.94h-2.13l.35-2.19H212l-.34,2.19h-2.14l-.79,5h-2.89Z"/><path class="cls-4" d="M212.56,95.75h2.89l-.39,2.44h2.36l.39-2.44h2.88l-1.13,7.19h-2.89l.43-2.7h-2.36l-.43,2.7h-2.89Z"/><path class="cls-4" d="M221.6,95.75h6.24l-.31,1.94h-3.45l-.13.77H227l-.27,1.66h-3.05l-.14.87h3.56l-.31,2h-6.34Z"/><path class="cls-4" d="M59.94,107.75h2.89l.56,4.71h0l2.19-4.71h3.19l.71,4.71h0l2-4.71h2.9l-3.61,7.19H67.54l-.73-4.69h0l-2.22,4.69H61.25Z"/><path class="cls-4" d="M74.91,107.75H77.8l-.39,2.44h2.36l.39-2.44h2.89l-1.14,7.19H79l.43-2.7H77.09l-.43,2.7H73.78Z"/><path class="cls-4" d="M83.13,112c0-2.69,2.35-4.48,5.21-4.48,2.57,0,4.14,1.23,4.14,3.18,0,2.68-2.36,4.49-5.22,4.49C84.69,115.18,83.13,113.94,83.13,112Zm6.43-1c0-.81-.57-1.31-1.53-1.31a1.94,1.94,0,0,0-2,2c0,.81.57,1.31,1.53,1.31A1.94,1.94,0,0,0,89.56,111Z"/><path class="cls-4" d="M93.69,107.75h2.89l-.79,4.94H99l-.35,2.25h-6Z"/><path class="cls-4" d="M100.4,107.75h6.23l-.31,1.94h-3.45l-.13.77h3.06l-.27,1.66h-3l-.14.87h3.56l-.31,2H99.26Z"/><path class="cls-4" d="M108.72,107.75h2.89l.56,4.71h0l2.19-4.71h3.19l.71,4.71h0l2-4.71h2.9l-3.61,7.19h-3.31l-.73-4.69h0l-2.22,4.69H110Z"/><path class="cls-4" d="M123.7,107.75h2.87l-1.14,7.19h-2.87Z"/><path class="cls-4" d="M127.47,107.75h3.92c2.47,0,3.84,1,3.84,3,0,2.7-1.71,4.21-4.8,4.21h-4.1Zm3,5.14a1.7,1.7,0,0,0,1.87-1.87c0-.8-.49-1.23-1.38-1.23h-1.07l-.49,3.1Z"/><path class="cls-4" d="M136.48,107.75h6.23l-.31,1.94H139l-.13.77h3.06l-.27,1.66h-3.05l-.14.87H142l-.31,2h-6.33Z"/><path class="cls-4" d="M144.8,107.75h2.89l.56,4.71h0l2.19-4.71h3.19l.71,4.71h0l2-4.71h2.9l-3.61,7.19H152.4l-.73-4.69h0l-2.22,4.69h-3.32Z"/><path class="cls-4" d="M158.65,112c0-2.69,2.36-4.48,5.21-4.48,2.57,0,4.14,1.23,4.14,3.18,0,2.68-2.36,4.49-5.22,4.49C160.22,115.18,158.65,113.94,158.65,112Zm6.43-1c0-.81-.57-1.31-1.53-1.31a1.93,1.93,0,0,0-2,2c0,.81.56,1.31,1.52,1.31A1.94,1.94,0,0,0,165.08,111Z"/><path class="cls-4" d="M172.81,113.76l-.16-.62a.79.79,0,0,0-.77-.5h-.56l-.35,2.3h-2.89l1.14-7.19H174c1.79,0,2.8.71,2.8,2a2.41,2.41,0,0,1-2,2.35h0a.75.75,0,0,1,.47.61l.21.52a.4.4,0,0,0,.42.29,1,1,0,0,0,.44-.12l.17,1.18a4,4,0,0,1-1.94.52A1.73,1.73,0,0,1,172.81,113.76Zm0-2.77c.66,0,1-.3,1-.85,0-.39-.28-.6-.8-.6h-1.25l-.24,1.45Z"/><path class="cls-4" d="M178.12,107.75H181l-.78,4.94h3.15l-.35,2.25h-6Z"/><path class="cls-4" d="M184.82,107.75h3.92c2.47,0,3.84,1,3.84,3,0,2.7-1.71,4.21-4.8,4.21h-4.1Zm3,5.14a1.69,1.69,0,0,0,1.86-1.87c0-.8-.49-1.23-1.38-1.23h-1.06l-.49,3.1Z"/><path class="cls-4" d="M192.16,113.87a1.35,1.35,0,0,1,1.47-1.33,1.19,1.19,0,0,1,1.3,1.18,1.34,1.34,0,0,1-1.46,1.32A1.19,1.19,0,0,1,192.16,113.87Z"/><path class="cls-4" d="M194.86,111.25a2,2,0,0,0,2.52-1.61c-1.08.57-2.22.17-2.22-.9a1.36,1.36,0,1,1,2.7.21,2.48,2.48,0,0,1-3.07,2.65Zm3.23,0a2,2,0,0,0,2.51-1.61c-1.07.57-2.21.17-2.21-.9a1.36,1.36,0,1,1,2.7.21A2.47,2.47,0,0,1,198,111.6Z"/><rect class="cls-4" x="161.22" y="116.25" width="45.33" height="9.86" rx="4.93" transform="matrix(0.98, -0.21, 0.21, 0.98, -21.02, 40.48)"/><rect class="cls-5" x="161.05" y="115.6" width="45.41" height="9.86" rx="4.93" transform="translate(-20.89 40.44) rotate(-11.89)"/><path class="cls-2" d="M163.49,124.91l4.41-.93,0,.23-4.41.93Z"/><path class="cls-2" d="M167.84,121.38l1.47-.31.31,1.49,2.21-.46-.31-1.49,1.46-.31.88,4.2-1.46.31-.35-1.67-2.21.46.35,1.67-1.46.31Z"/><path class="cls-2" d="M174,122.9c-.2-1,.59-1.81,1.93-2.09s2.32.18,2.52,1.16a1.06,1.06,0,0,1,0,.32l-3,.64c.22.32.76.35,1.3.24a3.23,3.23,0,0,0,1.38-.61l.5.58a3.77,3.77,0,0,1-1.81.84C175.29,124.3,174.15,123.88,174,122.9ZM177,122c-.09-.34-.52-.5-1-.4s-.79.42-.77.77Z"/><path class="cls-2" d="M182.36,120.84l-1.16.5c-.11-.45-.37-.7-.64-.64s-.52.49-.4,1.07l.28,1.35-1.32.28-.64-3,1.1-.23.33.66h0a1.35,1.35,0,0,1,1-1.05C181.59,119.61,182.15,120,182.36,120.84Z"/><path class="cls-2" d="M183.66,119.28l1.11-.24.33.74h0a1.61,1.61,0,0,1,1.28-1.17,1.26,1.26,0,0,1,1.47.61h0a1.68,1.68,0,0,1,1.31-1.2,1.29,1.29,0,0,1,1.64,1.06l.38,1.78-1.33.28-.33-1.57a.63.63,0,0,0-.8-.54.79.79,0,0,0-.62,1l.3,1.39-1.33.28-.33-1.58a.62.62,0,0,0-.79-.53.77.77,0,0,0-.62,1l.29,1.39-1.33.28Z"/><path class="cls-2" d="M191.17,119.28c-.21-1,.57-1.81,2-2.1s2.46.15,2.67,1.12-.58,1.8-2,2.1S191.37,120.25,191.17,119.28Zm3.31-.7c-.1-.48-.56-.72-1.16-.59s-.93.53-.83,1,.56.72,1.16.59S194.58,119.06,194.48,118.58Z"/><path class="cls-2" d="M195.83,116.71l1.1-.23.34.73h0a1.61,1.61,0,0,1,1.28-1.17,1.23,1.23,0,0,1,1.46.61h0a1.68,1.68,0,0,1,1.31-1.2,1.29,1.29,0,0,1,1.64,1.06l.38,1.78-1.33.28L201.7,117a.63.63,0,0,0-.8-.54.79.79,0,0,0-.62,1l.29,1.39-1.32.28-.33-1.58a.62.62,0,0,0-.8-.53.78.78,0,0,0-.62,1l.3,1.39-1.33.28Z"/></svg>