<svg id="Layer_1" data-name="Layer 1" xmlns="http://www.w3.org/2000/svg" viewBox="0 0 260 200"><defs><style>.cls-1{fill:#95ebff;}.cls-2{fill:#178ceb;}.cls-3{opacity:0.4;}.cls-4{fill:#179deb;}.cls-5{opacity:0.8;}.cls-6{fill:#16419c;}.cls-7{fill:#fff;}</style></defs><path class="cls-1" d="M130,40.77c-40.14,1-76.18,7.65-102.57,17.83v82.8C53.82,151.58,89.86,158.2,130,159.23c40.14-1,76.18-7.65,102.57-17.83V58.6C206.18,48.42,170.14,41.8,130,40.77Z"/><path class="cls-2" d="M76,57.58l1.77-.32,1.29,2,.53-2.3,1.77-.32L82,60.13l-1.27.24-.37-2-.48,2.14-1.08.2L77.56,58.9l.36,2-1.28.24Z"/><path class="cls-2" d="M81.93,56.51,85.08,56l.15,1-1.78.29.06.38,1.59-.26.14.81-1.6.26.07.44,1.84-.31.16,1-3.19.52Z"/><path class="cls-2" d="M85.57,55.91,87,55.7l.37,2.45L89,57.91,89.11,59l-3,.45Z"/><path class="cls-2" d="M89,55.4l1.4-.2.51,3.56-1.41.2Z"/><path class="cls-2" d="M90.94,55.11l1.41-.18.14,1,.86-1.17,1.71-.23-1.18,1.54,1.66,2-1.7.22L93,57.2l-.33.42.12.88-1.41.18Z"/><path class="cls-2" d="M95.37,54.54l3.17-.38.11,1-1.8.21.05.38,1.6-.19.1.82L97,56.54l.06.44,1.85-.22.11,1-3.21.38Z"/><path class="cls-2" d="M101.29,55.66a2,2,0,0,1,2-2.09,1.89,1.89,0,0,1,2.06,1l-1.29.33a.62.62,0,0,0-.67-.26.75.75,0,0,0-.72.85.87.87,0,0,0,1,.7c.42,0,.72-.24.75-.5l-1.32.13-.07-.67,2.68-.27L106,57l-1,.1-.09-.49a1.68,1.68,0,0,1-1.32.71A1.9,1.9,0,0,1,101.29,55.66Z"/><path class="cls-2" d="M106.15,53.39l1.41-.13.32,3.58-1.41.13Z"/><path class="cls-2" d="M107.89,53.22l1.46-.12,1,2.35L111,53l1.46-.12-1.18,3.71-1.61.13Z"/><path class="cls-2" d="M112.76,52.84l3.18-.22.07,1-1.82.12,0,.38,1.62-.11,0,.83-1.61.11,0,.44,1.87-.13.06,1-3.23.22Z"/><path class="cls-2" d="M116.42,55.53l.79-.61a1.89,1.89,0,0,0,1.22.3c.35,0,.58-.08.57-.22s-.31-.21-.79-.22c-.87,0-1.75-.07-1.81-1,0-.79.72-1.27,1.85-1.33a2.19,2.19,0,0,1,1.74.52l-.65.63a1.47,1.47,0,0,0-1-.24c-.34,0-.57.08-.57.22s.33.17.76.18c.91,0,1.79.14,1.84,1.05s-.79,1.32-2,1.39A2.48,2.48,0,0,1,116.42,55.53Z"/><path class="cls-2" d="M122.81,54.06c0-1.11.86-1.9,2.16-2a1.87,1.87,0,0,1,2,1.15l-1.32.25c-.08-.22-.33-.31-.64-.3a.74.74,0,0,0-.77.8c0,.48.44.78,1,.76s.73-.19.77-.45l-1.32,0,0-.67,2.68-.1.08,2.09-1.06,0-.06-.5a1.69,1.69,0,0,1-1.36.63A1.91,1.91,0,0,1,122.81,54.06Z"/><path class="cls-2" d="M130.17,55l-.15-.27a.5.5,0,0,0-.46-.28h-.3l0,1.15-1.42,0-.1-3.6,2.49-.07c.92,0,1.54.46,1.56,1.17a1,1,0,0,1-.79,1,.5.5,0,0,1,.28.29l.16.24c.06.1.13.17.23.16a.32.32,0,0,0,.21-.08l.2.59a1.82,1.82,0,0,1-.91.29A1.08,1.08,0,0,1,130.17,55Zm-.23-1.38c.24,0,.47-.15.46-.38s-.22-.36-.48-.35l-.71,0,0,.73Z"/><path class="cls-2" d="M132.54,52.1l3.19.11,0,1-1.81-.06v.38l1.62.06,0,.82-1.62-.05v.43l1.86.07,0,1-3.24-.11Z"/><path class="cls-2" d="M137.39,52.28l1.7.08L140.35,56,138.87,56l-.15-.56-1.27-.06-.2.54-1.47-.07Zm1.15,2.25-.36-1.27-.47,1.23Z"/><path class="cls-2" d="M141.27,53.57l-1.1-.06.07-1.1,3.62.2-.06,1.1-1.11-.06-.14,2.49-1.42-.08Z"/><path class="cls-2" d="M146.45,52.78l3.23.25-.08,1.09L147.79,54l0,.46,1.52.11-.07.92-1.52-.11-.08,1.11-1.42-.1Z"/><path class="cls-2" d="M150.1,53.05l3.18.27-.09,1-1.8-.15,0,.38,1.62.14-.07.82-1.62-.13,0,.44,1.85.15-.08,1-3.22-.28Z"/><path class="cls-2" d="M153.73,53.37l3.18.3-.1,1-1.8-.17,0,.38,1.61.15-.08.82-1.61-.15,0,.44,1.86.17-.1,1-3.22-.3Z"/><path class="cls-2" d="M157.4,53.71l2.08.22c1.27.14,2,.94,1.9,2a1.86,1.86,0,0,1-2.29,1.57L157,57.3Zm1.68,2.77a.74.74,0,0,0,.91-.68.74.74,0,0,0-.74-.86l-.59-.06-.17,1.54Z"/><path class="cls-2" d="M162,54.22l2.51.31c.82.1,1.36.59,1.28,1.18a.77.77,0,0,1-.6.69.8.8,0,0,1,.48.87c-.07.6-.69.94-1.49.84l-2.62-.32Zm1.87,3c.22,0,.39-.06.41-.22s-.12-.33-.34-.36l-.79-.09-.07.58Zm.09-1.3c.22,0,.39-.08.41-.25s-.12-.29-.34-.32l-.72-.08-.07.56Z"/><path class="cls-2" d="M167.51,54.9l1.68.23.93,3.76-1.46-.2-.1-.57L167.29,58l-.25.53-1.46-.2Zm.94,2.35-.24-1.3-.58,1.19Z"/><path class="cls-2" d="M170.33,57.11a2,2,0,0,1,2.44-1.53,1.91,1.91,0,0,1,1.81,1.62l-1.32.09a.69.69,0,0,0-.63-.62.74.74,0,0,0-.89.65.79.79,0,0,0,.77.9.81.81,0,0,0,1-.49l1.27.38a2,2,0,0,1-2.42,1.2C171,59.11,170.16,58.21,170.33,57.11Z"/><path class="cls-2" d="M175.44,56.07l1.4.24-.17,1,1.17-.87,1.7.29L178,57.89l1,2.42L177.27,60l-.43-1.34-.44.3-.15.87-1.4-.23Z"/><path class="cls-2" d="M179.28,59.79a.63.63,0,0,1,.79-.49.62.62,0,0,1,.56.73.63.63,0,0,1-.78.5A.64.64,0,0,1,179.28,59.79Zm.41-2,.18-1,1.25.22-.18,1-.5,1.13-.67-.12Z"/><path class="cls-2" d="M78.71,137.61l1.77.31.53,2.3,1.29-2,1.78.32-.63,3.55-1.28-.23.35-2-1.2,1.84-1.08-.19-.52-2.15-.35,2-1.29-.22Z"/><path class="cls-2" d="M84.56,138.63l3.16.5-.16,1-1.79-.29-.06.38,1.6.26-.14.81-1.6-.25-.07.43,1.85.3-.16,1-3.2-.51Z"/><path class="cls-2" d="M88.09,139.19l1.4.21-.36,2.45,1.6.24-.16,1.11-3-.45Z"/><path class="cls-2" d="M91.46,139.68l1.41.19-.49,3.57L91,143.25Z"/><path class="cls-2" d="M93.33,140l1.41.18-.13,1,1.13-.91,1.71.22-1.53,1.18L97,144.05l-1.69-.22-.49-1.33-.42.32-.11.88-1.41-.18Z"/><path class="cls-2" d="M97.72,140.49l3.16.37-.11,1-1.8-.21,0,.39,1.6.18-.09.82-1.61-.18,0,.43,1.84.22-.11,1-3.21-.37Z"/><path class="cls-2" d="M103.13,142.91a2,2,0,0,1,2.4-1.66,1.88,1.88,0,0,1,1.82,1.41l-1.33.07c-.06-.23-.29-.35-.6-.38a.74.74,0,0,0-.87.69c0,.48.33.84.89.89s.76-.09.83-.35l-1.32-.12.06-.67,2.68.25-.2,2.09-1-.1v-.51A1.63,1.63,0,0,1,105,145,1.92,1.92,0,0,1,103.13,142.91Z"/><path class="cls-2" d="M108.27,141.57l1.41.12-.31,3.59-1.41-.12Z"/><path class="cls-2" d="M109.92,141.72l1.46.11.63,2.48,1-2.36,1.46.11-1.72,3.49-1.62-.13Z"/><path class="cls-2" d="M114.73,142.08l3.18.2-.06,1-1.81-.11,0,.38,1.62.1,0,.83-1.62-.11,0,.44,1.87.12-.07,1-3.23-.2Z"/><path class="cls-2" d="M118,145.22l.85-.52a1.8,1.8,0,0,0,1.18.43c.35,0,.59,0,.59-.16s-.29-.24-.76-.3c-.87-.11-1.74-.26-1.69-1.22,0-.79.85-1.18,2-1.12a2.13,2.13,0,0,1,1.67.71l-.71.55a1.45,1.45,0,0,0-1-.35c-.34,0-.58,0-.59.16s.31.2.74.26c.9.11,1.76.33,1.71,1.24s-.93,1.23-2.09,1.17A2.48,2.48,0,0,1,118,145.22Z"/><path class="cls-2" d="M124.45,144.4a2,2,0,0,1,2.29-1.8,1.87,1.87,0,0,1,1.9,1.29l-1.32.16c-.07-.23-.31-.34-.63-.35a.74.74,0,0,0-.82.75c0,.48.38.81.95.83s.74-.14.8-.4l-1.32,0,0-.68,2.68.1-.07,2.1-1.05,0,0-.51a1.65,1.65,0,0,1-1.4.54A1.92,1.92,0,0,1,124.45,144.4Z"/><path class="cls-2" d="M131.84,145.73l-.14-.26a.51.51,0,0,0-.47-.28h-.3l0,1.15-1.42,0-.1-3.6,2.49-.07c.92,0,1.54.45,1.56,1.17a1,1,0,0,1-.79,1,.45.45,0,0,1,.28.28l.16.25a.27.27,0,0,0,.23.16.32.32,0,0,0,.21-.08l.2.58a1.73,1.73,0,0,1-.91.3A1.11,1.11,0,0,1,131.84,145.73Zm-.23-1.38c.25,0,.47-.14.46-.38s-.22-.35-.47-.34l-.72,0,0,.72Z"/><path class="cls-2" d="M134,142.66l3.19-.13,0,1-1.81.07,0,.38,1.61-.06,0,.82-1.62.07,0,.43,1.86-.07,0,1-3.24.13Z"/><path class="cls-2" d="M138.73,142.46l1.69-.09L142,145.9l-1.48.07-.2-.54-1.28.06-.14.56-1.47.07Zm1.36,2.13-.47-1.23-.36,1.27Z"/><path class="cls-2" d="M142.65,143.34l-1.1.07-.07-1.1,3.63-.22.06,1.1-1.1.07.15,2.49-1.42.09Z"/><path class="cls-2" d="M147.58,141.91l3.23-.25.09,1.1-1.82.14,0,.46,1.52-.12.07.92-1.52.12.09,1.11-1.42.11Z"/><path class="cls-2" d="M151.16,141.64l3.17-.29.09,1-1.81.16,0,.38,1.61-.14.08.82-1.61.14,0,.44,1.85-.17.09,1-3.23.3Z"/><path class="cls-2" d="M154.71,141.31l3.18-.32.09,1-1.8.18,0,.39,1.61-.16.08.82-1.61.16,0,.44,1.86-.19.1,1-3.22.32Z"/><path class="cls-2" d="M158.27,141l2.07-.23a1.85,1.85,0,0,1,2.29,1.55c.13,1.08-.61,1.88-1.88,2l-2.07.23Zm2.24,2.34a.78.78,0,1,0-.18-1.54l-.58.07.17,1.54Z"/><path class="cls-2" d="M162.83,140.44l2.51-.33c.82-.1,1.46.24,1.54.83a.81.81,0,0,1-.42.82.8.8,0,0,1,.68.73c.08.59-.44,1.08-1.24,1.18l-2.62.34Zm2.31,1.14c.22,0,.36-.18.34-.34s-.19-.25-.41-.23l-.72.1.07.56Zm.24,1.29c.22,0,.36-.16.34-.33a.34.34,0,0,0-.42-.25l-.79.1.07.58Z"/><path class="cls-2" d="M168.21,139.73l1.67-.23,1.92,3.36-1.46.2-.25-.52-1.26.18-.1.57-1.45.21Zm1.54,2-.58-1.19-.24,1.3Z"/><path class="cls-2" d="M171.44,141.09a2,2,0,0,1,1.87-2.2,1.93,1.93,0,0,1,2.22,1l-1.24.49a.67.67,0,0,0-.78-.4.74.74,0,0,0-.66.89.8.8,0,0,0,1,.62.82.82,0,0,0,.77-.75l1.33,0c0,.93-.79,1.69-2,1.87A2,2,0,0,1,171.44,141.09Z"/><path class="cls-2" d="M175.91,138.56l1.4-.25.18,1,.81-1.21,1.71-.29-1.12,1.59,1.73,1.95-1.68.3-.85-1.13-.32.43.15.87-1.4.25Z"/><path class="cls-2" d="M180.44,138.77l-.18-1,1.25-.23.18,1-.07,1.23-.67.13Zm.32,2a.69.69,0,0,1,1.35-.25.62.62,0,0,1-.56.74A.64.64,0,0,1,180.76,140.77Z"/><g class="cls-3"><path class="cls-4" d="M130,155.72c-37.41-.92-72.42-6.84-98.6-16.65l-.33-.12V61.05l.33-.12C57.59,51.12,92.6,45.2,130,44.28h0c37.39.92,72.4,6.84,98.58,16.65l.33.12V139l-.33.12C202.41,148.88,167.4,154.8,130,155.72ZM32.08,138.26C58.13,148,92.89,153.8,130,154.72c37.1-.92,71.86-6.76,97.91-16.46V61.74c-26-9.7-60.8-15.54-97.92-16.46C92.88,46.2,58.13,52,32.08,61.74Z"/></g><g class="cls-5"><path class="cls-4" d="M53.21,90.22c-.11-.84-.25-1.59-.31-2.36a11.22,11.22,0,0,1,.9-6.12c1.3-2.61,5.79-4.46,8.69-1.4a4.92,4.92,0,0,1,1.25,3.88,13.14,13.14,0,0,1-1.52,5,10.22,10.22,0,0,0-.45,7.93c.58,1.87,1.21,3.73,1.77,5.61a11.73,11.73,0,0,1,.46,3.68.75.75,0,0,0,.15.51,7.94,7.94,0,0,1,1.64,8.43A7.84,7.84,0,0,1,60,121c-2.36.55-4.59.3-6.37-1.56a10,10,0,0,1-1.17-1.74.69.69,0,0,0-.53-.43,20.5,20.5,0,0,1-7-2.37,11.5,11.5,0,0,1-5.35-6.17,6.43,6.43,0,0,1-.1-4.22.93.93,0,0,0-.07-.61,9.48,9.48,0,0,1-1.11-4.06,3.18,3.18,0,0,1,.75-2.4A1.59,1.59,0,0,0,39.32,96a5.09,5.09,0,0,1,.14-2.42,3,3,0,0,1,1.43-1.74,11.55,11.55,0,0,1,3.63-1.4,20.35,20.35,0,0,1,6.36-.61c.64.06,1.27.21,1.9.32Zm.85,27.28a7.85,7.85,0,0,0,.74,1.13,4,4,0,0,0,2.92,1.42,6.58,6.58,0,0,0,4.4-1.27,8.18,8.18,0,0,0,2.5-3.28c1-2.33,1.12-4.63-.46-6.8-.07-.1-.17-.19-.3-.34-.27,1-.28,2-1.06,2.65a1,1,0,0,1,0-.49,14.16,14.16,0,0,0-.62-8.88c-.56-1.39-1.09-2.78-1.57-4.2a10.28,10.28,0,0,1-.6-5.56,39.2,39.2,0,0,1,1.27-3.74,30.75,30.75,0,0,0,1.11-3.49,3.92,3.92,0,0,0-2.07-4.36,4.18,4.18,0,0,0-5.57,2.31A13.22,13.22,0,0,0,54,88.2a.71.71,0,0,0,.27.45,5.07,5.07,0,0,0,2.24,1.07c.43.1.86.16,1.3.24a4.84,4.84,0,0,1-3.68-.54A1.78,1.78,0,0,0,54.57,91,12.86,12.86,0,0,1,56,93.25a10.26,10.26,0,0,1,.74,5.17,11.06,11.06,0,0,1-1.25,4.51,4.45,4.45,0,0,0-.57,1.56c-.12.86,0,1,.81,1.21l.13,0a7.71,7.71,0,0,1,5.47,6.39,7.4,7.4,0,0,1,0,.94l-.21.05a5.28,5.28,0,0,0-1.68-4,11.08,11.08,0,0,0-3.85-2.25c.63,3.41-1.24,4.7-4.07,5.18a4.7,4.7,0,0,1-.33,2.4,6.28,6.28,0,0,1-.14-.67c0-.34,0-.69-.1-1-.1-.68-.23-.78-.92-.79a2.64,2.64,0,0,1-.8,0c-1.27-.48-2.55-1-3.8-1.52a9.38,9.38,0,0,1-1.41-1l.09-.15,1,.44a28.22,28.22,0,0,0,2.72,1,6.79,6.79,0,0,0,4.8-.21A2.73,2.73,0,0,0,54,109.22a3.86,3.86,0,0,0-1.34-4.39,4.26,4.26,0,0,0-2.36-.57c-2,0-4.08.11-6.13.22a15.94,15.94,0,0,0-2.37.35,1.38,1.38,0,0,0-1.25,1.52,6.9,6.9,0,0,0,1.52,4.55,14.61,14.61,0,0,0,5.7,3.94,16.81,16.81,0,0,0,12.4.17,1.64,1.64,0,0,1,.62,0l.06.22a4.49,4.49,0,0,1-.83.62,9.55,9.55,0,0,1-1.71.65C57,116.87,55.56,117.16,54.06,117.5Zm-.6-14.18a6.44,6.44,0,0,0-.21-3.26A2.47,2.47,0,0,0,52,98.48a16.36,16.36,0,0,0-1.68-.83,20.74,20.74,0,0,0-8.61-.91,2,2,0,0,0-1.8,1.4,3.33,3.33,0,0,0-.21.63,7.66,7.66,0,0,0,.58,4.6c0,.12.31.23.46.22,1-.08,1.94-.2,2.91-.29.57-.06,1.13-.09,1.7-.13a8.79,8.79,0,0,1-2-1.39.78.78,0,0,1,.46.06c1.07.38,2.13.77,3.2,1.12a2.53,2.53,0,0,0,.87.09c1.23,0,2.45,0,3.68,0A16.85,16.85,0,0,1,53.46,103.32ZM54.92,101l.14,0a4.26,4.26,0,0,0,.32-.81,12,12,0,0,0-.23-5.54,4.26,4.26,0,0,0-3.64-3.33,16.41,16.41,0,0,0-6.09,0,10.63,10.63,0,0,0-3.54.95,3,3,0,0,0-1.37,3.81L41,95.9a4.5,4.5,0,0,1,.49-.14,18.54,18.54,0,0,1,9.26.66C52.93,97.19,54.53,98.52,54.92,101Z"/></g><path class="cls-6" d="M77.42,78.07a2,2,0,0,0-2.51,1.61c1.08-.57,2.22-.16,2.22.91a1.33,1.33,0,0,1-1.39,1.31,1.35,1.35,0,0,1-1.32-1.53,2.49,2.49,0,0,1,3.08-2.65Zm3.24,0a2,2,0,0,0-2.51,1.61c1.07-.57,2.21-.16,2.21.91A1.32,1.32,0,0,1,79,81.9a1.35,1.35,0,0,1-1.32-1.53,2.48,2.48,0,0,1,3.07-2.65Z"/><path class="cls-6" d="M81.45,78h2.88l-1.14,7.2H80.31Z"/><path class="cls-6" d="M86.2,82.06A4.52,4.52,0,0,1,91,77.76c2.3,0,3.73,1.1,3.79,2.79l-2.7.49A1.11,1.11,0,0,0,90.85,80a1.85,1.85,0,0,0-1.75,1.9c0,.79.59,1.26,1.5,1.26a1.9,1.9,0,0,0,1.86-1.24l2.61.36a4.76,4.76,0,0,1-4.69,3.1C87.81,85.34,86.2,84.09,86.2,82.06Z"/><path class="cls-6" d="M98.19,78h3.44l1.62,7.2h-3L100.12,84H97.67l-.55,1.13H94.23Zm1.78,4.4-.38-2.46h0l-1.21,2.46Z"/><path class="cls-6" d="M104.84,78h3.36l2,4.2h0l.67-4.2h2.66l-1.14,7.2H109l-2-4.23h0l-.67,4.23H103.7Z"/><path class="cls-6" d="M116.23,78h3.36l2,4.2h0l.67-4.2h2.66l-1.14,7.2h-3.36l-2-4.23h0l-.67,4.23h-2.66Z"/><path class="cls-6" d="M125.83,78h6.24l-.31,2h-3.45l-.13.77h3.06L131,82.33h-3l-.14.87h3.56l-.31,2h-6.34Z"/><path class="cls-6" d="M132.36,78h3l.77,4.77h0L138.4,78h3l-4,7.2H134Z"/><path class="cls-6" d="M141.83,78h6.24l-.31,2h-3.45l-.13.77h3.06L147,82.33h-3.05l-.14.87h3.56l-.31,2h-6.34Z"/><path class="cls-6" d="M152.41,84l-.16-.62a.79.79,0,0,0-.77-.5h-.56l-.36,2.3h-2.89l1.14-7.2h4.79c1.79,0,2.8.72,2.8,2a2.41,2.41,0,0,1-2,2.35h0a.75.75,0,0,1,.47.61l.21.52a.4.4,0,0,0,.42.29.93.93,0,0,0,.43-.12l.17,1.18a3.88,3.88,0,0,1-1.93.52A1.73,1.73,0,0,1,152.41,84Zm0-2.77c.66,0,1-.3,1-.85,0-.39-.28-.6-.8-.6h-1.26l-.23,1.45Z"/><path class="cls-6" d="M161,80.15h-2.13l.35-2.2h7.16l-.35,2.2h-2.14l-.79,5h-2.89Z"/><path class="cls-6" d="M167,78h6.24l-.31,2h-3.45l-.13.77h3.06l-.27,1.66h-3l-.14.87h3.56l-.31,2h-6.34Z"/><path class="cls-6" d="M173.94,78h2.89l-.79,5h3.16l-.35,2.25h-6Z"/><path class="cls-6" d="M180.64,78h2.89l-.79,5h3.16l-.35,2.25H179.5Z"/><path class="cls-6" d="M82.43,90h2.88l-1.14,7.2H81.3Z"/><path class="cls-6" d="M86.21,90h6.33l-.35,2.2H88.74l-.15.92h2.86l-.3,1.86H88.3L88,97.15H85.07Z"/><path class="cls-6" d="M93.78,95.68l1.81-1.09a3,3,0,0,0,2.25.88c.65,0,1.06-.15,1.06-.43s-.3-.39-.84-.47L97,94.43c-1.79-.26-2.56-.86-2.56-2,0-1.87,1.81-2.69,3.9-2.69,1.75,0,3,.58,3.46,1.47l-1.69,1.06a2.44,2.44,0,0,0-1.77-.7c-.65,0-1.12.14-1.12.41s.34.34.89.43l.94.13c1.86.27,2.65.91,2.65,2.1,0,1.79-2,2.73-4.12,2.73C95.72,97.36,94.3,96.72,93.78,95.68Z"/><path class="cls-6" d="M103.08,90H106l-.39,2.45h2.36l.39-2.45h2.89l-1.14,7.2h-2.89l.43-2.7h-2.36l-.43,2.7h-2.88Z"/><path class="cls-6" d="M112.12,90h6.23l-.31,2h-3.45l-.13.77h3.06l-.27,1.66h-3l-.14.87h3.56l-.31,2H111Z"/><path class="cls-6" d="M120.88,90h2.88l-1.14,7.2h-2.87Z"/><path class="cls-6" d="M123.48,95.68l1.82-1.09a3,3,0,0,0,2.24.88c.65,0,1.06-.15,1.06-.43s-.3-.39-.84-.47l-1.06-.14c-1.79-.26-2.56-.86-2.56-2,0-1.87,1.81-2.69,3.9-2.69,1.75,0,3,.58,3.46,1.47l-1.69,1.06a2.44,2.44,0,0,0-1.77-.7c-.65,0-1.12.14-1.12.41s.34.34.89.43l.94.13c1.86.27,2.65.91,2.65,2.1,0,1.79-2,2.73-4.12,2.73C125.42,97.36,124,96.72,123.48,95.68Z"/><path class="cls-6" d="M133.73,94.35a4.63,4.63,0,0,1,4.88-4.59c2.17,0,3.52,1,3.67,2.49l-2.75.43a1.06,1.06,0,0,0-1.13-.77,1.81,1.81,0,0,0-1.76,1.93,1.39,1.39,0,0,0,1.57,1.41,1.67,1.67,0,0,0,1.69-.85h-2.47l.23-1.45h5.23l-.66,4.2h-2.14l0-1.15h0a3.88,3.88,0,0,1-3,1.31C135,97.31,133.73,96.16,133.73,94.35Z"/><path class="cls-6" d="M144.17,90H147l-1.14,7.2H143Z"/><path class="cls-6" d="M147.48,90h3l.77,4.77h0L153.52,90h3l-4,7.2h-3.39Z"/><path class="cls-6" d="M157,90h2.88l-1.14,7.2h-2.88Z"/><path class="cls-6" d="M160.72,90h3.36l2,4.2h0l.67-4.2h2.66l-1.14,7.2h-3.36l-2-4.23h0l-.67,4.23h-2.66Z"/><path class="cls-6" d="M169.48,94.35a4.63,4.63,0,0,1,4.89-4.59c2.17,0,3.52,1,3.67,2.49l-2.75.43a1.06,1.06,0,0,0-1.13-.77,1.81,1.81,0,0,0-1.76,1.93A1.39,1.39,0,0,0,174,95.25a1.67,1.67,0,0,0,1.69-.85h-2.47l.23-1.45h5.23l-.66,4.2h-2.14l0-1.15h0a3.88,3.88,0,0,1-3,1.31C170.78,97.31,169.48,96.16,169.48,94.35Z"/><path class="cls-6" d="M72.7,102h3.69l1,4.33h0L79.87,102h3.71l-1.14,7.2H79.8l.67-4.14h0l-2.32,4.15H75.9L74.85,105h0l-.64,4.15H71.56Z"/><path class="cls-6" d="M84.49,102h6.23l-.31,2H87l-.13.77h3.06l-.27,1.66H86.57l-.14.87H90l-.31,2H83.35Z"/><path class="cls-6" d="M95.61,102h3.44l1.62,7.2h-3L97.54,108H95.09l-.54,1.13H91.66Zm1.78,4.4L97,103.89h0l-1.21,2.46Z"/><path class="cls-6" d="M103.25,106.06a4.51,4.51,0,0,1,4.77-4.3c2.3,0,3.73,1.1,3.79,2.79l-2.7.49a1.11,1.11,0,0,0-1.22-1.08,1.85,1.85,0,0,0-1.75,1.9c0,.79.59,1.26,1.5,1.26a1.9,1.9,0,0,0,1.86-1.24l2.61.36a4.76,4.76,0,0,1-4.69,3.1C104.85,109.34,103.25,108.09,103.25,106.06Z"/><path class="cls-6" d="M112.52,106.2c0-2.69,2.35-4.49,5.21-4.49,2.57,0,4.14,1.24,4.14,3.19,0,2.68-2.36,4.49-5.22,4.49C114.09,109.39,112.52,108.15,112.52,106.2Zm6.43-1c0-.81-.57-1.31-1.53-1.31a1.94,1.94,0,0,0-2,2c0,.81.57,1.31,1.53,1.31A1.94,1.94,0,0,0,119,105.22Z"/><path class="cls-6" d="M123.09,102h3.69l1,4.33h0l2.43-4.33H134l-1.14,7.2h-2.64l.67-4.14h0l-2.32,4.15h-2.23L125.24,105h0l-.64,4.15H122Z"/><path class="cls-6" d="M134.88,102h4.72c1.77,0,2.76.78,2.76,2.2,0,1.87-1.24,2.92-3.46,2.92h-2l-.33,2.08h-2.87Zm3.43,3.37c.73,0,1.13-.34,1.13-.95,0-.43-.31-.67-.87-.67h-1.09l-.26,1.62Z"/><path class="cls-6" d="M143.37,102h2.88l-.79,5h3.16l-.35,2.25h-6Z"/><path class="cls-6" d="M150.07,102h2.87l-1.14,7.2h-2.87Z"/><path class="cls-6" d="M153.84,102h3.69l1,4.33h0L161,102h3.71l-1.14,7.2h-2.64l.67-4.14h0l-2.32,4.15H157L156,105h0l-.64,4.15H152.7Z"/><path class="cls-6" d="M165.63,102h6.23l-.31,2H168.1l-.13.77H171l-.27,1.66h-3l-.14.87h3.56l-.31,2h-6.33Z"/><path class="cls-6" d="M172.61,102H176l2,4.2h0l.67-4.2h2.66l-1.14,7.2H176.8l-2-4.23h0l-.67,4.23h-2.65Z"/><path class="cls-6" d="M183.68,104.15h-2.13l.36-2.2h7.15l-.35,2.2h-2.14l-.79,5h-2.89Z"/><path class="cls-6" d="M78.69,118.2c0-2.69,2.35-4.49,5.21-4.49,2.57,0,4.14,1.24,4.14,3.19,0,2.68-2.36,4.49-5.22,4.49C80.26,121.39,78.69,120.15,78.69,118.2Zm6.43-1c0-.81-.57-1.31-1.53-1.31a1.94,1.94,0,0,0-2,2c0,.81.57,1.31,1.53,1.31A1.94,1.94,0,0,0,85.12,117.22Z"/><path class="cls-6" d="M92.85,120l-.16-.62a.79.79,0,0,0-.77-.5h-.56l-.36,2.3H88.12l1.14-7.2H94c1.79,0,2.8.72,2.8,2a2.41,2.41,0,0,1-2,2.35h0a.75.75,0,0,1,.47.61l.21.52a.4.4,0,0,0,.42.29,1,1,0,0,0,.44-.12l.17,1.18a4,4,0,0,1-1.94.52A1.73,1.73,0,0,1,92.85,120Zm0-2.77c.66,0,1-.3,1-.85,0-.39-.28-.6-.8-.6H91.85l-.23,1.45Z"/><path class="cls-6" d="M99.13,118.06a4.52,4.52,0,0,1,4.78-4.3c2.3,0,3.73,1.1,3.79,2.79L105,117a1.11,1.11,0,0,0-1.22-1.08,1.85,1.85,0,0,0-1.75,1.9c0,.79.59,1.26,1.5,1.26a1.9,1.9,0,0,0,1.86-1.24l2.61.36a4.76,4.76,0,0,1-4.69,3.1C100.74,121.34,99.13,120.09,99.13,118.06Z"/><path class="cls-6" d="M112.83,120l-.16-.62a.79.79,0,0,0-.77-.5h-.56l-.36,2.3H108.1l1.13-7.2H114c1.79,0,2.8.72,2.8,2a2.41,2.41,0,0,1-2,2.35h0a.75.75,0,0,1,.47.61l.21.52a.4.4,0,0,0,.42.29,1,1,0,0,0,.44-.12l.17,1.18a4,4,0,0,1-1.94.52A1.73,1.73,0,0,1,112.83,120Zm0-2.77c.66,0,1-.3,1-.85,0-.39-.28-.6-.8-.6h-1.26l-.23,1.45Z"/><path class="cls-6" d="M118.13,114H121l-1.14,7.2H117Z"/><path class="cls-6" d="M123.38,116.15h-2.12l.34-2.2h7.16l-.35,2.2h-2.14l-.79,5h-2.89Z"/><path class="cls-6" d="M129.36,114h2.88l-1.14,7.2h-2.87Z"/><path class="cls-6" d="M132.33,118.06a4.51,4.51,0,0,1,4.77-4.3c2.3,0,3.73,1.1,3.79,2.79l-2.7.49A1.11,1.11,0,0,0,137,116a1.85,1.85,0,0,0-1.75,1.9c0,.79.59,1.26,1.5,1.26a1.9,1.9,0,0,0,1.86-1.24l2.61.36a4.76,4.76,0,0,1-4.69,3.1C133.93,121.34,132.33,120.09,132.33,118.06Z"/><path class="cls-6" d="M142.42,114h2.88l-1.14,7.2h-2.87Z"/><path class="cls-6" d="M145,119.68l1.82-1.09a3,3,0,0,0,2.25.88c.65,0,1.06-.15,1.06-.43s-.3-.39-.84-.47l-1.06-.14c-1.8-.26-2.57-.86-2.57-2,0-1.87,1.82-2.69,3.91-2.69,1.75,0,3,.58,3.46,1.47l-1.69,1.06a2.44,2.44,0,0,0-1.77-.7c-.65,0-1.12.14-1.12.41s.34.34.89.43l.94.13c1.86.27,2.65.91,2.65,2.1,0,1.79-2,2.73-4.12,2.73C147,121.36,145.53,120.72,145,119.68Z"/><path class="cls-6" d="M154.31,114H158l1,4.33h0l2.43-4.33h3.71l-1.14,7.2h-2.64l.67-4.14h0l-2.32,4.15h-2.23L156.47,117h0l-.64,4.15h-2.64Z"/><path class="cls-6" d="M164.92,119.68l1.82-1.09a3,3,0,0,0,2.25.88c.65,0,1.06-.15,1.06-.43s-.3-.39-.84-.47l-1.06-.14c-1.8-.26-2.57-.86-2.57-2,0-1.87,1.82-2.69,3.91-2.69,1.75,0,3,.58,3.46,1.47l-1.69,1.06a2.44,2.44,0,0,0-1.77-.7c-.65,0-1.12.14-1.12.41s.34.34.89.43l.94.13c1.86.27,2.65.91,2.65,2.1,0,1.79-2,2.73-4.12,2.73C166.87,121.36,165.44,120.72,164.92,119.68Z"/><path class="cls-6" d="M173,120.08a1.34,1.34,0,0,1,1.46-1.33,1.19,1.19,0,0,1,1.3,1.18,1.34,1.34,0,0,1-1.46,1.32A1.18,1.18,0,0,1,173,120.08Z"/><path class="cls-6" d="M175.72,117.46a2,2,0,0,0,2.52-1.61c-1.08.57-2.22.17-2.22-.91a1.33,1.33,0,0,1,1.39-1.3c.81,0,1.31.61,1.31,1.52a2.48,2.48,0,0,1-3.07,2.65Zm3.24,0a2,2,0,0,0,2.51-1.61c-1.07.57-2.21.17-2.21-.91a1.36,1.36,0,1,1,2.7.22,2.48,2.48,0,0,1-3.07,2.65Z"/><g class="cls-5"><path class="cls-4" d="M206.59,90.22c.11-.84.24-1.59.31-2.36a11.4,11.4,0,0,0-.9-6.12c-1.3-2.61-5.79-4.46-8.69-1.4a4.85,4.85,0,0,0-1.25,3.88,13.14,13.14,0,0,0,1.52,5,10.22,10.22,0,0,1,.45,7.93c-.58,1.87-1.21,3.73-1.77,5.61a11.45,11.45,0,0,0-.46,3.68.88.88,0,0,1-.15.51A7.94,7.94,0,0,0,194,115.4a7.84,7.84,0,0,0,5.8,5.59c2.36.55,4.59.3,6.36-1.56a9,9,0,0,0,1.17-1.74.7.7,0,0,1,.54-.43,20.57,20.57,0,0,0,7-2.37,11.54,11.54,0,0,0,5.35-6.17,6.49,6.49,0,0,0,.09-4.22,1,1,0,0,1,.08-.61,9.47,9.47,0,0,0,1.1-4.06,3.13,3.13,0,0,0-.74-2.4,1.56,1.56,0,0,1-.25-1.44,5.09,5.09,0,0,0-.15-2.42,3,3,0,0,0-1.42-1.74,11.51,11.51,0,0,0-3.64-1.4,20.29,20.29,0,0,0-6.35-.61c-.64.06-1.27.21-1.91.32Zm-.85,27.28a10,10,0,0,1-.74,1.13,4,4,0,0,1-2.93,1.42,6.57,6.57,0,0,1-4.39-1.27,8.18,8.18,0,0,1-2.5-3.28c-1-2.33-1.13-4.63.45-6.8l.3-.34c.27,1,.29,2,1.07,2.65a1.14,1.14,0,0,0,0-.49,14.16,14.16,0,0,1,.62-8.88c.56-1.39,1.09-2.78,1.56-4.2a10.28,10.28,0,0,0,.6-5.56,36.52,36.52,0,0,0-1.26-3.74,30.75,30.75,0,0,1-1.11-3.49,3.91,3.91,0,0,1,2.07-4.36A4.18,4.18,0,0,1,205,82.6a13.22,13.22,0,0,1,.79,5.6.76.76,0,0,1-.27.45,5.07,5.07,0,0,1-2.24,1.07c-.43.1-.87.16-1.3.24a4.84,4.84,0,0,0,3.68-.54,1.78,1.78,0,0,1-.46,1.54,13.5,13.5,0,0,0-1.47,2.29,10.37,10.37,0,0,0-.73,5.17,11.05,11.05,0,0,0,1.24,4.51,4.47,4.47,0,0,1,.58,1.56c.12.86,0,1-.81,1.21l-.13,0a7.71,7.71,0,0,0-5.47,6.39,5.93,5.93,0,0,0,.05.94l.21.05a5.27,5.27,0,0,1,1.67-4,11.22,11.22,0,0,1,3.86-2.25c-.64,3.41,1.24,4.7,4.07,5.18a4.59,4.59,0,0,0,.33,2.4,6.28,6.28,0,0,0,.14-.67c0-.34,0-.69.09-1,.1-.68.24-.78.93-.79a2.58,2.58,0,0,0,.79,0c1.28-.48,2.56-1,3.8-1.52a9,9,0,0,0,1.42-1l-.09-.15-1,.44a27.07,27.07,0,0,1-2.71,1,6.79,6.79,0,0,1-4.8-.21,2.7,2.7,0,0,1-1.43-1.37,3.86,3.86,0,0,1,1.34-4.39,4.25,4.25,0,0,1,2.35-.57c2.05,0,4.09.11,6.13.22a16.07,16.07,0,0,1,2.38.35,1.36,1.36,0,0,1,1.24,1.52,6.84,6.84,0,0,1-1.51,4.55,14.72,14.72,0,0,1-5.71,3.94,16.81,16.81,0,0,1-12.4.17,1.59,1.59,0,0,0-.61,0l-.06.22a4.78,4.78,0,0,0,.82.62,10,10,0,0,0,1.72.65C202.83,116.87,204.23,117.16,205.74,117.5Zm.6-14.18a6.33,6.33,0,0,1,.2-3.26,2.5,2.5,0,0,1,1.24-1.58,16.51,16.51,0,0,1,1.69-.83,20.71,20.71,0,0,1,8.6-.91,2,2,0,0,1,1.81,1.4,3.3,3.3,0,0,1,.2.63,7.66,7.66,0,0,1-.57,4.6.57.57,0,0,1-.47.22c-1-.08-1.93-.2-2.9-.29-.57-.06-1.14-.09-1.7-.13a8.79,8.79,0,0,0,2-1.39.8.8,0,0,0-.47.06c-1.06.38-2.12.77-3.2,1.12a2.53,2.53,0,0,1-.87.09c-1.22,0-2.45,0-3.67,0A16.85,16.85,0,0,0,206.34,103.32ZM204.87,101l-.13,0a4.26,4.26,0,0,1-.32-.81,11.81,11.81,0,0,1,.23-5.54,4.26,4.26,0,0,1,3.64-3.33,16.41,16.41,0,0,1,6.09,0,10.64,10.64,0,0,1,3.53.95,3,3,0,0,1,1.37,3.81l-.48-.15a4.1,4.1,0,0,0-.5-.14,18.51,18.51,0,0,0-9.25.66C206.87,97.19,205.26,98.52,204.87,101Z"/></g><rect class="cls-6" x="171.6" y="93.48" width="9.86" height="66.75" rx="4.93" transform="translate(42.06 297.66) rotate(-87.49)"/><rect class="cls-7" x="171.6" y="92.78" width="9.86" height="66.81" rx="4.93" transform="translate(42.72 297.02) rotate(-87.49)"/><path class="cls-2" d="M146.33,124.92l4.51.2v.24l-4.51-.2Z"/><path class="cls-2" d="M151.43,122.59l1.49.07-.07,1.52,2.26.1.07-1.52,1.49.06-.19,4.29-1.49-.06.08-1.71-2.26-.1-.08,1.71-1.49-.07Z"/><path class="cls-2" d="M157,125.58c0-1,1-1.6,2.4-1.54s2.2.75,2.15,1.74a1.39,1.39,0,0,1,0,.33l-3.09-.14c.14.37.65.53,1.2.56a3.25,3.25,0,0,0,1.49-.25l.34.69a3.85,3.85,0,0,1-2,.37C157.92,127.27,156.92,126.58,157,125.58Zm3.21-.14c0-.35-.39-.61-.86-.63s-.87.21-.93.55Z"/><path class="cls-2" d="M165.63,125.68l-1.25.19c0-.46-.18-.76-.46-.77s-.63.34-.66.93l-.06,1.38-1.35-.06.13-3.1,1.13,0,.15.73h0a1.32,1.32,0,0,1,1.26-.77C165.19,124.29,165.62,124.85,165.63,125.68Z"/><path class="cls-2" d="M167.11,126c0-1,1-1.61,2.36-1.55,1.14,0,2,.57,2.08,1.31l-1.26.16a.77.77,0,0,0-.8-.6c-.61,0-1,.25-1,.74s.37.79,1,.82a1,1,0,0,0,1.12-.67l1.24.26c-.2.82-1.16,1.33-2.41,1.28C168,127.71,167.06,127,167.11,126Z"/><path class="cls-2" d="M172.07,126.25c0-1,1-1.61,2.44-1.55s2.34.76,2.3,1.75-1,1.6-2.45,1.54S172,127.24,172.07,126.25Zm3.38.15c0-.5-.36-.84-1-.86s-1,.27-1.05.77.36.83,1,.85S175.43,126.89,175.45,126.4Z"/><path class="cls-2" d="M176.8,124.91l1.4.06.69,2h0l1-1.94,1.22.06.85,2.06h0l.87-2,1.4.06-1.5,3-1.45-.06-.83-2h0l-1,2-1.43-.06Z"/><path class="cls-2" d="M184.13,126.78c0-1,1-1.61,2.44-1.55s2.34.76,2.3,1.75-1,1.6-2.45,1.54S184.09,127.77,184.13,126.78Zm3.38.14c0-.49-.36-.83-1-.85s-1,.27-1.05.77.36.83,1,.86S187.49,127.41,187.51,126.92Z"/><path class="cls-2" d="M192.93,126.87l-1.25.2c0-.46-.18-.76-.46-.78s-.63.35-.65.94l-.06,1.37-1.36-.06.14-3.09,1.12,0,.15.72h0a1.34,1.34,0,0,1,1.27-.76C192.49,125.49,192.92,126.05,192.93,126.87Z"/><path class="cls-2" d="M193.32,124.25l1.36.06-.1,2.29h0l1.19-.86,1.67.07-1.54,1.11,1.43,2-1.55-.06-.86-1.27-.4.29,0,.92-1.35-.06Z"/><path class="cls-2" d="M197.05,127.34c0-1,1-1.6,2.4-1.54s2.2.75,2.15,1.74a1.39,1.39,0,0,1,0,.33l-3.09-.14c.14.37.65.53,1.2.56a3.25,3.25,0,0,0,1.49-.25l.35.69a3.91,3.91,0,0,1-2,.37C198,129,197,128.34,197.05,127.34Zm3.21-.14c0-.35-.38-.61-.86-.63a.83.83,0,0,0-.93.55Z"/><path class="cls-2" d="M205.72,127.44l-1.25.19c0-.46-.18-.76-.46-.77s-.63.34-.66.93l-.06,1.37-1.35,0,.13-3.1,1.13,0,.15.73h0a1.33,1.33,0,0,1,1.26-.77C205.28,126.05,205.71,126.61,205.72,127.44Z"/></svg>