<svg id="Layer_1" data-name="Layer 1" xmlns="http://www.w3.org/2000/svg" viewBox="0 0 260 200"><defs><style>.cls-1{fill:#fff3a1;}.cls-2{opacity:0.8;}.cls-3{fill:#ff9e8a;}.cls-4{opacity:0.4;}.cls-5{opacity:0.5;}.cls-6{fill:#ff7753;}.cls-7{fill:#fff;}</style></defs><path class="cls-1" d="M222.29,65.43a17.71,17.71,0,0,1-17.71-17.71c0-.39,0-.76,0-1.14H55.21A17.71,17.71,0,0,1,37.49,64.29v70.24a17.71,17.71,0,0,1,17.72,17.71c0,.4,0,.79-.06,1.18H205.32c0-.39-.06-.78-.06-1.18a17.71,17.71,0,0,1,17.25-17.69V65.42Z"/><g class="cls-2"><path class="cls-3" d="M134.74,147.08l-.66.45a1.6,1.6,0,0,0-1-.3c-.28,0-.47.05-.47.16s.25.18.63.21c.71.05,1.43.13,1.43.9s-.64,1-1.56,1a1.79,1.79,0,0,1-1.4-.5l.56-.47a1.22,1.22,0,0,0,.81.24c.27,0,.47,0,.47-.15s-.26-.15-.61-.18c-.74,0-1.45-.19-1.45-.92s.7-1,1.65-1A2,2,0,0,1,134.74,147.08Z"/><path class="cls-3" d="M131.41,148c0,.92-.76,1.5-1.9,1.5s-1.9-.58-1.9-1.5.76-1.5,1.9-1.5S131.41,147.06,131.41,148Zm-2.64,0c0,.4.3.62.74.62s.74-.22.74-.62-.3-.62-.74-.62S128.77,147.59,128.77,148Z"/><path class="cls-3" d="M125.71,149.42h-2.64v-.88h1.48v-.37h-1.24v-.74h1.24v-.89h1.16Z"/><path class="cls-3" d="M122.18,149.42H120.8l-1.17-2.88h1.21l.14.44h1l.14-.44h1.2Zm-1-1.76.34,1,.34-1Z"/><path class="cls-3" d="M117.62,147l.11.22a.44.44,0,0,0,.38.23h.24v-.92h1.16v2.88h-2c-.75,0-1.25-.4-1.25-1a.84.84,0,0,1,.67-.8.39.39,0,0,1-.22-.23l-.13-.2a.2.2,0,0,0-.18-.13.25.25,0,0,0-.17.06l-.15-.48a1.5,1.5,0,0,1,.75-.21A.9.9,0,0,1,117.62,147Zm.16,1.11c-.2,0-.39.1-.39.29s.18.29.39.29h.57v-.58Z"/><path class="cls-3" d="M114.36,147.08l-.66.45a1.6,1.6,0,0,0-1-.3c-.28,0-.47.05-.47.16s.25.18.63.21c.71.05,1.43.13,1.43.9s-.64,1-1.56,1a1.77,1.77,0,0,1-1.4-.5l.56-.47a1.22,1.22,0,0,0,.81.24c.27,0,.47,0,.47-.15s-.26-.15-.62-.18c-.74,0-1.44-.19-1.44-.92s.7-1,1.65-1A2,2,0,0,1,114.36,147.08Z"/><path class="cls-3" d="M111,148c0,.92-.76,1.5-1.9,1.5s-1.9-.58-1.9-1.5.76-1.5,1.9-1.5S111,147.06,111,148Zm-2.64,0c0,.4.29.62.74.62s.74-.22.74-.62-.3-.62-.74-.62S108.37,147.59,108.37,148Z"/><path class="cls-3" d="M105.43,148a1.62,1.62,0,0,1-1.82,1.5,1.54,1.54,0,0,1-1.59-1l1.08-.16c.06.18.26.26.52.26a.6.6,0,0,0,.65-.62c0-.38-.34-.64-.8-.64s-.6.13-.64.34h1.08v.54h-2.19v-1.68h.86l0,.41a1.35,1.35,0,0,1,1.12-.47A1.55,1.55,0,0,1,105.43,148Z"/><path class="cls-3" d="M101.54,148c0,.92-.76,1.5-1.9,1.5s-1.9-.58-1.9-1.5.76-1.5,1.9-1.5S101.54,147.06,101.54,148Zm-2.64,0c0,.4.3.62.74.62s.74-.22.74-.62-.3-.62-.74-.62S98.9,147.59,98.9,148Z"/><path class="cls-3" d="M97.57,148c0,.92-.75,1.5-1.89,1.5s-1.9-.58-1.9-1.5.76-1.5,1.9-1.5S97.57,147.06,97.57,148Zm-2.63,0c0,.4.29.62.74.62s.74-.22.74-.62-.3-.62-.74-.62S94.94,147.59,94.94,148Z"/><path class="cls-3" d="M93.55,149.42h-1.7c-1,0-1.72-.58-1.72-1.44s.68-1.44,1.72-1.44h1.7ZM92,147.36a.62.62,0,1,0,0,1.24h.48v-1.24Z"/><path class="cls-3" d="M88.38,147.08l-.67.45a1.58,1.58,0,0,0-1-.3c-.28,0-.47.05-.47.16s.25.18.63.21c.72.05,1.43.13,1.43.9s-.64,1-1.56,1a1.79,1.79,0,0,1-1.4-.5l.56-.47a1.22,1.22,0,0,0,.81.24c.27,0,.47,0,.47-.15s-.26-.15-.61-.18c-.74,0-1.45-.19-1.45-.92s.7-1,1.65-1A2.05,2.05,0,0,1,88.38,147.08Z"/><path class="cls-3" d="M85,148c0,.92-.76,1.5-1.9,1.5s-1.9-.58-1.9-1.5.76-1.5,1.9-1.5S85,147.06,85,148Zm-2.64,0c0,.4.29.62.74.62s.74-.22.74-.62-.3-.62-.74-.62S82.38,147.59,82.38,148Z"/><path class="cls-3" d="M79.34,149.42H76.7v-.88h1.48v-.37H76.94v-.74h1.24v-.89h1.16Z"/><path class="cls-3" d="M75.81,149.42H74.44l-1.17-2.88h1.21l.13.44h1l.14-.44H77Zm-1-1.76.33,1,.35-1Z"/><path class="cls-3" d="M71.25,147l.11.22a.43.43,0,0,0,.37.23H72v-.92h1.16v2.88h-2c-.75,0-1.25-.4-1.25-1a.83.83,0,0,1,.67-.8.39.39,0,0,1-.22-.23l-.13-.2a.2.2,0,0,0-.18-.13.3.3,0,0,0-.18.06l-.14-.48a1.5,1.5,0,0,1,.75-.21A.9.9,0,0,1,71.25,147Zm.16,1.11c-.2,0-.39.1-.39.29s.18.29.38.29H72v-.58Z"/><path class="cls-3" d="M68,147.08l-.67.45a1.54,1.54,0,0,0-1-.3c-.28,0-.48.05-.47.16s.25.18.63.21c.71.05,1.43.13,1.43.9s-.64,1-1.57,1A1.75,1.75,0,0,1,65,149l.56-.47a1.2,1.2,0,0,0,.81.24c.27,0,.46,0,.47-.15s-.27-.15-.62-.18c-.74,0-1.44-.19-1.44-.92s.7-1,1.65-1A2,2,0,0,1,68,147.08Z"/><path class="cls-3" d="M64.66,148c0,.92-.76,1.5-1.9,1.5s-1.9-.58-1.9-1.5.76-1.5,1.9-1.5S64.66,147.06,64.66,148ZM62,148c0,.4.29.62.74.62s.74-.22.74-.62-.3-.62-.74-.62S62,147.59,62,148Z"/><path class="cls-3" d="M59.36,145.92c-.89.08-1.57-.62-1.67-1.67a1.55,1.55,0,0,1,.81-1.68l.27,1.06c-.17.08-.23.29-.21.54a.61.61,0,0,0,.69.59c.38,0,.6-.4.55-.86s-.19-.58-.4-.6l.11,1.07-.54.06-.22-2.19,1.68-.16.08.85-.4.08a1.39,1.39,0,0,1,.58,1.08A1.56,1.56,0,0,1,59.36,145.92Z"/><path class="cls-3" d="M58.93,141.91c-.86.34-1.67-.16-2.09-1.22s-.16-2,.7-2.32,1.67.16,2.09,1.22S59.79,141.57,58.93,141.91Zm-1-2.46a.64.64,0,0,0-.3.92c.16.41.48.61.85.46a.64.64,0,0,0,.3-.91C58.65,139.5,58.33,139.31,58,139.45Z"/><path class="cls-3" d="M57.41,138.15c-.74.56-1.66.3-2.35-.6s-.69-1.87,0-2.43,1.65-.3,2.34.61S58.15,137.59,57.41,138.15Zm-1.6-2.1a.63.63,0,0,0-.05,1,.63.63,0,1,0,.05-1Z"/><path class="cls-3" d="M54,136l-1.35-1a1.46,1.46,0,1,1,1.75-2.28l1.35,1Zm0-2.61a.62.62,0,1,0-.75,1l.38.3.75-1Z"/><path class="cls-3" d="M50.6,131l-.77.24a1.58,1.58,0,0,0-.86-.56c-.27-.08-.47-.1-.5,0s.19.24.55.38c.67.26,1.33.54,1.11,1.28s-.9.75-1.78.49a1.77,1.77,0,0,1-1.19-.88l.67-.29a1.19,1.19,0,0,0,.7.46c.26.08.46.09.5,0s-.21-.22-.54-.34c-.7-.26-1.33-.6-1.12-1.3s1-.78,1.87-.5A2,2,0,0,1,50.6,131Z"/><path class="cls-3" d="M46.63,131.51c-.39.84-1.32,1-2.35.55s-1.48-1.34-1.08-2.17,1.33-1,2.36-.55S47,130.68,46.63,131.51Zm-2.38-1.13a.64.64,0,0,0,.4.88.65.65,0,0,0,.94-.24c.17-.36,0-.69-.41-.88A.64.64,0,0,0,44.25,130.38Z"/><path class="cls-3" d="M41.5,127.26v-2.64h.88v1.48h.36v-1.24h.74v1.24h.89v1.16Z"/><path class="cls-3" d="M41.5,123.68V122.3l2.87-1.16v1.2l-.43.14v1l.43.15v1.2Zm1.76-1-1,.34,1,.34Z"/><path class="cls-3" d="M43.9,119.06l-.21.12a.4.4,0,0,0-.24.37v.24h.92V121H41.5v-2c0-.75.4-1.24,1-1.24a.81.81,0,0,1,.79.66.47.47,0,0,1,.24-.22l.2-.12a.23.23,0,0,0,.13-.19.27.27,0,0,0-.06-.17l.47-.15a1.4,1.4,0,0,1,.21.75A.87.87,0,0,1,43.9,119.06Zm-1.1.16c0-.2-.11-.38-.3-.38s-.28.17-.28.38v.57h.58Z"/><path class="cls-3" d="M43.84,115.71l-.45-.66a1.6,1.6,0,0,0,.29-1c0-.28,0-.47-.15-.47s-.18.25-.21.63c0,.71-.14,1.43-.9,1.43s-1-.64-1-1.56a1.81,1.81,0,0,1,.49-1.4l.47.56a1.22,1.22,0,0,0-.24.81c0,.27.05.47.16.47s.15-.26.17-.62c0-.73.2-1.44.93-1.44s1,.7,1,1.65A2,2,0,0,1,43.84,115.71Z"/><path class="cls-3" d="M42.94,112.3c-.93,0-1.5-.76-1.5-1.9s.57-1.9,1.5-1.9,1.5.76,1.5,1.9S43.86,112.3,42.94,112.3Zm0-2.64c-.4,0-.62.29-.62.74s.22.74.62.74.62-.3.62-.74S43.33,109.66,42.94,109.66Z"/><path class="cls-3" d="M42.94,106.61c-.9,0-1.5-.77-1.5-1.82a1.52,1.52,0,0,1,1-1.59l.16,1.07a.51.51,0,0,0-.26.52.6.6,0,0,0,.62.66c.38,0,.64-.34.64-.8s-.14-.6-.34-.64v1.08H42.7V102.9h1.67v.85l-.4,0a1.37,1.37,0,0,1,.47,1.13A1.55,1.55,0,0,1,42.94,106.61Z"/><path class="cls-3" d="M42.94,102.66c-.93,0-1.5-.76-1.5-1.9s.57-1.89,1.5-1.89,1.5.75,1.5,1.89S43.86,102.66,42.94,102.66Zm0-2.64c-.4,0-.62.3-.62.74s.22.74.62.74.62-.29.62-.74S43.33,100,42.94,100Z"/><path class="cls-3" d="M42.94,98.67c-.93,0-1.5-.76-1.5-1.9s.57-1.9,1.5-1.9,1.5.76,1.5,1.9S43.86,98.67,42.94,98.67Zm0-2.64c-.4,0-.62.29-.62.74s.22.74.62.74.62-.3.62-.74S43.33,96,42.94,96Z"/><path class="cls-3" d="M41.5,94.6V92.9c0-1.05.57-1.72,1.44-1.72s1.43.67,1.43,1.72v1.7ZM43.56,93a.61.61,0,0,0-.62-.68.6.6,0,0,0-.62.68v.48h1.24Z"/><path class="cls-3" d="M43.84,89.29l-.45-.67a1.59,1.59,0,0,0,.29-1c0-.29,0-.48-.15-.48s-.18.25-.21.64c0,.71-.14,1.42-.9,1.42s-1-.64-1-1.56a1.82,1.82,0,0,1,.49-1.4l.47.56a1.22,1.22,0,0,0-.24.81c0,.27.05.47.16.47s.15-.26.17-.61c0-.74.2-1.45.93-1.45s1,.7,1,1.66A2,2,0,0,1,43.84,89.29Z"/><path class="cls-3" d="M42.94,85.9c-.93,0-1.5-.76-1.5-1.9s.57-1.9,1.5-1.9,1.5.76,1.5,1.9S43.86,85.9,42.94,85.9Zm0-2.64c-.4,0-.62.29-.62.74s.22.74.62.74.62-.3.62-.74S43.33,83.26,42.94,83.26Z"/><path class="cls-3" d="M41.5,80.12V77.48h.88V79h.36V77.72h.74V79h.89v1.16Z"/><path class="cls-3" d="M41.5,76.52V75.14L44.37,74v1.2l-.43.14v1.05l.43.14v1.2Zm1.76-1-1,.33,1,.35Z"/><path class="cls-3" d="M43.9,71.92l-.21.11a.4.4,0,0,0-.24.37v.25h.92v1.16H41.5v-2c0-.75.4-1.25,1-1.25a.81.81,0,0,1,.79.66A.47.47,0,0,1,43.5,71l.2-.12a.2.2,0,0,0,.13-.18.3.3,0,0,0-.06-.18l.47-.14a1.37,1.37,0,0,1,.21.74A.89.89,0,0,1,43.9,71.92Zm-1.1.15c0-.2-.11-.38-.3-.38s-.28.17-.28.38v.58h.58Z"/><path class="cls-3" d="M44.41,70.17l.6-.53a1.56,1.56,0,0,0,1,.16c.28,0,.46-.1.44-.21s-.27-.15-.65-.13c-.71,0-1.44.05-1.54-.71s.51-1,1.43-1.17a1.79,1.79,0,0,1,1.45.31l-.5.54a1.17,1.17,0,0,0-.83-.13c-.27,0-.46.1-.45.21s.28.11.64.09c.74,0,1.45,0,1.55.73s-.56,1.1-1.51,1.23A2,2,0,0,1,44.41,70.17Z"/><path class="cls-3" d="M47.73,68.83c-.35-.86.14-1.68,1.19-2.11s2-.19,2.33.67-.14,1.68-1.19,2.11S48.08,69.68,47.73,68.83Zm2.45-1a.64.64,0,0,0-.92-.3c-.42.17-.61.49-.46.86a.64.64,0,0,0,.92.29C50.13,68.51,50.33,68.2,50.18,67.83Z"/><path class="cls-3" d="M52.93,66.28a1.62,1.62,0,0,1,.24-2.35A1.55,1.55,0,0,1,55,63.51l-.65.87a.51.51,0,0,0-.56.18.6.6,0,0,0,0,.9.7.7,0,0,0,1-.1c.24-.25.34-.52.22-.7l-.77.76L53.84,65,55.4,63.5l1.18,1.19-.61.6L55.66,65a1.37,1.37,0,0,1-.48,1.11A1.55,1.55,0,0,1,52.93,66.28Z"/><path class="cls-3" d="M55.76,63.43C55,63,54.83,62,55.4,61s1.44-1.36,2.25-.9.92,1.4.36,2.39S56.56,63.89,55.76,63.43Zm1.31-2.3a.65.65,0,0,0-.91.34c-.21.39-.17.76.18,1s.68,0,.9-.33S57.42,61.33,57.07,61.13Z"/><path class="cls-3" d="M57.75,59.88c-.9-.22-1.28-1.09-1-2.2s1-1.72,1.9-1.5,1.28,1.1,1,2.21S58.64,60.1,57.75,59.88Zm.62-2.57c-.38-.09-.67.14-.78.58s0,.77.43.86.67-.14.78-.57S58.76,57.41,58.37,57.31Z"/><path class="cls-3" d="M56.86,55.13l.54-1.61c.34-1,1.1-1.45,1.92-1.17a1.5,1.5,0,0,1,.81,2.09l-.54,1.61Zm2.46-.86a.6.6,0,0,0-.37-.84.59.59,0,0,0-.8.44l-.15.46,1.17.4Z"/><path class="cls-3" d="M61.9,52.92l.67-.45a1.57,1.57,0,0,0,1,.3c.29,0,.48-.05.48-.16s-.25-.18-.64-.21c-.71,0-1.42-.13-1.42-.9s.64-1,1.56-1a1.79,1.79,0,0,1,1.4.5l-.57.47a1.19,1.19,0,0,0-.8-.24c-.28,0-.47,0-.47.15s.26.15.61.18c.74.05,1.44.19,1.44.92s-.69,1-1.65,1A2,2,0,0,1,61.9,52.92Z"/><path class="cls-3" d="M65.29,52c0-.92.76-1.5,1.9-1.5s1.9.58,1.9,1.5-.76,1.5-1.9,1.5S65.29,52.94,65.29,52Zm2.64,0c0-.4-.29-.62-.74-.62s-.74.22-.74.62.3.62.74.62S67.93,52.41,67.93,52Z"/><path class="cls-3" d="M71,50.58h2.64v.88H72.17v.37h1.24v.74H72.17v.89H71Z"/><path class="cls-3" d="M74.56,50.58h1.38l1.16,2.88H75.9L75.76,53H74.71l-.14.44h-1.2Zm1,1.76-.33-1-.35,1Z"/><path class="cls-3" d="M79.15,53,79,52.77a.43.43,0,0,0-.37-.23h-.25v.92H77.26V50.58h2c.75,0,1.25.4,1.25,1a.83.83,0,0,1-.67.8.39.39,0,0,1,.22.23l.13.2a.2.2,0,0,0,.18.13.3.3,0,0,0,.18-.06l.14.48a1.5,1.5,0,0,1-.75.21A.9.9,0,0,1,79.15,53ZM79,51.88c.2,0,.39-.1.39-.29s-.18-.29-.38-.29h-.58v.58Z"/><path class="cls-3" d="M82.43,52.92l.67-.45a1.58,1.58,0,0,0,1,.3c.28,0,.47-.05.47-.16s-.25-.18-.63-.21c-.72,0-1.43-.13-1.43-.9s.64-1,1.56-1a1.79,1.79,0,0,1,1.4.5l-.56.47a1.22,1.22,0,0,0-.81-.24c-.27,0-.47,0-.47.15s.26.15.61.18c.74.05,1.45.19,1.45.92s-.7,1-1.65,1A2.05,2.05,0,0,1,82.43,52.92Z"/><path class="cls-3" d="M85.8,52c0-.92.76-1.5,1.9-1.5s1.9.58,1.9,1.5-.76,1.5-1.9,1.5S85.8,52.94,85.8,52Zm2.64,0c0-.4-.29-.62-.74-.62S87,51.62,87,52s.3.62.74.62S88.44,52.41,88.44,52Z"/><path class="cls-3" d="M91.45,52c0-.89.76-1.5,1.82-1.5a1.52,1.52,0,0,1,1.58,1l-1.07.16a.51.51,0,0,0-.52-.26.6.6,0,0,0-.65.62c0,.38.33.64.79.64s.61-.13.64-.34H93v-.54h2.2v1.68H94.3l0-.41a1.37,1.37,0,0,1-1.13.47A1.55,1.55,0,0,1,91.45,52Z"/><path class="cls-3" d="M95.37,52c0-.92.76-1.5,1.9-1.5s1.9.58,1.9,1.5-.76,1.5-1.9,1.5S95.37,52.94,95.37,52ZM98,52c0-.4-.3-.62-.74-.62s-.74.22-.74.62.29.62.74.62S98,52.41,98,52Z"/><path class="cls-3" d="M99.32,52c0-.92.76-1.5,1.9-1.5s1.9.58,1.9,1.5-.76,1.5-1.9,1.5S99.32,52.94,99.32,52ZM102,52c0-.4-.3-.62-.74-.62s-.74.22-.74.62.3.62.74.62S102,52.41,102,52Z"/><path class="cls-3" d="M103.36,50.58h1.7c1,0,1.72.58,1.72,1.44s-.68,1.44-1.72,1.44h-1.7Zm1.6,2.06a.62.62,0,1,0,0-1.24h-.48v1.24Z"/><path class="cls-3" d="M108.6,52.92l.66-.45a1.6,1.6,0,0,0,1,.3c.28,0,.47-.05.47-.16s-.25-.18-.63-.21c-.72,0-1.43-.13-1.43-.9s.64-1,1.56-1a1.79,1.79,0,0,1,1.4.5l-.56.47a1.22,1.22,0,0,0-.81-.24c-.27,0-.47,0-.47.15s.26.15.61.18c.74.05,1.45.19,1.45.92s-.7,1-1.65,1A2,2,0,0,1,108.6,52.92Z"/><path class="cls-3" d="M112,52c0-.92.76-1.5,1.9-1.5s1.9.58,1.9,1.5-.76,1.5-1.9,1.5S112,52.94,112,52Zm2.64,0c0-.4-.29-.62-.74-.62s-.74.22-.74.62.3.62.74.62S114.6,52.41,114.6,52Z"/><path class="cls-3" d="M117.68,50.58h2.64v.88h-1.48v.37h1.24v.74h-1.24v.89h-1.16Z"/><path class="cls-3" d="M121.25,50.58h1.38l1.16,2.88h-1.2l-.14-.44h-1l-.14.44h-1.2Zm1,1.76-.33-1-.35,1Z"/><path class="cls-3" d="M125.82,53l-.11-.22a.43.43,0,0,0-.37-.23h-.25v.92h-1.16V50.58h2c.75,0,1.25.4,1.25,1a.83.83,0,0,1-.67.8.39.39,0,0,1,.22.23l.13.2a.2.2,0,0,0,.18.13.3.3,0,0,0,.18-.06l.14.48a1.5,1.5,0,0,1-.75.21A.9.9,0,0,1,125.82,53Zm-.16-1.11c.2,0,.39-.1.39-.29s-.18-.29-.38-.29h-.58v.58Z"/><path class="cls-3" d="M129.11,52.92l.67-.45a1.54,1.54,0,0,0,1,.3c.28,0,.48-.05.47-.16s-.25-.18-.63-.21c-.71,0-1.43-.13-1.43-.9s.64-1,1.57-1a1.76,1.76,0,0,1,1.39.5l-.56.47a1.2,1.2,0,0,0-.81-.24c-.27,0-.46,0-.47.15s.27.15.62.18c.74.05,1.44.19,1.44.92s-.7,1-1.65,1A2,2,0,0,1,129.11,52.92Z"/><path class="cls-3" d="M132.48,52c0-.92.76-1.5,1.9-1.5s1.9.58,1.9,1.5-.76,1.5-1.9,1.5S132.48,52.94,132.48,52Zm2.64,0c0-.4-.29-.62-.74-.62s-.74.22-.74.62.3.62.74.62S135.12,52.41,135.12,52Z"/><path class="cls-3" d="M138.12,52a1.62,1.62,0,0,1,1.82-1.5,1.53,1.53,0,0,1,1.59,1l-1.08.16c-.06-.18-.26-.26-.52-.26a.6.6,0,0,0-.65.62c0,.38.34.64.8.64s.6-.13.64-.34h-1.08v-.54h2.19v1.68H141l0-.41a1.35,1.35,0,0,1-1.12.47A1.55,1.55,0,0,1,138.12,52Z"/><path class="cls-3" d="M142,52c0-.92.76-1.5,1.9-1.5s1.9.58,1.9,1.5-.76,1.5-1.9,1.5S142,52.94,142,52Zm2.64,0c0-.4-.29-.62-.74-.62s-.74.22-.74.62.3.62.74.62S144.67,52.41,144.67,52Z"/><path class="cls-3" d="M146,52c0-.92.76-1.5,1.9-1.5s1.9.58,1.9,1.5-.76,1.5-1.9,1.5S146,52.94,146,52Zm2.64,0c0-.4-.3-.62-.74-.62s-.74.22-.74.62.29.62.74.62S148.64,52.41,148.64,52Z"/><path class="cls-3" d="M150,50.58h1.7c1,0,1.72.58,1.72,1.44s-.68,1.44-1.72,1.44H150Zm1.6,2.06a.62.62,0,1,0,0-1.24h-.48v1.24Z"/><path class="cls-3" d="M155.27,52.92l.66-.45a1.6,1.6,0,0,0,1,.3c.28,0,.47-.05.47-.16s-.25-.18-.63-.21c-.72,0-1.43-.13-1.43-.9s.64-1,1.56-1a1.79,1.79,0,0,1,1.4.5l-.56.47a1.22,1.22,0,0,0-.81-.24c-.27,0-.47,0-.47.15s.26.15.61.18c.74.05,1.45.19,1.45.92s-.7,1-1.65,1A2,2,0,0,1,155.27,52.92Z"/><path class="cls-3" d="M158.65,52c0-.92.76-1.5,1.9-1.5s1.9.58,1.9,1.5-.76,1.5-1.9,1.5S158.65,52.94,158.65,52Zm2.64,0c0-.4-.29-.62-.74-.62s-.74.22-.74.62.3.62.74.62S161.29,52.41,161.29,52Z"/><path class="cls-3" d="M164.37,50.58H167v.88h-1.48v.37h1.24v.74h-1.24v.89h-1.16Z"/><path class="cls-3" d="M167.91,50.58h1.38l1.16,2.88h-1.2l-.14-.44h-1l-.15.44h-1.2Zm1,1.76-.34-1-.34,1Z"/><path class="cls-3" d="M172.49,53l-.11-.22a.42.42,0,0,0-.37-.23h-.25v.92H170.6V50.58h2c.75,0,1.25.4,1.25,1a.83.83,0,0,1-.67.8.4.4,0,0,1,.23.23l.12.2a.2.2,0,0,0,.18.13.3.3,0,0,0,.18-.06l.14.48a1.5,1.5,0,0,1-.75.21A.9.9,0,0,1,172.49,53Zm-.15-1.11c.19,0,.38-.1.38-.29s-.17-.29-.38-.29h-.58v.58Z"/><path class="cls-3" d="M175.71,52.92l.67-.45a1.57,1.57,0,0,0,1,.3c.29,0,.48-.05.48-.16s-.25-.18-.64-.21c-.71,0-1.42-.13-1.42-.9s.64-1,1.56-1a1.79,1.79,0,0,1,1.4.5l-.56.47a1.22,1.22,0,0,0-.81-.24c-.27,0-.47,0-.47.15s.26.15.61.18c.74.05,1.44.19,1.44.92s-.69,1-1.65,1A2,2,0,0,1,175.71,52.92Z"/><path class="cls-3" d="M179,52c0-.92.75-1.5,1.9-1.5s1.89.58,1.89,1.5-.76,1.5-1.89,1.5S179,52.94,179,52Zm2.64,0c0-.4-.3-.62-.74-.62s-.74.22-.74.62.29.62.74.62S181.67,52.41,181.67,52Z"/><path class="cls-3" d="M184.53,52c0-.89.76-1.5,1.82-1.5a1.52,1.52,0,0,1,1.58,1l-1.07.16a.51.51,0,0,0-.52-.26.6.6,0,0,0-.65.62c0,.38.33.64.79.64s.61-.13.65-.34h-1.08v-.54h2.19v1.68h-.86l0-.41a1.37,1.37,0,0,1-1.13.47A1.55,1.55,0,0,1,184.53,52Z"/><path class="cls-3" d="M188.37,52c0-.92.76-1.5,1.9-1.5s1.9.58,1.9,1.5-.76,1.5-1.9,1.5S188.37,52.94,188.37,52ZM191,52c0-.4-.29-.62-.74-.62s-.74.22-.74.62.3.62.74.62S191,52.41,191,52Z"/><path class="cls-3" d="M192.26,52c0-.92.76-1.5,1.9-1.5s1.9.58,1.9,1.5-.76,1.5-1.9,1.5S192.26,52.94,192.26,52Zm2.64,0c0-.4-.3-.62-.74-.62s-.74.22-.74.62.29.62.74.62S194.9,52.41,194.9,52Z"/><path class="cls-3" d="M196.23,50.58h1.7c1,0,1.72.58,1.72,1.44s-.67,1.44-1.72,1.44h-1.7Zm1.6,2.06a.62.62,0,1,0,0-1.24h-.48v1.24Z"/><path class="cls-3" d="M200,54.46l.51.62a1.58,1.58,0,0,0-.2,1c0,.28.1.47.21.46s.15-.27.14-.65c0-.72,0-1.44.76-1.52s1,.54,1.13,1.46a1.82,1.82,0,0,1-.35,1.44l-.53-.51a1.23,1.23,0,0,0,.16-.83c0-.27-.09-.46-.2-.45s-.13.28-.11.63c0,.74-.05,1.46-.78,1.53s-1.09-.6-1.18-1.54A2,2,0,0,1,200,54.46Z"/><path class="cls-3" d="M201.17,57.71c.87-.32,1.67.2,2.06,1.28s.1,2-.77,2.3-1.67-.21-2.06-1.28S200.3,58,201.17,57.71Zm.9,2.48a.63.63,0,0,0,.33-.9c-.15-.42-.46-.63-.84-.49s-.48.49-.33.91S201.69,60.33,202.07,60.19Z"/><path class="cls-3" d="M203.36,62.81a1.61,1.61,0,0,1,2.33.38A1.52,1.52,0,0,1,206,65l-.83-.7a.53.53,0,0,0-.14-.57.61.61,0,0,0-.9-.08.7.7,0,0,0,0,1c.23.26.5.37.68.26l-.71-.81.41-.36L206,65.44l-1.26,1.11-.57-.65.28-.29a1.36,1.36,0,0,1-1.09-.54A1.55,1.55,0,0,1,203.36,62.81Z"/><path class="cls-3" d="M206,65.72c.51-.77,1.46-.83,2.42-.2s1.27,1.53.75,2.31-1.46.83-2.41.2S205.44,66.5,206,65.72Zm2.21,1.46a.75.75,0,0,0-1.24-.81.75.75,0,0,0,1.24.81Z"/><path class="cls-3" d="M209.22,67.88c.29-.88,1.19-1.19,2.27-.83s1.63,1.14,1.34,2-1.19,1.18-2.27.83S208.93,68.75,209.22,67.88Zm2.51.82c.12-.37-.09-.68-.51-.82a.64.64,0,0,0-.9.36c-.12.38.09.68.51.82A.64.64,0,0,0,211.73,68.7Z"/><path class="cls-3" d="M213.15,67.64l1.7.1c1.05.07,1.69.68,1.63,1.55s-.76,1.4-1.8,1.33l-1.7-.1Zm1.48,2.16a.62.62,0,1,0,.07-1.24l-.48,0-.07,1.24Z"/><path class="cls-3" d="M216.16,71.15l.45.67a1.57,1.57,0,0,0-.29,1c0,.29,0,.48.15.47s.18-.24.21-.63c0-.71.14-1.42.9-1.42s1,.64,1,1.56a1.78,1.78,0,0,1-.49,1.39l-.47-.56a1.18,1.18,0,0,0,.24-.8c0-.27-.05-.47-.16-.47s-.15.26-.17.61c-.06.74-.2,1.44-.93,1.44s-1-.7-1-1.65A2,2,0,0,1,216.16,71.15Z"/><path class="cls-3" d="M217.06,74.59c.93,0,1.5.76,1.5,1.9s-.57,1.9-1.5,1.9-1.5-.76-1.5-1.9S216.14,74.59,217.06,74.59Zm0,2.64c.4,0,.62-.3.62-.74s-.22-.74-.62-.74-.62.29-.62.74S216.67,77.23,217.06,77.23Z"/><path class="cls-3" d="M218.5,80.39V83h-.88V81.55h-.36v1.24h-.74V81.55h-.9V80.39Z"/><path class="cls-3" d="M218.5,84v1.38l-2.88,1.16v-1.2l.44-.14v-1l-.44-.15v-1.2Zm-1.76,1,1-.34-1-.34Z"/><path class="cls-3" d="M216.1,88.63l.21-.11a.42.42,0,0,0,.23-.37V87.9h-.92V86.74h2.88v2c0,.75-.4,1.25-1,1.25a.81.81,0,0,1-.79-.67.4.4,0,0,1-.24.22l-.2.13a.2.2,0,0,0-.13.18.3.3,0,0,0,.06.18l-.47.14a1.41,1.41,0,0,1-.22-.75A.89.89,0,0,1,216.1,88.63Zm1.1-.16c0,.2.11.39.3.39s.28-.17.28-.38V87.9h-.58Z"/><path class="cls-3" d="M217.06,92.06a1.61,1.61,0,0,1,1.5,1.81,1.52,1.52,0,0,1-1,1.59l-.16-1.07a.51.51,0,0,0,.26-.52.6.6,0,0,0-.62-.66c-.38,0-.64.34-.64.8s.14.6.34.64V93.57h.54v2.19h-1.68v-.85l.41,0a1.37,1.37,0,0,1-.47-1.13A1.55,1.55,0,0,1,217.06,92.06Z"/><path class="cls-3" d="M217.06,96c.93,0,1.5.76,1.5,1.89s-.57,1.9-1.5,1.9-1.5-.76-1.5-1.9S216.14,96,217.06,96Zm0,2.63c.4,0,.62-.29.62-.74s-.22-.73-.62-.73-.62.29-.62.73S216.67,98.65,217.06,98.65Z"/><path class="cls-3" d="M217.06,100c.93,0,1.5.76,1.5,1.9s-.57,1.89-1.5,1.89-1.5-.75-1.5-1.89S216.14,100,217.06,100Zm0,2.64c.4,0,.62-.3.62-.74s-.22-.74-.62-.74-.62.29-.62.74S216.67,102.64,217.06,102.64Z"/><path class="cls-3" d="M218.5,104.1v1.7c0,1-.57,1.72-1.44,1.72s-1.44-.68-1.44-1.72v-1.7Zm-2.06,1.6a.62.62,0,1,0,1.24,0v-.48h-1.24Z"/><path class="cls-3" d="M216.16,109.44l.45.66a1.6,1.6,0,0,0-.29,1c0,.28,0,.47.15.47s.18-.25.21-.63c0-.71.14-1.43.9-1.43s1,.64,1,1.56a1.81,1.81,0,0,1-.49,1.4l-.47-.56a1.22,1.22,0,0,0,.24-.81c0-.27-.05-.47-.16-.47s-.15.26-.17.62c-.06.74-.2,1.44-.93,1.44s-1-.7-1-1.65A2,2,0,0,1,216.16,109.44Z"/><path class="cls-3" d="M217.06,112.86c.93,0,1.5.76,1.5,1.9s-.57,1.9-1.5,1.9-1.5-.76-1.5-1.9S216.14,112.86,217.06,112.86Zm0,2.64c.4,0,.62-.3.62-.74s-.22-.74-.62-.74-.62.3-.62.74S216.67,115.5,217.06,115.5Z"/><path class="cls-3" d="M218.5,118.67v2.64h-.88v-1.48h-.36v1.24h-.74v-1.24h-.9v-1.16Z"/><path class="cls-3" d="M218.5,122.27v1.38l-2.88,1.16v-1.2l.44-.14v-1l-.44-.14v-1.2Zm-1.76,1,1-.33-1-.35Z"/><path class="cls-3" d="M216.1,126.89l.21-.11a.39.39,0,0,0,.23-.37v-.25h-.92V125h2.88v2c0,.75-.4,1.25-1,1.25a.81.81,0,0,1-.79-.66.47.47,0,0,1-.24.22l-.2.12a.2.2,0,0,0-.13.18.28.28,0,0,0,.06.18l-.47.14a1.37,1.37,0,0,1-.22-.74A.9.9,0,0,1,216.1,126.89Zm1.1-.15c0,.2.11.38.3.38s.28-.17.28-.38v-.58h-.58Z"/><path class="cls-3" d="M216.09,130.89l-.63.5a1.55,1.55,0,0,0-1-.23c-.28,0-.47.08-.46.19s.26.16.64.16c.72,0,1.44,0,1.49.8s-.56,1-1.48,1.09a1.83,1.83,0,0,1-1.43-.39l.52-.52a1.21,1.21,0,0,0,.82.19c.28,0,.47-.08.46-.19s-.27-.13-.62-.13c-.74,0-1.45-.09-1.51-.82s.63-1.06,1.57-1.13A2,2,0,0,1,216.09,130.89Z"/><path class="cls-3" d="M212.78,132c.3.88-.24,1.66-1.33,2s-2,.06-2.28-.82.25-1.66,1.33-2S212.49,131.14,212.78,132Zm-2.5.83c.12.38.47.5.9.36s.63-.45.5-.82-.48-.5-.9-.36S210.15,132.48,210.28,132.85Z"/><path class="cls-3" d="M207.57,134.13a1.62,1.62,0,0,1-.41,2.33,1.54,1.54,0,0,1-1.85.28l.72-.82a.49.49,0,0,0,.56-.14.61.61,0,0,0,.1-.9.7.7,0,0,0-1,0c-.27.23-.38.49-.28.68l.83-.7.35.41-1.67,1.42-1.09-1.28.65-.56.3.29a1.38,1.38,0,0,1,.55-1.09A1.56,1.56,0,0,1,207.57,134.13Z"/><path class="cls-3" d="M204.58,136.7c.76.52.8,1.47.16,2.41s-1.55,1.24-2.31.72-.81-1.47-.16-2.41S203.81,136.18,204.58,136.7Zm-1.49,2.17c.32.23.67.11.92-.26a.63.63,0,0,0-.09-1,.64.64,0,0,0-.93.26A.63.63,0,0,0,203.09,138.87Z"/><path class="cls-3" d="M202.35,140c.87.3,1.17,1.2.8,2.28s-1.16,1.61-2,1.31-1.17-1.2-.8-2.28S201.48,139.7,202.35,140Zm-.86,2.49a.63.63,0,0,0,.83-.49c.14-.42,0-.78-.35-.91a.64.64,0,0,0-.82.5C201,142,201.12,142.37,201.49,142.49Z"/><path class="cls-3" d="M202.54,143.94l-.11,1.7c-.07,1-.7,1.68-1.56,1.62s-1.39-.77-1.32-1.82l.12-1.7Zm-2.16,1.46a.6.6,0,0,0,.57.72.61.61,0,0,0,.67-.64l0-.48-1.24-.08Z"/><path class="cls-3" d="M199.09,147.08l-.67.45a1.54,1.54,0,0,0-1-.3c-.29,0-.48.05-.47.16s.24.18.63.21c.71.05,1.43.13,1.43.9s-.64,1-1.57,1a1.75,1.75,0,0,1-1.39-.5l.56-.47a1.19,1.19,0,0,0,.8.24c.28,0,.47,0,.48-.15s-.27-.15-.62-.18c-.74,0-1.44-.19-1.44-.92s.7-1,1.65-1A2,2,0,0,1,199.09,147.08Z"/><path class="cls-3" d="M195.79,148c0,.92-.76,1.5-1.9,1.5s-1.9-.58-1.9-1.5.76-1.5,1.9-1.5S195.79,147.06,195.79,148Zm-2.64,0c0,.4.3.62.74.62s.74-.22.74-.62-.29-.62-.74-.62S193.15,147.59,193.15,148Z"/><path class="cls-3" d="M190.21,149.42h-2.63v-.88h1.47v-.37h-1.23v-.74h1.23v-.89h1.16Z"/><path class="cls-3" d="M186.72,149.42h-1.38l-1.16-2.88h1.2l.14.44h1l.14-.44h1.2Zm-1-1.76.34,1,.34-1Z"/><path class="cls-3" d="M182.23,147l.12.22a.41.41,0,0,0,.37.23H183v-.92h1.16v2.88h-2c-.75,0-1.24-.4-1.24-1a.83.83,0,0,1,.66-.8.41.41,0,0,1-.22-.23l-.12-.2a.23.23,0,0,0-.19-.13.27.27,0,0,0-.17.06l-.15-.48a1.5,1.5,0,0,1,.75-.21A.88.88,0,0,1,182.23,147Zm.16,1.11c-.2,0-.38.1-.38.29s.17.29.37.29H183v-.58Z"/><path class="cls-3" d="M179.09,147.08l-.67.45a1.54,1.54,0,0,0-1-.3c-.29,0-.48.05-.47.16s.24.18.63.21c.71.05,1.43.13,1.43.9s-.64,1-1.57,1a1.75,1.75,0,0,1-1.39-.5l.56-.47a1.19,1.19,0,0,0,.8.24c.28,0,.47,0,.48-.15s-.27-.15-.62-.18c-.74,0-1.44-.19-1.44-.92s.7-1,1.65-1A2,2,0,0,1,179.09,147.08Z"/><path class="cls-3" d="M175.77,148c0,.92-.75,1.5-1.9,1.5S172,148.9,172,148s.76-1.5,1.89-1.5S175.77,147.06,175.77,148Zm-2.63,0c0,.4.29.62.73.62s.74-.22.74-.62-.29-.62-.74-.62S173.14,147.59,173.14,148Z"/><path class="cls-3" d="M170.28,148a1.61,1.61,0,0,1-1.81,1.5,1.52,1.52,0,0,1-1.59-1l1.07-.16a.51.51,0,0,0,.52.26.6.6,0,0,0,.65-.62c0-.38-.33-.64-.79-.64s-.6.13-.64.34h1.08v.54h-2.2v-1.68h.87l0,.41a1.37,1.37,0,0,1,1.13-.47A1.55,1.55,0,0,1,170.28,148Z"/><path class="cls-3" d="M166.43,148c0,.92-.76,1.5-1.9,1.5s-1.9-.58-1.9-1.5.76-1.5,1.9-1.5S166.43,147.06,166.43,148Zm-2.64,0c0,.4.3.62.74.62s.74-.22.74-.62-.29-.62-.74-.62S163.79,147.59,163.79,148Z"/><path class="cls-3" d="M162.54,148c0,.92-.76,1.5-1.9,1.5s-1.9-.58-1.9-1.5.76-1.5,1.9-1.5S162.54,147.06,162.54,148Zm-2.64,0c0,.4.3.62.74.62s.74-.22.74-.62-.3-.62-.74-.62S159.9,147.59,159.9,148Z"/><path class="cls-3" d="M158.57,149.42h-1.7c-1.05,0-1.72-.58-1.72-1.44s.67-1.44,1.72-1.44h1.7Zm-1.6-2.06a.62.62,0,1,0,0,1.24h.48v-1.24Z"/><path class="cls-3" d="M153.48,147.08l-.66.45a1.6,1.6,0,0,0-1-.3c-.28,0-.47.05-.47.16s.25.18.63.21c.71.05,1.43.13,1.43.9s-.64,1-1.56,1a1.79,1.79,0,0,1-1.4-.5l.56-.47a1.22,1.22,0,0,0,.81.24c.27,0,.47,0,.47-.15s-.26-.15-.61-.18c-.74,0-1.45-.19-1.45-.92s.7-1,1.65-1A2,2,0,0,1,153.48,147.08Z"/><path class="cls-3" d="M150.19,148c0,.92-.76,1.5-1.9,1.5s-1.9-.58-1.9-1.5.76-1.5,1.9-1.5S150.19,147.06,150.19,148Zm-2.64,0c0,.4.3.62.74.62s.74-.22.74-.62-.3-.62-.74-.62S147.55,147.59,147.55,148Z"/></g><g class="cls-5"><path class="cls-3" d="M109.33,116.57c.55-1.86-.22-3.77-1.5-5.8a27.72,27.72,0,0,1-4.22-13.14,64.82,64.82,0,0,0-1.27-7.79c-.5-2.64-2.43-4.34-4.27-6.07-1-1-2.18-1.88-3.13-2.94-2.26-2.51-2.12-5,.27-7.38,3.84-3.79,11.18-4.82,15.62-.89,1.78,1.57,1.81,1.41,3.8,0a47.15,47.15,0,0,1,7.06-4.44c4.39-2,8.85-1.44,13.13.68a1.44,1.44,0,0,1,.39.25,13,13,0,0,0,2.54,2.29,14.28,14.28,0,0,0,3.34.76c2,.49,3.48,2,5,3.22,1.4,1.12,1.38,1.12,2.7-.17,1.91-1.87,3.77-3.79,5.78-5.55a8.59,8.59,0,0,1,5.91-2.35,5.43,5.43,0,0,1,4.69,2.52c1.65,2.35,1.69,4.93,1.11,7.59A24.05,24.05,0,0,1,160,88.71a15.75,15.75,0,0,1-5,3.9,4.73,4.73,0,0,0-2.58,3.78A108.56,108.56,0,0,1,147,113.21c-1.54,4.05-3.81,7.52-7.61,9.84a2.9,2.9,0,0,0-1.1,1.56c-1.48,5-7.21,8.7-12.42,8.42a37.33,37.33,0,0,1-5-.25A15.29,15.29,0,0,1,109.36,121,29.07,29.07,0,0,1,109.33,116.57ZM148.39,95.4c.55-.42.83-.65,1.14-.85,1.31-.89,2.65-1.76,4-2.66a26.59,26.59,0,0,0,10.87-14.22,10.29,10.29,0,0,0,0-6.4,3.34,3.34,0,0,0-4.24-2.48,14.34,14.34,0,0,0-3.46,1.31,27.59,27.59,0,0,0-6.89,5.82c-2.58,2.71-5.39,5.21-8.14,7.76a7.37,7.37,0,0,1-1.51.85l-.16-.25c.38-.43.75-.87,1.15-1.28,1.33-1.3,2.69-2.57,4-3.89,1.13-1.16,1.16-1.72,0-2.8-2.41-2.15-5.18-3.69-8.5-3.41a45.37,45.37,0,0,0-6.33,1.32c-.63.15-1.24.4-1.87.6l-.11-.31c2-2,4.69-2.38,7.57-3.23a20.34,20.34,0,0,0-2-1.53A11.65,11.65,0,0,0,126,68.33c-4.43.69-8,3.08-11.22,6a36.53,36.53,0,0,0-6.71,8.44c-.27.45-.62.85-.94,1.28l-.39-.21a27.66,27.66,0,0,1,1.46-3.6,35.27,35.27,0,0,1,2.82-4,1.16,1.16,0,0,0-.21-1.87c-4.36-3.57-9.21-3.75-14-.91-2.55,1.5-2.74,4.14-.65,6.21,1.43,1.42,2.9,2.8,4.36,4.18a12.37,12.37,0,0,1,3.85,7.62c.29,2.15.65,4.29,1,6.44.56,4,1.13,8.1,3.53,11.56a60.87,60.87,0,0,0,4.52,6c4.61,5.11,10,8.52,17.33,8.15a14.52,14.52,0,0,0,10.4-4.62c3.59-3.81,5.25-8.63,6.8-13.47.8-2.5,1.44-5.06,2.16-7.59.25-.87.52-1.74.82-2.74ZM136.6,124.29c-1.64.31-3.26.49-4.82.92-3.43.93-6.55.09-9.67-1.31a32.31,32.31,0,0,1-9-6.33c-.71-.67-1.46-1.32-2.23-2-2,5,2.48,12.36,8.64,14.48C126.71,132.5,135,129.76,136.6,124.29Z"/><path class="cls-1" d="M116.85,108.25c-1.54-3.16,1.64-13.93,4.56-15.28a16.6,16.6,0,0,1-.5,2.07c-.66,1.73-1.53,3.39-2.07,5.16-.72,2.39-1.21,4.85-1.81,7.27C117,107.65,117,107.83,116.85,108.25Z"/><path class="cls-1" d="M112.13,103.45c-2.19-2.64-.67-13,2.23-14.66C113.26,93.77,111.57,98.44,112.13,103.45Z"/><path class="cls-1" d="M127.93,98.94c-1.24,5.29-3.83,10-3.78,15.52C122.55,111.61,125.25,100.36,127.93,98.94Z"/></g><path class="cls-6" d="M62.9,80.32a2,2,0,0,0-2.5,1.61c1.07-.57,2.21-.16,2.21.9a1.33,1.33,0,0,1-1.39,1.31c-.81,0-1.31-.61-1.31-1.52A2.48,2.48,0,0,1,63,80Zm3.24,0a2,2,0,0,0-2.51,1.61c1.07-.57,2.21-.16,2.21.9a1.32,1.32,0,0,1-1.38,1.31,1.34,1.34,0,0,1-1.32-1.52A2.48,2.48,0,0,1,66.21,80Z"/><path class="cls-6" d="M66.49,80.2h3L70.22,85h0l2.28-4.76h3l-4,7.19H68.15Z"/><path class="cls-6" d="M76,80.2h6.24l-.31,2H78.43l-.13.76h3.06l-.27,1.66H78l-.14.87h3.56l-.31,2H74.82Z"/><path class="cls-6" d="M86.53,86.21l-.16-.62a.79.79,0,0,0-.77-.5H85l-.36,2.3H81.8l1.13-7.19h4.79c1.79,0,2.8.72,2.8,2a2.4,2.4,0,0,1-2,2.34h0a.75.75,0,0,1,.47.61l.21.52a.4.4,0,0,0,.42.29,1,1,0,0,0,.44-.12l.17,1.18a4,4,0,0,1-1.94.52A1.73,1.73,0,0,1,86.53,86.21Zm0-2.76c.66,0,1-.3,1-.85,0-.39-.28-.6-.8-.6H85.53l-.23,1.45Z"/><path class="cls-6" d="M92.85,85,90.78,80.2h3l.85,2.71h0l1.6-2.71h3L95.74,85l-.38,2.4H92.47Z"/><path class="cls-6" d="M103,82.4h-2.13l.35-2.2h7.16L108,82.4h-2.14l-.79,5h-2.89Z"/><path class="cls-6" d="M112.55,86.21l-.16-.62a.79.79,0,0,0-.77-.5h-.56l-.36,2.3h-2.88L109,80.2h4.79c1.79,0,2.8.72,2.8,2a2.4,2.4,0,0,1-2,2.34h0a.75.75,0,0,1,.47.61l.21.52a.4.4,0,0,0,.42.29,1,1,0,0,0,.44-.12l.17,1.18a4,4,0,0,1-1.94.52A1.73,1.73,0,0,1,112.55,86.21Zm0-2.76c.66,0,1-.3,1-.85,0-.39-.28-.6-.8-.6h-1.26l-.23,1.45Z"/><path class="cls-6" d="M116.92,84.45l.67-4.25h2.89l-.64,4.15c-.11.66.25,1,1,1a1.2,1.2,0,0,0,1.34-1l.66-4.15h2.89l-.68,4.31c-.32,2-2,3.07-4.56,3.07S116.61,86.46,116.92,84.45Z"/><path class="cls-6" d="M125.4,85.92l1.81-1.09a3,3,0,0,0,2.25.88c.65,0,1.06-.15,1.06-.43s-.3-.39-.84-.47l-1.06-.14c-1.8-.26-2.57-.86-2.57-2,0-1.86,1.82-2.68,3.91-2.68,1.75,0,3,.58,3.46,1.47l-1.69,1.06a2.44,2.44,0,0,0-1.77-.7c-.65,0-1.12.14-1.12.41s.34.34.89.43l.94.13c1.86.26,2.65.9,2.65,2.09,0,1.79-2,2.73-4.12,2.73C127.34,87.6,125.91,87,125.4,85.92Z"/><path class="cls-6" d="M135.77,82.4h-2.12l.34-2.2h7.16l-.35,2.2h-2.14l-.79,5H135Z"/><path class="cls-6" d="M141.3,80.2h2.9l.56,4.71h0L147,80.2h3.19l.71,4.71h0l2-4.71h2.9l-3.61,7.19h-3.31l-.73-4.69h0l-2.22,4.69h-3.32Z"/><path class="cls-6" d="M155.16,84.44c0-2.68,2.35-4.48,5.21-4.48,2.57,0,4.14,1.24,4.14,3.19,0,2.67-2.36,4.48-5.22,4.48C156.72,87.63,155.16,86.39,155.16,84.44Zm6.43-1c0-.8-.57-1.3-1.53-1.3a1.93,1.93,0,0,0-2,2c0,.81.57,1.31,1.53,1.31A1.94,1.94,0,0,0,161.59,83.46Z"/><path class="cls-6" d="M169.32,86.21l-.16-.62a.79.79,0,0,0-.77-.5h-.56l-.36,2.3h-2.88l1.14-7.19h4.78c1.79,0,2.8.72,2.8,2a2.4,2.4,0,0,1-2,2.34h0a.75.75,0,0,1,.47.61l.21.52a.4.4,0,0,0,.42.29,1,1,0,0,0,.44-.12l.17,1.18a4,4,0,0,1-1.94.52A1.73,1.73,0,0,1,169.32,86.21Zm0-2.76c.66,0,1-.3,1-.85,0-.39-.28-.6-.8-.6h-1.26l-.23,1.45Z"/><path class="cls-6" d="M176,82.4h-2.12l.35-2.2h7.15L181,82.4h-2.14l-.79,5h-2.88Z"/><path class="cls-6" d="M182,80.2h2.88l-.39,2.45h2.36l.39-2.45h2.89L189,87.39h-2.89l.43-2.7h-2.36l-.42,2.7h-2.89Z"/><path class="cls-6" d="M192.65,85l-2.07-4.79h3l.85,2.71h0L196,80.2h3L195.53,85l-.38,2.4h-2.88Z"/><path class="cls-6" d="M197.47,86.32A1.35,1.35,0,0,1,198.94,85a1.18,1.18,0,0,1,1.29,1.18,1.34,1.34,0,0,1-1.45,1.32A1.19,1.19,0,0,1,197.47,86.32Z"/><path class="cls-6" d="M73.63,97.92l1.82-1.09a3,3,0,0,0,2.25.88c.65,0,1.06-.15,1.06-.43s-.3-.39-.84-.47l-1.06-.14c-1.8-.26-2.57-.86-2.57-2,0-1.86,1.82-2.68,3.91-2.68,1.75,0,3,.58,3.46,1.47L80,94.51a2.44,2.44,0,0,0-1.77-.7c-.65,0-1.12.14-1.12.41s.34.34.89.43l.94.13c1.86.26,2.65.9,2.65,2.09,0,1.79-2,2.73-4.12,2.73C75.58,99.6,74.15,99,73.63,97.92Z"/><path class="cls-6" d="M82.93,92.2h2.89l-.39,2.45h2.36l.39-2.45h2.89l-1.14,7.19H87l.43-2.7H85.11l-.43,2.7H81.79Z"/><path class="cls-6" d="M92,92.2h6.24l-.31,2H94.45l-.13.76h3.06l-.27,1.66h-3l-.14.87h3.56l-.31,2H90.83Z"/><path class="cls-6" d="M99.56,97.92l1.82-1.09a3,3,0,0,0,2.25.88c.65,0,1.06-.15,1.06-.43s-.3-.39-.84-.47l-1.06-.14c-1.8-.26-2.57-.86-2.57-2,0-1.86,1.82-2.68,3.91-2.68,1.75,0,3,.58,3.46,1.47l-1.69,1.06a2.44,2.44,0,0,0-1.77-.7c-.65,0-1.12.14-1.12.41s.34.34.89.43l.94.13c1.86.26,2.65.9,2.65,2.09,0,1.79-2,2.73-4.12,2.73C101.51,99.6,100.08,99,99.56,97.92Z"/><path class="cls-6" d="M110.85,92.2h3.44l1.62,7.19h-3l-.16-1.13h-2.45l-.55,1.13h-2.89Zm1.78,4.39-.38-2.45h0L111,96.59Z"/><path class="cls-6" d="M117.5,92.2h2.88l-1.14,7.19h-2.88Z"/><path class="cls-6" d="M121.27,92.2h3.93c2.47,0,3.84,1.06,3.84,3,0,2.69-1.71,4.2-4.8,4.2h-4.11Zm3,5.14a1.7,1.7,0,0,0,1.87-1.87c0-.79-.49-1.22-1.38-1.22h-1.07l-.49,3.09Z"/><path class="cls-6" d="M131.62,92.2h2.9l.56,4.71h0l2.19-4.71h3.19l.7,4.71h0l2-4.71h2.9l-3.61,7.19h-3.3l-.73-4.69h0l-2.22,4.69h-3.32Z"/><path class="cls-6" d="M146.6,92.2h6.24l-.31,2h-3.45l-.13.76H152l-.27,1.66h-3.05l-.14.87h3.56l-.31,2h-6.34Z"/><path class="cls-6" d="M152.89,95.7a2,2,0,0,0,2.52-1.6c-1.08.56-2.22.17-2.22-.91a1.33,1.33,0,0,1,1.39-1.3c.81,0,1.31.61,1.31,1.52a2.47,2.47,0,0,1-3.07,2.64Z"/><path class="cls-6" d="M156.78,92.2h2.89l-.79,4.94H162l-.35,2.25h-6.05Z"/><path class="cls-6" d="M163.48,92.2h2.89l-.79,4.94h3.16l-.35,2.25h-6Z"/><path class="cls-6" d="M172,92.2h4.88c1.61,0,2.6.71,2.6,1.79A1.84,1.84,0,0,1,178,95.73v0a1.37,1.37,0,0,1,1.08,1.39c0,1.3-1.32,2.25-3.08,2.25h-5.19Zm3.46,5.49c.5,0,.82-.26.82-.68s-.24-.52-.63-.52h-1.45l-.19,1.2Zm.32-2.65c.5,0,.79-.28.79-.66s-.22-.48-.61-.48h-1.34L174.41,95Z"/><path class="cls-6" d="M180.57,92.2h6.24l-.31,2h-3.45l-.13.76H186l-.27,1.66h-3.05l-.14.87h3.56l-.31,2h-6.34Z"/><path class="cls-6" d="M60.18,104.2h6.34l-.35,2.2H62.72l-.15.92h2.86l-.3,1.85H62.28l-.35,2.22H59.05Z"/><path class="cls-6" d="M70.74,110.21l-.16-.62a.79.79,0,0,0-.77-.5h-.56l-.36,2.3H66l1.13-7.19h4.79c1.79,0,2.8.72,2.8,2a2.4,2.4,0,0,1-2,2.34h0a.75.75,0,0,1,.47.61l.21.52a.4.4,0,0,0,.42.29,1,1,0,0,0,.44-.12l.17,1.18a4,4,0,0,1-1.94.52A1.73,1.73,0,0,1,70.74,110.21Zm0-2.76c.66,0,1-.3,1-.85,0-.39-.28-.6-.8-.6H69.74l-.23,1.45Z"/><path class="cls-6" d="M76,104.2h2.88l-1.14,7.19H74.91Z"/><path class="cls-6" d="M79.81,104.2h6.24l-.31,2H82.29l-.13.76h3.06L85,108.57h-3l-.14.87h3.56l-.31,2H78.68Z"/><path class="cls-6" d="M86.79,104.2h3.36l2,4.19h0l.67-4.19h2.66l-1.14,7.19H91l-2-4.23h0l-.67,4.23H85.66Z"/><path class="cls-6" d="M96.39,104.2h3.93c2.47,0,3.84,1.06,3.84,3,0,2.69-1.71,4.2-4.8,4.2h-4.1Zm3,5.14a1.7,1.7,0,0,0,1.87-1.87c0-.79-.49-1.22-1.38-1.22H98.85l-.49,3.09Z"/><path class="cls-6" d="M104.23,109.92l1.81-1.09a3,3,0,0,0,2.25.88c.65,0,1.06-.15,1.06-.43s-.3-.39-.84-.47l-1.06-.14c-1.8-.26-2.57-.86-2.57-2,0-1.86,1.82-2.68,3.91-2.68,1.75,0,3,.58,3.46,1.47l-1.69,1.06a2.44,2.44,0,0,0-1.77-.7c-.65,0-1.12.14-1.12.41s.34.34.89.43l.94.13c1.86.26,2.65.9,2.65,2.09,0,1.79-2,2.73-4.12,2.73C106.17,111.6,104.74,111,104.23,109.92Z"/><path class="cls-6" d="M115.31,104.2h6.34l-.35,2.2h-3.45l-.15.92h2.86l-.3,1.85h-2.85l-.35,2.22h-2.88Z"/><path class="cls-6" d="M121.41,108.44c0-2.68,2.36-4.48,5.22-4.48,2.57,0,4.14,1.24,4.14,3.19,0,2.67-2.36,4.48-5.22,4.48C123,111.63,121.41,110.39,121.41,108.44Zm6.44-1c0-.8-.57-1.3-1.53-1.3a1.93,1.93,0,0,0-2,2c0,.81.57,1.31,1.53,1.31A1.94,1.94,0,0,0,127.85,107.46Z"/><path class="cls-6" d="M135.58,110.21l-.16-.62a.79.79,0,0,0-.77-.5h-.56l-.36,2.3h-2.88L132,104.2h4.78c1.79,0,2.8.72,2.8,2a2.4,2.4,0,0,1-2,2.34h0a.75.75,0,0,1,.47.61l.21.52a.4.4,0,0,0,.42.29,1,1,0,0,0,.44-.12l.17,1.18a4,4,0,0,1-1.94.52A1.73,1.73,0,0,1,135.58,110.21Zm0-2.76c.66,0,1-.3,1-.85,0-.39-.28-.6-.8-.6h-1.26l-.23,1.45Z"/><path class="cls-6" d="M140.89,104.2h6.23l-.31,2h-3.45l-.13.76h3.06l-.27,1.66H143l-.14.87h3.56l-.31,2h-6.33Z"/><path class="cls-6" d="M147.41,104.2h3l.77,4.76h0l2.28-4.76h3l-4,7.19h-3.39Z"/><path class="cls-6" d="M156.88,104.2h6.24l-.31,2h-3.45l-.13.76h3.06l-.27,1.66H159l-.14.87h3.56l-.31,2h-6.34Z"/><path class="cls-6" d="M167.46,110.21l-.16-.62a.79.79,0,0,0-.77-.5H166l-.36,2.3h-2.88l1.13-7.19h4.79c1.79,0,2.8.72,2.8,2a2.4,2.4,0,0,1-2,2.34h0a.75.75,0,0,1,.47.61l.21.52a.4.4,0,0,0,.42.29,1,1,0,0,0,.44-.12l.17,1.18a4,4,0,0,1-1.94.52A1.73,1.73,0,0,1,167.46,110.21Zm0-2.76c.66,0,1-.3,1-.85,0-.39-.28-.6-.8-.6h-1.26l-.23,1.45Z"/><path class="cls-6" d="M176.91,104.2h3.44l1.62,7.19h-3l-.16-1.13h-2.45l-.55,1.13H173Zm1.78,4.39-.38-2.45h0l-1.21,2.45Z"/><path class="cls-6" d="M183.57,104.2h3.35l2,4.19h0l.67-4.19h2.66l-1.14,7.19h-3.36l-2-4.23h0l-.67,4.23h-2.65Z"/><path class="cls-6" d="M193.16,104.2h3.93c2.47,0,3.84,1.06,3.84,3,0,2.69-1.71,4.2-4.8,4.2H192Zm3,5.14a1.7,1.7,0,0,0,1.87-1.87c0-.79-.49-1.22-1.38-1.22h-1.07l-.49,3.09Z"/><path class="cls-6" d="M74.24,121.92l1.81-1.09a3,3,0,0,0,2.25.88c.65,0,1.06-.15,1.06-.43s-.3-.39-.84-.47l-1.06-.14c-1.8-.26-2.56-.86-2.56-2,0-1.86,1.81-2.68,3.9-2.68,1.75,0,3,.58,3.46,1.47l-1.69,1.06a2.44,2.44,0,0,0-1.77-.7c-.65,0-1.12.14-1.12.41s.34.34.89.43l.94.13c1.86.26,2.65.9,2.65,2.09,0,1.79-2,2.73-4.12,2.73C76.18,123.6,74.75,123,74.24,121.92Z"/><path class="cls-6" d="M82.7,120.44c0-2.68,2.36-4.48,5.22-4.48,2.57,0,4.14,1.24,4.14,3.19,0,2.67-2.36,4.48-5.22,4.48C84.27,123.63,82.7,122.39,82.7,120.44Zm6.44-1c0-.8-.57-1.3-1.53-1.3a1.93,1.93,0,0,0-2,2c0,.81.57,1.31,1.53,1.31A1.94,1.94,0,0,0,89.14,119.46Z"/><path class="cls-6" d="M95.06,116.2h6.34l-.35,2.2H97.6l-.15.92h2.86l-.3,1.85H97.16l-.35,2.22H93.93Z"/><path class="cls-6" d="M103.71,116.2h3.44l1.62,7.19h-3l-.16-1.13h-2.45l-.55,1.13H99.76Zm1.78,4.39-.38-2.45h0l-1.21,2.45Z"/><path class="cls-6" d="M114,122.21l-.16-.62a.79.79,0,0,0-.77-.5h-.56l-.36,2.3h-2.88l1.13-7.19h4.79c1.79,0,2.8.72,2.8,2a2.4,2.4,0,0,1-2,2.34h0a.75.75,0,0,1,.47.61l.21.52a.4.4,0,0,0,.42.29,1,1,0,0,0,.44-.12l.17,1.18a4,4,0,0,1-1.94.52A1.73,1.73,0,0,1,114,122.21Zm0-2.76c.66,0,1-.3,1-.85,0-.39-.28-.6-.8-.6H113l-.23,1.45Z"/><path class="cls-6" d="M119.87,121.92l1.82-1.09a3,3,0,0,0,2.25.88c.65,0,1.06-.15,1.06-.43s-.3-.39-.84-.47l-1.06-.14c-1.8-.26-2.57-.86-2.57-2,0-1.86,1.82-2.68,3.91-2.68,1.75,0,3,.58,3.46,1.47l-1.69,1.06a2.44,2.44,0,0,0-1.77-.7c-.65,0-1.12.14-1.12.41s.34.34.89.43l.94.13c1.86.26,2.65.9,2.65,2.09,0,1.79-2,2.73-4.12,2.73C121.82,123.6,120.39,123,119.87,121.92Z"/><path class="cls-6" d="M128.34,120.44c0-2.68,2.36-4.48,5.22-4.48,2.57,0,4.14,1.24,4.14,3.19,0,2.67-2.36,4.48-5.22,4.48C129.91,123.63,128.34,122.39,128.34,120.44Zm6.44-1c0-.8-.57-1.3-1.53-1.3a1.93,1.93,0,0,0-2,2c0,.81.57,1.31,1.53,1.31A1.94,1.94,0,0,0,134.78,119.46Z"/><path class="cls-6" d="M139.86,120.59a4.63,4.63,0,0,1,4.89-4.58c2.17,0,3.52,1,3.67,2.48l-2.75.43a1.05,1.05,0,0,0-1.13-.76,1.81,1.81,0,0,0-1.76,1.92,1.39,1.39,0,0,0,1.57,1.41,1.67,1.67,0,0,0,1.69-.85h-2.47l.23-1.44H149l-.66,4.19h-2.14l0-1.15h0a3.88,3.88,0,0,1-3,1.31C141.16,123.55,139.86,122.4,139.86,120.59Z"/><path class="cls-6" d="M149.47,120.44c0-2.68,2.36-4.48,5.22-4.48,2.57,0,4.14,1.24,4.14,3.19,0,2.67-2.36,4.48-5.22,4.48C151,123.63,149.47,122.39,149.47,120.44Zm6.44-1c0-.8-.57-1.3-1.53-1.3a1.93,1.93,0,0,0-2,2c0,.81.57,1.31,1.53,1.31A1.94,1.94,0,0,0,155.91,119.46Z"/><path class="cls-6" d="M159.21,120.44c0-2.68,2.36-4.48,5.22-4.48,2.57,0,4.14,1.24,4.14,3.19,0,2.67-2.36,4.48-5.22,4.48C160.78,123.63,159.21,122.39,159.21,120.44Zm6.44-1c0-.8-.57-1.3-1.53-1.3a1.93,1.93,0,0,0-2,2c0,.81.57,1.31,1.53,1.31A1.94,1.94,0,0,0,165.65,119.46Z"/><path class="cls-6" d="M169.78,116.2h3.93c2.47,0,3.84,1.06,3.84,3,0,2.69-1.71,4.2-4.8,4.2h-4.1Zm3,5.14a1.7,1.7,0,0,0,1.87-1.87c0-.79-.49-1.22-1.38-1.22h-1.07l-.49,3.09Z"/><path class="cls-6" d="M177.13,122.32a1.34,1.34,0,0,1,1.46-1.33,1.19,1.19,0,0,1,1.3,1.18,1.34,1.34,0,0,1-1.46,1.32A1.19,1.19,0,0,1,177.13,122.32Z"/><path class="cls-6" d="M179.82,119.7a2,2,0,0,0,2.52-1.6c-1.08.56-2.22.17-2.22-.91a1.33,1.33,0,0,1,1.39-1.3c.81,0,1.31.61,1.31,1.52a2.47,2.47,0,0,1-3.07,2.64Zm3.24,0a2,2,0,0,0,2.51-1.6c-1.07.56-2.21.17-2.21-.91a1.36,1.36,0,1,1,2.7.22,2.47,2.47,0,0,1-3.07,2.64Z"/><g class="cls-2"><path class="cls-3" d="M145.34,149.42H142.7v-.88h1.48v-.37h-1.24v-.74h1.24v-.89h1.16Z"/><path class="cls-3" d="M141.85,149.42h-1.38l-1.17-2.88h1.21l.14.44h1l.14-.44H143Zm-1-1.76.34,1,.34-1Z"/><path class="cls-3" d="M137.33,147l.11.22a.43.43,0,0,0,.37.23h.25v-.92h1.16v2.88h-2c-.75,0-1.25-.4-1.25-1a.83.83,0,0,1,.67-.8.36.36,0,0,1-.22-.23l-.13-.2a.2.2,0,0,0-.18-.13.3.3,0,0,0-.18.06l-.14-.47a1.41,1.41,0,0,1,.75-.22A.9.9,0,0,1,137.33,147Zm.16,1.11c-.2,0-.39.11-.39.29s.17.29.38.29h.58v-.58Z"/></g><rect class="cls-6" x="153.42" y="123.64" width="41.21" height="9.86" rx="4.93" transform="translate(-24.89 43.43) rotate(-13.29)"/><rect class="cls-7" x="153.22" y="123" width="41.26" height="9.86" rx="4.93" transform="translate(-24.74 43.37) rotate(-13.29)"/><path class="cls-6" d="M156.05,132.2l4.38-1,.06.23-4.39,1Z"/><path class="cls-6" d="M160.32,128.57l1.45-.34.35,1.48,2.2-.52-.35-1.48,1.45-.35,1,4.18-1.45.35-.4-1.67-2.2.52.4,1.67-1.46.34Z"/><path class="cls-6" d="M166.45,129.94c-.22-.94.56-1.82,1.89-2.14s2.32.13,2.55,1.1a1.06,1.06,0,0,1,0,.32l-3,.71c.23.32.76.34,1.3.21a3.3,3.3,0,0,0,1.37-.64l.52.57a4,4,0,0,1-1.79.89C167.83,131.31,166.69,130.92,166.45,129.94Zm3.05-1c-.1-.33-.53-.48-1-.37a.85.85,0,0,0-.75.79Z"/><path class="cls-6" d="M174.82,127.67l-1.15.53c-.13-.44-.39-.68-.66-.62s-.51.5-.37,1.08L173,130l-1.32.31-.71-3L172,127l.34.65h0a1.34,1.34,0,0,1,1-1.08C174,126.46,174.58,126.88,174.82,127.67Z"/><path class="cls-6" d="M175.86,124.9l3.38-.8c.95-.22,1.62.07,1.79.79a1,1,0,0,1-.42,1h0a1,1,0,0,1,1,.8c.17.71-.29,1.28-1.25,1.5l-3.49.83Zm3.3,1c.34-.08.51-.29.45-.55s-.31-.38-.65-.3l-1.45.34.2.85Zm.47,1.64c.36-.08.54-.31.47-.59s-.33-.4-.69-.32l-1.53.36.22.91Z"/><path class="cls-6" d="M181.28,123.62l4.19-1,.26,1.07-2.74.65.18.76,2.41-.57.2.88-2.41.57.35,1.47-1.45.34Z"/><path class="cls-6" d="M185.85,122.54l4.2-1,.25,1.07-2.74.65.18.76,2.41-.57.21.88-2.41.57.34,1.47-1.45.34Z"/></svg>