<svg id="Layer_1" data-name="Layer 1" xmlns="http://www.w3.org/2000/svg" viewBox="0 0 260 200"><defs><style>.cls-1{fill:#f1ffd2;}.cls-2{opacity:0.2;}.cls-3{fill:#42c97b;}.cls-4{opacity:0.3;}.cls-5{fill:#357c53;}.cls-6{fill:#fff;}</style></defs><path class="cls-1" d="M182.14,19.39V40.3l20.34-2.95c-2,6.82-3.88,13-6,19.93l20.63,2.94c-3.86,6-7.41,11.56-11.26,17.56l19,8.56L209.16,100l15.72,13.69-19,8.62c3.8,5.81,7.34,11.24,11.37,17.42l-20.55,3,5.78,20-20.18-2.95v20.89l-19.35-8.69-5.82,19.84-15.8-13.52L130,195.75l-11.12-17.56L103,191.82c-2-6.84-3.78-13-5.78-19.9l-19,8.54V159.75l-20.6,2.84c2-6.89,3.85-13.09,5.85-19.91l-20.58-3c4-6.18,7.5-11.62,11.28-17.45L35.1,113.59l15.95-13.52L35.29,86.47,54.2,77.71,42.92,60.26l20.65-2.92L57.65,37.48,78,40.25V19.44l19.3,8.74c1.89-6.58,3.67-12.77,5.74-19.94l15.88,13.61L130,4.25l11.28,17.59c5.13-4.45,10.11-8.77,15.77-13.66,2,6.85,3.77,13,5.8,20Z"/><g class="cls-2"><path class="cls-3" d="M130,189l-10.33-16.33-14.75,12.67-5.37-18.5-17.64,7.94V155.51l-19.14,2.64,5.44-18.5L49.1,136.88l10.48-16.21-17.76-8,14.82-12.56L42,87.44,59.58,79.3,49.09,63.08l19.19-2.71L62.77,41.92l18.88,2.57V25.15l17.93,8.12,5.33-18.52,14.76,12.64L130,11l10.48,16.35,14.65-12.69,5.39,18.58,17.93-8.16V44.54l18.9-2.75L191.8,60.31,211,63,200.5,79.36l17.67,8L203.55,100l14.6,12.72-17.68,8L211,136.86l-19.1,2.78,5.37,18.56-18.75-2.74v19.4l-18-8.07-5.4,18.43-14.68-12.56Zm-10.11-17.84,10.12,16,10.24-16,14.38,12.3,5.29-18.05,17.61,7.91v-19L195.9,157l-5.25-18.17,18.69-2.72L199,120.25l17.33-7.84L202,100l14.31-12.37L199,79.79l10.24-16-18.77-2.67L195.94,43l-18.5,2.69v-19l-17.57,8-5.28-18.2L140.25,28.89,130,12.89l-10.1,16L105.44,16.52l-5.22,18.14-17.57-8V45.63L64.18,43.12l5.39,18.07L50.78,63.85,61,79.72l-17.2,8,14.34,12.38-14.5,12.3,17.37,7.87L50.79,136.11l18.72,2.72-5.32,18.11,18.74-2.58v18.85l17.28-7.78,5.26,18.11Z"/></g><path class="cls-3" d="M96,144.1l1,.05a1.89,1.89,0,0,0,.71,1c.27.21.49.31.57.2s-.1-.36-.44-.68c-.64-.58-1.25-1.2-.66-1.95s1.36-.49,2.24.2a2.18,2.18,0,0,1,1,1.53l-.9.05a1.38,1.38,0,0,0-.58-.84c-.27-.2-.48-.31-.57-.21s.13.35.45.64c.67.6,1.22,1.27.66,2s-1.45.48-2.35-.23A2.42,2.42,0,0,1,96,144.1Z"/><path class="cls-3" d="M101.2,144.41l1.17.77-.67,1,1.06.69.67-1,1.17.77-2,3-1.18-.76.74-1.13-1-.69-.74,1.13-1.18-.76Z"/><path class="cls-3" d="M105,146.86l2.76,1.48-.46.86-1.57-.84-.18.33,1.4.76-.39.73-1.4-.76-.21.39,1.61.87-.46.86-2.8-1.51Z"/><path class="cls-3" d="M109.39,151.09a2,2,0,0,1,2.73-1,1.86,1.86,0,0,1,1.35,1.83l-1.29-.28c0-.23-.18-.41-.47-.53a.74.74,0,0,0-1,.44.86.86,0,0,0,.61,1.1c.39.15.74.1.88-.12L111,152.1l.24-.63,2.48.95-.76,2-1-.37.14-.49a1.63,1.63,0,0,1-1.48,0A1.9,1.9,0,0,1,109.39,151.09Z"/><path class="cls-3" d="M114.69,151.13l1.34.41L115,155l-1.33-.41Z"/><path class="cls-3" d="M116.29,151.66l1.4.33.21,2.54,1.34-2.16,1.41.33-2.25,3.17-1.55-.37Z"/><path class="cls-3" d="M120.91,152.73l3.1.5-.15,1-1.77-.28-.06.38,1.58.25-.13.82-1.58-.25-.07.43,1.82.29-.16,1-3.15-.5Z"/><path class="cls-3" d="M124,156.2l.86-.5a1.83,1.83,0,0,0,1.15.47c.34,0,.58,0,.59-.14s-.28-.25-.74-.33c-.86-.14-1.71-.31-1.63-1.27.07-.79.88-1.16,2-1.06a2.13,2.13,0,0,1,1.63.76l-.72.53a1.44,1.44,0,0,0-1-.38c-.33,0-.57,0-.59.14s.3.21.73.28c.88.14,1.71.39,1.64,1.3s-1,1.2-2.1,1.1A2.41,2.41,0,0,1,124,156.2Z"/><path class="cls-3" d="M130.77,155.64l-.07-1.95,1.4-.05.07,1.9a.63.63,0,1,0,1.25,0l-.07-1.91,1.4,0,.07,1.95c0,1.09-.77,1.74-2,1.78S130.81,156.73,130.77,155.64Z"/><path class="cls-3" d="M135.41,156.42l.74-.65a1.85,1.85,0,0,0,1.22.22c.34,0,.56-.12.54-.26s-.32-.18-.79-.17c-.86,0-1.73,0-1.84-.92-.08-.78.63-1.3,1.73-1.43a2.1,2.1,0,0,1,1.75.42l-.6.66a1.4,1.4,0,0,0-1-.18c-.32,0-.55.12-.54.25s.34.15.76.13c.9,0,1.76,0,1.87.95s-.69,1.36-1.83,1.49A2.41,2.41,0,0,1,135.41,156.42Z"/><path class="cls-3" d="M141.21,152.74l1.36-.38,1.29,2.14.08-2.52,1.49-.41,1.37,2.12v-2.5l1.35-.37-.23,3.8-1.56.43L145,153l-.09,2.48-1.56.43Z"/><path class="cls-3" d="M148.87,150.44l1.55-.6,2.62,2.84-1.36.53-.35-.45-1.18.46,0,.57-1.35.53Zm1.94,1.61-.83-1,.06,1.32Z"/><path class="cls-3" d="M152.89,150l-1,.47-.48-1,3.22-1.54.48,1-1,.47,1.07,2.25-1.26.6Z"/><path class="cls-3" d="M155,147.74l2.73-1.56.48.85-1.55.89.19.33,1.38-.79.41.72-1.39.79.22.38,1.6-.91.48.84-2.77,1.59Z"/><path class="cls-3" d="M161.62,147.17l-.27-.14a.51.51,0,0,0-.53,0l-.25.17.65.95-1.16.79-2-3,2-1.39a1.32,1.32,0,0,1,1.93.15,1,1,0,0,1-.1,1.28.48.48,0,0,1,.38.09l.27.12a.24.24,0,0,0,.28,0,.35.35,0,0,0,.13-.18l.48.39a1.72,1.72,0,0,1-.6.73A1.07,1.07,0,0,1,161.62,147.17Zm-.94-1a.42.42,0,0,0,.18-.57.41.41,0,0,0-.59,0l-.57.39.4.6Z"/><path class="cls-3" d="M162.33,144.18l-.61-.79,1-.78.61.79.52,1.12-.54.42Zm1.22,1.62a.68.68,0,0,1,1.06-.84.62.62,0,0,1-.14.91A.64.64,0,0,1,163.55,145.8Z"/><path class="cls-3" d="M98.15,53.08c-.61-1-.21-2.08,1-2.8s2.33-.6,2.94.38.21,2.08-1,2.8S98.76,54.06,98.15,53.08Zm2.71-1.68a.9.9,0,1,0-.35,1.13A.78.78,0,0,0,100.86,51.4Z"/><path class="cls-3" d="M101.79,48.76l1.26-.63.55,1.1,1.12-.56-.55-1.1,1.25-.63L107,50.16l-1.25.63-.6-1.21-1.13.56.61,1.21-1.25.63Z"/><path class="cls-3" d="M107.78,50.64a.8.8,0,0,0,.67-1.13c-.41.51-1,.44-1.24,0a.63.63,0,0,1,.34-.83c.39-.16.8.06,1,.55.36.81,0,1.49-.74,1.62Z"/><path class="cls-3" d="M110.81,47.91l.6-.79a1.81,1.81,0,0,0,1.24,0c.33-.1.53-.22.49-.36s-.36-.11-.81,0c-.84.2-1.7.36-2-.55-.24-.75.36-1.4,1.42-1.74a2.14,2.14,0,0,1,1.8.07l-.46.77a1.46,1.46,0,0,0-1,0c-.31.11-.52.23-.48.36s.36.08.77,0c.88-.21,1.74-.3,2,.57S114,47.68,112.87,48A2.42,2.42,0,0,1,110.81,47.91Z"/><path class="cls-3" d="M114.33,43.73l1.36-.32L116,44.6l1.23-.29-.28-1.19,1.36-.32.82,3.5-1.36.32-.31-1.31-1.22.29.3,1.31-1.36.32Z"/><path class="cls-3" d="M119.11,42.66l3.1-.49.15,1-1.77.28.06.38,1.57-.25.13.82-1.57.25.07.43,1.81-.29.15,1-3.15.5Z"/><path class="cls-3" d="M123,43.86a.8.8,0,0,0,1-.88c-.54.36-1.13.12-1.18-.39a.61.61,0,0,1,.57-.68c.42,0,.74.28.81.81.1.88-.4,1.44-1.19,1.34Z"/><path class="cls-3" d="M124.73,44.83l.77-.61a1.86,1.86,0,0,0,1.21.3c.34,0,.57-.08.56-.22s-.31-.21-.78-.22c-.86,0-1.73-.07-1.78-1,0-.79.7-1.27,1.81-1.33a2.15,2.15,0,0,1,1.72.52l-.64.63a1.44,1.44,0,0,0-1-.24c-.33,0-.56.08-.56.22s.33.17.75.18c.9,0,1.76.14,1.81,1s-.77,1.32-1.92,1.39A2.41,2.41,0,0,1,124.73,44.83Z"/><path class="cls-3" d="M132.35,42.84l-1.08-.05.06-1.1,3.56.19,0,1.09-1.09,0-.13,2.49-1.4-.07Z"/><path class="cls-3" d="M135.56,41.93l1.39.18-.15,1.21,1.24.16.16-1.21,1.39.18L139.13,46l-1.39-.17.17-1.34-1.24-.16-.17,1.34-1.39-.18Z"/><path class="cls-3" d="M140.41,42.59l3.08.63-.2,1-1.75-.35-.08.37,1.57.32-.17.81L141.3,45l-.09.43,1.8.37-.19,1-3.13-.64Z"/><path class="cls-3" d="M146.49,44l2.37.77c.78.25,1.2.84,1,1.41a.77.77,0,0,1-.72.55.81.81,0,0,1,.3,1c-.18.57-.85.79-1.61.55l-2.47-.81Zm1.24,3.28c.21.06.39,0,.44-.15s0-.34-.26-.41l-.75-.24L147,47Zm.34-1.27c.21.07.39,0,.44-.16s-.06-.31-.27-.38l-.68-.22-.17.54Z"/><path class="cls-3" d="M150.91,45.48l2.91,1.19-.37.9-1.65-.67-.15.35,1.48.61-.32.76L151.34,48l-.17.41,1.7.7-.37.9-2.95-1.21Z"/><path class="cls-3" d="M153.06,49.52l1-.15a1.84,1.84,0,0,0,.9.86c.31.16.54.21.6.08s-.17-.33-.57-.57c-.74-.44-1.47-.92-1.05-1.78s1.24-.76,2.24-.26A2.14,2.14,0,0,1,157.39,49l-.87.23a1.43,1.43,0,0,0-.74-.71c-.3-.14-.53-.2-.6-.08s.2.31.57.53c.78.45,1.46,1,1.06,1.81s-1.33.77-2.36.26A2.43,2.43,0,0,1,153.06,49.52Z"/><path class="cls-3" d="M158.54,50.3l-.93-.55.56-1,3.08,1.82-.56,1-.94-.55-1.27,2.15-1.2-.71Z"/><path class="cls-3" d="M160,53.46a.68.68,0,1,1,.21.89A.62.62,0,0,1,160,53.46Zm1.16-1.66.55-.83,1,.69-.55.84-.9.83-.57-.37Z"/><g class="cls-4"><path class="cls-3" d="M93.48,102.66c1.61,8.74,5,16.26,10.87,22.54,6.35,6.78,14.45,9.85,23.54,10.39,25.16,1.5,36-16.5,38.82-32.76-.5.08-.94.11-1.37.2A1.79,1.79,0,0,1,163,101.7a1.75,1.75,0,0,1,1.41-2.31,8,8,0,0,1,3.92,0,26.58,26.58,0,0,1,5.21,2.64,1.71,1.71,0,0,1,.65,2.71,1.8,1.8,0,0,1-2.78.41,8.44,8.44,0,0,0-1-.51c-.2.62-.41,1.14-.54,1.68a46.71,46.71,0,0,1-9.34,19.59C151.19,137,139,140.65,125.05,139c-17.7-2.13-28.34-12.76-33.64-29.32-.32-1-.62-2-.88-3.07s-.44-2.07-.69-3.27c-.62.33-1.11.81-1.6.81a3.68,3.68,0,0,1-2.4-.54c-.79-.83-.43-1.89.5-2.63,2.84-2.24,6-2.45,9.39-1.6a1.69,1.69,0,0,1,1.45,2.24A1.8,1.8,0,0,1,94.73,103Z"/><path class="cls-3" d="M122.67,76.25c-.58,3.45-.94,7-1.84,10.32a13,13,0,0,1-3,5c-1.47,1.62-3.43,1.29-4.81-.45a16.1,16.1,0,0,1-3-7.49,33.81,33.81,0,0,1,.61-15.81,20.87,20.87,0,0,1,2.4-5.18c1.71-2.67,4.46-2.6,6.18.09,2.31,3.61,3,7.71,3.09,11.9,0,.54,0,1.07,0,1.6Z"/><path class="cls-3" d="M139.05,76.59c.51-2.81,1-6.14,1.79-9.37a12.79,12.79,0,0,1,2.36-4.46c1.82-2.31,4.68-2.15,6,.5a31.72,31.72,0,0,1,2.56,7.84,32.25,32.25,0,0,1-.49,14,20.73,20.73,0,0,1-2.49,5.83c-1.8,2.91-4.4,2.94-6.17,0a20,20,0,0,1-2.37-5.87C139.61,82.48,139.47,79.8,139.05,76.59Z"/></g><path class="cls-5" d="M78,86.59a2,2,0,0,0-2.51,1.61c1.08-.57,2.22-.16,2.22.91a1.33,1.33,0,0,1-1.39,1.31A1.35,1.35,0,0,1,75,88.89a2.49,2.49,0,0,1,3.08-2.65Zm3.24,0a2,2,0,0,0-2.51,1.61c1.07-.57,2.21-.16,2.21.91a1.32,1.32,0,0,1-1.38,1.31,1.35,1.35,0,0,1-1.32-1.53,2.48,2.48,0,0,1,3.07-2.65Z"/><path class="cls-5" d="M81.57,86.47h3l.77,4.77h0l2.28-4.77h3l-4,7.2H83.24Z"/><path class="cls-5" d="M91,86.47h6.24l-.31,2H93.52l-.13.77h3.06l-.27,1.66H93.13l-.14.87h3.56l-.31,2H89.9Z"/><path class="cls-5" d="M101.62,92.49l-.16-.62a.79.79,0,0,0-.77-.5h-.56l-.36,2.3H96.88L98,86.47h4.79c1.79,0,2.8.72,2.8,2a2.41,2.41,0,0,1-2,2.35h0a.75.75,0,0,1,.47.61l.21.52a.4.4,0,0,0,.42.29,1,1,0,0,0,.44-.12l.17,1.18a4,4,0,0,1-1.94.52A1.73,1.73,0,0,1,101.62,92.49Zm0-2.77c.66,0,1-.3,1-.85,0-.39-.28-.6-.8-.6h-1.26l-.23,1.45Z"/><path class="cls-5" d="M107.94,91.27l-2.07-4.8h3l.85,2.72h0l1.6-2.72h3l-3.5,4.8-.38,2.4h-2.89Z"/><path class="cls-5" d="M118.94,86.47h3.44l1.61,7.2h-3l-.16-1.13h-2.45l-.55,1.13H115Zm1.78,4.4-.38-2.46h0l-1.21,2.46Z"/><path class="cls-5" d="M126.22,88.67h-2.13l.35-2.2h7.15l-.34,2.2h-2.14l-.79,5h-2.89Z"/><path class="cls-5" d="M133.78,88.67h-2.13l.35-2.2h7.15l-.35,2.2h-2.13l-.79,5H133Z"/><path class="cls-5" d="M139.76,86.47H146l-.31,2h-3.45l-.13.77h3.06l-.27,1.66h-3.05l-.14.87h3.56l-.31,2h-6.34Z"/><path class="cls-5" d="M146.74,86.47h3.36l2,4.2h0l.67-4.2h2.65l-1.13,7.2h-3.36l-2-4.23h0l-.67,4.23H145.6Z"/><path class="cls-5" d="M157.82,88.67h-2.13l.35-2.2h7.15l-.35,2.2h-2.13l-.79,5H157Z"/><path class="cls-5" d="M163.8,86.47h2.88l-1.14,7.2h-2.88Z"/><path class="cls-5" d="M167.12,86.47h3l.77,4.77h0l2.28-4.77h3l-3.95,7.2h-3.39Z"/><path class="cls-5" d="M176.59,86.47h6.23l-.31,2h-3.44l-.13.77H182l-.27,1.66h-3l-.14.87h3.55l-.3,2h-6.34Z"/><path class="cls-5" d="M182.07,95.1a2,2,0,0,0,2.52-1.61c-1.08.57-2.22.16-2.22-.91a1.33,1.33,0,0,1,1.39-1.31c.81,0,1.31.62,1.31,1.53A2.48,2.48,0,0,1,182,95.45Z"/><path class="cls-5" d="M74.43,100.67H72.31l.34-2.2h7.16l-.35,2.2H77.32l-.79,5H73.64Z"/><path class="cls-5" d="M80.41,98.47H83.3l-.39,2.45h2.36l.39-2.45h2.89l-1.14,7.2H84.52L85,103H82.59l-.43,2.7H79.28Z"/><path class="cls-5" d="M88.63,102.72c0-2.69,2.35-4.49,5.21-4.49,2.57,0,4.14,1.24,4.14,3.19,0,2.68-2.36,4.49-5.22,4.49C90.19,105.91,88.63,104.67,88.63,102.72Zm6.43-1c0-.81-.57-1.31-1.53-1.31a1.94,1.94,0,0,0-2,2c0,.81.57,1.31,1.53,1.31A1.94,1.94,0,0,0,95.06,101.74Z"/><path class="cls-5" d="M98.47,102.73l.66-4.26H102l-.64,4.16c-.11.66.25,1,1,1a1.2,1.2,0,0,0,1.34-1l.66-4.16h2.89l-.68,4.32c-.32,2-2,3.07-4.56,3.07S98.15,104.74,98.47,102.73Z"/><path class="cls-5" d="M107.28,102.87a4.62,4.62,0,0,1,4.88-4.59c2.17,0,3.52,1,3.67,2.49l-2.75.43a1.06,1.06,0,0,0-1.13-.77,1.81,1.81,0,0,0-1.76,1.93,1.39,1.39,0,0,0,1.57,1.41,1.67,1.67,0,0,0,1.69-.85H111l.23-1.45h5.23l-.66,4.2h-2.14l0-1.15h0a3.88,3.88,0,0,1-3,1.31C108.57,105.83,107.28,104.68,107.28,102.87Z"/><path class="cls-5" d="M117.72,98.47h2.88l-.39,2.45h2.36l.39-2.45h2.89l-1.14,7.2h-2.89l.43-2.7h-2.36l-.43,2.7h-2.88Z"/><path class="cls-5" d="M128.23,100.67h-2.12l.35-2.2h7.15l-.35,2.2h-2.14l-.79,5h-2.89Z"/><path class="cls-5" d="M134.22,98.47h6.33l-.35,2.2h-3.45l-.15.92h2.86l-.3,1.86h-2.85l-.35,2.22h-2.88Z"/><path class="cls-5" d="M140.45,102.73l.66-4.26H144l-.64,4.16c-.11.66.25,1,1,1a1.2,1.2,0,0,0,1.34-1l.66-4.16h2.89l-.68,4.32c-.32,2-1.95,3.07-4.56,3.07S140.13,104.74,140.45,102.73Z"/><path class="cls-5" d="M150.09,98.47H153l-.79,5h3.16l-.35,2.25h-6Z"/><path class="cls-5" d="M155.3,107.1a2,2,0,0,0,2.51-1.61c-1.08.57-2.21.16-2.21-.91a1.33,1.33,0,0,1,1.38-1.31c.81,0,1.31.62,1.31,1.53a2.48,2.48,0,0,1-3.06,2.65Z"/><path class="cls-5" d="M164.14,98.47h3.44l1.62,7.2h-3l-.16-1.13h-2.45l-.55,1.13h-2.88Zm1.78,4.4-.38-2.46h0l-1.21,2.46Z"/><path class="cls-5" d="M170.8,98.47h3.35l2,4.2h0l.67-4.2h2.66l-1.14,7.2H175l-2-4.23h0l-.67,4.23h-2.65Z"/><path class="cls-5" d="M180.39,98.47h3.93c2.47,0,3.84,1.06,3.84,3,0,2.7-1.71,4.21-4.8,4.21h-4.1Zm3,5.15a1.7,1.7,0,0,0,1.87-1.87c0-.8-.49-1.23-1.38-1.23h-1.07l-.49,3.1Z"/><path class="cls-5" d="M78.6,116.2l1.81-1.09a3,3,0,0,0,2.25.88c.65,0,1.06-.15,1.06-.43s-.3-.39-.84-.47L81.82,115c-1.8-.26-2.56-.86-2.56-2,0-1.87,1.81-2.69,3.9-2.69,1.75,0,3,.58,3.46,1.47l-1.69,1.06a2.44,2.44,0,0,0-1.77-.7c-.65,0-1.12.14-1.12.41s.34.34.89.43l.94.13c1.86.27,2.65.91,2.65,2.1,0,1.79-2,2.73-4.12,2.73C80.54,117.88,79.11,117.24,78.6,116.2Z"/><path class="cls-5" d="M87.17,114.73l.67-4.26h2.88l-.64,4.16c-.11.66.25,1,1,1a1.2,1.2,0,0,0,1.34-1l.66-4.16H96l-.68,4.32c-.32,2-2,3.07-4.56,3.07S86.85,116.74,87.17,114.73Z"/><path class="cls-5" d="M96.81,110.47h4.73c1.77,0,2.76.78,2.76,2.2,0,1.87-1.24,2.92-3.46,2.92h-2l-.33,2.08H95.68Zm3.44,3.37c.73,0,1.13-.34,1.13-1,0-.43-.31-.67-.87-.67H99.42l-.26,1.62Z"/><path class="cls-5" d="M105.3,110.47h6.24l-.31,2h-3.45l-.13.77h3.06l-.27,1.66h-3l-.14.87h3.56l-.31,2h-6.33Z"/><path class="cls-5" d="M115.88,116.49l-.16-.62a.79.79,0,0,0-.77-.5h-.56l-.36,2.3h-2.88l1.13-7.2h4.79c1.79,0,2.8.72,2.8,2a2.41,2.41,0,0,1-2,2.35h0a.75.75,0,0,1,.47.61l.21.52a.4.4,0,0,0,.42.29,1,1,0,0,0,.44-.12l.17,1.18a4,4,0,0,1-1.94.52A1.73,1.73,0,0,1,115.88,116.49Zm0-2.77c.66,0,1-.3,1-.85,0-.39-.28-.6-.8-.6h-1.26l-.23,1.45Z"/><path class="cls-5" d="M122.16,114.58a4.52,4.52,0,0,1,4.78-4.3c2.3,0,3.73,1.1,3.79,2.79l-2.7.49a1.11,1.11,0,0,0-1.22-1.08,1.85,1.85,0,0,0-1.75,1.9c0,.79.59,1.26,1.5,1.26a1.9,1.9,0,0,0,1.86-1.24l2.61.36a4.76,4.76,0,0,1-4.69,3.1C123.77,117.86,122.16,116.61,122.16,114.58Z"/><path class="cls-5" d="M134.15,110.47h3.44l1.62,7.2h-3l-.16-1.13h-2.45l-.55,1.13H130.2Zm1.78,4.4-.38-2.46h0l-1.21,2.46Z"/><path class="cls-5" d="M144.4,116.49l-.16-.62a.79.79,0,0,0-.77-.5h-.56l-.36,2.3h-2.88l1.13-7.2h4.79c1.79,0,2.8.72,2.8,2a2.41,2.41,0,0,1-2,2.35h0a.75.75,0,0,1,.47.61l.21.52a.4.4,0,0,0,.42.29,1,1,0,0,0,.44-.12l.17,1.18a4,4,0,0,1-1.94.52A1.73,1.73,0,0,1,144.4,116.49Zm0-2.77c.66,0,1-.3,1-.85,0-.39-.28-.6-.8-.6H143.4l-.23,1.45Z"/><path class="cls-5" d="M149.71,110.47h2.87l-1.14,7.2h-2.87Z"/><path class="cls-5" d="M153.47,110.47h3.36l2,4.2h0l.67-4.2h2.66l-1.14,7.2h-3.36l-2-4.23h0l-.67,4.23h-2.65Z"/><path class="cls-5" d="M162.23,114.87a4.63,4.63,0,0,1,4.89-4.59c2.17,0,3.52,1,3.67,2.49l-2.75.43a1.06,1.06,0,0,0-1.13-.77,1.81,1.81,0,0,0-1.76,1.93,1.39,1.39,0,0,0,1.57,1.41,1.67,1.67,0,0,0,1.69-.85h-2.47l.23-1.45h5.23l-.66,4.2H168.6l0-1.15h0a3.88,3.88,0,0,1-3,1.31C163.53,117.83,162.23,116.68,162.23,114.87Z"/><path class="cls-5" d="M171.59,116.73a1.52,1.52,0,0,1,1.61-1.46,1.09,1.09,0,0,1,1.22,1,1.53,1.53,0,0,1-1.62,1.45A1.07,1.07,0,0,1,171.59,116.73Zm.76-4.26.32-2h2.58l-.32,2-1,2.5h-1.39Z"/><path class="cls-5" d="M175.46,114a2,2,0,0,0,2.52-1.61c-1.08.57-2.22.17-2.22-.91a1.33,1.33,0,0,1,1.39-1.3c.81,0,1.31.61,1.31,1.52a2.48,2.48,0,0,1-3.07,2.65Zm3.24,0a2,2,0,0,0,2.51-1.61c-1.07.57-2.21.17-2.21-.91a1.36,1.36,0,1,1,2.7.22,2.48,2.48,0,0,1-3.07,2.65Z"/><rect class="cls-5" x="142.43" y="116.77" width="52.33" height="9.86" rx="4.93" transform="translate(-11.5 17.77) rotate(-5.83)"/><rect class="cls-6" x="142.3" y="116.11" width="52.39" height="9.86" rx="4.93" transform="translate(-11.43 17.75) rotate(-5.83)"/><path class="cls-5" d="M145.22,123.44l4.49-.46,0,.24-4.48.46Z"/><path class="cls-5" d="M149.93,120.39l1.48-.15.16,1.52,2.25-.23-.16-1.52,1.49-.15.43,4.27-1.48.15-.18-1.7-2.24.23.17,1.7-1.49.16Z"/><path class="cls-5" d="M155.84,122.55c-.1-1,.78-1.74,2.14-1.88s2.29.43,2.39,1.42a1.16,1.16,0,0,1,0,.32l-3.07.32c.19.34.71.43,1.27.37a3.08,3.08,0,0,0,1.43-.46l.44.64a3.87,3.87,0,0,1-1.89.65C157,124.08,155.94,123.55,155.84,122.55ZM159,122c0-.35-.46-.55-.93-.51s-.83.34-.85.69Z"/><path class="cls-5" d="M164.42,121.39l-1.2.37c-.07-.46-.3-.73-.58-.7s-.57.43-.51,1l.14,1.37-1.35.14-.31-3.08,1.12-.12.26.7h0a1.33,1.33,0,0,1,1.14-.93C163.79,120.08,164.29,120.57,164.42,121.39Z"/><path class="cls-5" d="M165.88,120l1.16-.12.26.78h0a1.66,1.66,0,0,1,1.5-1.06,1.65,1.65,0,1,1,.34,3.27,1.65,1.65,0,0,1-1.68-.72h0l.21,2-1.35.14Zm3.48,1.2c0-.42-.47-.66-1.08-.6s-1,.38-.94.81.47.65,1.08.59S169.41,121.59,169.36,121.17Z"/><path class="cls-5" d="M170.77,118.08l1.35-.13.45,4.45-1.35.13Z"/><path class="cls-5" d="M172.83,121.61c-.06-.61.61-1.1,1.82-1.35l1.11-.22c.12,0,.19-.08.18-.14s-.35-.23-.84-.18a3.88,3.88,0,0,0-2,.83l-.42-.7a4.45,4.45,0,0,1,2.35-.92c1.29-.13,2.19.21,2.26,1l.21,2-1.17.12-.25-.65h0a2,2,0,0,1-1.67,1C173.47,122.4,172.89,122.15,172.83,121.61Zm3.17-1h0l-1.2.23c-.43.09-.66.2-.64.36s.24.22.63.18C175.56,121.34,176,121,176,120.66Z"/><path class="cls-5" d="M182.1,119.66l.18,1.74-1.34.14-.16-1.59a.73.73,0,0,0-.88-.7.86.86,0,0,0-.82,1l.15,1.45-1.34.13-.32-3.08,1.16-.11.22.73h0a1.69,1.69,0,0,1,1.48-1A1.37,1.37,0,0,1,182.1,119.66Z"/><path class="cls-5" d="M183.18,120.2l-.12-1.12-.82.09-.09-.86.82-.09-.08-.82,1.31-.39.11,1.08,1.8-.19.09.86-1.8.19.08.8c0,.37.24.54.65.5a1.39,1.39,0,0,0,1-.56l.37.77a2.33,2.33,0,0,1-1.63.78C183.89,121.34,183.25,120.94,183.18,120.2Z"/><path class="cls-5" d="M186.63,120.56l.28-.75a3.65,3.65,0,0,0,1.85.26c.64-.06.91-.19.9-.33s-.23-.17-.64-.16l-.74,0c-1,0-1.53-.17-1.58-.73-.08-.77.72-1.2,1.87-1.32a3.74,3.74,0,0,1,1.8.23l-.25.68a3.35,3.35,0,0,0-1.49-.2c-.47,0-.83.16-.81.32s.19.15.55.14h.73c1.09,0,1.65.18,1.72.8s-.75,1.19-1.9,1.31A4.77,4.77,0,0,1,186.63,120.56Z"/></svg>