<svg id="Layer_1" data-name="Layer 1" xmlns="http://www.w3.org/2000/svg" viewBox="0 0 260 200"><defs><style>.cls-1{fill:#f4eae4;}.cls-2{opacity:0.5;}.cls-3{fill:#f47c33;}.cls-4{opacity:0.3;}.cls-5{fill:#5a5dd0;}.cls-6{fill:#fff;}</style></defs><path class="cls-1" d="M172.62,3.6c9.89,0,17.77-.56,17.6,14.18,0,.13,0,.27,0,.4,0,13.64,7.92,13.64,7.92,27.27s-7.92,13.63-7.92,27.27,7.92,13.63,7.92,27.26-7.92,13.64-7.92,27.27,7.92,13.64,7.92,27.27-7.92,13.64-7.92,27.27c0,.14,0,.28,0,.42.17,14.73-7.71,14.18-17.6,14.18H91.92c-9.4,0-27.82,3.19-29.78-10.51a27.76,27.76,0,0,1-.27-4.07c0-13.64,7.92-13.64,7.92-27.27s-7.92-13.64-7.92-27.27,7.92-13.63,7.92-27.26-7.92-13.64-7.92-27.27,7.92-13.64,7.92-27.27S61.87,31.83,61.87,18.2a27.81,27.81,0,0,1,.27-4.08C64.1.42,82.52,3.61,91.92,3.61Z"/><g class="cls-2"><path class="cls-3" d="M86.52,193c-7,0-14.55-.65-18.5-4.5a8.94,8.94,0,0,1-2.65-6.66c0-7,2-10.48,4-13.89s3.9-6.7,3.9-13.38-1.9-9.94-3.9-13.39-4-6.93-4-13.88,2-10.47,4-13.88,3.9-6.7,3.9-13.38-1.9-9.94-3.9-13.39-4-6.93-4-13.88,2-10.48,4-13.89,3.9-6.7,3.9-13.38-1.9-9.94-3.9-13.39-4-6.93-4-13.88c0-3.08.89-7.17,5.16-9.21C75.38,6.68,81,6.91,87.6,7.17c2.63.11,5.34.21,8.31.19l72.2-.76c1.46,0,2.89-.06,4.26-.11,4.82-.2,9-.38,11.61,2.14,1.84,1.77,2.74,4.76,2.74,9.15v.4c0,6.69,1.89,9.94,3.9,13.39s4,6.93,4,13.88-2,10.48-4,13.88-3.9,6.7-3.9,13.39,1.89,9.93,3.9,13.38,4,6.93,4,13.88-2,10.48-4,13.89-3.9,6.7-3.9,13.38,1.89,9.94,3.9,13.39,4,6.93,4,13.88a24.7,24.7,0,0,1-4,14,24.79,24.79,0,0,0-4,13.29c-.25,10.16-8.34,11-18.08,11H95.92c-1.15,0-2.46,0-3.88.08C90.31,192.92,88.44,193,86.52,193ZM81.64,8c-4,0-7.51.37-10.68,1.89-3.8,1.81-4.59,5.51-4.59,8.3,0,6.68,1.89,9.93,3.89,13.38s4,6.93,4,13.89-2.05,10.47-4,13.88-3.89,6.7-3.89,13.39,1.89,9.93,3.89,13.38,4,6.93,4,13.89-2.05,10.47-4,13.88-3.89,6.7-3.89,13.38,1.89,9.94,3.89,13.38,4,6.94,4,13.89-2.05,10.47-4,13.88-3.89,6.7-3.89,13.39a7.89,7.89,0,0,0,2.35,5.95c4.74,4.61,15.46,4.32,23.29,4.12,1.43,0,2.76-.08,3.91-.08h72.71c9.54,0,16.86-.74,17.08-10A25.65,25.65,0,0,1,189.8,168c2-3.47,3.83-6.74,3.83-13.51s-1.89-9.93-3.89-13.38-4-6.93-4-13.89,2-10.47,4-13.88,3.89-6.7,3.89-13.39-1.89-9.93-3.89-13.38-4-6.93-4-13.88,2-10.48,4-13.89,3.89-6.7,3.89-13.38-1.89-9.94-3.89-13.38-4-6.93-4-13.89v-.4c0-4.1-.8-6.86-2.43-8.43C181,7.13,177,7.3,172.41,7.49c-1.38,0-2.81.11-4.29.11l-72.2.76c-3,0-5.72-.08-8.36-.19C85.45,8.08,83.49,8,81.64,8Z"/></g><g id="r6bzn8" class="cls-4"><path class="cls-3" d="M173,91.87a4.78,4.78,0,0,1-.53,7.79c.56,1.1,1.19,2.18,1.68,3.3a23.45,23.45,0,0,1,1.74,8.74A67.75,67.75,0,0,1,174.69,125c-.86,5-1.77,10.08-2.55,15.13a43.89,43.89,0,0,0-.42,10.86,17.74,17.74,0,0,0,.38,1.9,5.65,5.65,0,0,1,.2,1.06,3.47,3.47,0,0,0,1.13,2.4,2.22,2.22,0,0,1,.56,2,5.47,5.47,0,0,0,1.15,4.82,5.31,5.31,0,0,1,1.12,4,2.83,2.83,0,0,1-.61,1.74,2.7,2.7,0,0,0-.5,1.94c0,.8.07-.39,0,.41-.06,3.44-7,7.74-10.14,9.13A68.93,68.93,0,0,1,149.63,185a122.35,122.35,0,0,1-28.41,1.64,79.16,79.16,0,0,1-16.31-2.22A46.62,46.62,0,0,1,89.05,177a12.35,12.35,0,0,1-3.72-4.09,19.21,19.21,0,0,1-.84-8.31,3.33,3.33,0,0,1,.21-1.22,2.57,2.57,0,0,1,.82-1.13,1.23,1.23,0,0,0,.63-1.11c0-.82,0-1.64,0-2.46a10.79,10.79,0,0,1,.67-4.11,28.09,28.09,0,0,0,1.49-12.3C88,137,86.71,131.92,85.65,126.8a65.82,65.82,0,0,1-1.78-13.89,27.22,27.22,0,0,1,2.24-11.06c.09-.2.11-.44.19-.65a3,3,0,0,1,.39-.88c.48-.62.52-.72,0-1.34a8.77,8.77,0,0,0-1.08-1,2.73,2.73,0,0,1-1.14-3.1,1,1,0,0,0,0-.17,3.5,3.5,0,0,1,2-3.62c-.23-.91-.47-1.82-.69-2.74a36.74,36.74,0,0,1-.59-12.54c.61-5.08,1.44-10.12,2.18-15.18a70.21,70.21,0,0,0,.9-11,9.5,9.5,0,0,0-.42-2.8c-.32-.93-.53-1.9-.8-2.85a1.87,1.87,0,0,0-.24-.58,6.55,6.55,0,0,1-1.32-4.29c0-1.36.22-2.72.32-4.09a1.84,1.84,0,0,0-.14-.87c-.33-.77-.74-1.51-1.08-2.27a3.62,3.62,0,0,1-.09-3.1.85.85,0,0,0,0-.58c-.17-.42-.4-.82-.58-1.24a2.62,2.62,0,0,1,0-2.42,1.21,1.21,0,0,0,.12-.38,5.61,5.61,0,0,1,2.32-3.68,19,19,0,0,1,5.81-2.82,88.21,88.21,0,0,1,17.46-3.9,177.45,177.45,0,0,1,30.92-.86,122.21,122.21,0,0,1,20.7,2.7,40.84,40.84,0,0,1,10.44,3.59,12,12,0,0,1,2.68,2,4.49,4.49,0,0,1,1.28,4.35,3.25,3.25,0,0,0,.33,2.45,3.46,3.46,0,0,1-.4,4c-.48.66-1,1.33-1.38,2a1.18,1.18,0,0,0-.14.74,16.85,16.85,0,0,1-.11,5.84,9.34,9.34,0,0,1-.46,1.35,23.23,23.23,0,0,1-1,2.16c-1.12,2.07-1.14,4.3-1.08,6.55a79.44,79.44,0,0,0,1.86,13.55A119.28,119.28,0,0,1,175.48,77c.31,3.54.57,7.09-.37,10.59A10.64,10.64,0,0,1,173,91.87ZM95.64,41.43c.11.82.19,1.44.28,2.07,0,.24.14.47.16.71.1.83.13,1.67.28,2.49a68.34,68.34,0,0,0,5.16,16.23A60.79,60.79,0,0,0,111.73,79.1c1.82,2,3.52,4.1,5.2,6.22a24.36,24.36,0,0,1,4.24,7.36,7.7,7.7,0,0,1-1,7.38c-.56.77-1.14,1.53-1.76,2.26a135.79,135.79,0,0,0-9.75,12.7,77,77,0,0,0-9.37,18.35,63.92,63.92,0,0,0-3.36,17.14,17.8,17.8,0,0,0,.19,5.36,16.86,16.86,0,0,1,.24,4.64,20,20,0,0,0,.07,2.05,2.3,2.3,0,0,0,1.23,1.95c1.51.82,3,1.73,4.52,2.45,6.84,3.17,14.13,4.56,21.61,5.14a86.41,86.41,0,0,0,16.71-.35,65.83,65.83,0,0,0,15.07-3.4,34.69,34.69,0,0,0,7.5-3.71.81.81,0,0,0,.45-.72,89.19,89.19,0,0,0-2.19-21.23,80.7,80.7,0,0,0-10.76-25.18c-2.51-3.93-5.2-7.74-7.78-11.63-1.42-2.13-2.85-4.26-4.16-6.46a7.41,7.41,0,0,1-.1-7.63,33.15,33.15,0,0,1,2.64-4.35c2.72-3.55,5.55-7,8.35-10.53a59.32,59.32,0,0,0,9.41-16,62.76,62.76,0,0,0,3.62-15.69c.14-1.28.22-2.57.34-3.94l-.7.18c-1.29.33-2.58.68-3.88,1a141.29,141.29,0,0,1-30.55,3.22A110.27,110.27,0,0,1,108,44.06c-3.08-.56-6.11-1.4-9.16-2.08C97.86,41.76,96.85,41.63,95.64,41.43Zm35.63-28c-5.18.07-10.35.19-15.5.68-3.4.33-6.81.71-10.19,1.19a76.67,76.67,0,0,0-11.77,2.82,24.6,24.6,0,0,0-6.07,2.56,5.79,5.79,0,0,0-2.59,3,.69.69,0,0,0,.39,1,49.39,49.39,0,0,0,8.34,3.71,89.12,89.12,0,0,0,18.54,4.07,117.66,117.66,0,0,0,15.35.91c4.08,0,8.17-.17,12.24-.47,3.55-.27,7.09-.7,10.59-1.29s7-1.4,10.49-2.23a32.68,32.68,0,0,0,8.34-3.08,11.15,11.15,0,0,0,3.64-3c.12-.16.29-.36.28-.54a2.25,2.25,0,0,0-1.28-2.21c-.36-.17-.7-.41-1.06-.59a42.35,42.35,0,0,0-9.55-3.3A110.86,110.86,0,0,0,143.62,14C139.51,13.73,135.39,13.62,131.27,13.42ZM95,148.44h.18l.15-1.35c0-.47.1-.94.16-1.42a67.43,67.43,0,0,1,7.69-23.3,119.78,119.78,0,0,1,14.51-20.53A31.35,31.35,0,0,0,119.85,99a6.12,6.12,0,0,0,.87-4.71,15.23,15.23,0,0,0-2.15-5.14A59.58,59.58,0,0,0,113,81.8a86.09,86.09,0,0,1-5.81-7A72.64,72.64,0,0,1,95.27,45.21c-.09-.56-.3-.67-.87-.47-.1,1.24-.24,2.5-.29,3.77a65.4,65.4,0,0,0,1.3,14.23A149.15,149.15,0,0,1,97.74,77.9a30.55,30.55,0,0,1-1.25,12.28A2.76,2.76,0,0,0,96.84,93a4.73,4.73,0,0,1,.69,1.43,2.73,2.73,0,0,1-1,3.19c-.55.42-1.1.84-1.61,1.3a.79.79,0,0,0-.09,1.19,17,17,0,0,1,2.42,5,31.91,31.91,0,0,1,1,13.73c-.55,4.39-1.34,8.75-2.07,13.12a68.06,68.06,0,0,0-1.31,12.81C94.82,146,94.94,147.21,95,148.44ZM164.77,43.72c-.05.45-.09.82-.13,1.2A60.45,60.45,0,0,1,161,60.71,69.34,69.34,0,0,1,150,79.4c-3.22,4-6.61,7.86-9.9,11.81a3.38,3.38,0,0,0-.93,2.83,29.23,29.23,0,0,0,.61,3.07,23.19,23.19,0,0,0,3.82,7c2.59,3.51,5.3,6.94,7.77,10.53a77.49,77.49,0,0,1,11.23,23.48,52,52,0,0,1,1.79,8.83c.17,1.76.31,3.52.52,5.27a10.31,10.31,0,0,0,.42,1.61h.17a1.22,1.22,0,0,0,.2-.37,12.75,12.75,0,0,0,.35-2,46.28,46.28,0,0,0-.65-9.77c-.86-4.82-1.85-9.6-2.76-14.4a59.34,59.34,0,0,1-1-18.56,22.23,22.23,0,0,1,2.66-8.61l.45-.74a3.6,3.6,0,0,1-2-2.59,5.07,5.07,0,0,1,1.4-4.57c.18-.21.29-.35.13-.64A20.26,20.26,0,0,1,162,83.36a43.65,43.65,0,0,1,.66-11.69c.59-3.43,1.39-6.82,2.18-10.21a38.9,38.9,0,0,0,.75-16.56C165.47,44.43,165.39,44,164.77,43.72ZM86,164.59a2.21,2.21,0,0,0,.15,1.79,15.94,15.94,0,0,0,5.43,5.46A46.27,46.27,0,0,0,104,177.22a90.22,90.22,0,0,0,14.55,3.14c3.35.44,6.73.74,10.11.93a66.87,66.87,0,0,0,9.8-.29A73.56,73.56,0,0,0,150,179a74.56,74.56,0,0,0,22.24-10c.12-.08.29-.15.36-.27.52-.89,1-1.78,1.49-2.7a1.68,1.68,0,0,0-.06-1.66c0,.94-.72,1.25-1.21,1.74a5.66,5.66,0,0,1-7.82.18c-.37-.38-.67-.81-1-1.23a1.93,1.93,0,0,0-.33.19,37.48,37.48,0,0,1-10.66,4.83,78.55,78.55,0,0,1-20.95,3A81.68,81.68,0,0,1,115.92,172c-6.69-1.18-13.09-3.11-18.82-6.81-.43-.27-.63-.12-.79.28-.09.24-.21.65-.35.66-.61.07-.81.59-1.2.89a5.53,5.53,0,0,1-5.92.51A5.36,5.36,0,0,1,86,164.59Zm10.27-48.65a37.11,37.11,0,0,0-.73-7.82,14.52,14.52,0,0,0-2.1-5.63,3.78,3.78,0,0,0-5.15-1.41,4.19,4.19,0,0,0-.9.51,1.91,1.91,0,0,0-.62.71,25.25,25.25,0,0,0-2.07,9,56.12,56.12,0,0,0,1.45,14.14c1.08,5.41,2.44,10.78,2.9,16.31a35.09,35.09,0,0,1-.12,7.46,25.22,25.22,0,0,1-1.69,6.43c-.11.26-.17.46.19.58a10.25,10.25,0,0,0,6.72.07c.84-.3,1-.64.76-1.5-.36-1.22-.82-2.41-1.19-3.63A28.48,28.48,0,0,1,93.19,139c.52-3.78,1.22-7.54,1.85-11.3A65.88,65.88,0,0,0,96.27,115.94Zm77.94-.22c-.07-1.08-.1-2.16-.22-3.24a25.15,25.15,0,0,0-2-7.71,7.8,7.8,0,0,0-2.66-3.53,2.85,2.85,0,0,0-4.13.66,8.64,8.64,0,0,0-1,2,28.09,28.09,0,0,0-1.38,8.92A58.44,58.44,0,0,0,164,125.37c.75,4.15,1.6,8.28,2.35,12.43a51,51,0,0,1,1,10.89c0,1.17-.14,2.34-.24,3.51a10.16,10.16,0,0,1-1.18,3.61c-.34.66-.17,1.07.53,1.33a7.26,7.26,0,0,0,5.27,0c.63-.22.67-.28.29-.83a12,12,0,0,1-2.21-5.63,34.68,34.68,0,0,1,.45-10.27c.76-4.13,1.63-8.24,2.42-12.36A73.06,73.06,0,0,0,174.21,115.72ZM85.53,29.44l-.22.08a7.44,7.44,0,0,0,.22,1.59,19.9,19.9,0,0,0,1.14,2.43,1.52,1.52,0,0,0,.63.6c1.11.53,2.24,1,3.37,1.52,1.69.74,3.35,1.59,5.1,2.16a84.35,84.35,0,0,0,15.58,3.29,127.72,127.72,0,0,0,13.25,1,124.21,124.21,0,0,0,13.23-.32c3.28-.28,6.56-.52,9.82-1,3.48-.48,6.95-1.11,10.39-1.81a44.26,44.26,0,0,0,7.05-1.84c2.57-1,5-2.38,7.44-3.59a.74.74,0,0,0,.28-.21c.58-.85,1.17-1.69,1.73-2.56s.51-1-.14-1.77a.35.35,0,0,0-.11,0l-.36.18a66.28,66.28,0,0,1-23,7.71c-2.3.31-4.62.44-6.94.59-3.59.25-7.18.55-10.78.63-4.15.09-8.32,0-12.48-.08a90.57,90.57,0,0,1-12.4-1.23,74.1,74.1,0,0,1-20.91-6.45Zm84.64,17.48-1.94-.36c-.85-.17-1.28.21-1.17,1a32.87,32.87,0,0,1-.5,10.61c-.63,3.2-1.41,6.38-2.08,9.58a35.19,35.19,0,0,0-1.2,9.24,49.14,49.14,0,0,0,.92,8.2A11.71,11.71,0,0,0,166,89.76a3.83,3.83,0,0,0,4.3,1.59,4,4,0,0,0,2.51-2.45c1.39-3.17,1.48-6.56,1.56-9.91a25.11,25.11,0,0,0-.56-5.09c-.73-4.13-1.57-8.25-2.34-12.38a62,62,0,0,1-1.34-12.45C170.18,48.34,170.17,47.6,170.17,46.92Zm-81,3.13h0v.4a90.13,90.13,0,0,1-1.5,14c-.7,4.2-1.42,8.39-1.71,12.65a39,39,0,0,0,1,12.22,4,4,0,0,0,1.28,2.49,3.18,3.18,0,0,0,4.38-.19,7.44,7.44,0,0,0,1.33-1.91,17.39,17.39,0,0,0,1.53-7.09c.22-5.7-.76-11.29-1.54-16.9-.53-3.82-1-7.64-1.39-11.48-.2-2.21,0-4.44-.07-6.67,0-.19-.13-.53-.25-.55-.76-.17-1.52-.26-2.29-.36-.53-.07-.75.12-.76.66C89.11,48.23,89.12,49.14,89.12,50.05Zm42-15.57c-4,.07-7.94-.11-11.9-.3-2.72-.14-5.45-.37-8.14-.78-3.59-.54-7.17-1.18-10.72-2a56.1,56.1,0,0,1-15-5.51l-.51-.25-.12.1c.33.87.43,1.92,1.37,2.4,2.1,1.06,4.22,2.09,6.4,3a74.73,74.73,0,0,0,17.68,4.6,114.8,114.8,0,0,0,14.11,1.1c5.64.12,11.26-.09,16.89-.46,1.1-.07,2.21,0,3.3-.14,2.5-.35,5-.78,7.49-1.22a70.94,70.94,0,0,0,11.79-3A28.43,28.43,0,0,0,174,26.15a2.35,2.35,0,0,0,.37-2.46c-.36.41-.69.83-1.06,1.2a17.27,17.27,0,0,1-6,3.71,69,69,0,0,1-12,3.3m17.88,138-.18-.16-.49.28c-1.08.66-2.15,1.35-3.24,2A73.84,73.84,0,0,1,152,179.51,76.78,76.78,0,0,1,123.51,182c-3.68-.41-7.36-.95-11-1.61a72.53,72.53,0,0,1-16.39-4.92,26.91,26.91,0,0,1-8.62-5.61c-.86-.88-1.57-1.9-2.43-3,.29.94.55,1.79.82,2.63,0,.09.16.15.24.23.53.5,1.09,1,1.58,1.51a13.14,13.14,0,0,0,2.77,2.49,67.24,67.24,0,0,0,19.46,7.59,85.84,85.84,0,0,0,13.63,2.1,80.66,80.66,0,0,0,16.8-.53,86.62,86.62,0,0,0,13.14-2.83,92,92,0,0,0,12.91-4.65,16.86,16.86,0,0,0,5.41-3.68A20.26,20.26,0,0,0,173.17,169.93ZM94.72,157l-.35.06a10.94,10.94,0,0,1-6.72,0c-.54-.16-.63,0-.65.49,0,1.53-.13,3.06-.2,4.59,0,.29.08.66-.06.87a1.12,1.12,0,0,0-.11,1.07,4.67,4.67,0,0,0,4,3.18,4.12,4.12,0,0,0,3.74-.94,1.39,1.39,0,0,0,.39-.88c0-2.62,0-5.24,0-7.86Zm77.88.65c-.14,0-.18-.05-.21,0l-.55.19a8,8,0,0,1-5.61-.05c-.74-.28-.82-.25-.85.55-.1,2.2-.16,4.41-.26,6.61a1.38,1.38,0,0,0,.46,1.1,5,5,0,0,0,6.37,0,1.23,1.23,0,0,0,.32-.69c.13-1.74.24-3.49.32-5.23C172.63,159.22,172.6,158.43,172.6,157.62ZM86.85,35.12a15.72,15.72,0,0,0-.21,5.18,9.93,9.93,0,0,0,.74,2.08,1,1,0,0,0,.55.46,9.48,9.48,0,0,0,6.35-.23.77.77,0,0,0,.39-.54,23.61,23.61,0,0,0,0-2.79,1.12,1.12,0,0,0-.51-.79c-1.8-.88-3.62-1.72-5.44-2.56C88.16,35.66,87.55,35.42,86.85,35.12Zm86.31-.6-.66.34c-2.14,1.06-4.27,2.16-6.44,3.15a1.83,1.83,0,0,0-1.16,1.35,2.46,2.46,0,0,0,1.2,2.73,6.22,6.22,0,0,0,5.12.66,2.23,2.23,0,0,0,1.66-1.61A14.33,14.33,0,0,0,173.16,34.52Zm-81.94,63a11,11,0,0,0,1.35-.18A2.87,2.87,0,0,0,95,95.11c.13-.57,0-.67-.56-.66-.25,0-.5,0-.75,0a14.62,14.62,0,0,1-4.33,0,2.64,2.64,0,0,1-2.11-1.82,2.88,2.88,0,0,0-.13-.31c-.18-.38-.4-.45-.77-.18a2.28,2.28,0,0,0-.18,3.68A8,8,0,0,0,91.22,97.5ZM164.8,94a1.75,1.75,0,0,0,.38,2.48,5.88,5.88,0,0,0,6.07.5,2,2,0,0,0,1-1.62c0-.43-.12-.54-.56-.54a35.66,35.66,0,0,1-3.87-.13A24.43,24.43,0,0,1,164.8,94Z"/><path class="cls-3" d="M135.94,90.4c.11-.29.18-.49.27-.68a33.38,33.38,0,0,1,4.95-7.14c2-2.39,4.12-4.75,6-7.24A34.61,34.61,0,0,0,149.65,71a1.11,1.11,0,0,0,.07-.16c.15-.35.39-.6.81-.44s.46.5.3.9a19.13,19.13,0,0,1-2.78,4.92c-1.76,2.21-3.6,4.37-5.45,6.52a35,35,0,0,0-5.47,7.76,1,1,0,0,1-.72.37C136.26,90.85,136.09,90.55,135.94,90.4Z"/><path class="cls-3" d="M109.2,117.53l.27-.56A66.65,66.65,0,0,1,120,102.45s.1-.11.16-.16a.55.55,0,0,1,.86-.07c.3.28.21.58,0,.85-.58.64-1.18,1.26-1.75,1.91a65.16,65.16,0,0,0-8.69,12.5c-.08.15-.15.35-.28.42a.89.89,0,0,1-.63.09C109.41,117.92,109.31,117.67,109.2,117.53Z"/></g><path class="cls-5" d="M101,49.54a2,2,0,0,0-2.51,1.61c1.08-.57,2.22-.16,2.22.91a1.33,1.33,0,0,1-1.39,1.31A1.35,1.35,0,0,1,98,51.84a2.47,2.47,0,0,1,3.07-2.64Zm3.24,0a2,2,0,0,0-2.51,1.61c1.07-.57,2.21-.16,2.21.91a1.32,1.32,0,0,1-1.38,1.31,1.35,1.35,0,0,1-1.32-1.53,2.48,2.48,0,0,1,3.07-2.64Z"/><path class="cls-5" d="M105.06,49.42h3.7l1,4.33h0l2.43-4.33H116l-1.14,7.2h-2.64l.67-4.14h0l-2.32,4.15h-2.23l-1-4.15h0l-.64,4.15h-2.64Z"/><path class="cls-5" d="M116.85,49.42h6.24l-.31,1.95h-3.45l-.13.77h3.06L122,53.8h-3l-.14.87h3.56l-.31,1.95h-6.34Z"/><path class="cls-5" d="M123.83,49.42h2.89l-.79,4.95h3.16l-.35,2.25h-6.05Z"/><path class="cls-5" d="M130.53,49.42h2.88l-1.14,7.2h-2.88Z"/><path class="cls-5" d="M134.3,49.42h2.89l-.35,2.18h0l2.28-2.19h3.47l-3.14,2.76,2,4.44h-3.42l-.88-2.53-.84.72-.28,1.81h-2.89Z"/><path class="cls-5" d="M143.06,49.42h6.24L149,51.37h-3.45l-.13.77h3.06l-.27,1.66h-3l-.14.87h3.56l-.31,1.95h-6.34Z"/><path class="cls-5" d="M151.83,49.42h2.88l-1.14,7.2h-2.88Z"/><path class="cls-5" d="M154.42,55.15l1.82-1.09a3,3,0,0,0,2.25.88c.65,0,1.06-.15,1.06-.43s-.3-.39-.84-.47l-1.06-.14c-1.8-.26-2.57-.86-2.57-2,0-1.87,1.82-2.69,3.91-2.69,1.75,0,3,.58,3.46,1.47l-1.69,1.06A2.44,2.44,0,0,0,159,51c-.65,0-1.12.14-1.12.41s.34.34.89.43l.94.13c1.86.27,2.65.91,2.65,2.1,0,1.79-2,2.73-4.12,2.73C156.37,56.83,154.94,56.19,154.42,55.15Z"/><path class="cls-5" d="M78.67,61.42h3l.77,4.77h0l2.28-4.77h3l-4,7.2H80.34Z"/><path class="cls-5" d="M88.14,61.42h6.24l-.31,1.95H90.62l-.13.77h3.06l-.27,1.66h-3l-.14.87h3.56l-.31,2H87Z"/><path class="cls-5" d="M98.72,67.44l-.16-.62a.79.79,0,0,0-.77-.5h-.56l-.36,2.3H94l1.14-7.2h4.79c1.79,0,2.8.72,2.8,2a2.41,2.41,0,0,1-2,2.35h0a.75.75,0,0,1,.47.61l.21.52a.4.4,0,0,0,.42.29,1,1,0,0,0,.43-.12l.17,1.18a3.91,3.91,0,0,1-1.93.52A1.73,1.73,0,0,1,98.72,67.44Zm0-2.77c.66,0,1-.3,1-.85,0-.39-.28-.6-.8-.6H97.72l-.23,1.45Z"/><path class="cls-5" d="M105,66.22,103,61.42h3l.85,2.72h0l1.6-2.72h3l-3.51,4.8-.38,2.4h-2.89Z"/><path class="cls-5" d="M113.68,61.42h2.89l-.79,5h3.16l-.35,2.25h-6Z"/><path class="cls-5" d="M122.74,61.42h3.44l1.62,7.2h-3l-.16-1.13h-2.45l-.55,1.13h-2.89Zm1.78,4.4-.38-2.46h0l-1.21,2.46Z"/><path class="cls-5" d="M129.39,61.42h2.88l-1.14,7.2h-2.88Z"/><path class="cls-5" d="M133.16,61.42h3.93c2.47,0,3.83,1.06,3.83,3,0,2.7-1.7,4.21-4.79,4.21H132Zm3,5.15a1.7,1.7,0,0,0,1.87-1.87c0-.8-.49-1.23-1.38-1.23h-1.07l-.49,3.1Z"/><path class="cls-5" d="M141.55,64.68h5.06v.52h-5.06Z"/><path class="cls-5" d="M148.35,61.42h4.88c1.61,0,2.59.71,2.59,1.79A1.86,1.86,0,0,1,154.39,65v0a1.36,1.36,0,0,1,1.08,1.39c0,1.3-1.31,2.25-3.07,2.25h-5.19Zm3.46,5.5c.5,0,.82-.26.82-.68s-.24-.52-.63-.52h-1.45l-.19,1.2Zm.32-2.65c.5,0,.79-.29.79-.67s-.22-.48-.61-.48H151l-.18,1.15Z"/><path class="cls-5" d="M159,61.42h3.44l1.61,7.2h-3l-.16-1.13h-2.45l-.55,1.13h-2.89Zm1.78,4.4-.38-2.46h0l-1.21,2.46Z"/><path class="cls-5" d="M164.38,65.53a4.51,4.51,0,0,1,4.78-4.29c2.3,0,3.72,1.09,3.78,2.78l-2.69.49A1.11,1.11,0,0,0,169,63.43a1.85,1.85,0,0,0-1.75,1.9c0,.79.59,1.26,1.5,1.26a1.88,1.88,0,0,0,1.85-1.24l2.61.36a4.74,4.74,0,0,1-4.68,3.1C166,68.81,164.38,67.56,164.38,65.53Z"/><path class="cls-5" d="M174.48,61.42h2.89L177,63.6h0l2.28-2.19h3.46l-3.13,2.76,2,4.44h-3.41l-.88-2.53-.84.72-.28,1.81h-2.89Z"/><path class="cls-5" d="M93.32,73.42h3.44l1.62,7.2h-3l-.16-1.13H92.8l-.55,1.13H89.36Zm1.78,4.4-.38-2.46h0l-1.21,2.46Z"/><path class="cls-5" d="M100,73.42h4.88c1.61,0,2.6.71,2.6,1.79A1.86,1.86,0,0,1,106,77v0a1.37,1.37,0,0,1,1.08,1.39c0,1.3-1.32,2.25-3.08,2.25H98.83Zm3.46,5.5c.5,0,.82-.26.82-.68s-.24-.52-.63-.52h-1.45l-.19,1.2Zm.32-2.65c.5,0,.79-.29.79-.67s-.22-.48-.61-.48h-1.34l-.18,1.15Z"/><path class="cls-5" d="M107.74,77.67c0-2.69,2.36-4.48,5.22-4.48,2.57,0,4.13,1.23,4.13,3.18,0,2.68-2.35,4.49-5.21,4.49C109.31,80.86,107.74,79.62,107.74,77.67Zm6.44-1c0-.81-.57-1.31-1.53-1.31a1.94,1.94,0,0,0-2,2c0,.81.57,1.31,1.53,1.31A1.94,1.94,0,0,0,114.18,76.69Z"/><path class="cls-5" d="M117.58,77.68l.67-4.26h2.89l-.64,4.16c-.11.66.25,1,1,1a1.2,1.2,0,0,0,1.34-1l.66-4.16h2.88l-.67,4.32c-.32,2-1.95,3.07-4.56,3.07S117.26,79.69,117.58,77.68Z"/><path class="cls-5" d="M128.71,75.62h-2.13l.35-2.2h7.16l-.35,2.2H131.6l-.79,5h-2.89Z"/><path class="cls-5" d="M136.48,73.42h3.7l1,4.33h0l2.43-4.33h3.7l-1.14,7.2h-2.63l.67-4.14h0l-2.32,4.15h-2.23l-1.05-4.15h0L138,80.62h-2.64Z"/><path class="cls-5" d="M147.44,77.67c0-2.69,2.36-4.48,5.22-4.48,2.57,0,4.14,1.23,4.14,3.18,0,2.68-2.36,4.49-5.22,4.49C149,80.86,147.44,79.62,147.44,77.67Zm6.44-1c0-.81-.57-1.31-1.53-1.31a1.94,1.94,0,0,0-2,2c0,.81.57,1.31,1.53,1.31A1.94,1.94,0,0,0,153.88,76.69Z"/><path class="cls-5" d="M156.83,79.15l1.82-1.09a3,3,0,0,0,2.25.88c.65,0,1.06-.15,1.06-.43s-.3-.39-.84-.47l-1.06-.14c-1.8-.26-2.57-.86-2.57-2,0-1.87,1.82-2.69,3.91-2.69,1.75,0,3,.58,3.46,1.47l-1.69,1.06a2.44,2.44,0,0,0-1.77-.7c-.65,0-1.12.14-1.12.41s.34.34.89.43l.94.13c1.86.27,2.65.91,2.65,2.1,0,1.79-2,2.73-4.12,2.73C158.78,80.83,157.35,80.19,156.83,79.15Z"/><path class="cls-5" d="M167.21,75.62h-2.13l.35-2.2h7.16l-.35,2.2H170.1l-.79,5h-2.89Z"/><path class="cls-5" d="M82.4,87.62H80.27l.35-2.2h7.16l-.35,2.2H85.29l-.79,5H81.61Z"/><path class="cls-5" d="M88.38,85.42h2.89l-.39,2.45h2.36l.39-2.45h2.88l-1.13,7.2H92.49l.43-2.7H90.56l-.43,2.7H87.24Z"/><path class="cls-5" d="M97.42,85.42h2.88l-1.14,7.2H96.28Z"/><path class="cls-5" d="M101.19,85.42h3.36l2,4.2h0l.67-4.2h2.65l-1.13,7.2h-3.36l-2-4.23h0l-.67,4.23h-2.66Z"/><path class="cls-5" d="M110,89.82a4.62,4.62,0,0,1,4.89-4.58c2.17,0,3.51,1,3.67,2.48l-2.75.43a1.06,1.06,0,0,0-1.13-.77,1.81,1.81,0,0,0-1.76,1.93,1.39,1.39,0,0,0,1.57,1.41,1.67,1.67,0,0,0,1.69-.85h-2.47l.23-1.45h5.22l-.66,4.2h-2.13l0-1.15h0a3.88,3.88,0,0,1-3,1.31C111.25,92.78,110,91.63,110,89.82Z"/><path class="cls-5" d="M119.21,91.15,121,90.06a3,3,0,0,0,2.25.88c.65,0,1.06-.15,1.06-.43s-.3-.39-.84-.47l-1.06-.14c-1.8-.26-2.57-.86-2.57-2,0-1.87,1.82-2.69,3.91-2.69,1.75,0,3,.58,3.45,1.47l-1.68,1.06a2.44,2.44,0,0,0-1.77-.7c-.65,0-1.12.14-1.12.41s.34.34.89.43l.94.13c1.85.27,2.64.91,2.64,2.1,0,1.79-1.95,2.73-4.11,2.73C121.16,92.83,119.73,92.19,119.21,91.15Z"/><path class="cls-5" d="M127,94.05a2,2,0,0,0,2.52-1.61c-1.08.57-2.22.16-2.22-.91a1.33,1.33,0,0,1,1.39-1.31c.81,0,1.31.62,1.31,1.53a2.48,2.48,0,0,1-3.07,2.65Z"/><path class="cls-5" d="M133.5,85.42h6.24l-.31,2H136l-.13.77h3.06l-.27,1.66h-3l-.14.87H139l-.31,2h-6.34Z"/><path class="cls-5" d="M142.43,88.86,140,85.42h3.07l1.22,1.77,1.72-1.77h3.13L145.63,89,148,92.62h-3.12l-1.22-1.84L142,92.62h-3.08Z"/><path class="cls-5" d="M148.41,89.53a4.51,4.51,0,0,1,4.78-4.29c2.3,0,3.72,1.09,3.78,2.78l-2.69.49a1.11,1.11,0,0,0-1.22-1.08,1.85,1.85,0,0,0-1.75,1.9c0,.79.59,1.26,1.5,1.26a1.9,1.9,0,0,0,1.86-1.24l2.6.36a4.74,4.74,0,0,1-4.68,3.1C150,92.81,148.41,91.56,148.41,89.53Z"/><path class="cls-5" d="M158.51,85.42h6.24l-.31,2H161l-.13.77h3.06l-.27,1.66H160.6l-.14.87H164l-.31,2h-6.34Z"/><path class="cls-5" d="M165.49,85.42h4.73c1.76,0,2.75.78,2.75,2.2,0,1.87-1.24,2.92-3.45,2.92h-2l-.33,2.08h-2.88Zm3.44,3.37c.73,0,1.13-.34,1.13-1,0-.43-.31-.67-.87-.67H168.1l-.26,1.62Z"/><path class="cls-5" d="M175.46,87.62h-2.13l.35-2.2h7.15l-.35,2.2h-2.13l-.79,5h-2.89Z"/><path class="cls-5" d="M79.13,109.42H82l-1.14,7.2H78Z"/><path class="cls-5" d="M82.9,109.42h6.34l-.35,2.2H85.44l-.15.92h2.86l-.3,1.86H85l-.35,2.22H81.76Z"/><path class="cls-5" d="M93.27,114.22l-2.07-4.8h3l.85,2.72h0l1.6-2.72h3l-3.51,4.8-.38,2.4H92.89Z"/><path class="cls-5" d="M98.69,113.67c0-2.69,2.36-4.48,5.22-4.48,2.57,0,4.14,1.23,4.14,3.18,0,2.68-2.36,4.49-5.22,4.49C100.26,116.86,98.69,115.62,98.69,113.67Zm6.44-1c0-.81-.57-1.31-1.53-1.31a1.94,1.94,0,0,0-2,2c0,.81.57,1.31,1.53,1.31A1.94,1.94,0,0,0,105.13,112.69Z"/><path class="cls-5" d="M108.54,113.68l.66-4.26h2.89l-.64,4.16c-.11.66.25,1,1,1a1.2,1.2,0,0,0,1.34-1l.66-4.16h2.89l-.68,4.32c-.32,2-2,3.07-4.56,3.07S108.21,115.69,108.54,113.68Z"/><path class="cls-5" d="M120,109.42h3.7l1,4.33h0l2.43-4.33h3.71l-1.14,7.2h-2.64l.67-4.14h0l-2.32,4.15h-2.23l-1.05-4.15h0l-.64,4.15h-2.63Z"/><path class="cls-5" d="M134.12,109.42h3.44l1.62,7.2h-3l-.16-1.13H133.6l-.55,1.13h-2.88Zm1.78,4.4-.38-2.46h0l-1.21,2.46Z"/><path class="cls-5" d="M140.77,109.42h2.89l-.35,2.18h0l2.28-2.19h3.47l-3.14,2.76,2,4.44h-3.42l-.88-2.53-.84.72-.28,1.81h-2.89Z"/><path class="cls-5" d="M149.53,109.42h6.24l-.31,2H152l-.13.77h3.06l-.27,1.66h-3l-.14.87H155l-.31,2h-6.34Z"/><path class="cls-5" d="M158.3,109.42h2.89l-.39,2.45h2.36l.39-2.45h2.89l-1.14,7.2h-2.89l.43-2.7h-2.36l-.43,2.7h-2.89Z"/><path class="cls-5" d="M167.34,109.42h6.24l-.31,2h-3.45l-.13.77h3.06l-.27,1.66h-3l-.14.87h3.56l-.31,2H166.2Z"/><path class="cls-5" d="M177.92,115.44l-.16-.62a.79.79,0,0,0-.77-.5h-.56l-.36,2.3h-2.89l1.14-7.2h4.79c1.79,0,2.8.72,2.8,2a2.41,2.41,0,0,1-2,2.35h0a.75.75,0,0,1,.47.61l.21.52a.4.4,0,0,0,.42.29,1,1,0,0,0,.44-.12l.17,1.18a4,4,0,0,1-1.94.52A1.73,1.73,0,0,1,177.92,115.44Zm0-2.77c.66,0,1-.3,1-.85,0-.39-.28-.6-.8-.6h-1.26l-.23,1.45Z"/><path class="cls-5" d="M96.52,121.42h2.9l.56,4.72h0l2.19-4.72h3.19l.71,4.72h0l2-4.72h2.9l-3.61,7.2h-3.31l-.73-4.69h0l-2.22,4.69H97.84Z"/><path class="cls-5" d="M112.63,121.42h3.44l1.62,7.2h-3l-.16-1.13h-2.45l-.55,1.13h-2.88Zm1.78,4.4-.38-2.46h0l-1.21,2.46Z"/><path class="cls-5" d="M119.29,121.42h2.87l-1.14,7.2h-2.87Z"/><path class="cls-5" d="M124.53,123.62H122.4l.36-2.2h7.15l-.35,2.2h-2.14l-.79,5h-2.89Z"/><path class="cls-5" d="M133.78,123.62h-2.13l.36-2.2h7.15l-.35,2.2h-2.14l-.79,5H133Z"/><path class="cls-5" d="M139.76,121.42h2.89l-.39,2.45h2.36l.39-2.45h2.89l-1.14,7.2h-2.89l.43-2.7h-2.36l-.43,2.7h-2.88Z"/><path class="cls-5" d="M148.8,121.42H155l-.31,2h-3.45l-.13.77h3.06l-.27,1.66h-3.05l-.14.87h3.56l-.31,2h-6.33Z"/><path class="cls-5" d="M155.78,121.42h3.36l2,4.2h0l.67-4.2h2.66l-1.14,7.2H160l-2-4.23h0l-.67,4.23h-2.66Z"/><path class="cls-5" d="M79.22,138.22l-2.06-4.8h3l.85,2.72h0l1.6-2.72h3l-3.51,4.8-.38,2.4H78.84Z"/><path class="cls-5" d="M84.65,137.67c0-2.69,2.36-4.48,5.21-4.48,2.57,0,4.14,1.23,4.14,3.18,0,2.68-2.36,4.49-5.22,4.49C86.21,140.86,84.65,139.62,84.65,137.67Zm6.43-1c0-.81-.57-1.31-1.53-1.31a1.94,1.94,0,0,0-2,2c0,.81.57,1.31,1.53,1.31A1.94,1.94,0,0,0,91.08,136.69Z"/><path class="cls-5" d="M94.49,137.68l.67-4.26H98l-.64,4.16c-.11.66.25,1,1,1a1.2,1.2,0,0,0,1.34-1l.66-4.16h2.89l-.68,4.32c-.32,2-2,3.07-4.56,3.07S94.17,139.69,94.49,137.68Z"/><path class="cls-5" d="M105.12,137.53a4.5,4.5,0,0,1,4.77-4.29c2.3,0,3.73,1.09,3.79,2.78l-2.7.49a1.11,1.11,0,0,0-1.22-1.08,1.85,1.85,0,0,0-1.75,1.9c0,.79.59,1.26,1.5,1.26a1.9,1.9,0,0,0,1.86-1.24l2.61.36a4.76,4.76,0,0,1-4.69,3.1C106.72,140.81,105.12,139.56,105.12,137.53Z"/><path class="cls-5" d="M117.1,133.42h3.44l1.62,7.2h-3l-.16-1.13h-2.45l-.55,1.13h-2.88Zm1.78,4.4-.38-2.46h0l-1.21,2.46Z"/><path class="cls-5" d="M123.76,133.42h3.35l2,4.2h0l.67-4.2h2.66l-1.14,7.2H128l-2-4.23h0l-.67,4.23h-2.65Z"/><path class="cls-5" d="M135.14,133.42h6.34l-.35,2.2h-3.45l-.15.92h2.86l-.3,1.86h-2.85l-.35,2.22H134Z"/><path class="cls-5" d="M141.25,137.67c0-2.69,2.35-4.48,5.21-4.48,2.57,0,4.14,1.23,4.14,3.18,0,2.68-2.36,4.49-5.22,4.49C142.81,140.86,141.25,139.62,141.25,137.67Zm6.43-1c0-.81-.57-1.31-1.53-1.31a1.94,1.94,0,0,0-2,2c0,.81.57,1.31,1.53,1.31A1.94,1.94,0,0,0,147.68,136.69Z"/><path class="cls-5" d="M155.41,139.44l-.16-.62a.79.79,0,0,0-.77-.5h-.56l-.36,2.3h-2.88l1.14-7.2h4.78c1.79,0,2.8.72,2.8,2a2.41,2.41,0,0,1-2,2.35h0a.75.75,0,0,1,.47.61l.21.52a.4.4,0,0,0,.42.29,1,1,0,0,0,.44-.12l.17,1.18a4,4,0,0,1-1.94.52A1.73,1.73,0,0,1,155.41,139.44Zm0-2.77c.66,0,1-.3,1-.85,0-.39-.28-.6-.8-.6h-1.26l-.23,1.45Z"/><path class="cls-5" d="M159.88,137.82a4.62,4.62,0,0,1,4.88-4.58c2.17,0,3.52,1,3.67,2.48l-2.75.43a1.06,1.06,0,0,0-1.13-.77,1.81,1.81,0,0,0-1.76,1.93,1.39,1.39,0,0,0,1.57,1.41,1.67,1.67,0,0,0,1.69-.85h-2.47l.23-1.45H169l-.66,4.2h-2.14l0-1.15h0a3.88,3.88,0,0,1-3,1.31C161.17,140.78,159.88,139.63,159.88,137.82Z"/><path class="cls-5" d="M170.32,133.42h6.23l-.31,2h-3.45l-.13.77h3.06l-.27,1.66h-3l-.14.87h3.56l-.31,2h-6.33Z"/><path class="cls-5" d="M178.77,135.62h-2.13l.36-2.2h7.15l-.35,2.2h-2.14l-.79,5H178Z"/><path class="cls-5" d="M101.35,145.42h3.44l1.62,7.2h-3l-.16-1.13h-2.45l-.55,1.13H97.4Zm1.78,4.4-.38-2.46h0l-1.21,2.46Z"/><path class="cls-5" d="M108,145.42h4.87c1.61,0,2.6.71,2.6,1.79a1.86,1.86,0,0,1-1.43,1.75v0a1.37,1.37,0,0,1,1.08,1.39c0,1.3-1.32,2.25-3.08,2.25h-5.18Zm3.45,5.5c.5,0,.82-.26.82-.68s-.24-.52-.63-.52H110.2l-.19,1.2Zm.32-2.65c.5,0,.79-.29.79-.67s-.22-.48-.61-.48h-1.34l-.18,1.15Z"/><path class="cls-5" d="M115.77,149.67c0-2.69,2.36-4.48,5.22-4.48,2.57,0,4.14,1.23,4.14,3.18,0,2.68-2.36,4.49-5.22,4.49C117.34,152.86,115.77,151.62,115.77,149.67Zm6.44-1c0-.81-.57-1.31-1.53-1.31a1.94,1.94,0,0,0-2,2c0,.81.57,1.31,1.53,1.31A1.94,1.94,0,0,0,122.21,148.69Z"/><path class="cls-5" d="M125.62,149.68l.66-4.26h2.89l-.64,4.16c-.11.66.25,1,1,1a1.2,1.2,0,0,0,1.34-1l.66-4.16h2.89l-.68,4.32c-.32,2-2,3.07-4.56,3.07S125.3,151.69,125.62,149.68Z"/><path class="cls-5" d="M136.74,147.62h-2.13l.35-2.2h7.16l-.35,2.2h-2.14l-.79,5H136Z"/><path class="cls-5" d="M144.51,145.42h2.88l-1.14,7.2h-2.87Z"/><path class="cls-5" d="M149.76,147.62h-2.13l.35-2.2h7.16l-.35,2.2h-2.14l-.79,5H149Z"/><path class="cls-5" d="M153.55,151.55a1.34,1.34,0,0,1,1.46-1.33,1.19,1.19,0,0,1,1.3,1.18,1.34,1.34,0,0,1-1.46,1.32A1.18,1.18,0,0,1,153.55,151.55Z"/><path class="cls-5" d="M156.24,148.93a2,2,0,0,0,2.52-1.61c-1.08.57-2.22.17-2.22-.91a1.33,1.33,0,0,1,1.39-1.29c.81,0,1.31.6,1.31,1.51a2.48,2.48,0,0,1-3.07,2.65Zm3.24,0a2,2,0,0,0,2.51-1.61c-1.07.57-2.21.17-2.21-.91a1.36,1.36,0,1,1,2.7.22,2.48,2.48,0,0,1-3.07,2.65Z"/><path class="cls-5" d="M124.8,100.85a1.34,1.34,0,0,1,1.46-1.33,1.19,1.19,0,0,1,1.3,1.18A1.34,1.34,0,0,1,126.1,102,1.19,1.19,0,0,1,124.8,100.85Z"/><path class="cls-5" d="M128.39,100.85a1.34,1.34,0,0,1,1.46-1.33,1.19,1.19,0,0,1,1.3,1.18,1.34,1.34,0,0,1-1.46,1.32A1.19,1.19,0,0,1,128.39,100.85Z"/><path class="cls-5" d="M132,100.85a1.35,1.35,0,0,1,1.47-1.33,1.19,1.19,0,0,1,1.3,1.18,1.34,1.34,0,0,1-1.46,1.32A1.19,1.19,0,0,1,132,100.85Z"/><rect class="cls-5" x="121.58" y="151.82" width="66.6" height="9.86" rx="4.93" transform="translate(-11.7 12.5) rotate(-4.45)"/><rect class="cls-6" x="121.49" y="151.16" width="66.6" height="9.86" rx="4.93" transform="translate(-11.65 12.49) rotate(-4.45)"/><path class="cls-5" d="M126.6,158.29l4.5-.35,0,.24-4.5.35Z"/><path class="cls-5" d="M132.91,155.23l1.73-.13,2.32,4.13-1.54.12-.38-.73-2,.16-.25.78-1.54.11Zm1.77,2.54-.85-1.64h0l-.6,1.75Z"/><path class="cls-5" d="M138,156l1.4-.11.93,1.92h0l.79-2.06,1.21-.09,1.09,1.94h0l.62-2.07,1.4-.11-1.12,3.19-1.45.11-1.07-1.92h0l-.76,2.07-1.44.11Z"/><path class="cls-5" d="M145.59,154.42a.69.69,0,0,1,.69-.74.7.7,0,0,1,.81.63.75.75,0,0,1-1.5.11Zm.15,1,1.35-.11.24,3.09-1.35.1Z"/><path class="cls-5" d="M147.63,158l.3-.75a3.69,3.69,0,0,0,1.84.31c.64-.05.92-.17.91-.31s-.23-.18-.64-.17h-.73c-1,0-1.53-.2-1.57-.76-.06-.78.75-1.19,1.91-1.28a3.84,3.84,0,0,1,1.79.27l-.27.68a3.15,3.15,0,0,0-1.48-.23c-.48,0-.84.14-.82.29s.19.16.54.16h.74c1.08,0,1.64.22,1.69.84s-.77,1.17-1.92,1.26A5,5,0,0,1,147.63,158Z"/><path class="cls-5" d="M152,156.5c-.08-1,.82-1.72,2.19-1.82s2.27.48,2.35,1.47a1.17,1.17,0,0,1,0,.32l-3.08.25a1.29,1.29,0,0,0,1.26.4,3.2,3.2,0,0,0,1.45-.42l.42.64a3.74,3.74,0,0,1-1.9.6C153.16,158.06,152.09,157.5,152,156.5Zm3.16-.53c0-.35-.45-.56-.93-.52s-.83.31-.86.66Z"/><path class="cls-5" d="M158.85,155.28l-.83.06-.06-.85.82-.07,0-.22c-.06-.8.53-1.3,1.62-1.39a2.72,2.72,0,0,1,1.47.29l-.23.83a1.67,1.67,0,0,0-.92-.2c-.38,0-.6.22-.58.51v.08l1.58-.13.07.86-1.58.12.17,2.23-1.35.11Z"/><path class="cls-5" d="M165.83,155.14l-1.21.34c-.06-.45-.28-.73-.56-.71s-.58.42-.53,1l.11,1.38-1.36.1-.24-3.08,1.13-.09.24.7h0a1.33,1.33,0,0,1,1.16-.91C165.23,153.82,165.72,154.32,165.83,155.14Z"/><path class="cls-5" d="M165.88,152.84a.69.69,0,0,1,.69-.74.7.7,0,0,1,.81.63.71.71,0,0,1-.7.75A.7.7,0,0,1,165.88,152.84Zm.15,1,1.35-.11.24,3.09-1.35.1Z"/><path class="cls-5" d="M167.88,155.26c-.08-1,.83-1.71,2.19-1.82s2.27.48,2.35,1.47a1.23,1.23,0,0,1,0,.33l-3.08.24c.18.35.7.45,1.26.41a3.27,3.27,0,0,0,1.44-.43l.43.64a3.81,3.81,0,0,1-1.91.61C169,156.83,168,156.27,167.88,155.26Zm3.16-.52c0-.35-.45-.56-.92-.53s-.84.32-.86.67Z"/><path class="cls-5" d="M177.21,154.34l.13,1.74-1.34.11-.12-1.6a.73.73,0,0,0-.86-.72.86.86,0,0,0-.85,1l.12,1.45-1.35.11-.24-3.09,1.17-.09.2.74h0a1.73,1.73,0,0,1,1.5-1A1.38,1.38,0,0,1,177.21,154.34Z"/><path class="cls-5" d="M177.53,154.52a1.59,1.59,0,0,1,1.6-1.78,1.68,1.68,0,0,1,1.67.76h0l-.17-2.16,1.36-.11.34,4.46-1.16.09-.24-.78h0a1.68,1.68,0,0,1-1.53,1A1.59,1.59,0,0,1,177.53,154.52Zm3.38-.27c0-.42-.46-.67-1.07-.62s-1,.36-1,.78.45.67,1.06.62S180.94,154.68,180.91,154.25Z"/></svg>