<svg id="Layer_1" data-name="Layer 1" xmlns="http://www.w3.org/2000/svg" viewBox="0 0 260 200"><defs><style>.cls-1{fill:#e6ccf6;}.cls-2{fill:#b481f3;}.cls-3{fill:#fff;}</style></defs><path class="cls-1" d="M202.68,78.44v-.12A43.91,43.91,0,0,0,130,45.16,43.91,43.91,0,0,0,57.32,78.32v.12c0,.24,0,.49,0,.73a60.52,60.52,0,0,0,4,20.83,60.51,60.51,0,0,0-4,20.82c0,.25,0,.49,0,.74v.12A43.91,43.91,0,0,0,130,154.84a43.91,43.91,0,0,0,72.68-33.16v-.12c0-.25,0-.49,0-.74a60.51,60.51,0,0,0-4-20.82,60.52,60.52,0,0,0,4-20.83C202.67,78.93,202.68,78.68,202.68,78.44Z"/><path class="cls-2" d="M90,72.25a1.93,1.93,0,0,0-2.45,1.57c1.06-.55,2.17-.15,2.17.89A1.31,1.31,0,0,1,88.4,76a1.32,1.32,0,0,1-1.29-1.49,2.43,2.43,0,0,1,3-2.59Zm3.16,0a1.93,1.93,0,0,0-2.45,1.57c1-.55,2.16-.15,2.16.89A1.3,1.3,0,0,1,91.56,76a1.32,1.32,0,0,1-1.29-1.49,2.43,2.43,0,0,1,3-2.59Z"/><path class="cls-2" d="M92.82,77.72l1.77-1.06a3,3,0,0,0,2.19.86c.64,0,1-.15,1-.42s-.3-.38-.82-.46l-1-.14c-1.75-.25-2.5-.83-2.5-2,0-1.82,1.77-2.62,3.81-2.62,1.71,0,2.92.57,3.37,1.44l-1.64,1a2.38,2.38,0,0,0-1.73-.68c-.63,0-1.09.13-1.09.4s.33.33.87.42l.91.12c1.82.27,2.59.89,2.59,2,0,1.75-1.91,2.66-4,2.66C94.72,79.36,93.32,78.74,92.82,77.72Z"/><path class="cls-2" d="M101.88,72.14h2.82l-.38,2.39h2.3l.38-2.39h2.82l-1.12,7h-2.81l.42-2.64H104l-.42,2.64h-2.81Z"/><path class="cls-2" d="M110.69,72.14h6.08l-.3,1.9h-3.36l-.13.75h3l-.26,1.62h-3l-.14.85h3.47l-.3,1.9h-6.18Z"/><path class="cls-2" d="M119.24,72.14H122l-1.11,7h-2.81Z"/><path class="cls-2" d="M121.76,77.72l1.77-1.06a3,3,0,0,0,2.2.86c.63,0,1-.15,1-.42s-.29-.38-.82-.46l-1-.14c-1.76-.25-2.51-.83-2.51-2,0-1.82,1.78-2.62,3.82-2.62,1.7,0,2.91.57,3.37,1.44l-1.65,1a2.36,2.36,0,0,0-1.72-.68c-.64,0-1.1.13-1.1.4s.33.33.87.42l.92.12c1.81.27,2.58.89,2.58,2,0,1.75-1.91,2.66-4,2.66C123.66,79.36,122.27,78.74,121.76,77.72Z"/><path class="cls-2" d="M132.57,72.14h6.08l-.3,1.9H135l-.13.75h3l-.26,1.62h-3l-.14.85h3.47l-.3,1.9h-6.18Z"/><path class="cls-2" d="M139.37,72.14h2.81l-1.11,7h-2.81Z"/><path class="cls-2" d="M144.49,74.28h-2.08l.34-2.14h7l-.34,2.14H147.3l-.77,4.88h-2.81Z"/><path class="cls-2" d="M150.31,72.14h2.82l-.38,2.39h2.3l.38-2.39h2.82l-1.11,7h-2.82l.42-2.64h-2.3L152,79.16H149.2Z"/><path class="cls-2" d="M159.12,72.14h6.09l-.3,1.9h-3.37l-.12.75h3l-.26,1.62h-3l-.13.85h3.47l-.3,1.9H158Z"/><path class="cls-2" d="M169.44,78l-.16-.61a.77.77,0,0,0-.75-.49H168l-.36,2.25h-2.81l1.11-7h4.67c1.74,0,2.73.7,2.73,2a2.34,2.34,0,0,1-1.92,2.29h0a.72.72,0,0,1,.46.59l.2.51a.4.4,0,0,0,.41.28,1,1,0,0,0,.43-.12l.16,1.16a3.82,3.82,0,0,1-1.89.5A1.68,1.68,0,0,1,169.44,78Zm0-2.7c.64,0,1-.3,1-.83s-.27-.59-.78-.59h-1.23l-.22,1.42Z"/><path class="cls-2" d="M104.39,88l.66-4.16h2.81l-.62,4.06c-.11.64.24,1,1,1a1.17,1.17,0,0,0,1.3-1l.65-4.06H113L112.32,88c-.31,1.92-1.9,3-4.45,3S104.08,90,104.39,88Z"/><path class="cls-2" d="M115.24,86h-2.08l.35-2.15h7L120.15,86h-2.09l-.77,4.87h-2.82Z"/><path class="cls-2" d="M122.61,86h-2.08l.34-2.15h7L127.51,86h-2.08l-.77,4.87h-2.82Z"/><path class="cls-2" d="M128.44,83.83h6.08l-.3,1.9h-3.36l-.13.75h3l-.26,1.62h-3l-.14.85h3.47l-.3,1.9h-6.18Z"/><path class="cls-2" d="M138.75,89.7l-.16-.6a.75.75,0,0,0-.75-.49h-.54L137,90.85h-2.82l1.11-7h4.67c1.75,0,2.73.7,2.73,2a2.34,2.34,0,0,1-1.92,2.29h0a.75.75,0,0,1,.46.6l.2.5a.4.4,0,0,0,.41.29,1,1,0,0,0,.43-.12l.17,1.15a3.88,3.88,0,0,1-1.89.51A1.69,1.69,0,0,1,138.75,89.7Zm0-2.7c.64,0,1-.29,1-.83,0-.38-.27-.58-.78-.58h-1.22L137.55,87Z"/><path class="cls-2" d="M143.91,83.83h2.82L146,88.66H149l-.34,2.19h-5.9Z"/><path class="cls-2" d="M150.52,88.51l-2-4.68h2.9l.83,2.65h0l1.56-2.65h2.95l-3.42,4.68L153,90.85h-2.82Z"/><path class="cls-2" d="M88.39,99.67c0-2.62,2.3-4.38,5.09-4.38,2.5,0,4,1.21,4,3.11,0,2.62-2.3,4.38-5.09,4.38C89.92,102.78,88.39,101.57,88.39,99.67Zm6.27-1c0-.79-.55-1.27-1.49-1.27a1.89,1.89,0,0,0-1.94,1.92c0,.79.56,1.28,1.5,1.28A1.88,1.88,0,0,0,94.66,98.71Z"/><path class="cls-2" d="M98.69,95.53h4.76c1.57,0,2.53.69,2.53,1.74A1.83,1.83,0,0,1,104.59,99v0a1.33,1.33,0,0,1,1,1.35c0,1.27-1.29,2.2-3,2.2H97.58Zm3.37,5.36c.49,0,.8-.25.8-.66s-.23-.51-.61-.51h-1.42l-.18,1.17Zm.31-2.58a.68.68,0,0,0,.77-.66c0-.29-.21-.47-.59-.47h-1.31l-.17,1.13Z"/><path class="cls-2" d="M105.92,101.11l1.77-1.06a3,3,0,0,0,2.2.86c.63,0,1-.15,1-.42s-.29-.38-.82-.46l-1-.14c-1.76-.25-2.51-.83-2.51-2,0-1.82,1.78-2.62,3.81-2.62,1.71,0,2.92.57,3.38,1.43l-1.65,1a2.37,2.37,0,0,0-1.73-.68c-.63,0-1.09.13-1.09.4s.33.33.87.41l.92.13c1.81.27,2.58.89,2.58,2,0,1.74-1.91,2.66-4,2.66C107.82,102.75,106.42,102.13,105.92,101.11Z"/><path class="cls-2" d="M115,95.53h6.09l-.31,1.9H117.4l-.13.75h3L120,99.8h-3l-.14.85h3.47l-.3,1.9h-6.18Z"/><path class="cls-2" d="M120.63,101.11l1.78-1.06a3,3,0,0,0,2.19.86c.64,0,1-.15,1-.42s-.3-.38-.82-.46l-1-.14c-1.75-.25-2.5-.83-2.5-2,0-1.82,1.77-2.62,3.81-2.62,1.71,0,2.91.57,3.37,1.43l-1.64,1a2.4,2.4,0,0,0-1.73-.68c-.63,0-1.09.13-1.09.4s.33.33.86.41l.92.13c1.82.27,2.59.89,2.59,2,0,1.74-1.92,2.66-4,2.66C122.53,102.75,121.14,102.13,120.63,101.11Z"/><path class="cls-2" d="M128.55,101.11l1.77-1.06a3,3,0,0,0,2.2.86c.63,0,1-.15,1-.42s-.29-.38-.82-.46l-1-.14c-1.76-.25-2.51-.83-2.51-2,0-1.82,1.77-2.62,3.81-2.62,1.71,0,2.92.57,3.38,1.43l-1.65,1A2.38,2.38,0,0,0,133,97.1c-.63,0-1.09.13-1.09.4s.33.33.87.41l.92.13c1.81.27,2.58.89,2.58,2,0,1.74-1.91,2.66-4,2.66C130.45,102.75,129.05,102.13,128.55,101.11Z"/><path class="cls-2" d="M137.61,95.53h6.08l-.3,1.9H140l-.13.75h3l-.27,1.62h-3l-.14.85H143l-.3,1.9H136.5Z"/><path class="cls-2" d="M144.41,95.53h3.83c2.41,0,3.75,1,3.75,2.91,0,2.63-1.67,4.11-4.68,4.11h-4Zm3,5a1.66,1.66,0,0,0,1.82-1.83c0-.78-.48-1.19-1.34-1.19h-1.05l-.48,3Z"/><path class="cls-2" d="M154.13,99.67c0-2.62,2.3-4.38,5.09-4.38,2.5,0,4,1.21,4,3.11,0,2.62-2.31,4.38-5.09,4.38C155.66,102.78,154.13,101.57,154.13,99.67Zm6.28-1c0-.79-.56-1.27-1.49-1.27A1.89,1.89,0,0,0,157,99.36c0,.79.55,1.28,1.49,1.28A1.89,1.89,0,0,0,160.41,98.71Z"/><path class="cls-2" d="M167.94,101.4l-.16-.61a.77.77,0,0,0-.75-.49h-.54l-.35,2.25h-2.82l1.11-7h4.67c1.75,0,2.73.7,2.73,2a2.34,2.34,0,0,1-1.92,2.29h0a.72.72,0,0,1,.46.59l.2.51a.4.4,0,0,0,.41.28,1,1,0,0,0,.43-.12l.17,1.16a3.88,3.88,0,0,1-1.89.5A1.69,1.69,0,0,1,167.94,101.4Zm0-2.7c.64,0,1-.3,1-.83s-.27-.59-.78-.59H167l-.23,1.42Z"/><path class="cls-2" d="M106.79,109.37h-2.08l.35-2.15h7l-.34,2.15h-2.09l-.77,4.87H106Z"/><path class="cls-2" d="M111.71,111.37c0-2.63,2.3-4.38,5.09-4.38,2.51,0,4,1.21,4,3.11,0,2.61-2.3,4.38-5.09,4.38C113.24,114.48,111.71,113.27,111.71,111.37Zm6.28-1c0-.79-.55-1.28-1.49-1.28a1.89,1.89,0,0,0-1.94,1.92c0,.79.55,1.28,1.49,1.28A1.89,1.89,0,0,0,118,110.41Z"/><path class="cls-2" d="M123.36,109.37h-2.08l.34-2.15h7l-.35,2.15h-2.08l-.77,4.87h-2.82Z"/><path class="cls-2" d="M130.66,107.22H134l1.58,7H132.7l-.16-1.1h-2.39l-.53,1.1H126.8Zm1.74,4.29-.38-2.4h0l-1.18,2.4Z"/><path class="cls-2" d="M137.14,107.22H140l-.77,4.83h3.08l-.34,2.19H136Z"/><path class="cls-2" d="M143.67,107.22h2.82l-.77,4.83h3.08l-.34,2.19h-5.9Z"/><path class="cls-2" d="M150.28,111.9l-2-4.68h2.9l.82,2.65h0l1.56-2.65h3l-3.42,4.68-.37,2.34h-2.82Z"/><path class="cls-2" d="M81.83,123.07l.65-4.15H85.3l-.63,4c-.1.65.25,1,1,1A1.18,1.18,0,0,0,87,123l.64-4h2.82l-.67,4.21c-.31,1.92-1.9,3-4.44,3S81.52,125,81.83,123.07Z"/><path class="cls-2" d="M91.23,118.92h3.28L96.45,123h0l.65-4.09h2.6l-1.12,7H95.33l-1.94-4.13h0l-.66,4.13H90.12Z"/><path class="cls-2" d="M100.59,118.92h2.81l-1.12,7h-2.8Z"/><path class="cls-2" d="M104.26,118.92h3.28l1.94,4.09h0l.65-4.09h2.59l-1.11,7h-3.27l-1.94-4.13h0l-.66,4.13h-2.59Z"/><path class="cls-2" d="M115.06,121.06H113l.34-2.14h7l-.35,2.14h-2.08l-.77,4.88h-2.82Z"/><path class="cls-2" d="M120.89,118.92H127l-.3,1.9h-3.36l-.13.75h3l-.26,1.62h-3l-.14.85h3.47l-.3,1.9h-6.18Z"/><path class="cls-2" d="M131.2,124.79l-.16-.61a.76.76,0,0,0-.75-.48h-.54l-.35,2.24h-2.82l1.11-7h4.67c1.75,0,2.73.7,2.73,2a2.34,2.34,0,0,1-1.92,2.29h0a.72.72,0,0,1,.46.59l.2.51a.4.4,0,0,0,.41.28,1,1,0,0,0,.43-.12l.17,1.16a3.88,3.88,0,0,1-1.89.5A1.69,1.69,0,0,1,131.2,124.79Zm0-2.7c.64,0,1-.3,1-.83s-.27-.59-.78-.59h-1.22l-.23,1.42Z"/><path class="cls-2" d="M136.36,118.92h6.09l-.3,1.9h-3.37l-.12.75h3l-.26,1.62h-3l-.13.85h3.47l-.31,1.9h-6.18Z"/><path class="cls-2" d="M142,124.5l1.77-1.06a3,3,0,0,0,2.2.86c.63,0,1-.15,1-.42s-.29-.38-.82-.46l-1-.14c-1.76-.25-2.51-.83-2.51-2,0-1.83,1.77-2.63,3.81-2.63,1.71,0,2.92.57,3.38,1.44l-1.65,1a2.38,2.38,0,0,0-1.73-.68c-.63,0-1.09.13-1.09.4s.33.33.87.42l.91.12c1.82.27,2.59.89,2.59,2,0,1.75-1.91,2.66-4,2.66C143.92,126.14,142.52,125.52,142,124.5Z"/><path class="cls-2" d="M152.13,121.06h-2.07l.34-2.14h7l-.34,2.14H155l-.77,4.88h-2.82Z"/><path class="cls-2" d="M158,118.92H164l-.3,1.9h-3.36l-.13.75h3l-.27,1.62h-3l-.14.85h3.47l-.3,1.9h-6.18Z"/><path class="cls-2" d="M164.76,118.92h3.84c2.4,0,3.74,1,3.74,2.91,0,2.63-1.67,4.11-4.68,4.11h-4Zm3,5a1.65,1.65,0,0,0,1.82-1.82c0-.79-.48-1.2-1.34-1.2h-1.05l-.48,3Z"/><path class="cls-2" d="M172.82,122.34a1.93,1.93,0,0,0,2.46-1.57c-1.05.56-2.16.17-2.16-.89a1.29,1.29,0,0,1,1.35-1.26c.79,0,1.28.59,1.28,1.48a2.42,2.42,0,0,1-3,2.58Zm3.16,0a1.92,1.92,0,0,0,2.45-1.57c-1,.56-2.15.17-2.15-.89a1.29,1.29,0,0,1,1.34-1.26,1.3,1.3,0,0,1,1.29,1.48,2.42,2.42,0,0,1-3,2.58Z"/><rect class="cls-2" x="100.34" y="127.23" width="88.87" height="9.86" rx="4.93" transform="translate(-10.23 12.17) rotate(-4.65)"/><rect class="cls-3" x="100.34" y="126.54" width="88.87" height="9.86" rx="4.93" transform="translate(-10.18 12.17) rotate(-4.65)"/><path class="cls-2" d="M102.75,135.15l4.49-.37,0,.24-4.49.37Z"/><path class="cls-2" d="M107.52,132.2l1.48-.12.13,1.52,2.25-.19-.12-1.51,1.48-.13.35,4.28-1.49.12-.13-1.7-2.26.18.14,1.71-1.49.12Z"/><path class="cls-2" d="M113.38,134.47c-.08-1,.82-1.71,2.18-1.82s2.28.47,2.36,1.46a1.17,1.17,0,0,1,0,.32l-3.08.25c.19.35.71.45,1.27.41a3.32,3.32,0,0,0,1.44-.43l.43.64a3.91,3.91,0,0,1-1.91.61C114.54,136,113.46,135.48,113.38,134.47Zm3.16-.53c-.05-.35-.46-.56-.93-.52s-.83.31-.86.66Z"/><path class="cls-2" d="M122,133.49l-1.22.35c-.06-.46-.28-.73-.55-.71s-.58.42-.54,1l.12,1.38-1.36.11-.25-3.09,1.13-.09.24.7h0a1.33,1.33,0,0,1,1.16-.91C121.38,132.17,121.87,132.67,122,133.49Z"/><path class="cls-2" d="M123.43,130.91l1.8-.15,2.42,2.61h0l-.22-2.79,1.4-.11.35,4.27-1.79.15L125,132.24h0l.23,2.83-1.41.11Z"/><path class="cls-2" d="M129.46,133.16c-.08-1,.82-1.71,2.18-1.82s2.28.47,2.36,1.46a1.24,1.24,0,0,1,0,.33l-3.08.25c.18.34.71.45,1.26.4a3.37,3.37,0,0,0,1.45-.43l.42.64a3.77,3.77,0,0,1-1.9.61C130.62,134.72,129.54,134.17,129.46,133.16Zm3.16-.53c0-.35-.45-.56-.92-.52s-.84.32-.86.67Z"/><path class="cls-2" d="M135.05,133.16,135,132l-.82.07-.07-.87.82-.06-.06-.83,1.32-.36.09,1.08,1.8-.15.06.86-1.79.15.06.81c0,.37.23.54.64.51a1.38,1.38,0,0,0,1-.54l.35.77a2.25,2.25,0,0,1-1.64.75C135.73,134.31,135.11,133.9,135.05,133.16Z"/><path class="cls-2" d="M139.08,131.7l-.82.06-.07-.85.82-.07,0-.23c-.06-.8.53-1.3,1.61-1.38a2.66,2.66,0,0,1,1.48.27l-.23.84a1.66,1.66,0,0,0-.91-.2c-.39,0-.61.22-.58.51v.08l1.59-.13.06.86-1.58.13.19,2.23-1.36.11Z"/><path class="cls-2" d="M142.28,129.19l1.35-.11.36,4.46-1.35.11Z"/><path class="cls-2" d="M144.06,129.4a.75.75,0,1,1,.81.63A.7.7,0,0,1,144.06,129.4Zm.16,1,1.35-.11.25,3.08-1.35.11Z"/><path class="cls-2" d="M147.49,131.64l-1.63-1.36,1.42-.11.95.83.81-1,1.42-.12L149,131.52l1.72,1.47-1.44.12-1-.89-.81,1-1.45.12Z"/><path class="cls-2" d="M153.76,128.44l1.73-.14,2.34,4.12-1.55.12-.38-.72-2,.17-.25.77-1.54.12Zm1.78,2.53-.85-1.64h0l-.6,1.75Z"/><path class="cls-2" d="M157.59,130.88c-.08-1,.78-1.71,2.14-1.83,1.14-.09,2,.32,2.24,1l-1.24.32a.75.75,0,0,0-.87-.49c-.6,0-1,.37-.93.85s.47.75,1.14.69a1,1,0,0,0,1-.81l1.27.1c-.1.85-1,1.47-2.24,1.58C158.67,132.44,157.66,131.88,157.59,130.88Z"/><path class="cls-2" d="M162.53,130.48c-.08-1,.78-1.72,2.15-1.83,1.14-.09,2,.32,2.23,1l-1.24.31a.76.76,0,0,0-.86-.49c-.61.05-1,.38-.93.86s.47.75,1.13.69a1,1,0,0,0,1-.81l1.26.1c-.09.85-1,1.47-2.23,1.57C163.61,132,162.61,131.47,162.53,130.48Z"/><path class="cls-2" d="M167.48,130.08c-.08-1,.8-1.72,2.22-1.84s2.42.46,2.51,1.46-.81,1.71-2.24,1.83S167.56,131.07,167.48,130.08Zm3.37-.28c0-.49-.46-.78-1.08-.72s-1,.4-1,.89.47.78,1.09.73S170.89,130.29,170.85,129.8Z"/><path class="cls-2" d="M172.52,129.87l-.14-1.74,1.34-.11.13,1.6a.72.72,0,0,0,.86.71.85.85,0,0,0,.84-1l-.12-1.45,1.35-.11.25,3.08-1.16.1-.21-.74h0a1.69,1.69,0,0,1-1.5,1A1.38,1.38,0,0,1,172.52,129.87Z"/><path class="cls-2" d="M181.75,128.71l.14,1.75-1.34.11-.13-1.6a.73.73,0,0,0-.86-.72.86.86,0,0,0-.84,1l.11,1.45-1.34.11-.25-3.09,1.16-.09.2.73h0a1.7,1.7,0,0,1,1.5-1A1.38,1.38,0,0,1,181.75,128.71Z"/><path class="cls-2" d="M182.81,129.28l-.09-1.12-.83.06-.07-.86.83-.07-.07-.82,1.32-.36.09,1.07,1.8-.14.07.86-1.8.15.07.8c0,.37.23.55.64.52a1.42,1.42,0,0,0,1-.54l.35.77a2.25,2.25,0,0,1-1.64.75C183.5,130.43,182.87,130,182.81,129.28Z"/><path class="cls-2" d="M130.26,150c.68.88.39,2-.68,2.8s-2.2.82-2.88-.06-.4-2,.67-2.8S129.58,149.08,130.26,150Zm-2.48,1.9a.77.77,0,0,0,1.16.06.76.76,0,1,0-1.16-.06Z"/><path class="cls-2" d="M127.33,154.38l-2,1.33c-.67.44-1.37.41-1.68-.07a.75.75,0,0,1,0-.88.78.78,0,0,1-.9-.34c-.32-.48-.07-1.12.58-1.55l2.13-1.4Zm-3.24-1a.31.31,0,0,0-.16.42.33.33,0,0,0,.47,0l.64-.43-.3-.47Zm.75,1a.32.32,0,0,0-.15.44c.09.13.27.14.45,0l.59-.39-.3-.45Z"/><path class="cls-2" d="M122.39,154.23l-.44.86a1.8,1.8,0,0,0-1.19.24c-.29.16-.47.31-.4.43s.36.05.78-.14c.77-.34,1.56-.66,2,.16.36.67-.1,1.4-1.06,1.92a2.1,2.1,0,0,1-1.73.26l.31-.82a1.32,1.32,0,0,0,1-.2c.28-.16.46-.31.4-.43s-.36,0-.74.17c-.79.36-1.61.6-2-.17s.14-1.48,1.13-2A2.33,2.33,0,0,1,122.39,154.23Z"/><path class="cls-2" d="M119.87,158.77,117.05,160l-.38-.86,1.61-.71-.15-.34-1.43.63-.32-.72,1.43-.63-.17-.39-1.65.72-.38-.86,2.86-1.25Z"/><path class="cls-2" d="M115.74,157.52l-.58.76a1.87,1.87,0,0,0-1.21,0c-.32.11-.52.23-.47.36s.34.11.78,0c.82-.21,1.66-.38,1.95.5.24.72-.34,1.36-1.38,1.71a2.11,2.11,0,0,1-1.75,0l.44-.75a1.39,1.39,0,0,0,1,0c.3-.1.51-.22.47-.35s-.35-.07-.75,0c-.85.22-1.7.32-2-.52s.4-1.42,1.47-1.78A2.36,2.36,0,0,1,115.74,157.52Z"/><path class="cls-2" d="M112,158.77l-.66.69a1.8,1.8,0,0,0-1.21-.11c-.33.07-.54.17-.51.3s.33.15.78.09c.84-.11,1.69-.18,1.88.72.15.75-.5,1.31-1.57,1.54a2.07,2.07,0,0,1-1.73-.25l.53-.69a1.41,1.41,0,0,0,1,.09c.31-.08.53-.17.51-.3s-.35-.11-.76-.06c-.87.12-1.72.13-1.9-.73s.56-1.38,1.66-1.61A2.37,2.37,0,0,1,112,158.77Z"/><path class="cls-2" d="M108.17,162.39l-3.07.28-.08-.94,1.75-.16,0-.37-1.55.14-.07-.79,1.55-.14,0-.42-1.79.16-.08-.94,3.11-.28Z"/><path class="cls-2" d="M104.43,162.68l-2-.05c-1.23,0-2-.74-2-1.79a1.79,1.79,0,0,1,2.08-1.68l2,.05Zm-1.83-2.53a.75.75,0,1,0,0,1.5h.56l0-1.49Z"/><path class="cls-2" d="M98.09,162.29l-.37-.06-2.33-3.49h0l-.46,3.07-.27,0,.5-3.35.37.05L97.86,162h0l.46-3.07.28,0Z"/><path class="cls-2" d="M94.41,160c-.27,1-1.33,1.53-2.63,1.2s-2-1.27-1.72-2.32,1.32-1.53,2.62-1.2S94.67,159,94.41,160ZM90.33,159c-.23.9.38,1.71,1.52,2s2.06-.13,2.29-1-.39-1.71-1.52-2S90.56,158.07,90.33,159Z"/><path class="cls-2" d="M88.06,159.69l1.52.55-.08.24-3.32-1.19.09-.24,1.53.55,1.06-2.94.26.09Z"/><path class="cls-2" d="M84.59,156.82c-.54,1-1.66,1.15-2.84.51s-1.64-1.69-1.1-2.67,1.65-1.15,2.84-.5S85.12,155.84,84.59,156.82Zm-2.74-1.5a.76.76,0,0,0,.41,1.08.76.76,0,1,0-.41-1.08Z"/><path class="cls-2" d="M79.28,155.83l-2-1.41c-.65-.47-.88-1.13-.54-1.6a.75.75,0,0,1,.82-.31.78.78,0,0,1,0-1c.34-.48,1-.48,1.66,0L81.29,153Zm-.89-2.32c-.18-.13-.37-.12-.46,0s0,.31.14.43l.58.41.31-.45Zm.67-1.07c-.17-.13-.36-.13-.45,0a.33.33,0,0,0,.13.46l.63.44.32-.46Z"/><path class="cls-2" d="M77.62,151.17l-1-.12a1.79,1.79,0,0,0-.63-1c-.25-.22-.46-.33-.55-.23s.08.35.4.68c.59.61,1.15,1.25.54,1.94s-1.35.38-2.17-.35a2.12,2.12,0,0,1-.84-1.54h.87a1.37,1.37,0,0,0,.53.85c.24.21.45.33.54.24s-.12-.35-.41-.64c-.61-.63-1.12-1.32-.54-2s1.44-.37,2.28.38A2.34,2.34,0,0,1,77.62,151.17Z"/><path class="cls-2" d="M72.49,150.31l-2.08-2.26.69-.63,1.19,1.28.27-.25-1.06-1.14.59-.54,1,1.14.31-.28-1.21-1.32.69-.64L75,148Z"/><path class="cls-2" d="M72.33,146l-.91-.3a1.88,1.88,0,0,0-.42-1.15c-.2-.26-.38-.41-.48-.33s0,.36.25.75c.45.71.88,1.44.15,2s-1.4.11-2.06-.76a2.1,2.1,0,0,1-.52-1.68l.85.19a1.39,1.39,0,0,0,.35.93c.2.26.37.41.48.34s0-.36-.27-.71c-.48-.74-.84-1.5-.14-2s1.48-.08,2.16.82A2.36,2.36,0,0,1,72.33,146Z"/><path class="cls-2" d="M69.93,142.8l-.87-.4a1.85,1.85,0,0,0-.3-1.18c-.17-.29-.33-.46-.45-.38s0,.36.17.77c.38.75.73,1.53-.06,2s-1.4,0-2-1a2.1,2.1,0,0,1-.34-1.72l.83.27a1.4,1.4,0,0,0,.25,1c.17.27.33.45.44.38s0-.36-.19-.73c-.4-.78-.68-1.59.07-2s1.48.08,2.07,1A2.4,2.4,0,0,1,69.93,142.8Z"/><path class="cls-2" d="M65.29,140.48,64,137.7l.84-.41.76,1.58.34-.16-.68-1.41.72-.34.67,1.41.39-.19-.78-1.62.85-.41L68.42,139Z"/><path class="cls-2" d="M63.7,137.14,63,135.25a1.76,1.76,0,1,1,3.27-1.18L67,136Zm1.69-2.63A.75.75,0,1,0,64,135l.2.53,1.4-.51Z"/><path class="cls-2" d="M61.66,130.63l-.08-.37,2.49-3.38h0l-3,.62-.06-.27,3.33-.68.07.37-2.47,3.38h0l3-.62L65,130Z"/><path class="cls-2" d="M62.54,126.39c-1.07.1-1.9-.73-2-2.07s.51-2.31,1.58-2.41,1.89.72,2,2.06S63.61,126.28,62.54,126.39Zm-.42-4.21c-.92.1-1.47.95-1.35,2.12s.82,1.9,1.74,1.81,1.47-1,1.35-2.12S63,122.09,62.12,122.18Z"/><path class="cls-2" d="M60.66,120.35l0,1.61h-.26l0-3.52h.26l0,1.63,3.13,0v.28Z"/><path class="cls-2" d="M62.11,116.14c-1.11-.11-1.7-1.07-1.56-2.41s.92-2.17,2-2,1.71,1.07,1.57,2.41S63.22,116.26,62.11,116.14Zm.32-3.1c-.47-.05-.78.27-.83.79s.18.9.65,1,.78-.27.84-.79S62.91,113.09,62.43,113Z"/><path class="cls-2" d="M60.93,110.94l.45-2.4c.15-.78.66-1.27,1.22-1.16a.75.75,0,0,1,.63.62.78.78,0,0,1,.87-.42c.57.11.86.73.72,1.49l-.47,2.51Zm1.74-1.79c0-.21-.05-.38-.21-.4s-.29.09-.33.31l-.13.68.54.1Zm1.25.17c0-.21,0-.38-.19-.41s-.32.09-.36.3l-.14.76.55.11Z"/><path class="cls-2" d="M64.47,107.48l-.33-.9a1.8,1.8,0,0,0,.64-1c.09-.33.09-.56,0-.59s-.28.23-.43.66c-.28.8-.59,1.59-1.48,1.35-.74-.2-.95-1-.67-2.09a2.1,2.1,0,0,1,1-1.45l.38.79a1.42,1.42,0,0,0-.53.85c-.07.31-.09.55,0,.59s.26-.26.39-.65c.28-.83.66-1.59,1.51-1.37s1,1.12.69,2.21A2.34,2.34,0,0,1,64.47,107.48Z"/><path class="cls-2" d="M62.87,102.59l1-2.91.89.3-.55,1.66.35.11.49-1.48.76.26-.5,1.48.4.13.57-1.7.89.3-1,3Z"/><path class="cls-2" d="M66.47,99.42l-.77-.58a1.82,1.82,0,0,0,0-1.22c-.11-.32-.23-.52-.36-.47s-.11.35,0,.79c.2.82.37,1.66-.51,2-.72.23-1.35-.35-1.7-1.39a2.18,2.18,0,0,1,0-1.76l.75.45a1.39,1.39,0,0,0,0,1c.1.31.22.51.34.48s.08-.36,0-.76c-.22-.85-.31-1.7.52-2s1.43.41,1.78,1.48A2.39,2.39,0,0,1,66.47,99.42Z"/><path class="cls-2" d="M65.22,95.61,64.5,95a1.78,1.78,0,0,0,.06-1.21c-.08-.33-.18-.54-.31-.5s-.14.34-.07.79c.15.83.25,1.68-.65,1.9-.74.18-1.33-.45-1.59-1.51a2.08,2.08,0,0,1,.18-1.75l.71.51a1.38,1.38,0,0,0,0,1c.08.32.19.53.32.5s.1-.34,0-.76c-.16-.86-.19-1.71.66-1.92s1.4.51,1.67,1.6A2.34,2.34,0,0,1,65.22,95.61Z"/><path class="cls-2" d="M61.46,92.08l-.53-3,.92-.16.31,1.72.36-.06L62.25,89l.78-.14.28,1.54.41-.08-.31-1.76.93-.17.54,3.07Z"/><path class="cls-2" d="M60.84,88.53l-.22-2a1.79,1.79,0,0,1,1.51-2.21c1-.1,1.81.62,1.94,1.84l.22,2Zm2.26-2.14a.75.75,0,1,0-1.48.16l.06.56L63.16,87Z"/><path class="cls-2" d="M60.37,81.82v-.38l3.14-2.78h0l-3.11,0v-.28l3.39,0v.38l-3.14,2.78h0l3.11,0v.28Z"/><path class="cls-2" d="M62.11,77.86c-1.07-.11-1.71-1.09-1.57-2.42s1-2.15,2-2,1.71,1.09,1.57,2.42S63.18,78,62.11,77.86Zm.44-4.18c-.92-.1-1.63.62-1.75,1.79s.42,2,1.34,2.12,1.63-.63,1.75-1.8S63.47,73.77,62.55,73.68Z"/><path class="cls-2" d="M61.49,71.56l-.3,1.59-.26-.05.67-3.45.26,0-.31,1.59,3.07.6-.06.27Z"/><path class="cls-2" d="M63.8,67.71c-1-.37-1.41-1.45-1-2.72s1.4-1.89,2.45-1.52,1.41,1.45,1,2.72S64.85,68.08,63.8,67.71Zm1-2.94a.75.75,0,0,0-1,.57c-.18.5,0,.92.41,1.07a.88.88,0,0,0,.58-1.64Z"/><path class="cls-2" d="M63.93,62.29,65,60.1c.34-.72,1-1.05,1.48-.8a.73.73,0,0,1,.43.76.8.8,0,0,1,1-.17c.52.25.64.93.3,1.63l-1.11,2.29ZM66.07,61c.09-.2.05-.38-.09-.45s-.3,0-.4.21l-.3.63.49.24Zm1.17.49c.09-.19.06-.38-.08-.45a.33.33,0,0,0-.43.2l-.34.7.51.24Z"/><path class="cls-2" d="M68.25,59.9l0-1a1.83,1.83,0,0,0,.92-.8c.18-.28.25-.5.14-.57s-.34.13-.61.5c-.5.68-1,1.35-1.82.86-.64-.41-.6-1.27,0-2.2a2.1,2.1,0,0,1,1.38-1.08l.13.86a1.39,1.39,0,0,0-.75.66c-.17.27-.25.5-.14.57s.32-.17.56-.51c.52-.71,1.11-1.32,1.85-.86s.61,1.36,0,2.31A2.37,2.37,0,0,1,68.25,59.9Z"/><path class="cls-2" d="M68.23,54.68l1.88-2.44.74.57L69.78,54.2l.3.23,1-1.24.63.49-1,1.24.33.26,1.1-1.43.74.57L71,56.8Z"/><path class="cls-2" d="M72.44,53.83l.15-.95a1.81,1.81,0,0,0,1.06-.61c.23-.24.35-.44.25-.53s-.36.07-.7.37c-.62.57-1.28,1.12-2,.48s-.34-1.36.41-2.16a2.14,2.14,0,0,1,1.57-.79l0,.87a1.43,1.43,0,0,0-.87.5c-.22.24-.34.44-.25.53s.35-.1.65-.38c.65-.6,1.35-1.08,2-.48S75,52.13,74.26,53A2.38,2.38,0,0,1,72.44,53.83Z"/><path class="cls-2" d="M75.19,50.93l.25-.93a1.78,1.78,0,0,0,1.11-.48c.26-.22.4-.4.31-.5s-.37,0-.74.29c-.68.5-1.39,1-2,.27s-.19-1.39.64-2.1a2.13,2.13,0,0,1,1.65-.62l-.14.87a1.35,1.35,0,0,0-.91.4c-.24.21-.39.4-.31.5s.36-.07.69-.31c.71-.52,1.46-.93,2-.27s.16,1.48-.69,2.21A2.39,2.39,0,0,1,75.19,50.93Z"/><path class="cls-2" d="M76.76,45.94l2.53-1.75.54.78-1.44,1,.21.3,1.28-.88.46.65-1.29.89.24.35,1.48-1,.54.77-2.57,1.77Z"/><path class="cls-2" d="M79.8,43.85l1.77-1a1.76,1.76,0,1,1,1.67,3l-1.77,1Zm2.86,1.27a.75.75,0,1,0-.72-1.31l-.5.27.72,1.31Z"/><path class="cls-2" d="M86,40.86l.36-.13,3.7,2h0l-1-2.93.26-.09,1.14,3.2L90,43l-3.69-2h0l1,2.92-.26.09Z"/><path class="cls-2" d="M90.28,41.12c-.25-1,.46-2,1.76-2.3s2.35.19,2.61,1.24-.46,2-1.76,2.29S90.53,42.17,90.28,41.12Zm4.09-1c-.21-.9-1.13-1.32-2.27-1s-1.76,1.08-1.55,2,1.14,1.33,2.28,1.05S94.59,41,94.37,40.12Z"/><path class="cls-2" d="M96,38.43l-1.61.24,0-.26,3.49-.52,0,.26-1.61.24.47,3.09-.28,0Z"/><path class="cls-2" d="M100.39,39.3c0-1.12.86-1.83,2.2-1.86s2.27.64,2.29,1.75S104,41,102.67,41.05,100.41,40.41,100.39,39.3Zm3.12-.08c0-.47-.37-.73-.89-.72s-.87.29-.86.76.36.74.89.73S103.52,39.7,103.51,39.22Z"/><path class="cls-2" d="M105.56,37.5l2.43.27c.79.09,1.31.56,1.25,1.13a.75.75,0,0,1-.58.67.79.79,0,0,1,.48.84c-.06.58-.66.91-1.43.82L105.18,41Zm1.84,2.86c.21,0,.37-.07.39-.22s-.12-.32-.33-.34l-.76-.09-.07.56Zm.07-1.26c.22,0,.38-.08.39-.24s-.11-.28-.33-.31l-.7-.07-.06.54Z"/><path class="cls-2" d="M109.24,40.77l.9-.34a1.83,1.83,0,0,0,1,.62c.33.08.56.08.59,0s-.24-.28-.67-.42c-.8-.26-1.6-.56-1.38-1.46.18-.74,1-1,2.07-.71a2.1,2.1,0,0,1,1.46,1l-.77.39a1.4,1.4,0,0,0-.86-.5c-.32-.07-.55-.08-.59,0s.26.25.66.37c.83.27,1.6.63,1.4,1.49s-1.1,1-2.19.73A2.39,2.39,0,0,1,109.24,40.77Z"/><path class="cls-2" d="M114.21,39.12l2.89,1-.31.89-1.65-.59-.13.35,1.47.53-.26.75-1.47-.53-.15.4,1.7.61-.32.88-2.94-1Z"/><path class="cls-2" d="M116.34,42.88l1-.17a1.88,1.88,0,0,0,.9.82c.31.14.54.18.59.06s-.18-.32-.57-.54c-.74-.41-1.47-.86-1.08-1.7s1.19-.75,2.18-.3a2.11,2.11,0,0,1,1.24,1.24l-.84.24a1.4,1.4,0,0,0-.74-.67c-.3-.13-.53-.18-.58-.06s.2.29.57.5c.76.42,1.45.93,1.07,1.72s-1.26.77-2.28.3A2.36,2.36,0,0,1,116.34,42.88Z"/><path class="cls-2" d="M120,44.57l1-.08a1.78,1.78,0,0,0,.83.89c.29.17.51.23.58.11s-.15-.33-.53-.59c-.7-.47-1.38-1-.92-1.78s1.24-.65,2.19-.11a2.13,2.13,0,0,1,1.14,1.34l-.86.17a1.39,1.39,0,0,0-.69-.73c-.28-.15-.5-.23-.57-.12s.18.32.52.55c.73.49,1.37,1.05.93,1.81s-1.33.66-2.3.1A2.36,2.36,0,0,1,120,44.57Z"/><path class="cls-2" d="M125.1,44.3,127.64,46l-.52.78-1.45-1-.21.31,1.3.87-.45.66L125,46.78l-.24.36,1.49,1-.52.78-2.59-1.74Z"/><path class="cls-2" d="M128.11,46.32l1.59,1.23a1.76,1.76,0,1,1-2.14,2.75L126,49.07Zm0,3.13a.75.75,0,1,0,.92-1.19l-.45-.34-.92,1.18Z"/><path class="cls-2" d="M133.13,45.57l.32-.21,4,1.08h0l-1.68-2.6.23-.15,1.84,2.84-.32.21-4-1.08h0l1.68,2.6-.23.15Z"/><path class="cls-2" d="M137.51,44.75c-.49-1,0-2,1.16-2.65s2.33-.39,2.83.56,0,2-1.15,2.65S138,45.71,137.51,44.75Zm3.74-2c-.42-.82-1.42-1-2.46-.46s-1.46,1.47-1,2.29a1.71,1.71,0,0,0,2.47.47C141.27,44.54,141.68,43.61,141.25,42.79Z"/><path class="cls-2" d="M142.61,40.67l-1.5.61L141,41l3.26-1.33.1.24-1.5.61,1.18,2.91-.26.1Z"/><path class="cls-2" d="M147.44,40.4c-.23-1.09.51-1.95,1.83-2.23s2.34.21,2.57,1.3-.51,2-1.83,2.23S147.67,41.49,147.44,40.4Zm3.06-.64a.77.77,0,0,0-1-.56c-.52.11-.8.45-.71.92a.77.77,0,0,0,1,.55C150.31,40.56,150.59,40.22,150.5,39.76Z"/><path class="cls-2" d="M152.38,37.68l2.44-.15c.8-.05,1.4.32,1.43.89a.75.75,0,0,1-.45.76.78.78,0,0,1,.61.74c0,.58-.5,1-1.27,1.06l-2.55.16Zm2.16,1.24c.22,0,.36-.14.35-.3s-.17-.26-.38-.24l-.7,0,0,.54Zm.15,1.26c.21,0,.35-.13.34-.29s-.17-.29-.38-.28l-.77,0,0,.56Z"/><path class="cls-2" d="M156.76,40.29l.82-.51a1.85,1.85,0,0,0,1.15.42c.33,0,.56,0,.56-.17s-.28-.22-.73-.28c-.84-.11-1.68-.25-1.64-1.17.05-.77.82-1.15,1.91-1.1a2.1,2.1,0,0,1,1.62.68l-.69.54a1.38,1.38,0,0,0-.94-.34c-.32,0-.55,0-.57.16s.31.2.72.25c.87.1,1.7.32,1.65,1.19s-.89,1.19-2,1.14A2.39,2.39,0,0,1,156.76,40.29Z"/><path class="cls-2" d="M161.4,37.74l3,.4-.12.94-1.73-.24-.05.37,1.55.21-.11.79L162.44,40l-.06.42,1.78.24-.12.93L161,41.18Z"/><path class="cls-2" d="M164.47,41l.89-.36a1.87,1.87,0,0,0,1.06.61c.33.07.56.07.59-.06s-.24-.27-.68-.41c-.81-.25-1.61-.53-1.41-1.43s1-1,2.06-.75a2.14,2.14,0,0,1,1.49.94l-.77.41a1.46,1.46,0,0,0-.88-.49c-.31-.06-.55-.07-.58.06s.26.25.66.37c.85.25,1.62.6,1.43,1.46s-1.08,1-2.18.77A2.39,2.39,0,0,1,164.47,41Z"/><path class="cls-2" d="M168.5,41.9l.92-.27a1.84,1.84,0,0,0,1,.71c.32.1.55.12.59,0s-.21-.29-.63-.47c-.79-.32-1.56-.68-1.27-1.56.24-.72,1.09-.89,2.13-.54a2.07,2.07,0,0,1,1.38,1.08l-.8.33a1.44,1.44,0,0,0-.82-.57c-.31-.1-.55-.12-.59,0s.24.27.62.43c.82.33,1.56.76,1.28,1.59s-1.17.91-2.24.56A2.38,2.38,0,0,1,168.5,41.9Z"/><path class="cls-2" d="M173.71,40.71,176.53,42l-.38.86-1.6-.71-.15.34,1.43.63-.32.73-1.43-.63-.17.39,1.65.72-.38.86-2.86-1.26Z"/><path class="cls-2" d="M177.26,42.3l1.75,1a1.76,1.76,0,1,1-1.73,3l-1.74-1Zm.41,3.09a.75.75,0,1,0,.75-1.3l-.5-.28-.74,1.3Z"/><path class="cls-2" d="M183.3,46.19l.29.24.19,4.19h0l2-2.38.22.18L183.82,51l-.29-.24-.19-4.18h0l-2,2.39-.21-.18Z"/><path class="cls-2" d="M185.43,50.18c.79-.74,1.95-.58,2.87.39s1,2.15.22,2.89-1.94.58-2.86-.39S184.65,50.92,185.43,50.18Zm2.9,3.08a2,2,0,0,0-2.7-2.87,2,2,0,0,0,2.7,2.87Z"/><path class="cls-2" d="M190.71,54l-1-1.29.21-.16,2.12,2.81-.21.15-1-1.29-2.49,1.89-.17-.22Z"/><path class="cls-2" d="M192.22,58.62c1-.51,2,0,2.64,1.17s.42,2.31-.57,2.82-2,0-2.65-1.16S191.23,59.13,192.22,58.62Zm1.44,2.77a.88.88,0,1,0-1.07-.43A.76.76,0,0,0,193.66,61.39Z"/><path class="cls-2" d="M196.14,62.57l.86,2.28c.28.75.1,1.43-.43,1.63a.75.75,0,0,1-.86-.21.79.79,0,0,1-.53.81c-.54.21-1.12-.17-1.39-.9l-.91-2.38Zm-1.71,2.94c.07.2.23.3.37.25a.32.32,0,0,0,.15-.45l-.27-.72-.53.2Zm1.15-.52a.33.33,0,0,0,.4.25c.14-.06.19-.23.11-.44l-.24-.65-.51.19Z"/><path class="cls-2" d="M195,67.51l.73.63a1.85,1.85,0,0,0-.05,1.21c.09.33.2.53.33.49s.13-.33,0-.78c-.15-.83-.27-1.68.62-1.91s1.34.43,1.62,1.49a2.13,2.13,0,0,1-.16,1.75l-.72-.5a1.41,1.41,0,0,0,0-1c-.09-.31-.19-.52-.32-.49s-.1.35,0,.76c.16.86.21,1.71-.64,1.93s-1.41-.49-1.69-1.58A2.35,2.35,0,0,1,195,67.51Z"/><path class="cls-2" d="M198.8,71.22l.5,3-.93.15-.28-1.72-.37.06.26,1.54-.79.13-.25-1.54-.42.07.29,1.77-.93.16-.51-3.08Z"/><path class="cls-2" d="M196.57,75.06l.61.74a1.8,1.8,0,0,0-.27,1.19c0,.33.1.56.23.54s.19-.31.19-.77c0-.84,0-1.69,1-1.76.76-.06,1.24.66,1.32,1.75a2.06,2.06,0,0,1-.47,1.69l-.62-.62a1.38,1.38,0,0,0,.22-1c0-.32-.1-.55-.23-.54s-.16.32-.15.74c0,.88-.11,1.72-1,1.79S196.09,78.11,196,77A2.37,2.37,0,0,1,196.57,75.06Z"/><path class="cls-2" d="M196.86,79.22l.55.79a1.87,1.87,0,0,0-.37,1.17c0,.33.06.56.19.56s.21-.3.25-.75c.07-.84.17-1.69,1.1-1.69.76,0,1.18.76,1.17,1.86a2.09,2.09,0,0,1-.6,1.65l-.57-.67a1.39,1.39,0,0,0,.3-1c0-.32,0-.56-.18-.56s-.19.31-.22.73c-.06.87-.24,1.7-1.12,1.7s-1.22-.83-1.22-2A2.36,2.36,0,0,1,196.86,79.22Z"/><path class="cls-2" d="M199.62,83.74l-.25,3.06-.93-.08.14-1.74-.37,0-.13,1.56-.79-.07.12-1.56-.42,0-.15,1.79-.93-.08.25-3.11Z"/><path class="cls-2" d="M199.3,87.52l-.31,2c-.2,1.22-1,1.9-2,1.74a1.79,1.79,0,0,1-1.4-2.28l.31-2ZM196.55,89a.75.75,0,1,0,1.48.23l.08-.56-1.47-.23Z"/><path class="cls-2" d="M197.92,94.47l-.1.36-3.76,1.86h0l3,.84-.08.27-3.26-.92.11-.36,3.74-1.87h0l-3-.85.08-.27Z"/><path class="cls-2" d="M195.14,98c1,.38,1.38,1.49.91,2.74s-1.48,1.84-2.49,1.47-1.38-1.49-.91-2.74S194.12,97.66,195.14,98ZM193.65,102c.87.33,1.74-.19,2.15-1.29s.11-2.06-.76-2.39-1.74.2-2.15,1.3A1.69,1.69,0,0,0,193.65,102Z"/><path class="cls-2" d="M197.1,103.75l-.44-1.55.25-.07,1,3.38-.25.07-.44-1.56-3,.86-.08-.27Z"/><path class="cls-2" d="M196.88,108.5c1.1-.17,1.93.6,2.15,1.93s-.33,2.33-1.42,2.51-1.94-.6-2.15-1.93S195.78,108.68,196.88,108.5Zm.5,3.08c.48-.07.69-.46.6-1s-.41-.82-.88-.74-.68.46-.6,1S196.91,111.66,197.38,111.58Z"/><path class="cls-2" d="M199.38,113.38l.18,2.43c.06.79-.31,1.4-.88,1.44a.75.75,0,0,1-.76-.44.76.76,0,0,1-.74.62c-.57,0-1-.48-1.07-1.25l-.19-2.54Zm-2.47,2.34c0,.21.13.35.29.34s.29-.17.27-.39l-.05-.77-.57,0Zm1.25-.17c0,.22.15.35.31.34s.25-.17.24-.38l-.05-.7-.55,0Z"/><path class="cls-2" d="M196.87,117.8l.54.79a1.8,1.8,0,0,0-.36,1.16c0,.34,0,.57.18.56s.22-.29.26-.74c.07-.85.17-1.69,1.1-1.68.76,0,1.18.76,1.17,1.85a2.12,2.12,0,0,1-.61,1.65l-.56-.67a1.42,1.42,0,0,0,.29-1c0-.32,0-.55-.18-.56s-.18.31-.21.73c-.07.87-.25,1.7-1.13,1.7s-1.22-.84-1.22-2A2.39,2.39,0,0,1,196.87,117.8Z"/><path class="cls-2" d="M199.63,122.36l-.27,3.07-.94-.09.16-1.74-.37,0-.14,1.56-.8-.07.14-1.56-.42,0-.16,1.79-.94-.09.28-3.11Z"/><path class="cls-2" d="M196.51,125.54l.4.88a1.79,1.79,0,0,0-.56,1.08c-.06.33,0,.56.09.58s.26-.25.38-.69c.21-.82.46-1.63,1.37-1.47.75.14,1,1,.83,2a2.12,2.12,0,0,1-.88,1.52l-.44-.75a1.39,1.39,0,0,0,.45-.89c0-.32,0-.56-.08-.58s-.23.27-.34.68c-.21.85-.53,1.63-1.4,1.48s-1.06-1-.86-2.14A2.36,2.36,0,0,1,196.51,125.54Z"/><path class="cls-2" d="M195.76,129.63l.31.91a1.77,1.77,0,0,0-.66,1c-.1.32-.11.55,0,.59s.29-.23.45-.65c.29-.8.62-1.58,1.51-1.33.73.22.93,1.06.63,2.11a2.12,2.12,0,0,1-1,1.42l-.36-.79a1.46,1.46,0,0,0,.54-.84c.08-.31.1-.55,0-.59s-.26.25-.4.64c-.3.82-.7,1.58-1.54,1.34s-1-1.14-.65-2.22A2.34,2.34,0,0,1,195.76,129.63Z"/><path class="cls-2" d="M197.17,134.78l-1.12,2.87-.88-.34.64-1.64-.35-.13L194.9,137l-.74-.29.56-1.45-.39-.15-.66,1.67-.87-.34,1.14-2.91Z"/><path class="cls-2" d="M195.75,138.37l-.92,1.79a1.76,1.76,0,1,1-3.09-1.6l.92-1.79Zm-3.07.54a.75.75,0,1,0,1.32.69l.26-.51-1.32-.68Z"/><path class="cls-2" d="M192.13,144.59l-.23.31-4.18.38h0l2.49,1.87-.17.22-2.71-2,.22-.3,4.18-.39h0l-2.48-1.86.16-.22Z"/><path class="cls-2" d="M188.27,146.89c.78.75.68,1.91-.24,2.88s-2.09,1.11-2.87.37-.68-1.91.25-2.88S187.49,146.14,188.27,146.89Zm-2.91,3a1.69,1.69,0,0,0,2.48-.34,1.6,1.6,0,1,0-2.48.34Z"/><path class="cls-2" d="M184.7,152.37l1.23-1,.17.2-2.69,2.26-.17-.2,1.24-1-2-2.4.22-.18Z"/><path class="cls-2" d="M180.19,154.1c.56,1,.13,2-1,2.69s-2.3.53-2.86-.43-.13-2,1-2.7S179.63,153.13,180.19,154.1Zm-2.7,1.57a.88.88,0,1,0,.38-1.09A.76.76,0,0,0,177.49,155.67Z"/><path class="cls-2" d="M176.44,158.21l-2.24,1c-.73.32-1.41.17-1.64-.36a.75.75,0,0,1,.16-.87.78.78,0,0,1-.83-.49c-.23-.53.12-1.12.83-1.42l2.33-1Zm-3-1.57c-.19.09-.29.24-.22.39a.32.32,0,0,0,.45.13l.7-.31-.22-.51Zm.57,1.13c-.2.09-.28.26-.22.4s.24.19.44.1l.64-.27-.22-.5Z"/><path class="cls-2" d="M171.45,157.27l-.59.76a1.75,1.75,0,0,0-1.22,0c-.32.1-.52.21-.48.34s.34.12.79,0c.82-.19,1.66-.35,1.94.53.22.73-.38,1.36-1.42,1.69a2.1,2.1,0,0,1-1.75-.08l.46-.74a1.43,1.43,0,0,0,1,0c.3-.1.51-.22.48-.35s-.36-.08-.76,0c-.86.2-1.7.29-2-.55s.42-1.43,1.5-1.76A2.35,2.35,0,0,1,171.45,157.27Z"/><path class="cls-2" d="M167.93,161.28l-3,.64-.2-.92,1.71-.37-.07-.36-1.53.33-.17-.78,1.53-.33-.09-.41-1.75.38-.2-.92,3-.66Z"/><path class="cls-2" d="M164,159.23l-.72.64a1.81,1.81,0,0,0-1.2-.21c-.33,0-.55.12-.53.26s.32.17.77.15c.85,0,1.7,0,1.81.88.09.76-.6,1.27-1.69,1.4a2.08,2.08,0,0,1-1.71-.39l.59-.65a1.37,1.37,0,0,0,1,.17c.32,0,.54-.12.53-.25s-.33-.14-.75-.12c-.87,0-1.72,0-1.83-.9s.67-1.32,1.79-1.46A2.4,2.4,0,0,1,164,159.23Z"/><path class="cls-2" d="M159.84,159.73l-.77.57a1.83,1.83,0,0,0-1.18-.31c-.34,0-.56.07-.55.2s.3.21.75.23c.85,0,1.7.1,1.73,1,0,.76-.72,1.21-1.81,1.25a2.14,2.14,0,0,1-1.67-.54l.64-.6a1.43,1.43,0,0,0,1,.26c.32,0,.55-.07.55-.2s-.32-.18-.74-.19c-.87,0-1.71-.18-1.74-1.05s.78-1.26,1.91-1.3A2.36,2.36,0,0,1,159.84,159.73Z"/><path class="cls-2" d="M155.32,162.67l-3.07-.23.07-.94,1.75.13,0-.37-1.55-.11.06-.79,1.55.11,0-.42-1.79-.13.07-.94,3.11.23Z"/><path class="cls-2" d="M151.39,162.35l-2-.4a1.76,1.76,0,1,1,.7-3.4l2,.4ZM150,159.54a.75.75,0,1,0-.3,1.47l.55.11.31-1.47Z"/><path class="cls-2" d="M144.43,160.49l-.35-.14-1.46-3.94h0l-1.16,2.88-.26-.1,1.27-3.15.35.14,1.46,3.93h0l1.15-2.88.26.11Z"/><path class="cls-2" d="M141.2,157.34c-.5,1-1.65,1.18-2.84.55s-1.64-1.71-1.13-2.66,1.65-1.18,2.83-.55S141.71,156.39,141.2,157.34Zm-3.72-2c-.44.82,0,1.75,1,2.3a1.69,1.69,0,0,0,2.46-.45c.44-.82,0-1.75-1-2.3A1.69,1.69,0,0,0,137.48,155.36Z"/><path class="cls-2" d="M135,155.47l1.36.88-.14.22-3-1.91.14-.22,1.37.88,1.69-2.63.24.15Z"/><path class="cls-2" d="M98.66,160.21l-3.36-.49-4.91-1.19-3.52-1.25.06-.15,3.5,1.25,4.9,1.18,3.35.48Z"/><path class="cls-2" d="M63.82,130.47l-1-5-.37-5V118.4h.16v2.06l.37,5,.95,4.94Z"/><path class="cls-2" d="M62.51,82.1l.1-5,.66-5,.43-2,.16,0-.43,2-.65,5-.11,5Z"/><path class="cls-2" d="M86.43,43l4.81-1.65,4.92-1.06,2-.28,0,.17-2,.27-4.91,1-4.79,1.65Z"/><path class="cls-2" d="M134.07,47.49l4.28-2.7,4.51-2.23,2.4-.94.05.16-2.39.93-4.49,2.22-4.27,2.69Z"/><path class="cls-2" d="M181.74,47.69,185.58,51,189,54.75l1.51,2.08-.13.09-1.51-2.06-3.37-3.77-3.83-3.27Z"/><path class="cls-2" d="M195.94,93.63l-1.42,4.84-.35,1-.15-.06.35-1,1.41-4.83Z"/><path class="cls-2" d="M194.24,100.88l1,2.93.67,2.45-.15,0-.67-2.45-1-2.91Z"/><path class="cls-2" d="M190.56,143.1l-3.09,4-3.6,3.56-2,1.62-.1-.13,2-1.61,3.58-3.55,3.08-4Z"/><path class="cls-2" d="M145.46,158.59l-4.67-1.94-4.4-2.46-2.16-1.41.1-.14,2.14,1.42,4.39,2.44,4.65,1.94Z"/></svg>