<svg id="Layer_1" data-name="Layer 1" xmlns="http://www.w3.org/2000/svg" viewBox="0 0 260 200"><defs><style>.cls-1{fill:#00dc6a;}.cls-2{fill:#98ff94;}.cls-3{opacity:0.5;}.cls-4{fill:#28b16a;}.cls-5{fill:#faff9f;}.cls-6{fill:#fff;}</style></defs><path class="cls-1" d="M184.17,134.49a14.39,14.39,0,0,1,17.34-10.3c.66-1.89,1.26-3.82,1.78-5.79a75.45,75.45,0,0,0-1.81-44.55,14.16,14.16,0,0,1-7.48,0,14.38,14.38,0,0,1-6.44-24.14,75.45,75.45,0,0,0-38.23-24c-1.83-.48-3.67-.89-5.5-1.23,0,.06,0,.12,0,.18a14.39,14.39,0,0,1-27.86-.15A76,76,0,0,0,72.1,50.14,14.38,14.38,0,0,1,58.77,74.7l-.49-.14q-.87,2.53-1.57,5.18a75.48,75.48,0,0,0,2,45.17A14.38,14.38,0,0,1,73,149a75.48,75.48,0,0,0,37.69,23.34c2.09.55,4.18,1,6.27,1.37a14.38,14.38,0,0,1,27.59-.26,76.1,76.1,0,0,0,43.23-25.29A14.39,14.39,0,0,1,184.17,134.49Z"/><path class="cls-2" d="M61,117.23,60.27,114l1.07-.26.43,1.8.45-.11-.36-1.5.9-.22.36,1.51,1.09-.26.33,1.41Z"/><path class="cls-2" d="M60,112.68,59.7,111,63,108.91l.27,1.48-.51.27L63,112l.57.07.27,1.48ZM62,111l-1.16.64,1.31.2Z"/><path class="cls-2" d="M59.42,109.16l-.18-1.44,3.56-.46.19,1.43Z"/><path class="cls-2" d="M61.93,104.49l-.26.16a.54.54,0,0,0-.25.49l0,.31,1.15-.1.12,1.45-3.59.3-.22-2.53c-.07-.94.37-1.6,1.08-1.66a1,1,0,0,1,1.07.74.51.51,0,0,1,.26-.29l.24-.18a.25.25,0,0,0,.15-.24.43.43,0,0,0-.09-.22l.57-.23a1.79,1.79,0,0,1,.34.91A1.11,1.11,0,0,1,61.93,104.49Zm-1.36.31c0-.25-.17-.47-.41-.45s-.34.25-.32.51l.06.72.73-.06Z"/><path class="cls-2" d="M58.7,98.84l0-1.72,3.62-1.4,0,1.5-.55.17,0,1.3.54.19,0,1.5Zm2.22-1.23-1.26.4,1.25.45Z"/><path class="cls-2" d="M58.78,95.21l.15-1.67,2.19-1.19-2.07-.18.11-1.35,3.59.31-.14,1.67L60.4,94l2.09.18-.12,1.35Z"/><path class="cls-2" d="M59.25,90.11,59.59,88c.2-1.29,1-2,2.11-1.85a1.88,1.88,0,0,1,1.44,2.41l-.33,2.1Zm2.86-1.57a.78.78,0,1,0-1.53-.24l-.09.59,1.53.24Z"/><path class="cls-2" d="M66.9,80.81,66.23,79l1.36-.49.66,1.79a.65.65,0,1,0,1.22-.45L68.81,78l1.37-.5.67,1.84c.37,1-.23,1.91-1.39,2.33S67.27,81.84,66.9,80.81Z"/><path class="cls-2" d="M70.27,77.49l1.39-.92,2.3,1L72.8,75.8l1.12-.74,2,3L74.53,79l-2.31-1,1.16,1.75-1.12.75Z"/><path class="cls-2" d="M74,74.93,75.79,73c.57-.61,1.29-.76,1.73-.36a.76.76,0,0,1,.19.9.84.84,0,0,1,1,.11c.44.41.34,1.13-.22,1.73l-1.84,2Zm2.53-.63c.16-.17.18-.37,0-.48s-.3-.07-.46.09l-.5.55.41.38Zm1,.84c.16-.17.19-.36.07-.47a.34.34,0,0,0-.49.07l-.56.6.43.4Z"/><path class="cls-2" d="M76.82,71.76l.8-1.21,3,2-.8,1.2Z"/><path class="cls-2" d="M78.33,69.29l.7-1.57,3.88.14-.62,1.37-.57-.07-.53,1.2.43.38L81,72.11ZM80.85,69l-1.31-.13,1,.9Z"/><path class="cls-2" d="M82.37,67.26,82,66.33a1.91,1.91,0,0,0,.61-1.13c.07-.35.07-.59-.07-.62s-.28.26-.41.72c-.25.86-.53,1.72-1.47,1.52-.77-.16-1-1-.8-2.16a2.22,2.22,0,0,1,1-1.58l.44.8a1.59,1.59,0,0,0-.5.93c-.06.34-.06.59.07.62s.25-.29.37-.71c.25-.89.6-1.72,1.49-1.54s1.08,1.12.84,2.28A2.53,2.53,0,0,1,82.37,67.26Z"/><path class="cls-2" d="M80.29,62.63V59.38h1v1.85h.38V59.58h.83v1.65h.44v-1.9h1l0,3.29Z"/><path class="cls-2" d="M80.34,59.28l-.43-2.08a1.88,1.88,0,0,1,1.32-2.47c1.06-.22,1.93.47,2.2,1.74l.43,2.08Zm2.11-2.48a.78.78,0,1,0-1.51.32l.12.58,1.51-.31Z"/><path class="cls-2" d="M82.16,46.1l2.5-2.16.72.83L84,46l.3.34,1.17-1,.61.7-1.18,1,.74.85-1.1.95Z"/><path class="cls-2" d="M85.74,43.09,87.1,42,90.46,44l-1.19.93-.48-.33-1,.8.2.54-1.19.92Zm2.35,1L87,43.32l.43,1.25Z"/><path class="cls-2" d="M88.57,41l1.19-.83,2.06,3-1.18.82Z"/><path class="cls-2" d="M93.87,41l-.26-.15a.52.52,0,0,0-.55,0L92.8,41l.61,1-1.22.77-1.93-3,2.15-1.36a1.35,1.35,0,0,1,2,.19,1,1,0,0,1-.17,1.29.5.5,0,0,1,.39.1l.26.12a.28.28,0,0,0,.29,0,.38.38,0,0,0,.14-.19l.47.41a1.85,1.85,0,0,1-.65.72A1.13,1.13,0,0,1,93.87,41ZM93,40a.38.38,0,1,0-.39-.61l-.61.39.39.61Z"/><path class="cls-2" d="M97.41,35.54,99,34.77l2.92,2.56-1.35.68-.4-.41L99,38.18l.08.57-1.34.68Zm2.13,1.4L98.6,36l.18,1.32Z"/><path class="cls-2" d="M100.66,33.94l1.55-.64,2.07,1.39-.81-1.92,1.25-.52,1.39,3.32-1.55.64-2.08-1.41.81,1.94-1.24.52Z"/><path class="cls-2" d="M105.36,32l2-.69a1.83,1.83,0,1,1,1.16,3.41l-2,.68Zm2.72,1.79a.78.78,0,1,0-.5-1.47l-.57.2.5,1.46Z"/><path class="cls-2" d="M115.18,34.79l1.27-1.49,1.1.94-1.24,1.45a.65.65,0,1,0,1,.84l1.24-1.45,1.1.94-1.27,1.49c-.71.83-1.77.74-2.71-.06S114.47,35.62,115.18,34.79Z"/><path class="cls-2" d="M119.74,36.09l1.49.76.29,2.48.94-1.86,1.21.61-1.62,3.22-1.5-.76-.28-2.5-1,1.88-1.2-.61Z"/><path class="cls-2" d="M123.81,38.09l2.51.6c.82.19,1.31.75,1.17,1.33a.78.78,0,0,1-.69.61.81.81,0,0,1,.4.93c-.14.58-.81.85-1.61.66L123,41.6Zm1.57,3.19c.22,0,.4,0,.44-.18a.34.34,0,0,0-.3-.39l-.8-.19-.13.57Zm.23-1.29a.34.34,0,0,0,.44-.2c0-.15-.09-.3-.31-.36l-.72-.17-.13.55Z"/><path class="cls-2" d="M128,39l1.44.1-.27,3.59-1.44-.11Z"/><path class="cls-2" d="M130.86,39.05l1.72-.16,1.78,3.45-1.5.14-.22-.53-1.3.12-.13.57-1.5.14Zm1.47,2.07-.54-1.21-.31,1.29Z"/><path class="cls-2" d="M134.6,41.58l.63-.8a2,2,0,0,0,1.28,0c.34-.11.55-.24.5-.37s-.36-.12-.83,0c-.87.22-1.75.39-2.05-.52-.24-.76.39-1.42,1.49-1.77a2.23,2.23,0,0,1,1.85,0l-.49.78a1.52,1.52,0,0,0-1,0c-.32.11-.54.24-.5.37s.37.08.8,0c.9-.22,1.79-.32,2.07.54s-.44,1.49-1.57,1.85A2.55,2.55,0,0,1,134.6,41.58Z"/><path class="cls-2" d="M137.59,37.47l2.84-1.59.48.85-1.62.91.19.33,1.44-.81.4.73-1.44.8.22.39,1.66-.93.47.85-2.88,1.61Z"/><path class="cls-2" d="M140.51,35.88l1.6-1.4a1.83,1.83,0,1,1,2.37,2.72l-1.6,1.39Zm3.2.63a.76.76,0,0,0,.13-1.15.75.75,0,0,0-1.15,0l-.45.39,1,1.17Z"/><path class="cls-2" d="M152.94,31.28l3.11,1.11-.37,1-1.74-.62-.16.43,1.46.53-.31.87-1.46-.53-.38,1-1.36-.49Z"/><path class="cls-2" d="M157.33,32.92l1.59.67-.06,3.88-1.38-.59.05-.57-1.2-.51-.38.44-1.38-.58Zm.32,2.52.1-1.32-.88,1Z"/><path class="cls-2" d="M160.6,34.35l1.31.63-1.56,3.24L159,37.6Z"/><path class="cls-2" d="M163.12,39v-.3a.52.52,0,0,0-.27-.48l-.27-.14-.55,1-1.27-.69,1.71-3.16,2.23,1.2c.83.45,1.13,1.18.79,1.81a1,1,0,0,1-1.2.48.56.56,0,0,1,.11.38v.3a.27.27,0,0,0,.13.26.33.33,0,0,0,.22,0l-.12.61a2,2,0,0,1-.95-.21A1.13,1.13,0,0,1,163.12,39Zm.48-1.31c.22.12.49.12.6-.09a.42.42,0,0,0-.25-.54l-.63-.35-.35.64Z"/><path class="cls-2" d="M169.63,39.41l1.43,1-.82,3.8L169,43.33l.17-.55L168.08,42l-.46.36-1.24-.84ZM169.45,42l.35-1.28-1.06.8Z"/><path class="cls-2" d="M172.64,41.48l1.32,1-.2,2.49L175,43.36l1.07.83L173.88,47l-1.32-1,.22-2.5-1.3,1.65-1.06-.83Z"/><path class="cls-2" d="M176.63,44.65l1.58,1.43a1.83,1.83,0,1,1-2.42,2.67l-1.58-1.43Zm-.24,3.25a.78.78,0,1,0,1-1.15l-.45-.4-1,1.15Z"/><path class="cls-2" d="M178.73,54l1.91.43-.32,1.41-1.86-.41a.64.64,0,0,0-.79.49.63.63,0,0,0,.51.78l1.86.41-.31,1.41-1.91-.42c-1.06-.24-1.49-1.22-1.22-2.42S177.66,53.8,178.73,54Z"/><path class="cls-2" d="M179.71,58.66l0,1.68-2.05,1.42,2.08,0,0,1.35-3.6.08,0-1.68L178.24,60l-2.1.05,0-1.35Z"/><path class="cls-2" d="M179.84,63.21l.66,2.5c.21.81-.05,1.5-.62,1.65A.78.78,0,0,1,179,67a.81.81,0,0,1-.63.79c-.58.15-1.13-.31-1.33-1.11l-.69-2.6Zm-2.07,2.88c.06.22.21.35.37.31a.34.34,0,0,0,.2-.45l-.21-.79-.56.15Zm1.25-.4c.06.22.22.34.38.3s.23-.22.17-.44l-.19-.72-.55.15Z"/><path class="cls-2" d="M181,67.26l.58,1.32L178.33,70l-.59-1.32Z"/><path class="cls-2" d="M182.32,69.88l.94,1.44-2.21,3.19-.82-1.25.36-.45-.72-1.09-.56.15-.82-1.26Zm-1.15,2.27.82-1-1.28.33Z"/><path class="cls-2" d="M181.83,74.37l1,.17a1.9,1.9,0,0,0,.62,1.13c.25.24.46.37.56.27s-.07-.38-.39-.74c-.59-.67-1.16-1.37-.49-2s1.43-.32,2.25.48a2.26,2.26,0,0,1,.82,1.66l-.91-.06a1.53,1.53,0,0,0-.51-.92c-.25-.23-.46-.37-.56-.28s.1.37.4.7c.62.69,1.12,1.43.49,2.08s-1.52.31-2.37-.52A2.55,2.55,0,0,1,181.83,74.37Z"/><path class="cls-2" d="M186.85,75.08l2.74,1.77-.54.82-1.55-1-.21.32,1.39.9-.45.69-1.39-.9-.24.37,1.6,1-.53.82-2.78-1.8Z"/><path class="cls-2" d="M189.64,76.93l2,.76a1.83,1.83,0,1,1-1.29,3.36l-2-.75Zm1,3.12a.78.78,0,1,0,.56-1.45l-.56-.21L190,79.84Z"/><path class="cls-2" d="M200.18,84.29l.61,3.25-1.08.2-.34-1.82-.45.09.28,1.52-.91.17L198,86.18l-1.1.21L196.64,85Z"/><path class="cls-2" d="M201,88.89l.22,1.71-3.37,1.91-.2-1.49.52-.25L198,89.48l-.57-.11-.2-1.48Zm-2,1.55,1.18-.58-1.29-.27Z"/><path class="cls-2" d="M201.41,92.43l.12,1.44-3.59.31-.12-1.45Z"/><path class="cls-2" d="M198.67,97l.27-.15a.54.54,0,0,0,.27-.48v-.31l-1.15,0L198,94.65l3.6-.13.09,2.54c0,.94-.44,1.58-1.16,1.61a1,1,0,0,1-1-.8.56.56,0,0,1-.28.29l-.25.16a.28.28,0,0,0-.16.24.45.45,0,0,0,.08.22l-.58.2a1.87,1.87,0,0,1-.3-.93A1.11,1.11,0,0,1,198.67,97Zm1.38-.25c0,.25.15.48.38.47s.36-.23.35-.49l0-.73L200,96Z"/><path class="cls-2" d="M201.62,102.8l-.11,1.72-3.69,1.22.09-1.5.56-.14.09-1.3-.54-.22.1-1.5Zm-2.28,1.13,1.28-.34-1.23-.51Z"/><path class="cls-2" d="M201.35,106.43l-.22,1.65-2.25,1.08,2.06.29-.18,1.33-3.56-.48.22-1.66,2.27-1.08-2.08-.28.18-1.34Z"/><path class="cls-2" d="M200.65,111.44l-.43,2.08c-.26,1.28-1.14,2-2.2,1.75a1.89,1.89,0,0,1-1.33-2.47l.43-2.08Zm-2.93,1.44a.76.76,0,0,0,.59,1,.75.75,0,0,0,.93-.67l.12-.59-1.52-.31Z"/><path class="cls-2" d="M192.13,119.23l.75,1.8-1.33.56-.74-1.76a.65.65,0,1,0-1.2.5l.74,1.76-1.34.56-.75-1.81c-.42-1,.13-1.91,1.27-2.39S191.71,118.22,192.13,119.23Z"/><path class="cls-2" d="M188.9,122.7l-1.35,1-2.34-.87,1.23,1.69-1.09.79-2.13-2.9,1.35-1,2.35.88-1.24-1.69,1.09-.8Z"/><path class="cls-2" d="M185.26,125.42l-1.67,2c-.54.64-1.25.83-1.71.44a.78.78,0,0,1-.24-.88.82.82,0,0,1-1-.07c-.46-.39-.4-1.11.13-1.73l1.74-2.06Zm-3.55,0c-.15.17-.16.37,0,.47a.34.34,0,0,0,.49-.09l.52-.62-.44-.38Zm1,.79c-.15.18-.15.38,0,.48s.31.06.46-.11l.48-.57-.43-.36Z"/><path class="cls-2" d="M182.62,128.73l-.75,1.24-3.09-1.86.75-1.24Z"/><path class="cls-2" d="M181.21,131.26l-.63,1.61-3.87,0,.55-1.39.57,0,.48-1.21-.45-.37.55-1.39Zm-2.5.38,1.32.07-1-.86Z"/><path class="cls-2" d="M177.27,133.46l.43.92a1.92,1.92,0,0,0-.56,1.15c-.06.35,0,.6.09.62s.27-.27.39-.74c.2-.87.45-1.74,1.4-1.58.78.13,1.08,1,.89,2.12a2.18,2.18,0,0,1-.89,1.62l-.47-.78a1.48,1.48,0,0,0,.46-.95c.05-.34,0-.59-.09-.61s-.24.29-.34.72c-.21.91-.53,1.75-1.43,1.6s-1.12-1.07-.93-2.24A2.55,2.55,0,0,1,177.27,133.46Z"/><path class="cls-2" d="M179.56,138l.13,3.24-1,0-.07-1.85-.38,0,.06,1.65-.82,0-.07-1.65-.44,0,.08,1.89-1,0-.14-3.29Z"/><path class="cls-2" d="M179.67,141.34l.53,2a1.83,1.83,0,1,1-3.49.9l-.53-2.06Zm-2,2.57a.78.78,0,1,0,1.5-.38L179,143l-1.5.38Z"/><path class="cls-2" d="M177.7,152.53l-2.52,2.14-.71-.84,1.41-1.2-.3-.35-1.18,1-.6-.71,1.18-1-.72-.85,1.11-.94Z"/><path class="cls-2" d="M174.09,155.5l-1.37,1-3.34-2,1.2-.91.48.34,1-.79-.19-.55,1.19-.91Zm-2.34-1,1.1.75-.42-1.26Z"/><path class="cls-2" d="M171.22,157.62l-1.19.81-2-3,1.19-.81Z"/><path class="cls-2" d="M165.92,157.49l.26.16a.54.54,0,0,0,.55,0l.26-.16-.6-1,1.23-.77,1.9,3.07-2.17,1.34a1.35,1.35,0,0,1-2-.22,1,1,0,0,1,.19-1.28.51.51,0,0,1-.39-.11l-.26-.13a.28.28,0,0,0-.29,0,.44.44,0,0,0-.15.18l-.46-.41a1.87,1.87,0,0,1,.66-.72A1.13,1.13,0,0,1,165.92,157.49Zm.89,1.08c-.21.13-.34.36-.21.56s.37.19.59.06l.62-.38-.38-.62Z"/><path class="cls-2" d="M162.33,162.93l-1.55.75-2.88-2.59,1.35-.66.4.41,1.17-.57-.08-.57,1.35-.66Zm-2.1-1.42.92.94-.16-1.32Z"/><path class="cls-2" d="M159.06,164.51l-1.55.63-2.06-1.41.79,1.93-1.25.51-1.36-3.34,1.55-.63,2.07,1.43-.8-1.95,1.26-.51Z"/><path class="cls-2" d="M154.33,166.39l-2,.66a1.83,1.83,0,1,1-1.12-3.42l2-.66Zm-2.7-1.82a.78.78,0,1,0,.48,1.47l.57-.19-.48-1.47Z"/><path class="cls-2" d="M144.48,163.79l-1.19,1.55-1.15-.88L143.3,163a.64.64,0,0,0-.11-.93.62.62,0,0,0-.92.13l-1.16,1.52-1.15-.89,1.19-1.55c.67-.86,1.73-.83,2.71-.08S145.15,162.93,144.48,163.79Z"/><path class="cls-2" d="M139.85,162.71l-1.53-.67-.42-2.46-.84,1.91-1.24-.55,1.45-3.3,1.54.68.41,2.48.85-1.93,1.23.55Z"/><path class="cls-2" d="M135.66,160.93l-2.54-.47c-.82-.15-1.34-.68-1.23-1.27a.76.76,0,0,1,.65-.64.83.83,0,0,1-.44-.91c.1-.59.76-.89,1.57-.74l2.65.48Zm-1.89-1.8c-.23,0-.41.05-.43.21s.1.3.32.34l.73.14.1-.56Zm.16-1.31c-.22,0-.4,0-.43.21s.1.33.32.37l.81.15.1-.58Z"/><path class="cls-2" d="M131.51,160.28l-1.44,0,.07-3.59,1.45,0Z"/><path class="cls-2" d="M128.6,160.33l-1.71.26-2-3.35,1.48-.22.26.52,1.29-.19.1-.57,1.48-.22Zm-1.58-2,.6,1.17.24-1.3Z"/><path class="cls-2" d="M124.74,158l-.58.82a2,2,0,0,0-1.28.1c-.33.12-.53.26-.48.39s.37.1.83,0c.85-.25,1.73-.48,2.07.42.28.74-.31,1.43-1.39,1.84a2.25,2.25,0,0,1-1.85,0l.44-.8a1.44,1.44,0,0,0,1-.08c.32-.12.53-.26.49-.38s-.38-.06-.8.07c-.89.27-1.77.41-2.1-.44s.37-1.5,1.48-1.93A2.51,2.51,0,0,1,124.74,158Z"/><path class="cls-2" d="M122,162.27,119.2,164l-.52-.82,1.57-1-.2-.33-1.4.88-.44-.7,1.4-.88-.24-.37-1.61,1-.52-.82,2.8-1.76Z"/><path class="cls-2" d="M119.1,164l-1.52,1.47a1.83,1.83,0,1,1-2.5-2.58l1.52-1.47Zm-3.22-.46a.76.76,0,0,0-.07,1.15.74.74,0,0,0,1.14,0l.43-.42-1.07-1.11Z"/><path class="cls-2" d="M108.84,167.3l-3.13-1.05.35-1.05,1.76.59.14-.43-1.47-.5.3-.87,1.47.49.36-1,1.37.46Z"/><path class="cls-2" d="M104.43,165.75l-1.6-.64,0-3.88,1.4.55,0,.58,1.21.48.37-.44,1.39.56Zm-.36-2.52-.08,1.32.87-1Z"/><path class="cls-2" d="M101.13,164.38l-1.31-.59,1.49-3.28,1.31.6Z"/><path class="cls-2" d="M98.5,159.77v.31a.52.52,0,0,0,.28.47l.28.14.52-1,1.29.66-1.65,3.2L97,162.37c-.83-.43-1.15-1.16-.83-1.8a1,1,0,0,1,1.2-.5.48.48,0,0,1-.11-.39l0-.29a.27.27,0,0,0-.12-.26.37.37,0,0,0-.23,0l.11-.61a1.76,1.76,0,0,1,1,.2A1.11,1.11,0,0,1,98.5,159.77ZM98,161.09a.43.43,0,0,0-.6.11.41.41,0,0,0,.26.53l.64.34.34-.65Z"/><path class="cls-2" d="M92,159.5l-1.45-.93.74-3.81,1.26.82-.15.55,1.09.71.45-.36,1.26.81Zm.13-2.53-.33,1.28,1-.82Z"/><path class="cls-2" d="M89,157.51l-1.33-1,.16-2.49-1.26,1.66-1.08-.81L87.62,152,89,153l-.17,2.5,1.26-1.67,1.08.81Z"/><path class="cls-2" d="M84.91,154.42,83.3,153a1.83,1.83,0,1,1,2.37-2.72l1.6,1.39Zm.18-3.25a.76.76,0,0,0-1.15,0,.74.74,0,0,0,.13,1.14l.45.4,1-1.17Z"/><path class="cls-2" d="M81.09,147.38l-1.9-.51.37-1.4,1.85.5a.64.64,0,0,0,.81-.46.62.62,0,0,0-.47-.8l-1.85-.5.37-1.4,1.9.51c1,.28,1.44,1.28,1.12,2.47S82.14,147.66,81.09,147.38Z"/><path class="cls-2" d="M80.31,142.72l0-1.68,2.12-1.32-2.09-.05,0-1.35,3.61.08,0,1.68-2.14,1.32,2.1,0,0,1.36Z"/><path class="cls-2" d="M80.38,138.15l-.54-2.52c-.17-.82.11-1.5.7-1.63a.78.78,0,0,1,.84.36.83.83,0,0,1,.67-.76c.58-.13,1.11.36,1.29,1.16l.56,2.63Zm.94-2.44c0-.23-.21-.35-.37-.32s-.23.21-.19.44l.16.72.55-.12Zm1.26-.35c0-.22-.19-.35-.35-.32a.33.33,0,0,0-.22.44l.17.8.57-.12Z"/><path class="cls-2" d="M79.37,134.07l-.52-1.34,3.36-1.31.52,1.35Z"/><path class="cls-2" d="M78.21,131.4l-.88-1.48,2.35-3.1.77,1.3-.38.43.67,1.12.56-.12.77,1.29Zm1.25-2.22-.87,1,1.3-.27Z"/><path class="cls-2" d="M78.89,126.93l-1-.22a1.94,1.94,0,0,0-.57-1.15c-.24-.26-.45-.4-.54-.3s0,.38.35.76c.56.69,1.1,1.42.39,2.07s-1.44.26-2.23-.58a2.28,2.28,0,0,1-.74-1.7l.91.11a1.51,1.51,0,0,0,.47.94c.24.24.44.39.55.3s-.09-.37-.37-.71c-.59-.72-1.06-1.49-.39-2.11s1.52-.24,2.34.63A2.54,2.54,0,0,1,78.89,126.93Z"/><path class="cls-2" d="M73.92,126l-2.66-1.88.57-.79,1.51,1.07.22-.32-1.35-.95.48-.68,1.35,1,.25-.36-1.55-1.1.56-.8,2.7,1.91Z"/><path class="cls-2" d="M71.2,124l-2-.84a1.83,1.83,0,1,1,1.43-3.31l1.95.85Zm-.81-3.16a.78.78,0,1,0-.62,1.43l.55.23.62-1.42Z"/><g class="cls-3"><path class="cls-4" d="M111.11,73.1c-1.35-3.29-3.14-6.19-6.57-7.71a13,13,0,0,0-5.48-1,20.36,20.36,0,0,0-8.6,2c-.81.38-1.63.72-2.45,1.08,0-.06-.07-.09-.06-.11,2.71-5.7,6.5-10.49,12-13.68a25.23,25.23,0,0,1,19.28-2.93,13.45,13.45,0,0,1,10.33,10c.08.32.15.65.25,1a4.15,4.15,0,0,0,.24-.42,19.33,19.33,0,0,1,3.68-5.32,4.2,4.2,0,0,1,7.12,1,5.48,5.48,0,0,1,.74,3.17,2,2,0,0,1-.74,1.4,21.58,21.58,0,0,0-7.61,14.28c0,.25,0,.51-.07,1a36.16,36.16,0,0,0,3-2.23A24.18,24.18,0,0,1,147.46,69a20.23,20.23,0,0,1,11.18.3,24.42,24.42,0,0,1,11.86,8.75,30.83,30.83,0,0,1,4.68,10.77,34.76,34.76,0,0,1,1.22,10.09,44.5,44.5,0,0,1-3.17,14.72,67.23,67.23,0,0,1-15.83,24.07,32,32,0,0,1-11.78,7.45,8.73,8.73,0,0,1-5.62.12,41.46,41.46,0,0,1-4.05-1.44A15.59,15.59,0,0,0,123,144a30.57,30.57,0,0,1-3.63,1.46,11.09,11.09,0,0,1-8.67-1.41,28.39,28.39,0,0,1-7.35-6.33,68.17,68.17,0,0,1-13.24-22.39,41.85,41.85,0,0,1-2.47-10.55,49.15,49.15,0,0,1,0-5.15A42.1,42.1,0,0,1,88,95a28.17,28.17,0,0,1,4.48-12c3.62-5.26,8.76-8.17,14.9-9.44C108.61,73.34,109.85,73.26,111.11,73.1ZM129.2,79l-1-.59c-.81-.48-1.65-1-2.45-1.46a.75.75,0,0,0-.76-.09c-1,.36-1.92.75-2.9,1A9,9,0,0,1,112.45,75a.9.9,0,0,0-.73-.15A30.69,30.69,0,0,0,105.53,77a23.89,23.89,0,0,0-10.65,9.21,26.42,26.42,0,0,0-3.6,10.58A26,26,0,0,0,91,104.1a66.9,66.9,0,0,0,5.58,19.07,56.86,56.86,0,0,0,10.34,15.23,19.79,19.79,0,0,0,5.82,4.33,8.35,8.35,0,0,0,6.42.57,27.27,27.27,0,0,0,2.67-1.16,18.29,18.29,0,0,1,15.31-.52,29.75,29.75,0,0,0,3.34,1.12,5.87,5.87,0,0,0,3.86,0,26,26,0,0,0,7.65-4.25,55.68,55.68,0,0,0,9.29-10.23A66,66,0,0,0,171,107.54a32.84,32.84,0,0,0,.37-17.43c-1.29-4.88-3.37-9.19-7.24-12.56A22.27,22.27,0,0,0,156.58,73a17.57,17.57,0,0,0-8.22-.43,20.24,20.24,0,0,0-9.23,3.51A31.23,31.23,0,0,1,130,80.59a22.2,22.2,0,0,1-7.59,1.27,13,13,0,0,1-1.49-.2v-.17A29.13,29.13,0,0,0,129.2,79ZM106.59,54.26a16.56,16.56,0,0,1,1.73.09,7.64,7.64,0,0,1,3.59,1.85,1.65,1.65,0,0,0,.73.35,17,17,0,0,1,6,2.15l.31.16.16-.12-2.4-4.46a2.93,2.93,0,0,1,.43.5c.85,1.43,1.68,2.86,2.53,4.29a2,2,0,0,0,.46.61A24.21,24.21,0,0,1,125.25,65c.09.12.2.24.38.46a22,22,0,0,0-1.07-8.12,5.69,5.69,0,0,1,.5.94A14.86,14.86,0,0,1,126.13,64a7,7,0,0,0,1.11,4.33,8.56,8.56,0,0,1,.66,1.36c.06.14.14.27.26.5,0-.5.07-.89.1-1.28a18.12,18.12,0,0,0-1.7-9.69,10.22,10.22,0,0,0-6-5.39,23.09,23.09,0,0,0-12.17-.61A27.17,27.17,0,0,0,93,62.3c-.41.46-.77,1-1.18,1.5a1,1,0,0,0,.2,0c.21,0,.43-.11.64-.18a23.1,23.1,0,0,1,12.29-.28,10.06,10.06,0,0,1,7,5.39c.46,1,1,1.9,1.44,2.85a7,7,0,0,0,7,4.16,34.5,34.5,0,0,0,5-.85,7.54,7.54,0,0,0,1.25-.46A28.75,28.75,0,0,0,123.79,67a1,1,0,0,0-.61-.39,12.42,12.42,0,0,0-5.72.06c-1,.21-1.91.52-2.87.79a13.85,13.85,0,0,1,4.19-1.38,12.8,12.8,0,0,1,4.53.06,19.42,19.42,0,0,0-4.65-5.47.9.9,0,0,0-.52-.13,15,15,0,0,0-7,1.63c-.44.22-.86.47-1.29.71a8.83,8.83,0,0,1,3.61-2.06c1.35-.4,2.74-.65,4.09-1,0,0,0,0,0,0l-.33-.22a14.69,14.69,0,0,0-5-2,5.2,5.2,0,0,0-1.65-.18,11,11,0,0,0-6.1,2.85,3.5,3.5,0,0,1-.3.24,9.4,9.4,0,0,1,4.44-3.21A17.57,17.57,0,0,0,103,58c-1.81.49-3.58,1.11-5.36,1.68,4.3-2.14,8.76-3.61,13.7-3.3A6.6,6.6,0,0,0,106.59,54.26ZM138.42,61a2.87,2.87,0,0,1-2.12-.21,3.75,3.75,0,0,1-2-3.12c-.75,1-1.46,1.92-2.07,2.87a12.48,12.48,0,0,0-2.41,7.32,3.6,3.6,0,0,1-.06.73,17.33,17.33,0,0,0,.2,6.5.8.8,0,0,0,.3.52,6.05,6.05,0,0,0,1,.29c.16-.84.28-1.67.48-2.48a24.41,24.41,0,0,1,7.7-12.8,1.15,1.15,0,0,0,.4-.78A4.58,4.58,0,0,0,138.84,57a2.5,2.5,0,0,0-1.73-.92,2,2,0,0,0-1.75.59c-.18.2,0,.72,0,1.1a.41.41,0,0,0,0,.11,3.14,3.14,0,0,0,2,2.71C137.73,60.75,138.07,60.84,138.42,61Z"/></g><path class="cls-5" d="M101.32,113.38h2.24c.84,0,1.31.36,1.31,1,0,.88-.59,1.38-1.64,1.38h-.93l-.15,1h-1.36ZM103,115c.35,0,.54-.16.54-.45s-.15-.32-.42-.32h-.51l-.12.77Z"/><path class="cls-5" d="M104.33,116.28a.64.64,0,0,1,.69-.63.56.56,0,0,1,.62.55.64.64,0,0,1-.69.63A.56.56,0,0,1,104.33,116.28Z"/><path class="cls-5" d="M105.85,116.09l.86-.52a1.42,1.42,0,0,0,1.06.42c.31,0,.5-.07.5-.21s-.14-.18-.39-.22l-.5-.07c-.86-.12-1.22-.4-1.22-.95,0-.88.86-1.27,1.85-1.27a1.78,1.78,0,0,1,1.64.7l-.8.5a1.15,1.15,0,0,0-.84-.33c-.31,0-.53.06-.53.19s.16.16.42.2l.45.07c.88.12,1.25.43,1.25,1,0,.85-.93,1.29-1.95,1.29A1.92,1.92,0,0,1,105.85,116.09Z"/><path class="cls-5" d="M109.68,116.28a.64.64,0,0,1,.7-.63.55.55,0,0,1,.61.55.64.64,0,0,1-.69.63A.56.56,0,0,1,109.68,116.28Z"/><path class="cls-5" d="M113.46,113.38h1.36l-.54,3.4h-1.36Z"/><path class="cls-5" d="M116.09,113.38h1.37l-.17,1h0l1.08-1H120l-1.48,1.3.94,2.1h-1.62l-.41-1.2-.4.34-.13.86h-1.37Z"/><path class="cls-5" d="M120.24,113.38h1.59l.94,2h0l.32-2h1.25l-.53,3.4h-1.59l-1-2h0l-.32,2H119.7Z"/><path class="cls-5" d="M124.39,115.39a2.26,2.26,0,0,1,2.47-2.13c1.22,0,2,.59,2,1.51a2.26,2.26,0,0,1-2.47,2.12C125.14,116.89,124.39,116.31,124.39,115.39Zm3-.47c0-.38-.27-.62-.72-.62a.92.92,0,0,0-1,.93c0,.39.27.62.73.62A.91.91,0,0,0,127.44,114.92Z"/><path class="cls-5" d="M129,113.38h1.38l.26,2.23h0l1-2.23h1.5l.34,2.23h0l1-2.23h1.38l-1.71,3.4h-1.57l-.34-2.22h0l-1,2.22h-1.57Z"/><path class="cls-5" d="M137.75,115.65l-1-2.27h1.41l.4,1.28h0l.76-1.28h1.43l-1.66,2.27-.18,1.13h-1.37Z"/><path class="cls-5" d="M140.32,115.39a2.26,2.26,0,0,1,2.47-2.13c1.21,0,2,.59,2,1.51a2.26,2.26,0,0,1-2.47,2.12C141.06,116.89,140.32,116.31,140.32,115.39Zm3.05-.47c0-.38-.27-.62-.73-.62a.92.92,0,0,0-.94.93c0,.39.27.62.72.62A.91.91,0,0,0,143.37,114.92Z"/><path class="cls-5" d="M145,115.39l.32-2h1.36l-.3,2c-.05.32.12.49.47.49a.57.57,0,0,0,.64-.49l.31-2h1.37l-.32,2c-.16.93-.93,1.45-2.16,1.45S144.83,116.34,145,115.39Z"/><path class="cls-5" d="M149.22,115a.94.94,0,0,0,1.19-.77c-.51.27-1,.08-1-.43a.63.63,0,0,1,.66-.61c.39,0,.62.29.62.72a1.17,1.17,0,0,1-1.45,1.25Z"/><path class="cls-5" d="M152.77,116.22l-.08-.29a.37.37,0,0,0-.36-.24h-.27l-.17,1.09h-1.36l.53-3.4h2.27c.85,0,1.32.34,1.32,1a1.14,1.14,0,0,1-.93,1.11h0a.35.35,0,0,1,.23.29l.09.25a.19.19,0,0,0,.2.13.54.54,0,0,0,.21-.05l.08.55a1.83,1.83,0,0,1-.92.25A.82.82,0,0,1,152.77,116.22Zm0-1.31c.31,0,.49-.14.49-.4s-.13-.28-.38-.28h-.6l-.1.68Z"/><path class="cls-5" d="M155.28,113.38h2.95l-.15.92h-1.63l-.06.36h1.45l-.13.79h-1.44l-.07.41h1.69l-.15.92h-3Z"/><path class="cls-5" d="M90,121.61a2.2,2.2,0,0,1,2.32-2.17c1,0,1.66.47,1.73,1.18l-1.3.2a.5.5,0,0,0-.53-.36.86.86,0,0,0-.84.91.66.66,0,0,0,.75.67.81.81,0,0,0,.8-.4H91.8l.11-.69h2.47l-.31,2h-1l0-.55h0a1.82,1.82,0,0,1-1.4.62C90.66,123,90,122.47,90,121.61Z"/><path class="cls-5" d="M94.59,121.54a2.26,2.26,0,0,1,2.47-2.12c1.22,0,2,.58,2,1.51a2.26,2.26,0,0,1-2.47,2.12C95.34,123.05,94.59,122.46,94.59,121.54Zm3-.46c0-.38-.27-.62-.72-.62a.91.91,0,0,0-1,.93c0,.38.27.62.73.62A.92.92,0,0,0,97.64,121.08Z"/><path class="cls-5" d="M99.6,119.53H101l-.54,3.41H99.06Z"/><path class="cls-5" d="M101.38,119.53H103l.94,2h0l.32-2h1.26l-.54,3.41h-1.59l-.94-2h0l-.32,2h-1.26Z"/><path class="cls-5" d="M105.53,121.61a2.2,2.2,0,0,1,2.32-2.17c1,0,1.66.47,1.73,1.18l-1.3.2a.5.5,0,0,0-.53-.36.86.86,0,0,0-.84.91.66.66,0,0,0,.75.67.81.81,0,0,0,.8-.4h-1.17l.11-.69h2.47l-.31,2h-1v-.55h0a1.82,1.82,0,0,1-1.4.62C106.15,123,105.53,122.47,105.53,121.61Z"/><path class="cls-5" d="M112,120.57h-1l.16-1h3.39l-.17,1h-1l-.37,2.37h-1.37Z"/><path class="cls-5" d="M114.42,121.54a2.25,2.25,0,0,1,2.47-2.12c1.21,0,2,.58,2,1.51a2.25,2.25,0,0,1-2.46,2.12C115.16,123.05,114.42,122.46,114.42,121.54Zm3-.46c0-.38-.27-.62-.72-.62a.91.91,0,0,0-.94.93c0,.38.27.62.72.62A.91.91,0,0,0,117.46,121.08Z"/><path class="cls-5" d="M121,120.57h-1l.17-1h3.39l-.17,1h-1l-.38,2.37H120.6Z"/><path class="cls-5" d="M124.52,119.53h1.62l.77,3.41h-1.4l-.08-.54h-1.16l-.26.54h-1.37Zm.84,2.08-.18-1.16h0l-.57,1.16Z"/><path class="cls-5" d="M127.67,119.53H129l-.16,1h0l1.08-1h1.64l-1.49,1.31.95,2.1h-1.62l-.41-1.2-.4.34-.13.86h-1.37Z"/><path class="cls-5" d="M131.82,119.53h3l-.15.92H133l-.06.37h1.45l-.13.78H132.8l-.06.41h1.68l-.14.93h-3Z"/><path class="cls-5" d="M136,119.53h2.24c.83,0,1.3.37,1.3,1,0,.89-.58,1.38-1.63,1.38H137l-.16,1h-1.36Zm1.63,1.6c.34,0,.53-.17.53-.45s-.15-.32-.41-.32h-.52l-.12.77Z"/><path class="cls-5" d="M139.6,121.54a2.25,2.25,0,0,1,2.47-2.12c1.21,0,2,.58,2,1.51a2.26,2.26,0,0,1-2.47,2.12C140.34,123.05,139.6,122.46,139.6,121.54Zm3-.46c0-.38-.27-.62-.72-.62a.91.91,0,0,0-.94.93c0,.38.27.62.72.62A.91.91,0,0,0,142.64,121.08Z"/><path class="cls-5" d="M144.6,119.53H146l-.54,3.41h-1.37Z"/><path class="cls-5" d="M146.39,119.53H148l.94,2h0l.32-2h1.25l-.54,3.41h-1.58l-.95-2h0l-.31,2h-1.26Z"/><path class="cls-5" d="M151.63,120.57h-1l.16-1h3.39l-.17,1h-1l-.37,2.37h-1.37Z"/><path class="cls-5" d="M153.86,122.24l.86-.51a1.48,1.48,0,0,0,1.07.41c.3,0,.5-.07.5-.2s-.14-.19-.4-.22l-.5-.07c-.85-.12-1.22-.41-1.22-1,0-.88.86-1.27,1.85-1.27a1.77,1.77,0,0,1,1.64.69l-.8.5a1.16,1.16,0,0,0-.84-.33c-.3,0-.53.07-.53.2s.16.16.42.2l.45.06c.88.13,1.25.43,1.25,1,0,.85-.92,1.3-2,1.3A1.94,1.94,0,0,1,153.86,122.24Z"/><path class="cls-5" d="M158.72,121.54a2.26,2.26,0,0,1,2.47-2.12c1.22,0,2,.58,2,1.51a2.26,2.26,0,0,1-2.47,2.12C159.46,123.05,158.72,122.46,158.72,121.54Zm3.05-.46c0-.38-.27-.62-.73-.62a.91.91,0,0,0-.94.93c0,.38.27.62.73.62A.92.92,0,0,0,161.77,121.08Z"/><path class="cls-5" d="M163.73,119.53h3l-.17,1h-1.63l-.07.44h1.35l-.14.88h-1.35l-.17,1h-1.36Z"/><path class="cls-5" d="M167,119.53h3l-.16,1h-1.64l-.07.44h1.36l-.15.88H168l-.17,1h-1.37Z"/><path class="cls-5" d="M97,125.69h3l-.17,1H98.24l-.07.43h1.35l-.14.88H98l-.16,1.05H96.5Z"/><path class="cls-5" d="M99.93,127.7a2.26,2.26,0,0,1,2.47-2.12c1.22,0,2,.58,2,1.5a2.27,2.27,0,0,1-2.47,2.13C100.67,129.21,99.93,128.62,99.93,127.7Zm3-.46c0-.39-.27-.62-.73-.62a.91.91,0,0,0-.94.93c0,.38.27.62.73.62A.92.92,0,0,0,103,127.24Z"/><path class="cls-5" d="M106.64,128.54l-.08-.3a.36.36,0,0,0-.36-.23h-.27l-.17,1.08H104.4l.54-3.4h2.26c.85,0,1.33.34,1.33,1a1.14,1.14,0,0,1-.94,1.11h0a.35.35,0,0,1,.23.28l.1.25a.19.19,0,0,0,.19.14.47.47,0,0,0,.21-.06l.08.56a1.92,1.92,0,0,1-.91.24A.81.81,0,0,1,106.64,128.54Zm0-1.31c.31,0,.49-.15.49-.41s-.13-.28-.38-.28h-.59l-.11.69Z"/><path class="cls-5" d="M110,125.69h1.37L111,128h1.5l-.17,1.06h-2.86Z"/><path class="cls-5" d="M114.29,125.69h1.62l.77,3.4h-1.4l-.08-.53H114l-.26.53h-1.37Zm.84,2.08-.18-1.16h0l-.57,1.16Z"/><path class="cls-5" d="M117.74,126.73h-1l.16-1h3.39l-.17,1h-1l-.37,2.36h-1.37Z"/><path class="cls-5" d="M120.57,125.69h3l-.15.92h-1.63l-.06.37h1.45l-.13.78h-1.44l-.07.41h1.69l-.15.92h-3Z"/><path class="cls-5" d="M124.16,128.4l.86-.52a1.44,1.44,0,0,0,1.07.42c.31,0,.5-.07.5-.2s-.14-.19-.4-.23l-.5-.06c-.85-.12-1.21-.41-1.21-1,0-.89.86-1.28,1.85-1.28a1.76,1.76,0,0,1,1.63.7l-.8.5a1.15,1.15,0,0,0-.83-.33c-.31,0-.53.07-.53.19s.16.17.42.21l.44.06c.88.13,1.25.43,1.25,1,0,.85-.92,1.29-1.94,1.29A2,2,0,0,1,124.16,128.4Z"/><path class="cls-5" d="M128.22,127.7l.32-2h1.37l-.31,2c0,.31.12.48.48.48a.56.56,0,0,0,.63-.48l.31-2h1.37l-.32,2c-.15.93-.92,1.45-2.16,1.45S128.07,128.66,128.22,127.7Z"/><path class="cls-5" d="M132.79,125.69h2.31c.76,0,1.23.33,1.23.85a.87.87,0,0,1-.68.82h0a.65.65,0,0,1,.51.66c0,.62-.62,1.06-1.45,1.06h-2.46Zm1.64,2.6c.23,0,.39-.12.39-.32s-.12-.25-.3-.25h-.69l-.09.57Zm.15-1.25a.33.33,0,0,0,.37-.32c0-.14-.1-.23-.29-.23H134L134,127Z"/><path class="cls-5" d="M136.86,125.69h1.75l.49,2h0l1.15-2H142l-.54,3.4h-1.25l.31-2h0l-1.1,2h-1.06l-.49-2h0l-.31,2h-1.24Z"/><path class="cls-5" d="M142.45,125.69h1.36l-.54,3.4h-1.36Z"/><path class="cls-5" d="M143.68,128.4l.86-.52a1.4,1.4,0,0,0,1.06.42c.31,0,.5-.07.5-.2s-.14-.19-.4-.23l-.5-.06c-.85-.12-1.21-.41-1.21-1,0-.89.86-1.28,1.85-1.28a1.76,1.76,0,0,1,1.63.7l-.8.5a1.15,1.15,0,0,0-.83-.33c-.31,0-.53.07-.53.19s.16.17.42.21l.44.06c.88.13,1.26.43,1.26,1,0,.85-.93,1.29-2,1.29A1.92,1.92,0,0,1,143.68,128.4Z"/><path class="cls-5" d="M147.52,128.4l.86-.52a1.44,1.44,0,0,0,1.07.42c.3,0,.5-.07.5-.2s-.14-.19-.4-.23l-.5-.06c-.85-.12-1.22-.41-1.22-1,0-.89.86-1.28,1.85-1.28a1.77,1.77,0,0,1,1.64.7l-.8.5a1.18,1.18,0,0,0-.84-.33c-.31,0-.53.07-.53.19s.16.17.42.21l.45.06c.88.13,1.25.43,1.25,1,0,.85-.93,1.29-2,1.29A1.93,1.93,0,0,1,147.52,128.4Z"/><path class="cls-5" d="M151.92,125.69h1.37l-.54,3.4h-1.36Z"/><path class="cls-5" d="M153.32,127.7a2.25,2.25,0,0,1,2.47-2.12c1.21,0,2,.58,2,1.5a2.26,2.26,0,0,1-2.46,2.13C154.06,129.21,153.32,128.62,153.32,127.7Zm3-.46c0-.39-.27-.62-.72-.62a.91.91,0,0,0-.94.93c0,.38.27.62.72.62A.91.91,0,0,0,156.36,127.24Z"/><path class="cls-5" d="M158.32,125.69h1.59l.94,2h0l.32-2h1.26l-.54,3.4h-1.59l-.94-2h0l-.32,2h-1.26Z"/><path class="cls-5" d="M92.07,131.84h2.3c.77,0,1.23.34,1.23.85a.88.88,0,0,1-.67.83h0a.65.65,0,0,1,.51.66c0,.61-.63,1.06-1.46,1.06H91.53Zm1.63,2.61c.24,0,.39-.13.39-.33s-.11-.24-.3-.24h-.68l-.09.57Zm.15-1.26c.24,0,.38-.13.38-.31s-.11-.23-.29-.23H93.3l-.08.54Z"/><path class="cls-5" d="M95.79,133.86l.32-2h1.37l-.31,2c0,.31.12.49.48.49a.57.57,0,0,0,.63-.49l.31-2H100l-.32,2c-.15.93-.92,1.45-2.16,1.45S95.64,134.81,95.79,133.86Z"/><path class="cls-5" d="M101.06,132.89h-1l.16-1h3.39l-.17,1h-1l-.37,2.36h-1.37Z"/><path class="cls-5" d="M102.71,135.93a.94.94,0,0,0,1.19-.76c-.51.27-1.05.07-1.05-.43a.63.63,0,0,1,.66-.62c.39,0,.62.29.62.72a1.17,1.17,0,0,1-1.45,1.25Z"/><path class="cls-5" d="M105.79,131.84H108c.84,0,1.31.37,1.31,1,0,.88-.59,1.38-1.64,1.38h-.93l-.15,1h-1.36Zm1.62,1.6c.35,0,.54-.16.54-.45s-.15-.32-.41-.32H107l-.12.77Z"/><path class="cls-5" d="M109.81,131.84h1.36l-.37,2.35h1.49l-.16,1.06h-2.86Z"/><path class="cls-5" d="M113,131.84h3l-.15.93h-1.63l-.06.36h1.45l-.13.79H114l-.07.41h1.69l-.15.92h-3Z"/><path class="cls-5" d="M117.4,131.84H119l.76,3.41h-1.4l-.08-.53h-1.15l-.26.53h-1.37Zm.84,2.09-.18-1.17h0l-.57,1.17Z"/><path class="cls-5" d="M119.91,134.56l.86-.52a1.42,1.42,0,0,0,1.06.42c.31,0,.51-.07.51-.21s-.15-.18-.4-.22l-.5-.07c-.86-.12-1.22-.4-1.22-1,0-.88.86-1.27,1.85-1.27a1.78,1.78,0,0,1,1.64.7l-.8.5a1.13,1.13,0,0,0-.84-.33c-.31,0-.53.06-.53.19s.16.16.42.2l.45.07c.88.12,1.25.43,1.25,1,0,.85-.93,1.29-2,1.29A1.92,1.92,0,0,1,119.91,134.56Z"/><path class="cls-5" d="M124.31,131.84h3l-.14.93h-1.63l-.07.36h1.45l-.13.79H125.3l-.07.41h1.69l-.15.92h-3Z"/><path class="cls-5" d="M126.91,135.93a.94.94,0,0,0,1.19-.76c-.51.27-1,.07-1-.43a.63.63,0,0,1,.66-.62.63.63,0,0,1,.62.72,1.17,1.17,0,0,1-1.46,1.25Z"/><path class="cls-5" d="M130,131.84h1.37l-.19,1.16h1.12l.18-1.16h1.37l-.54,3.41h-1.36l.2-1.28H131l-.2,1.28h-1.37Z"/><path class="cls-5" d="M135.38,131.84H137l.76,3.41h-1.4l-.08-.53h-1.16l-.26.53h-1.36Zm.84,2.09-.18-1.17h0l-.57,1.17Z"/><path class="cls-5" d="M137.7,131.84h1.41l.36,2.26h0l1.08-2.26H142l-1.87,3.41h-1.61Z"/><path class="cls-5" d="M142.19,131.84h2.95l-.15.93h-1.63l-.06.36h1.45l-.13.79h-1.44l-.07.41h1.69l-.15.92h-3Z"/><path class="cls-5" d="M146.34,131.84h1.75l.49,2h0l1.15-2h1.75l-.54,3.41h-1.24l.31-2h0l-1.09,2h-1.06l-.5-2h0l-.31,2H145.8Z"/><path class="cls-5" d="M151.93,131.84h2.95l-.15.93H153.1l-.06.36h1.45l-.13.79h-1.44l-.07.41h1.68l-.14.92h-3Z"/><path class="cls-5" d="M156.94,134.69l-.08-.29a.38.38,0,0,0-.36-.24h-.27l-.17,1.09h-1.37l.54-3.41h2.27c.84,0,1.32.35,1.32,1a1.15,1.15,0,0,1-.93,1.11h0a.34.34,0,0,1,.22.29l.1.25a.19.19,0,0,0,.2.13.54.54,0,0,0,.21-.05l.08.55a1.83,1.83,0,0,1-.92.25A.81.81,0,0,1,156.94,134.69Zm0-1.31c.31,0,.49-.14.49-.4s-.14-.28-.38-.28h-.6l-.11.68Z"/><path class="cls-5" d="M159.06,133.79a2.15,2.15,0,0,1,2.26-2c1.09,0,1.77.53,1.8,1.33l-1.28.23a.52.52,0,0,0-.58-.51.87.87,0,0,0-.82.89c0,.38.27.6.71.6a.9.9,0,0,0,.88-.59l1.23.17a2.24,2.24,0,0,1-2.22,1.47C159.83,135.34,159.06,134.75,159.06,133.79Z"/><path class="cls-5" d="M164.33,134.12l-1-2.28h1.4l.41,1.29h0l.75-1.29h1.44l-1.66,2.28-.18,1.13h-1.37Z"/><path class="cls-5" d="M166.61,134.74a.64.64,0,0,1,.7-.62.55.55,0,0,1,.61.55.64.64,0,0,1-.69.63A.56.56,0,0,1,166.61,134.74Z"/><path class="cls-5" d="M103.68,63.65a2,2,0,0,0-2.51,1.61c1.08-.57,2.22-.16,2.22.91A1.33,1.33,0,0,1,102,67.48,1.35,1.35,0,0,1,100.68,66a2.49,2.49,0,0,1,3.08-2.65Zm3.24,0a2,2,0,0,0-2.51,1.61c1.07-.57,2.21-.16,2.21.91a1.32,1.32,0,0,1-1.38,1.31A1.35,1.35,0,0,1,103.92,66,2.48,2.48,0,0,1,107,63.3Z"/><path class="cls-5" d="M106.53,69.26l1.82-1.09a3,3,0,0,0,2.25.88c.65,0,1.06-.15,1.06-.43s-.3-.39-.84-.47L109.76,68c-1.8-.26-2.57-.86-2.57-2,0-1.87,1.82-2.69,3.91-2.69,1.75,0,3,.58,3.46,1.47l-1.69,1.06a2.44,2.44,0,0,0-1.77-.7c-.65,0-1.12.14-1.12.41s.34.34.89.43l.94.13c1.86.27,2.65.91,2.65,2.1,0,1.79-2,2.73-4.12,2.73C108.48,70.94,107.05,70.3,106.53,69.26Z"/><path class="cls-5" d="M115.83,63.53h2.89L118.33,66h2.36l.39-2.45H124l-1.14,7.2h-2.89l.43-2.7H118l-.43,2.7H114.7Z"/><path class="cls-5" d="M124.87,63.53h6.24l-.31,2h-3.45l-.13.77h3.06L130,67.91h-3l-.14.87h3.56l-.31,2h-6.33Z"/><path class="cls-5" d="M132.83,67.64a4.52,4.52,0,0,1,4.78-4.3c2.3,0,3.73,1.1,3.79,2.79l-2.7.49a1.11,1.11,0,0,0-1.22-1.08,1.85,1.85,0,0,0-1.75,1.9c0,.79.59,1.26,1.5,1.26a1.9,1.9,0,0,0,1.86-1.24l2.61.36a4.76,4.76,0,0,1-4.69,3.1C134.44,70.92,132.83,69.67,132.83,67.64Z"/><path class="cls-5" d="M144.82,63.53h3.44l1.62,7.2h-3l-.16-1.13H144.3l-.55,1.13h-2.89Zm1.78,4.4-.38-2.46h0L145,67.93Z"/><path class="cls-5" d="M151.47,63.53h3.36l2,4.2h0l.67-4.2h2.66L159,70.73h-3.36l-2-4.23h0L153,70.73h-2.66Z"/><path class="cls-5" d="M86.78,75.53h4.88c1.61,0,2.6.71,2.6,1.79a1.86,1.86,0,0,1-1.43,1.75v0a1.37,1.37,0,0,1,1.08,1.39c0,1.3-1.32,2.25-3.08,2.25H85.64ZM90.24,81c.5,0,.82-.26.82-.68s-.24-.52-.63-.52H89L88.79,81Zm.32-2.65c.5,0,.79-.29.79-.67s-.22-.48-.61-.48H89.4l-.18,1.15Z"/><path class="cls-5" d="M95.38,75.53h6.24l-.31,2H97.86l-.13.77h3.06l-.27,1.66h-3l-.14.87h3.56l-.31,2H94.24Z"/><path class="cls-5" d="M105.63,77.73H103.5l.35-2.2H111l-.35,2.2h-2.14l-.79,5h-2.89Z"/><path class="cls-5" d="M110.68,79.78c0-2.69,2.36-4.49,5.22-4.49,2.57,0,4.13,1.24,4.13,3.19,0,2.68-2.35,4.49-5.21,4.49C112.25,83,110.68,81.73,110.68,79.78Zm6.44-1c0-.81-.57-1.31-1.53-1.31a1.94,1.94,0,0,0-2,2c0,.81.57,1.31,1.53,1.31A1.94,1.94,0,0,0,117.12,78.8Z"/><path class="cls-5" d="M120.52,79.79l.67-4.26h2.89l-.64,4.16c-.11.66.25,1,1,1a1.2,1.2,0,0,0,1.34-1l.66-4.16h2.88l-.68,4.32c-.32,2-1.94,3.07-4.55,3.07S120.2,81.8,120.52,79.79Z"/><path class="cls-5" d="M129.33,79.93a4.63,4.63,0,0,1,4.89-4.59c2.17,0,3.51,1,3.66,2.49l-2.74.43a1.06,1.06,0,0,0-1.13-.77,1.81,1.81,0,0,0-1.76,1.93,1.39,1.39,0,0,0,1.57,1.41,1.67,1.67,0,0,0,1.69-.85H133l.23-1.45h5.22l-.66,4.2H135.7l0-1.15h0a3.88,3.88,0,0,1-3,1.31C130.63,82.89,129.33,81.74,129.33,79.93Z"/><path class="cls-5" d="M139.77,75.53h2.89L142.27,78h2.36l.39-2.45h2.88l-1.14,7.2h-2.88l.43-2.7H142l-.43,2.7h-2.89Z"/><path class="cls-5" d="M150.6,75.53h4.88c1.61,0,2.59.71,2.59,1.79a1.85,1.85,0,0,1-1.42,1.75v0a1.37,1.37,0,0,1,1.08,1.39c0,1.3-1.32,2.25-3.08,2.25h-5.19Zm3.46,5.5c.5,0,.82-.26.82-.68s-.24-.52-.63-.52H152.8l-.19,1.2Zm.32-2.65c.5,0,.79-.29.79-.67s-.22-.48-.61-.48h-1.34L153,78.38Z"/><path class="cls-5" d="M158.47,79.79l.67-4.26H162l-.64,4.16c-.11.66.25,1,1,1a1.2,1.2,0,0,0,1.34-1l.66-4.16h2.88l-.68,4.32c-.31,2-1.94,3.07-4.55,3.07S158.15,81.8,158.47,79.79Z"/><path class="cls-5" d="M169.6,77.73h-2.13l.35-2.2H175l-.35,2.2h-2.14l-.79,5h-2.89Z"/><path class="cls-5" d="M91.9,93.26l1.82-1.09a3,3,0,0,0,2.25.88c.65,0,1.06-.15,1.06-.43s-.3-.39-.84-.47L95.13,92c-1.8-.26-2.57-.86-2.57-2,0-1.87,1.82-2.69,3.91-2.69,1.75,0,3,.58,3.46,1.47l-1.69,1.06a2.44,2.44,0,0,0-1.77-.7c-.65,0-1.12.14-1.12.41s.34.34.89.43l.94.13c1.86.27,2.65.91,2.65,2.1,0,1.79-2,2.73-4.12,2.73C93.85,94.94,92.42,94.3,91.9,93.26Z"/><path class="cls-5" d="M101.2,87.53h2.89L103.7,90h2.36l.39-2.45h2.89l-1.14,7.2h-2.89l.43-2.7h-2.36l-.43,2.7h-2.89Z"/><path class="cls-5" d="M110.24,87.53h6.24l-.31,2h-3.45l-.13.77h3.06l-.27,1.66h-3l-.14.87h3.56l-.31,2H109.1Z"/><path class="cls-5" d="M119,87.53h2.88l-1.14,7.2h-2.88Z"/><path class="cls-5" d="M121.6,93.26l1.82-1.09a3,3,0,0,0,2.25.88c.65,0,1.06-.15,1.06-.43s-.3-.39-.84-.47L124.83,92c-1.8-.26-2.57-.86-2.57-2,0-1.87,1.82-2.69,3.91-2.69,1.75,0,3,.58,3.46,1.47l-1.69,1.06a2.44,2.44,0,0,0-1.77-.7c-.65,0-1.12.14-1.12.41s.34.34.89.43l.94.13c1.86.27,2.65.91,2.65,2.1,0,1.79-2,2.73-4.12,2.73C123.55,94.94,122.12,94.3,121.6,93.26Z"/><path class="cls-5" d="M132.69,87.53H139l-.35,2.2h-3.45l-.15.92h2.86l-.3,1.86h-2.85l-.35,2.22h-2.89Z"/><path class="cls-5" d="M141.34,87.53h3.44l1.62,7.2h-3l-.16-1.13h-2.45l-.55,1.13h-2.89Zm1.78,4.4-.38-2.46h0l-1.21,2.46Z"/><path class="cls-5" d="M148,87.53h2.88l-1.14,7.2h-2.88Z"/><path class="cls-5" d="M155.36,93.55l-.16-.62a.79.79,0,0,0-.77-.5h-.56l-.36,2.3h-2.89l1.14-7.2h4.79c1.79,0,2.8.72,2.8,2a2.41,2.41,0,0,1-2,2.35h0a.75.75,0,0,1,.47.61l.21.52a.4.4,0,0,0,.42.29,1,1,0,0,0,.44-.12l.17,1.18a4,4,0,0,1-1.94.52A1.73,1.73,0,0,1,155.36,93.55Zm0-2.77c.66,0,1-.3,1-.85,0-.39-.28-.6-.8-.6h-1.26l-.23,1.45Z"/><path class="cls-5" d="M159.46,93.66a1.35,1.35,0,0,1,1.47-1.33,1.19,1.19,0,0,1,1.3,1.18,1.34,1.34,0,0,1-1.46,1.32A1.19,1.19,0,0,1,159.46,93.66Z"/><path class="cls-5" d="M162.16,91a2,2,0,0,0,2.52-1.61c-1.08.57-2.22.17-2.22-.91a1.33,1.33,0,0,1,1.39-1.3c.81,0,1.31.61,1.31,1.52a2.48,2.48,0,0,1-3.07,2.65Zm3.24,0a2,2,0,0,0,2.51-1.61c-1.07.57-2.21.17-2.21-.91a1.36,1.36,0,1,1,2.7.22,2.48,2.48,0,0,1-3.07,2.65Z"/><rect class="cls-4" x="119.33" y="95.52" width="63.61" height="9.86" rx="4.93" transform="translate(-9.65 16.32) rotate(-5.99)"/><rect class="cls-6" x="119.33" y="94.93" width="63.61" height="9.86" rx="4.93" transform="translate(-9.59 16.31) rotate(-5.99)"/><path class="cls-4" d="M122.27,103.07l4.48-.47,0,.24-4.49.47Z"/><path class="cls-4" d="M127,100l1.48-.16.16,1.52,2.25-.24-.16-1.51,1.48-.16.45,4.27-1.48.16-.18-1.7-2.25.24.18,1.7-1.49.15Z"/><path class="cls-4" d="M132.88,102.15c-.1-1,.78-1.74,2.14-1.88s2.29.42,2.39,1.41a1.16,1.16,0,0,1,0,.32l-3.07.33c.19.34.72.43,1.27.37a3.17,3.17,0,0,0,1.44-.47l.44.63a3.77,3.77,0,0,1-1.89.66C134.08,103.68,133,103.15,132.88,102.15Zm3.15-.61c-.06-.35-.47-.55-.94-.5s-.83.33-.84.68Z"/><path class="cls-4" d="M141.46,101l-1.2.38c-.07-.46-.3-.73-.57-.7s-.58.44-.51,1l.14,1.37-1.35.14-.32-3.07,1.12-.12.26.69h0a1.33,1.33,0,0,1,1.14-.94C140.82,99.66,141.33,100.14,141.46,101Z"/><path class="cls-4" d="M143.05,102.24l.28-.75a3.68,3.68,0,0,0,1.85.26c.64-.07.91-.19.9-.34s-.23-.17-.64-.15h-.73c-1,0-1.54-.16-1.59-.72-.08-.77.72-1.2,1.87-1.33a4,4,0,0,1,1.8.22l-.25.69a3.35,3.35,0,0,0-1.49-.2c-.47,0-.83.17-.81.32s.19.15.55.15h.73c1.09,0,1.65.17,1.72.79s-.74,1.2-1.89,1.32A5.07,5.07,0,0,1,143.05,102.24Z"/><path class="cls-4" d="M148.12,101,148,99.88l-.82.08-.09-.86.82-.08-.09-.82,1.32-.4.11,1.08,1.8-.19.09.86-1.8.19.09.8c0,.37.24.54.65.5a1.35,1.35,0,0,0,1-.56l.37.77a2.3,2.3,0,0,1-1.62.78C148.84,102.13,148.2,101.74,148.12,101Z"/><path class="cls-4" d="M151.56,100.4l-.18-1.74,1.34-.15.16,1.6a.73.73,0,0,0,.88.7.85.85,0,0,0,.81-1l-.15-1.44,1.35-.15.32,3.08-1.16.12-.22-.73h0a1.7,1.7,0,0,1-1.47,1A1.38,1.38,0,0,1,151.56,100.4Z"/><path class="cls-4" d="M156.29,99.7a1.58,1.58,0,0,1,1.55-1.82,1.67,1.67,0,0,1,1.69.72h0l-.23-2.16,1.35-.14.47,4.45-1.16.12-.26-.78h0a1.68,1.68,0,0,1-1.5,1.06A1.58,1.58,0,0,1,156.29,99.7Zm3.37-.36c0-.42-.48-.66-1.09-.59s-1,.38-.94.81.47.65,1.09.59S159.7,99.77,159.66,99.34Z"/><path class="cls-4" d="M161.31,99.16c-.1-1,.78-1.73,2.14-1.87s2.29.41,2.39,1.4a1.82,1.82,0,0,1,0,.33l-3.08.32c.19.34.72.43,1.27.38a3.25,3.25,0,0,0,1.44-.47l.44.63a3.87,3.87,0,0,1-1.89.66C162.51,100.7,161.42,100.17,161.31,99.16Zm3.15-.6c-.06-.35-.47-.55-.94-.5s-.83.33-.84.68Z"/><path class="cls-4" d="M170.61,98l.18,1.74-1.34.14-.16-1.59a.73.73,0,0,0-.88-.7.86.86,0,0,0-.82,1l.16,1.44-1.35.14-.32-3.08,1.16-.12.22.73h0a1.71,1.71,0,0,1,1.47-1A1.37,1.37,0,0,1,170.61,98Z"/><path class="cls-4" d="M171.69,98.53l-.12-1.12-.82.08-.09-.86.82-.08-.09-.83,1.32-.39.11,1.08,1.79-.19.09.86-1.79.18.08.81c0,.37.25.54.66.5a1.39,1.39,0,0,0,1-.56l.37.76a2.27,2.27,0,0,1-1.62.79C172.4,99.66,171.77,99.27,171.69,98.53Z"/><path class="cls-4" d="M175.14,98.88l.28-.76a3.65,3.65,0,0,0,1.85.26c.64-.07.91-.19.9-.33s-.23-.17-.64-.16l-.74,0c-1,0-1.53-.17-1.59-.73-.08-.77.72-1.2,1.88-1.32a3.7,3.7,0,0,1,1.79.22l-.25.68a3.16,3.16,0,0,0-1.48-.19c-.48.05-.83.16-.82.32s.2.15.55.14h.74c1.08,0,1.65.18,1.72.79.08.77-.75,1.2-1.9,1.32A4.92,4.92,0,0,1,175.14,98.88Z"/></svg>