<svg id="Layer_1" data-name="Layer 1" xmlns="http://www.w3.org/2000/svg" viewBox="0 0 260 200"><defs><style>.cls-1{fill:#ffb070;}.cls-2{opacity:0.6;}.cls-3{fill:#b75f4b;}.cls-4{fill:#db4f4b;}.cls-5{fill:#ffe1b3;}.cls-6{fill:#fff;}</style></defs><ellipse class="cls-1" cx="130" cy="100" rx="42.69" ry="54.32"/><ellipse class="cls-1" cx="199.34" cy="100" rx="42.69" ry="54.32"/><ellipse class="cls-1" cx="60.66" cy="100" rx="42.69" ry="54.32"/><g class="cls-2"><path class="cls-3" d="M93.6,73.55l-1.19.1.5,1-.18,0-.52-1-.93.07.53,1-.17.06-.55-1L90,73.85l0-.17,1-.09-.41-.76-1.08.09,0-.17,1-.08-.54-1,.17-.06.56,1.06.93-.08-.57-1.07.18,0,.58,1.1,1.24-.1,0,.16-1.19.11.41.77,1.24-.1Zm-1.89-.82-.92.08.4.77.93-.08Z"/><path class="cls-3" d="M91.6,70.83l-.6-.34a1.41,1.41,0,0,0-.23-.84c-.15-.24-.24-.33-.31-.29s0,.17.05.37l.18.42c.18.45.18.79-.12,1-.55.34-1.11-.09-1.49-.7a1.37,1.37,0,0,1-.24-1.32l.58.35a1.08,1.08,0,0,0,.17.68c.12.18.24.3.3.26s0-.13,0-.34l-.18-.43c-.2-.49-.22-.89.11-1.09.53-.33,1.1.1,1.52.77S91.82,70.48,91.6,70.83Z"/><path class="cls-3" d="M88.27,69l-.56-.76.41-.4h0A1.21,1.21,0,0,1,87,67.35a.64.64,0,0,1,.08-.95h0a1.21,1.21,0,0,1-1.14-.48c-.32-.41-.19-.82.31-1.09l1.33-.7.7.93-1.12.6c-.18.09-.23.23-.12.36a.39.39,0,0,0,.53.09l1.07-.57.7.93-1.13.59c-.18.1-.22.24-.12.37a.4.4,0,0,0,.54.08l1.07-.56.7.93Z"/><path class="cls-3" d="M84.71,65.44a.69.69,0,0,1-1-.1.49.49,0,0,1,0-.73.68.68,0,0,1,1,.11A.48.48,0,0,1,84.71,65.44Zm.53-.37-.76-.88,2-1.26.76.89Z"/><path class="cls-3" d="M83.43,64.59l-.8-.86,2.84-1.91.79.86Z"/><path class="cls-3" d="M84.45,62.14A1.59,1.59,0,0,1,82.2,62c-.61-.59-.72-1.23-.29-1.67a1.17,1.17,0,0,1,.43-.29l1.33,1.27c.11-.18,0-.4-.2-.59a1.71,1.71,0,0,0-.68-.39l0-.61a1.93,1.93,0,0,1,1.26.59C84.73,61,84.9,61.67,84.45,62.14Zm-1.71-1.07c-.16.16-.17.33,0,.46a.45.45,0,0,0,.57,0Z"/><path class="cls-3" d="M81.7,60l-1.76-1.45.15-.18,1.76,1.44Z"/><path class="cls-3" d="M79.08,58.26l.38.27-.53.56-.39-.27-.12.13a1.21,1.21,0,0,1-1.65,0,2.4,2.4,0,0,1-.68-.71l.67-.46a1.33,1.33,0,0,0,.36.41c.17.11.33.12.44,0l0,0-.72-.51.53-.56.72.51,1.11-1.15,1,.66Z"/><path class="cls-3" d="M77.65,56.5a1.59,1.59,0,0,1-2.27.36c-.78-.45-1-1-.71-1.6a1.59,1.59,0,0,1,2.26-.37C77.71,55.34,78,56,77.65,56.5Zm-1.93-.74a.34.34,0,0,0,.16.49.52.52,0,0,0,.7-.25.33.33,0,0,0-.15-.49A.52.52,0,0,0,75.72,55.76Z"/><path class="cls-3" d="M71.93,54l1,.24c-.17.27-.17.45,0,.52s.32,0,.47-.27l.69-1,1.06.48-1.31,2-.87-.4.13-.49h0a1,1,0,0,1-1,.13C71.66,55,71.6,54.57,71.93,54Z"/><path class="cls-3" d="M71.66,53.84l-2.14-.76.07-.22,2.15.76Z"/><path class="cls-3" d="M68.89,52.44l-.28.67.44.11-.3.71-.44-.11-.23.53-1.22-.07.32-.74-1-.25.3-.72,1,.26.18-.43c.09-.22,0-.35-.2-.4a1.08,1.08,0,0,0-.66,0l.12-.73a2.1,2.1,0,0,1,1.19,0C68.85,51.47,69.11,51.9,68.89,52.44Z"/><path class="cls-3" d="M65.63,54.25l-1.16-.16.47-1.51h0a1.16,1.16,0,0,1-1.09.43.69.69,0,0,1-.64-1l.45-1.48,1.15.16L64.43,52c-.06.21,0,.34.2.37a.43.43,0,0,0,.48-.35l.36-1.19,1.16.17Z"/><path class="cls-3" d="M63,51.48a1.58,1.58,0,0,1-1.78,1.39c-.85,0-1.36-.42-1.34-1a1.15,1.15,0,0,1,.12-.5l1.84.05c0-.21-.27-.29-.54-.3a1.47,1.47,0,0,0-.77.17l-.43-.44a2,2,0,0,1,1.34-.42C62.44,50.42,63.05,50.84,63,51.48Zm-2,.37c0,.23.09.35.28.36a.47.47,0,0,0,.46-.34Z"/><path class="cls-3" d="M59.52,51.76l-2.27.18,0-.24,2.27-.18Z"/><path class="cls-3" d="M56.81,51.63a1.53,1.53,0,0,1-1.39,1.72c-.81.15-1.4-.13-1.5-.73l1-.38c0,.24.16.36.37.32a.51.51,0,0,0,.34-.63.34.34,0,0,0-.44-.27.53.53,0,0,0-.43.51l-1,0a1.61,1.61,0,0,1,1.45-1.36C56.09,50.7,56.69,51,56.81,51.63Z"/><path class="cls-3" d="M53.51,51.78c.14.5-.28.92-1,1.22l-.59.24c-.09,0-.14.09-.13.16s.14.12.33.06a1.6,1.6,0,0,0,.82-.64l.68.17a2.06,2.06,0,0,1-1.41,1.15c-.77.23-1.45.12-1.54-.56l-.19-1.45,1-.28.2.39h0a1.31,1.31,0,0,1,.88-.76C53,51.31,53.4,51.42,53.51,51.78Zm-1.8,1v0l.45-.18c.19-.08.28-.18.25-.27s-.11-.08-.25,0C51.85,52.4,51.68,52.56,51.71,52.74Z"/><path class="cls-3" d="M50.55,54.54l-.86.39-.3-.5h0a1.19,1.19,0,0,1-.7,1,.64.64,0,0,1-.91-.28h0a1.22,1.22,0,0,1-.72,1c-.47.21-.84,0-1-.54l-.4-1.46,1.06-.48.34,1.23c.05.2.18.27.33.2a.39.39,0,0,0,.2-.5l-.32-1.17L48.32,53l.34,1.23c.05.19.17.27.33.2a.4.4,0,0,0,.19-.51l-.31-1.16,1.06-.48Z"/><path class="cls-3" d="M45.64,55.35a1.58,1.58,0,0,1-.74,2.13c-.72.44-1.37.39-1.69-.14a1.2,1.2,0,0,1-.17-.49l1.57-1c-.15-.15-.39-.1-.62,0a1.66,1.66,0,0,0-.56.56l-.59-.13a2,2,0,0,1,.89-1.08C44.56,54.77,45.3,54.79,45.64,55.35Zm-1.47,1.38c.12.2.27.25.44.15a.45.45,0,0,0,.19-.54Z"/><path class="cls-3" d="M40.79,59.11l.73-.8c.15.28.3.37.43.27s.13-.29,0-.54l-.57-1.1.93-.69,1.09,2.1-.76.57-.37-.35h0a1,1,0,0,1-.38,1C41.51,59.82,41.11,59.66,40.79,59.11Z"/><path class="cls-3" d="M40.26,58.42c.34.39.13.94-.41,1.52l-.44.46a.17.17,0,0,0,0,.21c.06.07.18,0,.32-.09a1.58,1.58,0,0,0,.49-.92l.68-.13a2,2,0,0,1-.8,1.63c-.6.53-1.27.71-1.63.13L37.65,60l.75-.66.34.27h0a1.28,1.28,0,0,1,.48-1.06C39.64,58.18,40,58.13,40.26,58.42ZM39,60l0,0,.33-.35c.14-.15.18-.28.12-.35s-.14,0-.25.07S38.93,59.88,39,60Z"/><path class="cls-3" d="M36.81,60.8l.47,1.1.74-.78.11.15-.78.81.37.85.78-.81.11.14-.81.85.42,1-.15.1-.4-1-.6.62.43,1-.15.09L36.94,64l-.79.83L36,64.7l.83-.87L36.5,63l-.84.86-.1-.15.86-.9-.49-1.14.15-.08.47,1.09.6-.63-.49-1.14Zm-.19,2,.37.85.6-.62-.36-.86Z"/><path class="cls-3" d="M34.86,63.57l-.12.67a1.48,1.48,0,0,0-.72.5c-.18.22-.24.34-.18.39s.17,0,.34-.17l.34-.3c.36-.33.68-.44,1-.21.5.4.27,1.08-.18,1.64a1.36,1.36,0,0,1-1.16.65l.13-.66a1.06,1.06,0,0,0,.59-.39c.13-.16.21-.32.15-.37s-.14,0-.31.15l-.35.32c-.39.35-.76.49-1.06.25-.48-.39-.26-1.07.24-1.69S34.45,63.48,34.86,63.57Z"/><path class="cls-3" d="M34.2,67.33l-.52.78-.52-.26h0a1.23,1.23,0,0,1-.06,1.23.65.65,0,0,1-.93.25h0a1.22,1.22,0,0,1-.08,1.24c-.29.44-.71.45-1.13.06l-1.11-1,.66-1,.93.87c.15.13.29.13.39,0a.4.4,0,0,0-.1-.53l-.89-.83.65-1,.94.88c.14.13.29.13.38,0a.38.38,0,0,0-.1-.53l-.89-.83.66-1Z"/><path class="cls-3" d="M31.5,71.48l-.58,1L29.08,71l.59-1Zm.53.39a.68.68,0,0,1,.22,1,.47.47,0,0,1-.68.23.68.68,0,0,1-.22-1A.48.48,0,0,1,32,71.87Z"/><path class="cls-3" d="M31.63,73.36l-.56,1-2.71-2.07.56-1Z"/><path class="cls-3" d="M29,73.14a1.57,1.57,0,0,1,.54,2.19c-.36.77-.94,1.07-1.5.8a1.3,1.3,0,0,1-.41-.32l.8-1.66c-.2,0-.37.13-.49.37a1.48,1.48,0,0,0-.16.78l-.58.21a2,2,0,0,1,.17-1.39C27.79,73.24,28.42,72.86,29,73.14Zm-.48,2c.21.11.37.06.45-.12a.45.45,0,0,0-.13-.55Z"/><path class="cls-3" d="M27.81,76.43l-.87,2.1-.22-.09.87-2.1Z"/><path class="cls-3" d="M26.9,79.43l.15-.44.68.37-.15.44.15.08a1.22,1.22,0,0,1,.42,1.6,2.47,2.47,0,0,1-.51.85L27,81.8a1.36,1.36,0,0,0,.29-.46c.07-.19,0-.35-.1-.42l0,0-.3.82-.68-.37.3-.82-1.41-.77.4-1.09Z"/><path class="cls-3" d="M25.59,81.24a1.58,1.58,0,0,1,.89,2.12c-.26.86-.79,1.25-1.39,1.07a1.58,1.58,0,0,1-.89-2.12C24.45,81.45,25,81.06,25.59,81.24Zm-.26,2.05a.33.33,0,0,0,.43-.27.53.53,0,0,0-.4-.63.35.35,0,0,0-.45.27A.54.54,0,0,0,25.33,83.29Z"/><path class="cls-3" d="M24.42,87.33l0-1.09c.29.12.47.09.51-.07s-.1-.3-.36-.41l-1.15-.47.27-1.13,2.2.89-.22.93-.51,0h0a1,1,0,0,1,.33,1C25.43,87.4,25,87.54,24.42,87.33Z"/><path class="cls-3" d="M24.27,87.58l-.41,2.23-.23,0L24,87.53Z"/><path class="cls-3" d="M23.3,90.49l.69.2.06-.45.74.23-.06.45.55.17.06,1.22-.77-.24-.15,1-.74-.22.15-1-.45-.14A.26.26,0,0,0,23,92a1.23,1.23,0,0,0,.11.66l-.73,0a2.11,2.11,0,0,1-.14-1.19C22.34,90.63,22.74,90.32,23.3,90.49Z"/><path class="cls-3" d="M25.42,93.63l-.1,1.17-1.54-.39h0a1.17,1.17,0,0,1,.49,1.07.69.69,0,0,1-.93.68l-1.5-.37.1-1.16,1.28.31c.21.06.34,0,.35-.22a.42.42,0,0,0-.36-.46L22,94l.1-1.16Z"/><path class="cls-3" d="M22.79,96.29a1.57,1.57,0,0,1,1.37,1.79c0,.84-.43,1.35-1.05,1.33a1.32,1.32,0,0,1-.5-.13l.06-1.84c-.2,0-.29.27-.3.54a1.64,1.64,0,0,0,.16.78l-.44.42a2,2,0,0,1-.41-1.34C21.72,96.87,22.14,96.26,22.79,96.29Zm.34,2c.24,0,.36-.09.37-.28a.45.45,0,0,0-.34-.46Z"/><path class="cls-3" d="M23,99.76l0,2.28h-.24l0-2.28Z"/><path class="cls-3" d="M22.71,102.38A1.53,1.53,0,0,1,24.26,104c0,.82-.3,1.38-.89,1.41l-.26-1.09c.24,0,.37-.11.36-.32a.52.52,0,0,0-.59-.42.34.34,0,0,0-.32.41.51.51,0,0,0,.46.48L23,105.49a1.61,1.61,0,0,1-1.18-1.61C21.71,103,22.07,102.42,22.71,102.38Z"/><path class="cls-3" d="M22.47,105.61c.52-.06.86.42,1,1.2l.14.62c0,.09.07.16.14.15s.14-.11.11-.31a1.59,1.59,0,0,0-.48-.92l.27-.64a2,2,0,0,1,.89,1.58c.1.81-.13,1.46-.81,1.43l-1.46-.07-.11-1,.41-.13h0a1.32,1.32,0,0,1-.6-1C21.93,106,22.09,105.65,22.47,105.61Zm.63,1.93h0l-.1-.46c0-.21-.12-.31-.22-.3s-.09.09-.08.24C22.79,107.34,22.93,107.53,23.1,107.54Z"/><path class="cls-3" d="M24.68,109l.17.92-.55.18h0a1.22,1.22,0,0,1,.82.92.65.65,0,0,1-.49.82h0a1.25,1.25,0,0,1,.81.94c.1.51-.19.82-.76.84l-1.51,0L23,112.52l1.27,0c.2,0,.31-.11.27-.27a.39.39,0,0,0-.44-.32l-1.21,0-.21-1.15,1.27,0c.2,0,.3-.11.27-.28a.4.4,0,0,0-.44-.31l-1.21,0-.22-1.15Z"/><path class="cls-3" d="M24.26,113.92a1.59,1.59,0,0,1,1.83,1.32c.21.82,0,1.42-.62,1.58a1.32,1.32,0,0,1-.52,0l-.47-1.78c-.18.1-.21.34-.14.6a1.66,1.66,0,0,0,.38.7l-.3.53a1.93,1.93,0,0,1-.77-1.16C23.4,114.79,23.63,114.09,24.26,113.92Zm.9,1.8c.23,0,.32-.19.27-.37A.46.46,0,0,0,25,115Z"/><path class="cls-3" d="M26.36,119.65l-.53-1c.32,0,.45-.17.4-.33s-.23-.2-.51-.16l-1.23.19-.36-1.11,2.35-.37.29.91-.45.24h0a1,1,0,0,1,.8.67C27.26,119.19,27,119.52,26.36,119.65Z"/><path class="cls-3" d="M25.51,119.89c.49-.18.94.21,1.29.91l.28.57c.05.09.11.14.18.11s.1-.14,0-.32a1.57,1.57,0,0,0-.7-.77l.11-.69A2.05,2.05,0,0,1,28,121c.28.75.22,1.44-.44,1.58l-1.43.3-.35-.94.37-.23h0a1.3,1.3,0,0,1-.82-.83C25.08,120.39,25.16,120,25.51,119.89Zm1.09,1.72h0l-.21-.43c-.09-.19-.2-.27-.29-.23s-.07.11,0,.25C26.25,121.49,26.43,121.65,26.6,121.61Z"/><path class="cls-3" d="M26.54,123.93l1.19,0-.45-1,.18,0,.47,1,.93,0-.48-1,.18,0,.49,1.07,1.09,0,0,.17-1,0,.37.79,1.08,0,0,.17-1,0,.48,1-.18,0-.5-1.09-.93,0,.51,1.09-.18,0L28.25,125l-1.24,0,0-.17,1.2,0-.37-.79-1.24,0Zm1.83.92.93,0-.36-.78-.93,0Z"/><path class="cls-3" d="M28.38,126.73l.58.38a1.44,1.44,0,0,0,.18.85c.14.25.23.35.3.31s0-.16,0-.37l-.15-.43c-.16-.47-.14-.81.17-1,.57-.31,1.11.16,1.45.79a1.42,1.42,0,0,1,.17,1.34l-.57-.39a1,1,0,0,0-.13-.68c-.11-.19-.22-.32-.29-.28s0,.12,0,.34l.15.44c.18.5.17.9-.17,1.08-.54.3-1.09-.16-1.47-.86A1.61,1.61,0,0,1,28.38,126.73Z"/><path class="cls-3" d="M31.6,128.77l.52.79-.44.38h0a1.23,1.23,0,0,1,1.11.53.65.65,0,0,1-.13.95h0a1.24,1.24,0,0,1,1.12.54c.29.44.14.84-.38,1.07l-1.37.63-.65-1,1.17-.53c.18-.09.23-.22.14-.36a.4.4,0,0,0-.53-.11l-1.11.5-.64-1,1.16-.53c.19-.08.24-.22.14-.36a.39.39,0,0,0-.53-.11l-1.1.5-.64-1Z"/><path class="cls-3" d="M34.39,132.85l.71.93L33,134.9l-.71-.92Zm.56-.34a.68.68,0,0,1,1,.17.48.48,0,0,1,0,.72.69.69,0,0,1-1-.17A.48.48,0,0,1,35,132.51Z"/><path class="cls-3" d="M36.17,133.44l.74.91L34,136.07l-.74-.9Z"/><path class="cls-3" d="M35,135.83a1.58,1.58,0,0,1,2.23.31c.57.63.64,1.27.18,1.69a1.2,1.2,0,0,1-.45.26l-1.24-1.36c-.11.18,0,.4.16.6a1.77,1.77,0,0,0,.66.44l0,.61a2,2,0,0,1-1.22-.67C34.64,137,34.52,136.27,35,135.83ZM36.63,137a.29.29,0,0,0,.06-.46.45.45,0,0,0-.56-.08Z"/><path class="cls-3" d="M37.61,138.15l1.66,1.56-.16.17-1.66-1.56Z"/><path class="cls-3" d="M40.1,140.06l-.36-.29.58-.52.36.29.13-.11a1.21,1.21,0,0,1,1.65.14,2.3,2.3,0,0,1,.62.75l-.7.41a1.33,1.33,0,0,0-.33-.43c-.16-.13-.33-.15-.43-.05l0,0,.69.55-.58.52L41,140.8l-1.19,1.06-.9-.73Z"/><path class="cls-3" d="M41.4,141.92a1.59,1.59,0,0,1,2.28-.19c.74.51,1,1.14.6,1.66a1.59,1.59,0,0,1-2.29.19C41.25,143.07,41,142.45,41.4,141.92Zm1.86.89a.33.33,0,0,0-.12-.5.52.52,0,0,0-.72.19.34.34,0,0,0,.12.51A.53.53,0,0,0,43.26,142.81Z"/><path class="cls-3" d="M46.9,144.84l-1-.33c.19-.25.21-.43.07-.51s-.31,0-.49.23l-.77,1-1-.57,1.46-1.86.83.47-.17.48h0a1,1,0,0,1,1-.05C47.25,143.9,47.27,144.32,46.9,144.84Z"/><path class="cls-3" d="M47.13,145.05l2.08.93-.1.22L47,145.26Z"/><path class="cls-3" d="M49.77,146.68l.34-.64-.43-.15.37-.68.43.15.27-.51L52,145l-.38.71,1,.35-.36.68-1-.34-.22.41c-.11.21,0,.34.17.42a1.21,1.21,0,0,0,.66,0l-.19.71a2.1,2.1,0,0,1-1.19-.09C49.72,147.65,49.5,147.2,49.77,146.68Z"/><path class="cls-3" d="M53.2,145.17l1.13.27-.61,1.47h0a1.17,1.17,0,0,1,1.12-.34.69.69,0,0,1,.55,1L54.81,149l-1.13-.26.5-1.22c.08-.2,0-.34-.17-.38a.42.42,0,0,0-.51.29L53,148.6l-1.13-.27Z"/><path class="cls-3" d="M55.52,148.17a1.6,1.6,0,0,1,1.9-1.22c.85.1,1.32.55,1.25,1.16a1.16,1.16,0,0,1-.18.49l-1.83-.22c0,.21.25.32.52.35a1.58,1.58,0,0,0,.78-.1l.39.48a2,2,0,0,1-1.37.29C56,149.28,55.45,148.81,55.52,148.17Zm2-.18c0-.23-.06-.36-.25-.39a.49.49,0,0,0-.49.3Z"/><path class="cls-3" d="M59,148.22l2.28,0v.24L59,148.45Z"/><path class="cls-3" d="M61.73,148.6A1.54,1.54,0,0,1,63.28,147c.82-.07,1.38.26,1.43.86l-1.08.29c0-.24-.12-.38-.33-.36a.52.52,0,0,0-.41.6.35.35,0,0,0,.42.32.54.54,0,0,0,.47-.48l1.06,0a1.63,1.63,0,0,1-1.58,1.22C62.36,149.59,61.79,149.24,61.73,148.6Z"/><path class="cls-3" d="M65,148.75c-.11-.51.35-.88,1.11-1.11l.61-.19c.09,0,.15-.08.14-.15s-.13-.13-.32-.09a1.64,1.64,0,0,0-.88.56l-.66-.22a2,2,0,0,1,1.51-1c.79-.16,1.45,0,1.48.69l.06,1.46-1,.2-.16-.41h0a1.31,1.31,0,0,1-1,.68C65.45,149.26,65.1,149.13,65,148.75ZM66.9,148v-.05l-.46.14c-.2.06-.29.15-.27.25s.1.09.24.06C66.73,148.29,66.91,148.14,66.9,148Z"/><path class="cls-3" d="M68.21,146.28l.89-.32.26.52h0a1.2,1.2,0,0,1,.78-.94.64.64,0,0,1,.89.35h0a1.26,1.26,0,0,1,.8-.95c.5-.17.85.06,1,.62l.27,1.49-1.1.38-.23-1.25c0-.2-.15-.28-.31-.22a.4.4,0,0,0-.24.48l.22,1.19-1.1.39-.23-1.26c0-.19-.15-.27-.31-.22a.4.4,0,0,0-.24.49l.22,1.19-1.1.38Z"/><path class="cls-3" d="M73.21,145.89a1.59,1.59,0,0,1,.91-2.07c.75-.38,1.39-.27,1.67.28a1.33,1.33,0,0,1,.13.5l-1.64.83c.13.16.37.13.61,0a1.6,1.6,0,0,0,.61-.52l.58.19a2,2,0,0,1-1,1C74.23,146.54,73.5,146.47,73.21,145.89Zm1.57-1.26c-.1-.21-.25-.27-.42-.18a.45.45,0,0,0-.24.51Z"/><path class="cls-3" d="M78.33,142.51l-.78.74c-.13-.29-.28-.39-.42-.3s-.14.28,0,.54l.49,1.14-1,.62-.93-2.18.81-.51.33.38h0a1,1,0,0,1,.45-.94C77.67,141.75,78.06,141.93,78.33,142.51Z"/><path class="cls-3" d="M78.81,143.25c-.31-.42-.07-1,.52-1.49l.46-.44c.07-.06.1-.13.06-.19s-.17-.06-.32.06a1.65,1.65,0,0,0-.55.88l-.69.09a2,2,0,0,1,.91-1.57c.64-.49,1.32-.62,1.64,0l.69,1.28-.8.61-.33-.29h0a1.31,1.31,0,0,1-.56,1C79.41,143.52,79,143.55,78.81,143.25Zm1.35-1.53,0,0-.35.32c-.15.14-.2.26-.14.34s.13,0,.25-.05S80.24,141.88,80.16,141.72Z"/><path class="cls-3" d="M82.42,141.11,82,140l-.79.72-.1-.15.83-.76-.31-.87-.83.76-.1-.15.87-.8-.36-1,.15-.08.35,1,.63-.58L82,137l.16-.08.34,1,.84-.78.11.15-.89.81.32.87.88-.81.09.16-.91.84.41,1.17-.15.07-.4-1.12-.64.59.41,1.17Zm.32-2-.31-.87-.64.58.31.88Z"/><path class="cls-3" d="M84.56,138.47l.16-.66a1.46,1.46,0,0,0,.75-.45c.19-.21.26-.33.2-.38s-.17,0-.34.15l-.36.28c-.39.3-.71.39-1,.15-.47-.44-.2-1.1.28-1.63a1.42,1.42,0,0,1,1.21-.58l-.18.66a1,1,0,0,0-.61.34c-.14.16-.23.31-.17.36s.14,0,.32-.13l.36-.29c.42-.32.79-.44,1.08-.18.45.42.19,1.08-.34,1.67S85,138.59,84.56,138.47Z"/><path class="cls-3" d="M85.45,134.76,86,134l.5.29h0a1.21,1.21,0,0,1,.13-1.22.65.65,0,0,1,.94-.19h0a1.26,1.26,0,0,1,.15-1.23c.32-.42.75-.41,1.14,0l1,1.09-.7.93-.89-.92c-.14-.15-.28-.15-.38,0a.39.39,0,0,0,.06.54l.84.88-.7.93-.89-.93c-.13-.15-.28-.15-.38,0a.38.38,0,0,0,.07.53l.84.88-.71.93Z"/><path class="cls-3" d="M87.86,130.37a.68.68,0,0,1-.16-1,.49.49,0,0,1,.7-.2.7.7,0,0,1,.16,1A.48.48,0,0,1,87.86,130.37Zm.51.41.64-1,1.76,1.59-.64,1Z"/><path class="cls-3" d="M88.37,128.89l.61-1,2.59,2.22-.61,1Z"/><path class="cls-3" d="M91,129.24a1.59,1.59,0,0,1-.42-2.21c.41-.74,1-1,1.54-.72a1.32,1.32,0,0,1,.39.35l-.88,1.61c.2,0,.38-.11.51-.35a1.47,1.47,0,0,0,.2-.76l.59-.18a2,2,0,0,1-.25,1.38C92.2,129.21,91.55,129.55,91,129.24Zm.59-1.92a.3.3,0,0,0-.46.09.46.46,0,0,0,.1.56Z"/><path class="cls-3" d="M92.33,126.05l1-2,.21.1-1,2.05Z"/><path class="cls-3" d="M96.67,121.66l-.18-.43.76-.18.18.43.16,0c.59-.14,1.1.21,1.39.91a2.46,2.46,0,0,1,.19,1l-.81,0a1.53,1.53,0,0,0-.09-.54c-.08-.18-.21-.28-.36-.25h0l.34.81-.76.18-.33-.81-1.56.38L95.12,122Z"/><path class="cls-3" d="M96.9,123.88a1.58,1.58,0,0,1,2.08,1c.39.81.26,1.46-.31,1.73a1.59,1.59,0,0,1-2.08-1C96.2,124.8,96.33,124.15,96.9,123.88Zm1.18,1.69a.33.33,0,0,0,.14-.49.52.52,0,0,0-.72-.19.33.33,0,0,0-.15.49A.53.53,0,0,0,98.08,125.57Z"/><path class="cls-3" d="M100.14,129.19l-.7-.82c.29-.11.4-.26.33-.4s-.28-.16-.54-.06l-1.17.42-.56-1,2.22-.81.47.84-.4.31h0a1,1,0,0,1,.91.5C100.93,128.57,100.73,129,100.14,129.19Z"/><path class="cls-3" d="M100.21,129.47l1.22,1.92-.2.13L100,129.6Z"/><path class="cls-3" d="M101.5,132.28l.64-.34-.26-.36.69-.35.26.36.52-.25.89.84-.72.36.61.85-.69.35-.61-.85-.42.21a.26.26,0,0,0-.1.44,1.18,1.18,0,0,0,.53.4l-.56.47a2,2,0,0,1-.93-.76C100.91,133,101,132.54,101.5,132.28Z"/><path class="cls-3" d="M105.18,133l.74.9-1.36.81h0a1.16,1.16,0,0,1,1.1.41.68.68,0,0,1-.17,1.14l-1.33.79-.74-.89,1.13-.68c.18-.11.21-.26.09-.4a.41.41,0,0,0-.58-.07l-1.07.64-.74-.89Z"/><path class="cls-3" d="M105.21,136.8a1.59,1.59,0,0,1,2.24.24c.59.61.68,1.25.24,1.68a1.35,1.35,0,0,1-.45.28L106,137.68c-.11.18,0,.4.18.59a1.61,1.61,0,0,0,.67.42v.61a2,2,0,0,1-1.25-.63C104.89,138,104.74,137.25,105.21,136.8Zm1.67,1.12c.17-.16.18-.32,0-.46a.45.45,0,0,0-.56-.07Z"/><path class="cls-3" d="M107.89,139l1.7,1.51-.15.17-1.71-1.5Z"/><path class="cls-3" d="M109.67,141.06a1.52,1.52,0,0,1,2.2-.15c.66.49.86,1.11.49,1.59l-1-.51c.16-.18.16-.35,0-.48a.52.52,0,0,0-.7.17.35.35,0,0,0,.1.52.54.54,0,0,0,.67,0l.76.74a1.64,1.64,0,0,1-2-.14C109.48,142.22,109.28,141.58,109.67,141.06Z"/><path class="cls-3" d="M112,143.37c.28-.45.87-.41,1.58-.07l.57.28c.09,0,.17,0,.21,0s0-.17-.17-.27a1.59,1.59,0,0,0-1-.19l-.34-.62a2.1,2.1,0,0,1,1.81.28c.68.42,1.06,1,.61,1.52l-.94,1.11-.86-.52.15-.41h0a1.32,1.32,0,0,1-1.16-.15C112,144,111.82,143.7,112,143.37Zm1.92.69,0,0-.43-.21c-.19-.1-.32-.09-.37,0s0,.13.14.21C113.59,144.19,113.82,144.2,113.94,144.06Z"/><path class="cls-3" d="M116,143.71l.86.39-.17.56h0a1.21,1.21,0,0,1,1.21-.14.64.64,0,0,1,.4.87h0a1.22,1.22,0,0,1,1.23-.14c.48.22.57.63.26,1.11l-.83,1.26-1.06-.48.7-1.07c.11-.16.08-.3-.08-.37a.38.38,0,0,0-.5.18l-.67,1-1.06-.48.7-1.07c.11-.17.08-.31-.08-.38a.39.39,0,0,0-.5.19l-.66,1-1.07-.48Z"/><path class="cls-3" d="M119.9,146.87A1.59,1.59,0,0,1,122,146c.82.24,1.21.76,1,1.35a1.27,1.27,0,0,1-.25.46l-1.77-.53c0,.21.19.36.45.43a1.55,1.55,0,0,0,.79,0l.3.53a1.94,1.94,0,0,1-1.4.06C120.2,148.05,119.72,147.49,119.9,146.87Zm2,.17c.08-.23,0-.38-.18-.43a.46.46,0,0,0-.53.21Z"/><path class="cls-3" d="M126,147.91l-1.09,0c.1-.3.06-.48-.1-.51s-.29.11-.39.38L124,149l-1.15-.21.79-2.23.94.17v.51h0a1,1,0,0,1,1-.38C126,146.9,126.17,147.3,126,147.91Z"/><path class="cls-3" d="M125.86,148.79c0-.53.59-.76,1.38-.77h.64c.09,0,.16,0,.17-.11s-.08-.16-.28-.17a1.58,1.58,0,0,0-1,.29l-.58-.39a2.07,2.07,0,0,1,1.73-.57c.8.07,1.4.42,1.23,1.08l-.34,1.41-1-.08,0-.43h0a1.3,1.3,0,0,1-1.11.39C126.13,149.39,125.83,149.17,125.86,148.79Zm2-.25,0,0h-.48c-.21,0-.33.06-.34.16s.08.11.22.13C127.63,148.81,127.84,148.72,127.88,148.54Z"/><path class="cls-3" d="M130,149.57l.42-1.12-1.07.05,0-.18,1.12,0,.33-.87-1.13,0,0-.18,1.18-.05.38-1,.18,0-.37,1,.86,0,.38-1,.17,0-.36,1,1.15,0,0,.18-1.2.05-.32.88,1.2-.06,0,.18-1.25.06-.43,1.16-.17,0,.42-1.12-.87,0-.44,1.16Zm1.55-1.35.33-.87-.87,0-.33.87Z"/><path class="cls-3" d="M133.41,148.92l.54-.42a1.53,1.53,0,0,0,.87.1c.28,0,.4-.09.39-.17s-.14-.09-.36-.1h-.46c-.49,0-.8-.13-.86-.48-.1-.64.52-1,1.23-1.11a1.41,1.41,0,0,1,1.31.28l-.55.41a1.08,1.08,0,0,0-.69-.1c-.22,0-.37.1-.36.18s.11.09.33.09h.47c.53,0,.9.13,1,.52.1.61-.51,1-1.3,1.1S133.65,149.26,133.41,148.92Z"/><path class="cls-3" d="M136.42,146.56l.9-.27.24.53h0a1.2,1.2,0,0,1,.83-.91.64.64,0,0,1,.87.39h0a1.26,1.26,0,0,1,.84-.92c.5-.15.84.1.92.67l.21,1.49-1.11.34-.18-1.26c0-.2-.14-.29-.3-.24a.39.39,0,0,0-.26.47l.16,1.2-1.11.34-.17-1.26c0-.2-.15-.28-.31-.24a.41.41,0,0,0-.26.48l.17,1.2-1.11.34Z"/><path class="cls-3" d="M140.88,144.38a.68.68,0,0,1,.4-.91.49.49,0,0,1,.69.22.7.7,0,0,1-.4.91A.48.48,0,0,1,140.88,144.38Zm.19.62,1.07-.46.58,2.3-1.07.46Z"/><path class="cls-3" d="M142.09,143.42l1-.51,1,3.28-1.05.51Z"/><path class="cls-3" d="M144.12,145.13a1.58,1.58,0,0,1,.79-2.11c.74-.42,1.38-.35,1.69.19a1.34,1.34,0,0,1,.16.49l-1.6.92c.14.15.38.11.62,0a1.59,1.59,0,0,0,.57-.55l.59.15a2,2,0,0,1-.92,1.05C145.18,145.73,144.44,145.69,144.12,145.13Zm1.5-1.34c-.11-.21-.26-.26-.43-.16a.45.45,0,0,0-.21.53Z"/><path class="cls-3" d="M147,143.07l1.87-1.31.14.2-1.87,1.3Z"/><path class="cls-3" d="M149.36,141l-.36.29-.39-.67.36-.29-.09-.15a1.23,1.23,0,0,1,.48-1.59,2.34,2.34,0,0,1,.87-.45l.25.77a1.4,1.4,0,0,0-.49.24c-.15.12-.21.28-.13.41l0,0,.68-.55.39.67-.69.55.8,1.38-.9.74Z"/><path class="cls-3" d="M151.42,140.16a1.59,1.59,0,0,1,.29-2.28c.65-.62,1.3-.69,1.74-.23a1.59,1.59,0,0,1-.29,2.27C152.51,140.54,151.85,140.62,151.42,140.16Zm1.25-1.64a.33.33,0,0,0-.51,0,.53.53,0,0,0,0,.75.33.33,0,0,0,.51,0A.52.52,0,0,0,152.67,138.52Z"/><path class="cls-3" d="M155.44,135.4l-.55.94c-.2-.25-.37-.3-.48-.18s-.06.31.11.53l.78,1-.78.87L153,136.67l.64-.71.43.27h0a1,1,0,0,1,.18-1C154.6,134.85,155,134.93,155.44,135.4Z"/><path class="cls-3" d="M155.71,135.23l1.41-1.79.18.15-1.41,1.78Z"/><path class="cls-3" d="M157.93,133.09l-.53-.5-.26.38-.55-.54.25-.37-.41-.4.5-1.12.58.56.6-.86.55.54-.59.86.33.32a.26.26,0,0,0,.45-.05,1.18,1.18,0,0,0,.2-.63l.63.37a2.1,2.1,0,0,1-.41,1.13C158.84,133.4,158.35,133.49,157.93,133.09Z"/><path class="cls-3" d="M157.42,129.36l.6-1,1.22,1h0a1.18,1.18,0,0,1,0-1.18.69.69,0,0,1,1.14-.21l1.18,1-.59,1-1-.84c-.16-.14-.31-.12-.41,0a.43.43,0,0,0,.13.58l.95.8-.6,1Z"/><path class="cls-3" d="M161,128.11a1.59,1.59,0,0,1-.48-2.2c.39-.75,1-1,1.52-.76a1.47,1.47,0,0,1,.4.33l-.84,1.64c.2,0,.38-.12.5-.36a1.7,1.7,0,0,0,.19-.77l.58-.19a2,2,0,0,1-.21,1.38C162.18,128,161.55,128.41,161,128.11Zm.54-1.94c-.21-.11-.37-.07-.46.1a.47.47,0,0,0,.12.56Z"/><path class="cls-3" d="M162.25,124.86l.93-2.07.21.09-.92,2.08Z"/><path class="cls-3" d="M165.24,121.4a1.52,1.52,0,0,1,2,1c.32.76.17,1.4-.38,1.62l-.6-.94c.22-.08.32-.23.23-.43a.52.52,0,0,0-.69-.2.34.34,0,0,0-.17.49.51.51,0,0,0,.59.31l.28,1a1.61,1.61,0,0,1-1.64-1.13C164.49,122.3,164.64,121.65,165.24,121.4Z"/><path class="cls-3" d="M166.07,124.53c.47-.23,1,.12,1.36.79l.34.55c0,.08.12.12.18.09s.09-.15,0-.33a1.65,1.65,0,0,0-.77-.7l.05-.7a2.07,2.07,0,0,1,1.37,1.2c.35.72.35,1.41-.3,1.61l-1.39.43-.44-.9.35-.27h0a1.32,1.32,0,0,1-.9-.75C165.68,125.07,165.72,124.7,166.07,124.53Zm1.24,1.62.05,0-.25-.41c-.11-.17-.22-.24-.31-.2s-.06.12,0,.25C167,126.06,167.14,126.2,167.31,126.15Z"/><path class="cls-3" d="M169.29,127l.48.81-.45.36h0a1.21,1.21,0,0,1,1.09.57.66.66,0,0,1-.17.95h0a1.25,1.25,0,0,1,1.09.59c.27.45.11.84-.42,1.06l-1.4.56-.6-1,1.18-.47c.19-.08.25-.21.16-.36a.4.4,0,0,0-.53-.13l-1.12.45-.6-1,1.18-.47c.19-.08.25-.21.16-.36a.39.39,0,0,0-.52-.13l-1.13.45-.6-1Z"/><path class="cls-3" d="M170.62,131.77a1.59,1.59,0,0,1,2.18.57c.5.69.49,1.34,0,1.7a1.26,1.26,0,0,1-.48.2l-1.08-1.49c-.13.16-.06.39.1.61a1.58,1.58,0,0,0,.6.52l-.09.6a1.91,1.91,0,0,1-1.14-.81C170.13,132.89,170.09,132.15,170.62,131.77Zm1.49,1.36c.19-.13.23-.3.11-.45a.45.45,0,0,0-.55-.16Z"/><path class="cls-3" d="M174.69,136.32l-.85-.68c.27-.17.35-.33.25-.45s-.3-.1-.54,0l-1.06.64-.75-.9,2-1.21.61.73-.33.38h0a1,1,0,0,1,1,.32C175.35,135.56,175.22,136,174.69,136.32Z"/><path class="cls-3" d="M174,136.89c.37-.36.94-.18,1.54.33l.49.41c.07.06.14.09.2,0s0-.18-.1-.32a1.68,1.68,0,0,0-.94-.43l-.17-.68a2.09,2.09,0,0,1,1.67.72c.56.58.77,1.23.21,1.62l-1.19.84-.7-.73.25-.35h0a1.31,1.31,0,0,1-1.09-.44C173.82,137.52,173.74,137.16,174,136.89ZM175.7,138l0,0-.37-.31c-.15-.14-.28-.17-.35-.1s0,.13.08.24S175.55,138.14,175.7,138Z"/><path class="cls-3" d="M176.56,140.2l1.07-.52-.81-.71.14-.11.85.74.83-.41-.85-.74.14-.12.89.77,1-.47.1.14-.94.45.66.57,1-.48.09.15-.92.45.86.75-.13.12-.91-.78-.83.41.91.78-.15.12-.94-.82-1.11.55-.1-.14,1.07-.53-.66-.57-1.12.55Zm2.05.09.83-.41-.65-.57-.84.41Z"/><path class="cls-3" d="M179.44,142l.69.08a1.45,1.45,0,0,0,.54.69c.23.17.35.21.4.15s0-.17-.19-.32l-.33-.33c-.34-.34-.47-.66-.26-1,.37-.53,1.06-.34,1.65.08a1.38,1.38,0,0,1,.73,1.12l-.68-.09a1,1,0,0,0-.42-.56c-.17-.13-.33-.19-.38-.13s0,.14.17.3l.34.33c.37.37.54.73.31,1-.35.5-1,.33-1.7-.14S179.38,142.44,179.44,142Z"/><path class="cls-3" d="M183.22,142.45l.83.45-.21.55h0a1.23,1.23,0,0,1,1.23,0,.65.65,0,0,1,.33.9h0a1.24,1.24,0,0,1,1.25,0c.46.25.51.67.16,1.12l-.92,1.2-1-.57.78-1c.12-.16.1-.3-.05-.38a.39.39,0,0,0-.52.15l-.74,1-1-.56.78-1c.12-.16.11-.31,0-.39a.38.38,0,0,0-.51.15l-.74,1-1-.56Z"/><path class="cls-3" d="M187.59,144.71l1.08.46-1.25,2-1.08-.46Zm.32-.57a.69.69,0,0,1,.94-.34.48.48,0,0,1,.31.65.69.69,0,0,1-.93.33A.47.47,0,0,1,187.91,144.14Z"/><path class="cls-3" d="M189.44,144.35l1.1.4-1.67,3-1.1-.4Z"/><path class="cls-3" d="M189.64,147a1.59,1.59,0,0,1,2.07-.91c.81.23,1.21.74,1,1.33a1.12,1.12,0,0,1-.24.46l-1.77-.5c0,.21.19.35.45.43a1.64,1.64,0,0,0,.79,0l.3.53a2,2,0,0,1-1.39.08C190,148.18,189.47,147.63,189.64,147Zm2,.13c.07-.22,0-.37-.19-.42a.45.45,0,0,0-.52.22Z"/><path class="cls-3" d="M193.09,147.6l2.24.4,0,.23-2.24-.4Z"/><path class="cls-3" d="M196.25,147.82l-.47,0L196,147l.47,0,0-.17c.14-.58.68-.88,1.44-.82a2.34,2.34,0,0,1,.94.26l-.35.73a1.76,1.76,0,0,0-.51-.16c-.21,0-.35.07-.39.21v0l.88.07-.18.75-.88-.07-.37,1.55-1.16-.09Z"/><path class="cls-3" d="M198.38,148.62a1.58,1.58,0,0,1,1.75-1.49c.9,0,1.43.36,1.45,1a1.6,1.6,0,0,1-1.75,1.49C198.93,149.64,198.39,149.25,198.38,148.62Zm2-.37c0-.23-.16-.34-.39-.34a.52.52,0,0,0-.47.58.33.33,0,0,0,.39.34A.52.52,0,0,0,200.41,148.25Z"/><path class="cls-3" d="M204.56,147.72l-1,.35c0-.32-.09-.47-.25-.45s-.25.19-.26.48l0,1.23-1.16.15.07-2.36.94-.13.15.49h0a1,1,0,0,1,.8-.66C204.27,146.76,204.55,147.08,204.56,147.72Z"/><path class="cls-3" d="M204.89,147.74l2.22-.51,0,.23L205,148Z"/><path class="cls-3" d="M208,147.44l-.12-.71-.43.14-.13-.76.44-.14-.1-.58,1.08-.59.12.8,1-.33.12.76-1,.33.07.46c0,.24.18.3.39.23a1.17,1.17,0,0,0,.54-.38l.28.68a2,2,0,0,1-1,.65C208.52,148.24,208.07,148,208,147.44Z"/><path class="cls-3" d="M209.79,144.17l1.06-.48.41,1.53h0a1.18,1.18,0,0,1,.69-.95.69.69,0,0,1,1.05.48l.4,1.5-1.06.47-.34-1.27c-.06-.21-.19-.28-.37-.2a.42.42,0,0,0-.22.54l.32,1.2-1.06.47Z"/><path class="cls-3" d="M213.45,145.14a1.6,1.6,0,0,1,.8-2.11c.74-.42,1.38-.34,1.69.2a1.16,1.16,0,0,1,.15.49l-1.59.92c.14.15.38.1.61,0a1.63,1.63,0,0,0,.58-.55l.59.16a1.91,1.91,0,0,1-.93,1C214.51,145.75,213.77,145.7,213.45,145.14Zm1.51-1.33c-.11-.21-.27-.26-.43-.17a.47.47,0,0,0-.22.53Z"/><path class="cls-3" d="M216.3,143.09l1.87-1.29.13.19-1.86,1.29Z"/><path class="cls-3" d="M218.68,141.85a1.52,1.52,0,0,1,.37-2.18c.63-.52,1.29-.57,1.66-.1l-.72.84c-.14-.19-.31-.24-.48-.1a.52.52,0,0,0,0,.72.33.33,0,0,0,.52,0,.51.51,0,0,0,.12-.65l.9-.56a1.64,1.64,0,0,1-.61,1.9C219.75,142.31,219.09,142.35,218.68,141.85Z"/><path class="cls-3" d="M221.47,140.12c-.37-.38-.19-.94.32-1.54l.41-.49c.06-.08.09-.15,0-.21s-.18,0-.32.1a1.68,1.68,0,0,0-.43,1l-.68.17a2.11,2.11,0,0,1,.71-1.67c.58-.56,1.24-.78,1.63-.23l.84,1.19-.72.71-.36-.25h0a1.27,1.27,0,0,1-.43,1.09C222.1,140.32,221.74,140.39,221.47,140.12Zm1.14-1.68,0-.05-.32.37c-.13.16-.16.29-.1.35s.14,0,.25-.08S222.72,138.58,222.61,138.44Z"/><path class="cls-3" d="M222.78,136.31l.61-.72.49.31h0a1.22,1.22,0,0,1,.2-1.21.64.64,0,0,1,.94-.15h0a1.24,1.24,0,0,1,.2-1.23c.34-.4.76-.37,1.14.06l1,1.14-.75.89-.84-1c-.13-.15-.27-.17-.39,0a.4.4,0,0,0,0,.54l.8.92-.75.89-.84-1c-.13-.16-.27-.17-.38,0a.39.39,0,0,0,0,.53l.8.92-.75.89Z"/><path class="cls-3" d="M226.87,133.48a1.57,1.57,0,0,1-.19-2.24c.49-.7,1.1-.91,1.61-.56a1.43,1.43,0,0,1,.35.39l-1,1.51c.2.07.39-.07.55-.29a1.67,1.67,0,0,0,.28-.74l.6-.12a1.94,1.94,0,0,1-.39,1.35C228.08,133.57,227.4,133.85,226.87,133.48Zm.78-1.85c-.19-.14-.35-.12-.46,0a.47.47,0,0,0,0,.57Z"/><path class="cls-3" d="M229.83,128.13l-.37,1c-.24-.2-.42-.23-.51-.09s0,.32.22.5l1,.8-.6,1-1.82-1.53.49-.81.48.18h0a1,1,0,0,1,0-1C228.89,127.75,229.32,127.74,229.83,128.13Z"/><path class="cls-3" d="M230.57,128.61c-.46-.24-.47-.83-.17-1.57l.23-.59c0-.09,0-.16,0-.2s-.17,0-.26.19a1.61,1.61,0,0,0-.12,1l-.59.38a2.08,2.08,0,0,1,.16-1.81c.37-.71.92-1.12,1.46-.72l1.17.87-.46.89-.42-.13h0a1.29,1.29,0,0,1-.06,1.16C231.23,128.6,230.91,128.78,230.57,128.61Zm.56-2,0,0-.18.44c-.08.19-.07.32,0,.37s.13,0,.2-.16C231.28,127,231.27,126.76,231.13,126.66Z"/><path class="cls-3" d="M232.91,125.18l-.82-.87-.43,1-.15-.1.45-1-.64-.67-.45,1-.16-.1.47-1.08-.74-.79.11-.14.71.76.35-.79-.75-.79.11-.13.71.75.46-1,.16.09-.49,1.1.64.67.48-1.09.15.1-.49,1.14.85.9-.11.13-.82-.86-.35.8.85.9Zm-.53-2-.64-.67-.35.79.64.68Z"/><path class="cls-3" d="M233.79,121.92l-.11-.68a1.49,1.49,0,0,0,.52-.7c.1-.27.11-.4,0-.42s-.15.08-.26.26l-.23.4c-.24.43-.5.64-.84.51-.61-.21-.61-.93-.37-1.61a1.44,1.44,0,0,1,.89-1l.09.68a1,1,0,0,0-.43.55c-.07.2-.09.37,0,.4s.13,0,.24-.24l.23-.41c.26-.46.56-.72.92-.59.58.21.6.93.33,1.67S234.2,121.87,233.79,121.92Z"/><path class="cls-3" d="M233.18,118.15l.25-.91.58.09h0a1.2,1.2,0,0,1-.32-1.18.65.65,0,0,1,.8-.53h0a1.23,1.23,0,0,1-.32-1.2c.14-.51.54-.65,1.06-.42l1.37.63-.31,1.13-1.16-.54c-.19-.08-.32,0-.37.13a.42.42,0,0,0,.26.48l1.1.5-.31,1.12-1.16-.53c-.18-.09-.32,0-.37.13a.4.4,0,0,0,.26.47l1.1.51-.31,1.12Z"/><path class="cls-3" d="M233.83,113.17a.68.68,0,0,1-.5-.86.48.48,0,0,1,.58-.43.69.69,0,0,1,.5.85A.49.49,0,0,1,233.83,113.17Zm.62.2.25-1.14,2.21.87-.26,1.14Z"/><path class="cls-3" d="M233.78,111.59l.22-1.14,3.21,1.17-.23,1.14Z"/><path class="cls-3" d="M236.34,111a1.59,1.59,0,0,1-1.15-1.94c.13-.83.59-1.29,1.2-1.19a1.17,1.17,0,0,1,.49.19l-.29,1.81c.21,0,.33-.23.37-.5a1.6,1.6,0,0,0-.07-.78l.49-.37a2,2,0,0,1,.24,1.37C237.47,110.58,237,111.13,236.34,111Zm-.1-2c-.23,0-.37,0-.4.24a.47.47,0,0,0,.28.5Z"/><path class="cls-3" d="M236.53,107.54l.23-2.26.24,0-.24,2.27Z"/><path class="cls-3" d="M236.56,104.44l0,.46-.76-.16,0-.47-.17,0c-.58-.13-.89-.66-.85-1.42a2.43,2.43,0,0,1,.25-.95l.74.33a1.33,1.33,0,0,0-.15.52.32.32,0,0,0,.21.38h0l0-.87.75.16,0,.88,1.56.33-.07,1.16Z"/><path class="cls-3" d="M237.3,102.35a1.59,1.59,0,0,1-1.43-1.8c0-.9.41-1.42,1-1.41a1.59,1.59,0,0,1,1.43,1.8C238.34,101.83,237.93,102.36,237.3,102.35Zm-.3-2c-.22,0-.35.15-.35.38a.52.52,0,0,0,.56.49.35.35,0,0,0,.36-.38A.54.54,0,0,0,237,100.31Z"/><path class="cls-3" d="M236.78,96.15l.26,1.06q-.48,0-.48.21c0,.15.18.26.46.29l1.23.15,0,1.17-2.35-.28,0-1,.5-.1h0a1,1,0,0,1-.59-.86C235.79,96.35,236.15,96.11,236.78,96.15Z"/><path class="cls-3" d="M236.85,95.87l-.19-2.27.23,0,.19,2.27Z"/><path class="cls-3" d="M237,92.82l-.72,0,.06.45h-.78l-.06-.45-.58,0-.38-1.16.81,0-.14-1,.77,0,.14,1h.47c.23,0,.32-.12.3-.33a1.2,1.2,0,0,0-.28-.61l.71-.15a2.1,2.1,0,0,1,.46,1.11C237.9,92.43,237.6,92.83,237,92.82Z"/><path class="cls-3" d="M234.14,90.36l-.22-1.15,1.59,0h0a1.15,1.15,0,0,1-.76-.89.69.69,0,0,1,.71-.91l1.55-.05.21,1.15-1.32,0c-.21,0-.31.11-.28.3a.42.42,0,0,0,.48.35l1.24,0,.22,1.15Z"/><path class="cls-3" d="M236,87.08a1.58,1.58,0,0,1-1.81-1.35c-.2-.83.05-1.43.65-1.57a1.15,1.15,0,0,1,.52,0l.44,1.79c.18-.1.21-.34.14-.6a1.69,1.69,0,0,0-.36-.71l.31-.52a2,2,0,0,1,.75,1.18C236.84,86.23,236.6,86.93,236,87.08Zm-.87-1.82c-.23,0-.33.19-.28.38a.45.45,0,0,0,.45.34Z"/><path class="cls-3" d="M234.82,83.81l-.66-2.18.22-.06.66,2.17Z"/><path class="cls-3" d="M234.38,81.18a1.54,1.54,0,0,1-1.93-1.09c-.28-.78-.1-1.41.47-1.6l.55,1c-.23.06-.33.21-.26.41a.52.52,0,0,0,.68.24.34.34,0,0,0,.2-.48.52.52,0,0,0-.58-.34l-.22-1a1.61,1.61,0,0,1,1.58,1.21C235.17,80.32,235,81,234.38,81.18Z"/><path class="cls-3" d="M233.71,78c-.48.21-1-.16-1.33-.85l-.31-.56c0-.08-.11-.13-.18-.11s-.09.15,0,.33a1.61,1.61,0,0,0,.74.74l-.09.7A2.07,2.07,0,0,1,231.21,77c-.32-.74-.29-1.43.37-1.6L233,75l.4.92-.36.25h0a1.29,1.29,0,0,1,.86.79C234.12,77.49,234.06,77.85,233.71,78Zm-1.17-1.67h0l.23.42c.1.18.21.26.3.22s.07-.11,0-.25C232.9,76.43,232.71,76.29,232.54,76.33Z"/><path class="cls-3" d="M230.61,75.39l-.44-.84.48-.33h0a1.19,1.19,0,0,1-1.05-.64.64.64,0,0,1,.22-.93h0a1.22,1.22,0,0,1-1.05-.65c-.25-.47-.06-.85.48-1l1.42-.49.55,1-1.21.41c-.19.07-.25.19-.17.35a.38.38,0,0,0,.51.16l1.15-.39.54,1-1.21.41c-.19.07-.25.2-.17.35a.4.4,0,0,0,.52.16l1.14-.39.55,1Z"/><path class="cls-3" d="M229.56,70.55a1.59,1.59,0,0,1-2.15-.69c-.46-.71-.41-1.36.11-1.69A1.12,1.12,0,0,1,228,68l1,1.55c.14-.16.09-.39-.06-.62a1.59,1.59,0,0,0-.57-.54l.12-.6a2,2,0,0,1,1.09.87C230.11,69.47,230.1,70.2,229.56,70.55Zm-1.41-1.44c-.21.12-.25.28-.14.45a.46.46,0,0,0,.54.18Z"/><path class="cls-3" d="M225.75,65.76l.8.72c-.28.15-.37.31-.27.44s.29.12.54,0l1.1-.57.69.93-2.1,1.1-.57-.77.35-.36h0a1,1,0,0,1-1-.38C225,66.47,225.2,66.07,225.75,65.76Z"/><path class="cls-3" d="M226.47,65.25c-.4.33-.95.12-1.52-.43l-.46-.45c-.07-.06-.14-.09-.2-.05s0,.18.08.32a1.59,1.59,0,0,0,.92.5l.12.69a2.06,2.06,0,0,1-1.62-.82c-.52-.62-.7-1.29-.11-1.64l1.24-.76.65.77-.27.34h0a1.32,1.32,0,0,1,1.06.5C226.71,64.63,226.76,65,226.47,65.25ZM224.87,64l-.05,0,.35.34c.15.14.27.18.35.12s0-.13-.07-.24S225,63.89,224.87,64Z"/><path class="cls-3" d="M224.13,61.76l-1.11.45.77.75-.15.11-.8-.79-.86.35.81.8-.15.1-.84-.82-1,.41-.1-.15,1-.4-.62-.6-1,.41-.09-.15,1-.39L220.1,61l.14-.11.86.84.86-.35-.86-.85.15-.1.89.88,1.15-.48.08.15-1.1.46.62.61,1.15-.47Zm-2-.22-.86.35.62.61.86-.35Z"/><path class="cls-3" d="M221.39,59.75l-.67-.13a1.46,1.46,0,0,0-.49-.73c-.22-.18-.34-.23-.39-.18s0,.17.17.34l.3.35c.32.36.42.69.19,1-.41.5-1.08.26-1.64-.2a1.39,1.39,0,0,1-.64-1.17l.67.14a1.07,1.07,0,0,0,.37.59c.17.14.32.22.37.16s0-.14-.14-.31l-.32-.35c-.34-.4-.48-.77-.23-1.07.39-.48,1.07-.25,1.68.26S221.49,59.35,221.39,59.75Z"/><path class="cls-3" d="M217.66,59.06l-.79-.51.25-.53h0a1.23,1.23,0,0,1-1.23-.05.65.65,0,0,1-.26-.92h0a1.25,1.25,0,0,1-1.24-.06c-.44-.28-.46-.71-.08-1.13l1-1.12,1,.64-.86,1c-.13.15-.13.29,0,.38a.39.39,0,0,0,.53-.1l.81-.9,1,.64-.86.94c-.14.15-.13.3,0,.39a.39.39,0,0,0,.53-.11l.82-.89,1,.64Z"/><path class="cls-3" d="M213.13,57a.69.69,0,0,1-1,.25.47.47,0,0,1-.26-.67.68.68,0,0,1,1-.26A.49.49,0,0,1,213.13,57Zm.36-.55-1-.54,1.41-1.9,1,.54Z"/><path class="cls-3" d="M211.61,56.66l-1.05-.49,1.92-2.83,1.06.5Z"/><path class="cls-3" d="M211.65,54a1.58,1.58,0,0,1-2.14.73c-.79-.3-1.14-.85-.92-1.43a1.21,1.21,0,0,1,.29-.43l1.72.65c0-.21-.16-.36-.41-.46a1.64,1.64,0,0,0-.79-.1l-.26-.55a2,2,0,0,1,1.4.05C211.45,52.8,211.88,53.4,211.65,54Zm-2-.31c-.09.22,0,.37.15.44a.47.47,0,0,0,.55-.18Z"/><path class="cls-3" d="M208.25,53.1l-2.2-.6.06-.22,2.2.59Z"/><path class="cls-3" d="M205.11,52.59l.47.08-.25.73-.46-.07-.06.16a1.22,1.22,0,0,1-1.51.69,2.43,2.43,0,0,1-.92-.36l.42-.69a1.53,1.53,0,0,0,.5.21.34.34,0,0,0,.4-.17v0l-.86-.15.25-.74.86.15.52-1.51,1.15.2Z"/><path class="cls-3" d="M203.1,51.6a1.61,1.61,0,0,1-1.88,1.33c-.9-.07-1.39-.5-1.35-1.13a1.59,1.59,0,0,1,1.88-1.33C202.64,50.54,203.14,51,203.1,51.6Zm-2.06.18a.33.33,0,0,0,.36.37.51.51,0,0,0,.52-.53.33.33,0,0,0-.35-.37A.52.52,0,0,0,201,51.78Z"/><path class="cls-3" d="M196.84,51.92l1-.25c0,.31.05.48.21.47s.26-.17.3-.45l.15-1.23,1.17,0-.29,2.35-1,0-.1-.5h0a1,1,0,0,1-.87.58C197,52.91,196.79,52.56,196.84,51.92Z"/><path class="cls-3" d="M196.53,51.87l-2.25.3,0-.23,2.25-.3Z"/><path class="cls-3" d="M193.39,51.89l.05.72.45-.1.05.77-.44.1,0,.58-1.12.49,0-.8-1,.24-.06-.78,1-.23,0-.47c0-.23-.15-.31-.37-.26a1.21,1.21,0,0,0-.57.33l-.22-.7a2.18,2.18,0,0,1,1.06-.56C192.91,51.05,193.34,51.31,193.39,51.89Z"/><path class="cls-3" d="M191.32,55l-1.11.38-.27-1.56h0a1.15,1.15,0,0,1-.77.88.69.69,0,0,1-1-.56l-.27-1.53,1.1-.38.23,1.3c0,.21.17.29.35.23a.42.42,0,0,0,.27-.52L189.62,52l1.1-.38Z"/><path class="cls-3" d="M187.76,53.7a1.57,1.57,0,0,1-1,2c-.76.36-1.4.23-1.66-.32a1.4,1.4,0,0,1-.12-.51l1.67-.78c-.13-.17-.37-.14-.62,0a1.66,1.66,0,0,0-.61.5l-.58-.2a2,2,0,0,1,1-1C186.76,53,187.49,53.11,187.76,53.7Zm-1.61,1.21a.29.29,0,0,0,.42.19.46.46,0,0,0,.25-.51Z"/><path class="cls-3" d="M184.75,55.51l-2,1.15-.12-.2,2-1.15Z"/><path class="cls-3" d="M182.27,56.58a1.53,1.53,0,0,1-.54,2.15c-.67.47-1.33.47-1.67,0l.79-.79c.13.21.29.27.47.14a.52.52,0,0,0,.05-.72.34.34,0,0,0-.52-.06.53.53,0,0,0-.17.65l-.94.49a1.61,1.61,0,0,1,.75-1.85C181.23,56,181.89,56.05,182.27,56.58Z"/><path class="cls-3" d="M179.37,58.08c.34.4.12,1-.43,1.52l-.44.46c-.07.07-.1.14-.05.2s.17.05.32-.07a1.65,1.65,0,0,0,.49-.92l.69-.13a2,2,0,0,1-.82,1.62c-.62.53-1.29.7-1.64.12l-.75-1.25.76-.65.34.27h0a1.32,1.32,0,0,1,.5-1.06C178.76,57.84,179.12,57.79,179.37,58.08Zm-1.26,1.6,0,0,.33-.34c.15-.15.19-.28.13-.35s-.14,0-.25.06S178,59.53,178.11,59.68Z"/><path class="cls-3" d="M177.78,61.81l-.65.68-.47-.34h0a1.21,1.21,0,0,1-.27,1.2.64.64,0,0,1-.95.09h0a1.26,1.26,0,0,1-.28,1.21c-.36.38-.78.33-1.13-.12l-.92-1.2.8-.84.78,1c.12.16.26.18.38,0a.4.4,0,0,0,0-.54l-.74-1,.81-.84.77,1c.12.16.27.18.38.05a.38.38,0,0,0,0-.53l-.74-1,.81-.85Z"/><path class="cls-3" d="M173.52,64.38a1.59,1.59,0,0,1,0,2.26c-.52.66-1.15.84-1.63.46a1.27,1.27,0,0,1-.33-.41l1.13-1.44c-.19-.09-.39,0-.56.25a1.56,1.56,0,0,0-.32.72l-.61.08a1.93,1.93,0,0,1,.46-1.31C172.31,64.22,173,64,173.52,64.38Zm-.89,1.81a.29.29,0,0,0,.46,0,.48.48,0,0,0,0-.58Z"/><path class="cls-3" d="M170.26,69.55l.42-1c.24.22.41.25.5.12s0-.32-.18-.51l-.91-.85.66-1L172.48,68l-.54.79-.46-.21h0a1,1,0,0,1,0,1C171.17,70,170.75,70,170.26,69.55Z"/><path class="cls-3" d="M169.55,69c.45.27.42.86.09,1.58l-.27.58c0,.08,0,.16,0,.2s.18,0,.28-.17a1.61,1.61,0,0,0,.16-1l.62-.35a2.1,2.1,0,0,1-.25,1.8c-.41.7-1,1.08-1.51.65l-1.13-.94.52-.86.4.15h0a1.31,1.31,0,0,1,.13-1.17C168.89,69,169.22,68.84,169.55,69ZM168.88,71l0,0,.2-.43c.09-.19.09-.32,0-.37s-.14,0-.21.14C168.75,70.61,168.75,70.84,168.88,71Z"/><path class="cls-3" d="M167,72.34l.77.91.48-1,.15.1-.5,1,.6.71.5-1,.15.1-.53,1.06.71.83-.12.13-.67-.79-.39.77.71.83-.12.13-.67-.79-.51,1-.15-.1.53-1.07-.6-.71-.54,1.08-.14-.11.56-1.12-.81-.94.11-.13.78.91.39-.78-.81-1Zm.42,2,.61.7.38-.77-.6-.71Z"/><path class="cls-3" d="M164.63,78.6l-.54-.43a1.45,1.45,0,0,0-.09-.88c-.11-.26-.19-.37-.26-.34s-.05.16,0,.38l.11.44c.1.48,0,.82-.29,1-.59.25-1.08-.27-1.35-.94a1.38,1.38,0,0,1,0-1.34l.52.44a1,1,0,0,0,.06.7c.08.2.18.34.25.31s.06-.13,0-.35l-.11-.45c-.12-.52-.07-.91.29-1.06.57-.24,1.06.28,1.37,1A1.64,1.64,0,0,1,164.63,78.6Z"/><path class="cls-3" d="M161.68,76.28l-.43-.84.48-.32h0a1.24,1.24,0,0,1-1-.65.65.65,0,0,1,.24-.93h0a1.26,1.26,0,0,1-1.05-.67c-.23-.47,0-.85.5-1l1.44-.47.52,1-1.21.39c-.19.07-.26.19-.18.34a.39.39,0,0,0,.51.18l1.15-.37.53,1-1.22.38c-.19.07-.25.19-.18.35a.4.4,0,0,0,.51.17l1.15-.37.53,1Z"/><path class="cls-3" d="M158.83,72.26a.69.69,0,0,1-1-.29.48.48,0,0,1,.14-.71.69.69,0,0,1,.94.29A.48.48,0,0,1,158.83,72.26Zm.6-.27-.59-1,2.21-.86.59,1Z"/><path class="cls-3" d="M157.78,71.22l-.62-1,3.14-1.33.62,1Z"/><path class="cls-3" d="M159.3,69.11a1.58,1.58,0,0,1-2.17-.62c-.48-.7-.46-1.35.05-1.7a1.15,1.15,0,0,1,.48-.19l1.05,1.51c.14-.15.07-.39-.08-.61A1.62,1.62,0,0,0,158,67l.11-.6a2,2,0,0,1,1.12.83C159.82,68,159.84,68.74,159.3,69.11Zm-1.46-1.39c-.2.13-.23.29-.12.45a.45.45,0,0,0,.54.16Z"/><path class="cls-3" d="M157.09,66.52l-1.41-1.78.18-.15,1.42,1.79Z"/><path class="cls-3" d="M155,64.33l.31.35-.65.42-.32-.35-.14.1a1.22,1.22,0,0,1-1.61-.4,2.41,2.41,0,0,1-.5-.85l.76-.29a1.57,1.57,0,0,0,.26.48c.14.15.3.19.42.11l0,0-.59-.65.65-.42.59.65,1.34-.86.78.87Z"/><path class="cls-3" d="M154.07,62.39a1.59,1.59,0,0,1-2.29-.19c-.65-.63-.75-1.28-.31-1.73a1.59,1.59,0,0,1,2.29.19C154.4,61.28,154.51,61.93,154.07,62.39Zm-1.69-1.18a.33.33,0,0,0,0,.51.54.54,0,0,0,.75-.07.34.34,0,0,0,0-.52A.53.53,0,0,0,152.38,61.21Z"/><path class="cls-3" d="M149.23,58.62l1,.51c-.23.22-.29.39-.16.5s.31,0,.52-.14l.93-.82.9.74L150.59,61l-.73-.61.25-.44h0a1,1,0,0,1-1-.14C148.71,59.49,148.77,59.07,149.23,58.62Z"/><path class="cls-3" d="M149.11,58.42l-1.85-1.32.13-.19,1.85,1.32Z"/><path class="cls-3" d="M146.91,56.36l-.46.56.39.23-.5.59-.39-.23-.37.44-1.15-.42.52-.62-.9-.53.5-.6.9.54.3-.36a.26.26,0,0,0-.08-.44,1.15,1.15,0,0,0-.64-.16l.32-.65a2.11,2.11,0,0,1,1.15.33C147.15,55.42,147.28,55.91,146.91,56.36Z"/><path class="cls-3" d="M143.32,57.17l-1-.5.9-1.31h0a1.17,1.17,0,0,1-1.17.09.69.69,0,0,1-.32-1.11l.89-1.28,1,.51-.74,1.08c-.13.18-.1.33.08.41a.42.42,0,0,0,.56-.18l.7-1,1,.5Z"/><path class="cls-3" d="M141.8,53.78a1.58,1.58,0,0,1-2.12.76c-.8-.28-1.16-.82-1-1.4a1.15,1.15,0,0,1,.28-.44l1.73.62c0-.21-.17-.36-.42-.45a1.62,1.62,0,0,0-.79-.09l-.26-.55a2,2,0,0,1,1.39,0C141.58,52.59,142,53.18,141.8,53.78Zm-2-.27c-.09.21,0,.36.15.43a.46.46,0,0,0,.54-.18Z"/><path class="cls-3" d="M138.46,53l-2.21-.56.06-.23,2.21.57Z"/><path class="cls-3" d="M136,52a1.53,1.53,0,0,1-1.88,1.17c-.81-.12-1.28-.58-1.18-1.17l1.11,0c-.05.23,0,.39.25.42a.52.52,0,0,0,.53-.48.35.35,0,0,0-.33-.41.51.51,0,0,0-.57.35l-1-.3a1.61,1.61,0,0,1,1.82-.81C135.66,50.88,136.13,51.35,136,52Z"/><path class="cls-3" d="M132.94,51.08c0,.52-.56.78-1.35.82l-.64,0c-.09,0-.16,0-.17.11s.1.15.29.16a1.65,1.65,0,0,0,1-.34l.59.38a2.08,2.08,0,0,1-1.71.63c-.8,0-1.41-.36-1.28-1l.29-1.43,1,0,.07.43h0a1.31,1.31,0,0,1,1.09-.44C132.65,50.48,133,50.69,132.94,51.08Zm-2,.32,0,.05.48,0c.21,0,.33-.07.33-.17s-.08-.11-.22-.12C131.17,51.12,131,51.22,130.93,51.4Z"/><path class="cls-3" d="M129.34,52.72l-.94.1-.13-.57h0a1.23,1.23,0,0,1-1,.73.64.64,0,0,1-.78-.55h0a1.23,1.23,0,0,1-1,.73c-.52.05-.81-.27-.77-.84l.08-1.5L126,50.7,125.89,52c0,.2.08.31.25.29s.33-.18.35-.42l.07-1.21,1.16-.11-.07,1.27c0,.21.08.31.25.3a.41.41,0,0,0,.35-.42l.07-1.21,1.16-.11Z"/><path class="cls-3" d="M124.5,51.9a1.58,1.58,0,0,1-1.36,1.8c-.82.2-1.42-.06-1.56-.65a1.19,1.19,0,0,1,0-.53l1.79-.43c-.1-.18-.34-.21-.6-.14a1.54,1.54,0,0,0-.71.36l-.52-.31a1.92,1.92,0,0,1,1.18-.75C123.66,51,124.35,51.27,124.5,51.9Zm-1.82.86c0,.23.19.32.37.28a.47.47,0,0,0,.36-.45Z"/><path class="cls-3" d="M118.81,54l.93-.55c.06.31.19.44.34.39s.2-.24.15-.52L120,52.1l1.11-.38.42,2.33-.91.31-.24-.44h0a1,1,0,0,1-.65.82C119.29,54.89,119,54.63,118.81,54Z"/><path class="cls-3" d="M118.6,53.13c.22.48-.14.95-.83,1.35l-.55.32c-.08.05-.12.11-.1.18s.16.09.33,0a1.61,1.61,0,0,0,.73-.75l.7.07a2.13,2.13,0,0,1-1.24,1.34c-.73.33-1.42.32-1.6-.34l-.39-1.4.91-.42.25.35h0a1.33,1.33,0,0,1,.77-.88C118.07,52.73,118.44,52.79,118.6,53.13ZM117,54.33v.05l.41-.24c.18-.1.26-.21.22-.3s-.12-.06-.26,0C117.05,54,116.91,54.16,117,54.33Z"/><path class="cls-3" d="M114.66,54.42l.16,1.19.92-.56.07.18-1,.57.13.92,1-.58.07.17-1,.61.15,1.07L115,58l-.14-1-.74.44.15,1.08-.17,0-.14-1-1,.59-.07-.17,1-.62-.13-.91-1,.61-.07-.17,1.07-.64L113.58,55l.17,0,.16,1.18.75-.45-.17-1.23Zm-.72,1.92.12.92.75-.44-.13-.92Z"/><path class="cls-3" d="M112.11,56.52l-.29.63a1.43,1.43,0,0,0-.83.3c-.23.16-.31.26-.27.33s.17,0,.37-.08l.41-.21c.44-.22.78-.24,1,0,.38.51,0,1.11-.59,1.54a1.42,1.42,0,0,1-1.3.34l.3-.62a1,1,0,0,0,.66-.22c.18-.12.29-.26.24-.32s-.13,0-.33.07l-.42.22c-.47.24-.86.28-1.1,0-.36-.5,0-1.1.67-1.58S111.74,56.33,112.11,56.52Z"/><path class="cls-3" d="M110.57,59.93l-.69.64-.45-.38h0a1.22,1.22,0,0,1-.36,1.18.64.64,0,0,1-.95,0h0a1.22,1.22,0,0,1-.36,1.18c-.39.35-.81.27-1.12-.21l-.82-1.26.86-.78.7,1.07c.11.16.25.2.37.08a.4.4,0,0,0,0-.54l-.66-1,.86-.78.7,1.07c.11.16.25.19.38.08a.39.39,0,0,0,0-.54l-.66-1,.86-.78Z"/><path class="cls-3" d="M107.06,63.25l-.8.85-1.45-1.87.8-.85Zm.43.5a.68.68,0,0,1,0,1,.49.49,0,0,1-.73.07.7.7,0,0,1,0-1A.48.48,0,0,1,107.49,63.75Z"/><path class="cls-3" d="M106.8,65.05l-.77.88-2.17-2.64.77-.87Z"/><path class="cls-3" d="M104.32,64.21a1.57,1.57,0,0,1,.05,2.25c-.53.66-1.15.83-1.64.45a1.38,1.38,0,0,1-.33-.4l1.15-1.45c-.19-.08-.4,0-.57.26a1.83,1.83,0,0,0-.33.72l-.6.08a2,2,0,0,1,.47-1.32C103.12,64,103.82,63.8,104.32,64.21Zm-.89,1.8a.29.29,0,0,0,.46,0,.47.47,0,0,0,0-.57Z"/><path class="cls-3" d="M102.51,67.06l-1.3,1.87-.19-.14,1.3-1.86Z"/><path class="cls-3" d="M101,69.72l.25-.4.58.51-.24.4.13.11a1.21,1.21,0,0,1,.08,1.65,2.45,2.45,0,0,1-.67.72l-.49-.65a1.25,1.25,0,0,0,.38-.38.32.32,0,0,0,0-.43l0,0-.46.75-.58-.51.45-.74-1.21-1,.61-1Z"/><path class="cls-3" d="M99.43,71.14a1.6,1.6,0,0,1,.45,2.26c-.43.79-1,1.07-1.59.77a1.59,1.59,0,0,1-.44-2.25C98.27,71.13,98.87,70.84,99.43,71.14Zm-.67,2a.34.34,0,0,0,.48-.18.53.53,0,0,0-.27-.7.35.35,0,0,0-.49.17A.55.55,0,0,0,98.76,73.1Z"/><path class="cls-3" d="M97.09,76.82l.25-1c.26.17.45.18.51,0s0-.32-.26-.47l-1-.69.49-1.06,2,1.32-.4.86-.49-.13h0a1,1,0,0,1,.14,1C98.06,77.1,97.63,77.16,97.09,76.82Z"/></g><path class="cls-4" d="M66.31,84.64a2,2,0,0,0-2.5,1.6c1.07-.57,2.21-.16,2.21.91a1.33,1.33,0,0,1-1.38,1.31,1.35,1.35,0,0,1-1.32-1.53,2.48,2.48,0,0,1,3.07-2.64Zm3.24,0A2,2,0,0,0,67,86.24c1.07-.57,2.21-.16,2.21.91a1.32,1.32,0,0,1-1.38,1.31,1.35,1.35,0,0,1-1.32-1.53,2.48,2.48,0,0,1,3.07-2.64Z"/><path class="cls-4" d="M69.17,90.24,71,89.15a3,3,0,0,0,2.24.88c.65,0,1.06-.15,1.06-.43s-.3-.39-.84-.47L72.39,89c-1.79-.26-2.56-.86-2.56-2,0-1.87,1.81-2.68,3.9-2.68,1.75,0,3,.58,3.46,1.46L75.5,86.82a2.44,2.44,0,0,0-1.77-.7c-.65,0-1.12.14-1.12.41s.34.34.89.43l.94.13c1.86.27,2.65.91,2.65,2.1,0,1.79-2,2.73-4.12,2.73C71.12,91.92,69.69,91.28,69.17,90.24Z"/><path class="cls-4" d="M78.47,84.51h2.88L81,87h2.36l.39-2.45H86.6l-1.14,7.2H82.57L83,89H80.64l-.43,2.7H77.33Z"/><path class="cls-4" d="M87.51,84.51h6.23l-.31,1.95H90l-.13.77h3.06l-.27,1.66h-3l-.14.87H93l-.31,1.95H86.37Z"/><path class="cls-4" d="M95.1,90.24l1.82-1.09a3,3,0,0,0,2.24.88c.65,0,1.06-.15,1.06-.43s-.3-.39-.84-.47L98.32,89c-1.79-.26-2.56-.86-2.56-2,0-1.87,1.81-2.68,3.9-2.68,1.75,0,3,.58,3.46,1.46l-1.69,1.06a2.44,2.44,0,0,0-1.77-.7c-.65,0-1.12.14-1.12.41s.34.34.89.43l.94.13c1.86.27,2.65.91,2.65,2.1,0,1.79-2,2.73-4.12,2.73C97.05,91.92,95.62,91.28,95.1,90.24Z"/><path class="cls-4" d="M103.67,88.77l.67-4.26h2.88l-.64,4.16c-.11.66.25,1,1,1a1.2,1.2,0,0,0,1.34-1l.66-4.16h2.89l-.68,4.32c-.32,2-2,3.07-4.56,3.07S103.35,90.78,103.67,88.77Z"/><path class="cls-4" d="M116.91,90.53l-.16-.62a.79.79,0,0,0-.77-.5h-.56l-.36,2.3h-2.88l1.14-7.2h4.78c1.79,0,2.8.72,2.8,2a2.41,2.41,0,0,1-2,2.35h0a.75.75,0,0,1,.47.61l.21.52a.4.4,0,0,0,.42.29,1,1,0,0,0,.44-.12l.17,1.18a4,4,0,0,1-1.94.52A1.73,1.73,0,0,1,116.91,90.53Zm0-2.77c.66,0,1-.3,1-.85,0-.39-.28-.6-.8-.6h-1.26l-.23,1.45Z"/><path class="cls-4" d="M122.22,84.51h6.23l-.31,1.95h-3.45l-.13.77h3.06l-.27,1.66h-3l-.14.87h3.56l-.31,1.95h-6.33Z"/><path class="cls-4" d="M130.18,88.62A4.5,4.5,0,0,1,135,84.33c2.3,0,3.73,1.1,3.79,2.78l-2.7.49a1.11,1.11,0,0,0-1.22-1.08,1.84,1.84,0,0,0-1.74,1.9c0,.79.58,1.26,1.49,1.26a1.9,1.9,0,0,0,1.86-1.24l2.61.36a4.76,4.76,0,0,1-4.69,3.1C131.79,91.9,130.18,90.65,130.18,88.62Z"/><path class="cls-4" d="M142.17,84.51h3.43l1.62,7.2h-3l-.16-1.13h-2.44l-.55,1.13h-2.89Zm1.77,4.4-.38-2.46h0l-1.2,2.46Z"/><path class="cls-4" d="M148.82,84.51h4.72c1.77,0,2.76.79,2.76,2.2,0,1.87-1.24,2.92-3.46,2.92h-2l-.33,2.08h-2.87Zm3.43,3.37c.73,0,1.13-.34,1.13-.95,0-.43-.31-.67-.87-.67h-1.09l-.25,1.62Z"/><path class="cls-4" d="M158.79,86.71h-2.13l.35-2.2h7.15l-.35,2.2h-2.14l-.79,5H158Z"/><path class="cls-4" d="M164,88.77l.67-4.26h2.88L167,88.67c-.12.66.25,1,1,1a1.2,1.2,0,0,0,1.34-1l.66-4.16h2.89l-.68,4.32c-.32,2-1.95,3.07-4.56,3.07S163.72,90.78,164,88.77Z"/><path class="cls-4" d="M177.28,90.53l-.16-.62a.79.79,0,0,0-.77-.5h-.55l-.36,2.3h-2.89l1.14-7.2h4.78c1.79,0,2.8.72,2.8,2a2.41,2.41,0,0,1-2,2.35h0a.75.75,0,0,1,.47.61L180,90a.4.4,0,0,0,.42.29,1,1,0,0,0,.44-.12l.17,1.18a4,4,0,0,1-1.94.52A1.73,1.73,0,0,1,177.28,90.53Zm0-2.77c.66,0,1-.3,1-.85,0-.39-.28-.6-.8-.6h-1.25l-.24,1.45Z"/><path class="cls-4" d="M182.59,84.51h6.23l-.31,1.95h-3.44l-.13.77H188l-.27,1.66h-3l-.14.87h3.55l-.31,1.95h-6.33Z"/><path class="cls-4" d="M188.39,90.24l1.82-1.09a3,3,0,0,0,2.24.88c.65,0,1.06-.15,1.06-.43s-.3-.39-.84-.47l-1-.14c-1.8-.26-2.57-.86-2.57-2,0-1.87,1.82-2.68,3.9-2.68,1.75,0,3,.58,3.46,1.46l-1.69,1.06a2.44,2.44,0,0,0-1.77-.7c-.65,0-1.11.14-1.11.41s.33.34.88.43l.94.13c1.86.27,2.65.91,2.65,2.1,0,1.79-2,2.73-4.12,2.73C190.34,91.92,188.91,91.28,188.39,90.24Z"/><path class="cls-4" d="M55.73,96.51h3.44l1.62,7.2h-3l-.16-1.13H55.21l-.54,1.13H51.78Zm1.78,4.4-.38-2.46h0l-1.21,2.46Z"/><path class="cls-4" d="M64.18,96.51h2.88l-.79,4.95h3.16l-.35,2.25H63Z"/><path class="cls-4" d="M70,100.76c0-2.69,2.36-4.48,5.21-4.48,2.57,0,4.14,1.23,4.14,3.18,0,2.68-2.36,4.49-5.22,4.49C71.52,104,70,102.71,70,100.76Zm6.43-1c0-.81-.57-1.31-1.53-1.31a1.93,1.93,0,0,0-2,2c0,.81.56,1.31,1.52,1.31A1.94,1.94,0,0,0,76.38,99.78Z"/><path class="cls-4" d="M81.89,98.71H79.77l.35-2.2h7.15l-.35,2.2H84.78l-.79,5H81.11Z"/><path class="cls-4" d="M88.84,100.76c0-2.69,2.36-4.48,5.21-4.48,2.57,0,4.14,1.23,4.14,3.18,0,2.68-2.36,4.49-5.22,4.49C90.41,104,88.84,102.71,88.84,100.76Zm6.43-1c0-.81-.57-1.31-1.53-1.31a1.93,1.93,0,0,0-2,2c0,.81.56,1.31,1.52,1.31A1.94,1.94,0,0,0,95.27,99.78Z"/><path class="cls-4" d="M99.41,96.51h6.33l-.35,2.2h-3.45l-.14.92h2.85l-.3,1.86h-2.84l-.35,2.22H98.27Z"/><path class="cls-4" d="M108.16,96.51h6.23l-.31,1.95h-3.45l-.12.77h3l-.27,1.66h-3l-.15.87h3.56l-.31,1.95H107Z"/><path class="cls-4" d="M115.14,96.51h3.69l1,4.33h0l2.43-4.33H126l-1.14,7.2h-2.64l.67-4.14h0l-2.32,4.15h-2.23l-1-4.15h0l-.64,4.15H114Z"/><path class="cls-4" d="M126.93,96.51h4.87c1.61,0,2.6.71,2.6,1.79a1.86,1.86,0,0,1-1.43,1.75v0a1.37,1.37,0,0,1,1.08,1.39c0,1.3-1.32,2.25-3.08,2.25h-5.18Zm3.45,5.5c.5,0,.82-.26.82-.68s-.24-.52-.63-.52h-1.44l-.19,1.2Zm.32-2.65c.5,0,.79-.29.79-.67s-.22-.48-.61-.48h-1.33l-.18,1.15Z"/><path class="cls-4" d="M137.59,96.51H141l1.62,7.2h-3l-.16-1.13h-2.44l-.55,1.13h-2.89Zm1.77,4.4L139,98.45h0l-1.2,2.46Z"/><path class="cls-4" d="M147.83,102.53l-.16-.62a.79.79,0,0,0-.77-.5h-.56l-.35,2.3H143.1l1.14-7.2H149c1.79,0,2.8.72,2.8,2a2.41,2.41,0,0,1-2,2.35h0a.75.75,0,0,1,.47.61l.21.52a.4.4,0,0,0,.42.29,1,1,0,0,0,.44-.12l.17,1.18a4,4,0,0,1-1.94.52A1.73,1.73,0,0,1,147.83,102.53Zm0-2.77c.66,0,1-.3,1-.85,0-.39-.28-.6-.8-.6h-1.25l-.24,1.45Z"/><path class="cls-4" d="M156.73,102.53l-.16-.62a.79.79,0,0,0-.77-.5h-.55l-.36,2.3H152l1.14-7.2h4.78c1.79,0,2.8.72,2.8,2a2.41,2.41,0,0,1-2,2.35h0a.75.75,0,0,1,.47.61l.21.52a.4.4,0,0,0,.42.29,1,1,0,0,0,.44-.12l.17,1.18a4,4,0,0,1-1.94.52A1.73,1.73,0,0,1,156.73,102.53Zm0-2.77c.66,0,1-.3,1-.85,0-.39-.28-.6-.8-.6h-1.25l-.23,1.45Z"/><path class="cls-4" d="M162,96.51h6.23L168,98.46h-3.44l-.13.77h3.05l-.27,1.66h-3l-.14.87h3.55l-.31,1.95H160.9Z"/><path class="cls-4" d="M167.84,102.24l1.82-1.09a3,3,0,0,0,2.24.88c.65,0,1.06-.15,1.06-.43s-.3-.39-.83-.47l-1.06-.14c-1.8-.26-2.57-.86-2.57-2,0-1.87,1.82-2.68,3.9-2.68,1.75,0,3,.58,3.46,1.46l-1.69,1.06a2.44,2.44,0,0,0-1.77-.7c-.64,0-1.11.14-1.11.41s.34.34.88.43l.94.13c1.86.27,2.65.91,2.65,2.1,0,1.79-2,2.73-4.12,2.73C169.79,103.92,168.36,103.28,167.84,102.24Z"/><path class="cls-4" d="M176,102.24l1.82-1.09A3,3,0,0,0,180,102c.65,0,1.06-.15,1.06-.43s-.3-.39-.83-.47l-1.06-.14c-1.8-.26-2.57-.86-2.57-2,0-1.87,1.82-2.68,3.9-2.68,1.75,0,3,.58,3.46,1.46l-1.69,1.06a2.44,2.44,0,0,0-1.77-.7c-.64,0-1.11.14-1.11.41s.34.34.89.43l.93.13c1.86.27,2.65.91,2.65,2.1,0,1.79-2,2.73-4.12,2.73C177.91,103.92,176.48,103.28,176,102.24Z"/><path class="cls-4" d="M185.26,96.51h2.87l-1.13,7.2h-2.88Z"/><path class="cls-4" d="M189,96.51h3.35l2,4.2h0l.67-4.2h2.66l-1.14,7.2h-3.36l-2-4.23h0l-.66,4.23h-2.66Z"/><path class="cls-4" d="M197.79,100.91a4.62,4.62,0,0,1,4.88-4.58c2.17,0,3.52,1,3.67,2.48l-2.75.43a1.06,1.06,0,0,0-1.13-.77,1.81,1.81,0,0,0-1.76,1.93,1.39,1.39,0,0,0,1.57,1.41A1.67,1.67,0,0,0,204,101h-2.47l.23-1.45H207l-.66,4.2h-2.14l0-1.15h0a3.88,3.88,0,0,1-3,1.31C199.09,103.87,197.79,102.72,197.79,100.91Z"/><path class="cls-4" d="M66.33,108.51h4.73c1.77,0,2.76.79,2.76,2.2,0,1.87-1.24,2.92-3.46,2.92h-2l-.33,2.08H65.19Zm3.44,3.37c.73,0,1.13-.34,1.13-.95,0-.43-.31-.67-.87-.67H68.94l-.26,1.62Z"/><path class="cls-4" d="M74.82,108.51h2.89L77.32,111h2.36l.39-2.45H83l-1.14,7.2H78.93l.43-2.7H77l-.43,2.7H73.68Z"/><path class="cls-4" d="M83,112.76c0-2.69,2.36-4.48,5.22-4.48,2.57,0,4.14,1.23,4.14,3.18,0,2.68-2.36,4.49-5.22,4.49C84.6,116,83,114.71,83,112.76Zm6.44-1c0-.81-.57-1.31-1.53-1.31a1.94,1.94,0,0,0-2,2c0,.81.57,1.31,1.53,1.31A1.94,1.94,0,0,0,89.47,111.78Z"/><path class="cls-4" d="M95,110.71H92.85l.35-2.2h7.16l-.35,2.2H97.87l-.79,5H94.19Z"/><path class="cls-4" d="M100,112.76c0-2.69,2.36-4.48,5.22-4.48,2.57,0,4.14,1.23,4.14,3.18,0,2.68-2.36,4.49-5.22,4.49C101.6,116,100,114.71,100,112.76Zm6.44-1c0-.81-.57-1.31-1.53-1.31a1.94,1.94,0,0,0-2,2c0,.81.57,1.31,1.53,1.31A1.94,1.94,0,0,0,106.47,111.78Z"/><path class="cls-4" d="M109.42,114.24l1.82-1.09a3,3,0,0,0,2.25.88c.65,0,1.06-.15,1.06-.43s-.3-.39-.84-.47l-1.06-.14c-1.8-.26-2.57-.86-2.57-2,0-1.87,1.82-2.68,3.91-2.68,1.75,0,3,.58,3.46,1.46l-1.69,1.06a2.44,2.44,0,0,0-1.77-.7c-.65,0-1.12.14-1.12.41s.34.34.89.43l.94.13c1.86.27,2.65.91,2.65,2.1,0,1.79-2,2.73-4.12,2.73C111.37,115.92,109.94,115.28,109.42,114.24Z"/><path class="cls-4" d="M119.68,112.76c0-2.69,2.36-4.48,5.22-4.48,2.57,0,4.14,1.23,4.14,3.18,0,2.68-2.36,4.49-5.22,4.49C121.25,116,119.68,114.71,119.68,112.76Zm6.44-1c0-.81-.57-1.31-1.53-1.31a1.94,1.94,0,0,0-2,2c0,.81.57,1.31,1.53,1.31A1.94,1.94,0,0,0,126.12,111.78Z"/><path class="cls-4" d="M130.25,108.51h6.34l-.35,2.2h-3.45l-.15.92h2.86l-.3,1.86h-2.85l-.35,2.22h-2.89Z"/><path class="cls-4" d="M138.17,112.76c0-2.69,2.36-4.48,5.22-4.48,2.57,0,4.14,1.23,4.14,3.18,0,2.68-2.36,4.49-5.22,4.49C139.74,116,138.17,114.71,138.17,112.76Zm6.44-1c0-.81-.57-1.31-1.53-1.31a1.94,1.94,0,0,0-2,2c0,.81.57,1.31,1.53,1.31A1.94,1.94,0,0,0,144.61,111.78Z"/><path class="cls-4" d="M150.12,110.71H148l.35-2.2h7.16l-.35,2.2H153l-.79,5h-2.89Z"/><path class="cls-4" d="M156.1,108.51H159L158.6,111H161l.39-2.45h2.89l-1.14,7.2h-2.89l.43-2.7h-2.36l-.43,2.7H155Z"/><path class="cls-4" d="M165.14,108.51h6.24l-.31,1.95h-3.45l-.13.77h3.06l-.27,1.66h-3.05l-.14.87h3.56l-.31,1.95H164Z"/><path class="cls-4" d="M175.72,114.53l-.16-.62a.79.79,0,0,0-.77-.5h-.56l-.36,2.3H171l1.14-7.2h4.79c1.79,0,2.8.72,2.8,2a2.41,2.41,0,0,1-2,2.35h0a.75.75,0,0,1,.47.61l.21.52a.4.4,0,0,0,.42.29,1,1,0,0,0,.44-.12l.17,1.18a4,4,0,0,1-1.94.52A1.73,1.73,0,0,1,175.72,114.53Zm0-2.77c.66,0,1-.3,1-.85,0-.39-.28-.6-.8-.6h-1.26l-.23,1.45Z"/><path class="cls-4" d="M179.74,114.24l1.82-1.09a3,3,0,0,0,2.25.88c.65,0,1.06-.15,1.06-.43s-.3-.39-.84-.47L183,113c-1.8-.26-2.57-.86-2.57-2,0-1.87,1.82-2.68,3.91-2.68,1.75,0,3,.58,3.46,1.46l-1.69,1.06a2.44,2.44,0,0,0-1.77-.7c-.65,0-1.12.14-1.12.41s.34.34.89.43l.94.13c1.86.27,2.65.91,2.65,2.1,0,1.79-2,2.73-4.12,2.73C181.69,115.92,180.26,115.28,179.74,114.24Z"/><path class="cls-4" d="M188.15,112a2,2,0,0,0,2.52-1.61c-1.08.57-2.22.17-2.22-.91a1.33,1.33,0,0,1,1.39-1.29c.81,0,1.31.6,1.31,1.51a2.48,2.48,0,0,1-3.07,2.65Zm3.24,0a2,2,0,0,0,2.51-1.61c-1.07.57-2.21.17-2.21-.91a1.36,1.36,0,1,1,2.7.22,2.48,2.48,0,0,1-3.07,2.65Z"/><path class="cls-5" d="M217.11,80.44l.07.9a1.61,1.61,0,0,1-1.34-.73,1.17,1.17,0,0,1,0-1.69l.16-.12a1.86,1.86,0,0,1,.37-2.54c.93-.7,2.08-.35,3,.81s.88,2.38,0,3.07a1.91,1.91,0,0,1-2.65-.45l-.1.08a.3.3,0,0,0,0,.44A.62.62,0,0,0,217.11,80.44Zm.11-1.78a.81.81,0,0,0,1.19.3.82.82,0,0,0,.05-1.23c-.34-.45-.79-.59-1.19-.29A.81.81,0,0,0,217.22,78.66Z"/><path class="cls-5" d="M219.41,80.68l1.73-.91.7,1.31-1.7.89a.63.63,0,0,0-.27.89.62.62,0,0,0,.89.28l1.69-.88.69,1.31-1.73.91c-1,.51-1.93,0-2.52-1.11S218.45,81.18,219.41,80.68Z"/><path class="cls-5" d="M223.39,84.26l.56,1.37L220.61,87l-.56-1.37Z"/><path class="cls-5" d="M222.51,86.77A2,2,0,0,1,225,88.42a2,2,0,0,1-.67,2.4l-.65-1.21a.72.72,0,0,0,.28-.86.76.76,0,0,0-1-.56.81.81,0,0,0-.47,1.11.83.83,0,0,0,.85.7l.22,1.36c-.92.15-1.79-.6-2.14-1.78S221.44,87.08,222.51,86.77Z"/><path class="cls-5" d="M225.7,91.44l.23,1.47-1,.16,1.21.87.28,1.79-1.58-1.2-2,1.76-.28-1.76,1.14-.86-.43-.34-.88.14L222.14,92Z"/><path class="cls-5" d="M224.77,96l.19,3.43-.9,0-.19-3.43Z"/><path class="cls-5" d="M226.7,99.91l-.14,1.49-2.45.5,2.32,1-.15,1.64-2.46.58,2.33.92-.14,1.48-3.46-1.62.15-1.71,2.43-.58-2.29-1,.16-1.71Z"/><path class="cls-5" d="M225.74,108.08l-.31,1.45-3.51-.77.31-1.45Z"/><path class="cls-5" d="M224,110.85l.33-1.1,1.05.32-1.1,3.62-1.06-.32.34-1.1-2.39-.72.44-1.42Z"/><path class="cls-5" d="M222.58,114.82l.46-1,1,.44-1.51,3.46-1-.44.46-1-2.3-1,.6-1.36Z"/><path class="cls-5" d="M222.22,118.27l-1.67,2.87-.84-.49.95-1.63-.33-.2-.85,1.46-.72-.41.85-1.46-.38-.22-1,1.68-.84-.49,1.7-2.92Z"/><path class="cls-5" d="M220.13,121.81l-1.34,1.71c-.82,1-1.92,1.28-2.77.61s-.88-1.8-.05-2.84l1.34-1.71Zm-3.28,0a.78.78,0,1,0,1.22,1l.38-.48-1.22-1Z"/><path class="cls-5" d="M42.9,119.58l-.07-.9a1.61,1.61,0,0,1,1.34.72,1.18,1.18,0,0,1,0,1.7l-.15.11a1.88,1.88,0,0,1-.38,2.55c-.92.69-2.08.35-3-.82s-.88-2.37,0-3.06a1.92,1.92,0,0,1,2.65.44l.1-.07a.31.31,0,0,0,0-.45A.61.61,0,0,0,42.9,119.58Zm-.11,1.77c-.34-.45-.79-.59-1.19-.29a.81.81,0,0,0-.05,1.22c.34.46.79.59,1.19.29S43.13,121.81,42.79,121.35Z"/><path class="cls-5" d="M40.59,119.33l-1.74.9-.69-1.31,1.69-.89a.66.66,0,1,0-.62-1.17l-1.69.88-.69-1.31,1.74-.91c1-.51,1.93,0,2.52,1.11S41.55,118.82,40.59,119.33Z"/><path class="cls-5" d="M36.61,115.74l-.56-1.37L39.39,113l.56,1.37Z"/><path class="cls-5" d="M37.49,113.23a2,2,0,0,1-2.44-1.65,2,2,0,0,1,.67-2.4l.65,1.21a.72.72,0,0,0-.28.86.76.76,0,0,0,1,.56.81.81,0,0,0,.47-1.11.83.83,0,0,0-.85-.7l-.22-1.36c.92-.15,1.79.61,2.13,1.78S38.55,112.92,37.49,113.23Z"/><path class="cls-5" d="M34.3,108.56l-.23-1.47,1-.16-1.2-.87-.29-1.79,1.59,1.2,2-1.76.29,1.76-1.14.86.43.34.88-.14.23,1.47Z"/><path class="cls-5" d="M35.23,104,35,100.56l.9,0,.19,3.43Z"/><path class="cls-5" d="M33.3,100.09l.14-1.49,2.45-.5-2.32-1,.15-1.63,2.46-.59L33.85,94,34,92.48l3.46,1.62-.15,1.71-2.43.58,2.29,1L37,99.1Z"/><path class="cls-5" d="M34.25,91.92l.32-1.45,3.51.77-.31,1.45Z"/><path class="cls-5" d="M36.05,89.15l-.33,1.1-1-.32,1.1-3.62,1,.32-.33,1.1,2.39.72-.44,1.42Z"/><path class="cls-5" d="M37.41,85.18l-.46,1-1-.44,1.52-3.46,1,.44-.46,1,2.29,1-.59,1.36Z"/><path class="cls-5" d="M37.77,81.73l1.68-2.87.84.49L39.34,81l.33.2.85-1.46.71.41-.85,1.46.38.22,1-1.68.85.49-1.71,2.92Z"/><path class="cls-5" d="M39.86,78.19l1.35-1.71c.82-1,1.92-1.28,2.77-.61A1.92,1.92,0,0,1,44,78.71l-1.34,1.71Zm3.29,0a.78.78,0,1,0-1.22-1l-.38.48,1.22,1Z"/><rect class="cls-4" x="105.42" y="116.3" width="54.32" height="9.86" rx="4.93" transform="matrix(1, -0.08, 0.08, 1, -9.02, 10.67)"/><rect class="cls-6" x="105.42" y="115.64" width="54.32" height="9.86" rx="4.93" transform="translate(-8.97 10.67) rotate(-4.46)"/><path class="cls-4" d="M108.5,122.63l4.5-.36v.24l-4.49.36Z"/><path class="cls-4" d="M113.28,119.69l1.49-.12.11,1.52,2.26-.17L117,119.4l1.49-.12.33,4.28-1.49.12-.13-1.7-2.25.17.13,1.71-1.49.11Z"/><path class="cls-4" d="M119.13,122c-.07-1,.83-1.71,2.19-1.81s2.28.47,2.35,1.47a1.17,1.17,0,0,1,0,.32l-3.08.24c.18.35.71.45,1.26.41a3.24,3.24,0,0,0,1.45-.43l.42.64a3.8,3.8,0,0,1-1.9.61C120.29,123.55,119.21,123,119.13,122Zm3.17-.52c0-.35-.46-.56-.93-.52s-.84.31-.86.66Z"/><path class="cls-4" d="M127.74,121l-1.21.35c-.06-.46-.27-.74-.55-.72s-.59.42-.54,1l.11,1.37-1.35.11-.24-3.09,1.12-.09.24.7h0a1.34,1.34,0,0,1,1.17-.91C127.14,119.71,127.63,120.21,127.74,121Z"/><path class="cls-4" d="M129.11,118.63a.75.75,0,0,1,1.49-.12.71.71,0,0,1-.69.76A.7.7,0,0,1,129.11,118.63Zm.15,1,1.35-.11.24,3.09-1.35.1Z"/><path class="cls-4" d="M131.05,118.31l3.29-.26c1.16-.09,1.84.4,1.92,1.37s-.54,1.51-1.7,1.6l-1.79.14.1,1.31-1.49.12Zm3,1.87c.52,0,.78-.28.75-.67s-.33-.58-.85-.54l-1.3.1.09,1.21Z"/><path class="cls-4" d="M136.45,117.7l1.36-.1.16,2.12h0a1.63,1.63,0,0,1,1.45-1,1.38,1.38,0,0,1,1.64,1.32l.13,1.75-1.34.11-.12-1.6a.73.73,0,0,0-.86-.72.85.85,0,0,0-.84,1l.11,1.45-1.35.1Z"/><path class="cls-4" d="M141.39,120.26c-.08-1,.81-1.72,2.23-1.83s2.42.46,2.5,1.46-.81,1.71-2.24,1.82S141.47,121.25,141.39,120.26Zm3.38-.27c0-.49-.47-.78-1.08-.73s-1,.4-.95.89.46.78,1.07.73S144.8,120.48,144.77,120Z"/><path class="cls-4" d="M150.86,119.31l.13,1.75-1.35.1-.12-1.59a.72.72,0,0,0-.85-.72.85.85,0,0,0-.85,1l.11,1.45-1.34.1-.24-3.08,1.16-.1.2.74h0a1.7,1.7,0,0,1,1.5-1A1.38,1.38,0,0,1,150.86,119.31Z"/><path class="cls-4" d="M151.17,119.49c-.07-1,.83-1.72,2.19-1.82s2.28.48,2.35,1.47a1.16,1.16,0,0,1,0,.32l-3.08.24c.18.35.71.45,1.26.41a3.24,3.24,0,0,0,1.45-.42l.42.64a3.8,3.8,0,0,1-1.9.6C152.33,121.05,151.25,120.49,151.17,119.49Zm3.17-.53c-.05-.35-.46-.56-.93-.52s-.84.31-.86.66Z"/></svg>