<svg id="Layer_1" data-name="Layer 1" xmlns="http://www.w3.org/2000/svg" viewBox="0 0 260 200"><defs><style>.cls-1{fill:#8daeeb;}.cls-2{fill:#5c86d1;}.cls-3{opacity:0.7;}.cls-4{fill:#5c4ad1;}.cls-5{fill:#fff;}</style></defs><rect class="cls-1" x="19.67" y="50.64" width="220.65" height="98.73" rx="49.36"/><path class="cls-2" d="M75,56,73.6,53.87H75l.64,1.21.6-1.21h1.4L76.29,56v1.08H75Z"/><path class="cls-2" d="M77.72,55.49c0-1,.88-1.69,2.19-1.69s2.19.65,2.19,1.69-.88,1.69-2.19,1.69S77.72,56.53,77.72,55.49Zm3,0c0-.45-.34-.7-.85-.7s-.85.25-.85.7.34.7.85.7S80.76,55.93,80.76,55.49Z"/><path class="cls-2" d="M82.52,55.63V53.87h1.34v1.72a.58.58,0,0,0,.6.6.56.56,0,0,0,.59-.6V53.87h1.34v1.76c0,1-.8,1.55-1.93,1.55S82.52,56.61,82.52,55.63Z"/><path class="cls-2" d="M88.87,55.49c0-1,.88-1.69,2.19-1.69s2.19.65,2.19,1.69-.88,1.69-2.19,1.69S88.87,56.53,88.87,55.49Zm3,0c0-.45-.34-.7-.85-.7s-.85.25-.85.7.34.7.85.7S91.91,55.93,91.91,55.49Z"/><path class="cls-2" d="M93.65,53.87H95v.94l.94-.94h1.63l-1.29,1.24,1.29,2H96L95.35,56l-.36.34v.8H93.65Z"/><path class="cls-2" d="M99.26,55.15c.2-.07.38-.15.38-.31s-.15-.21-.34-.21a.46.46,0,0,0-.51.4l-1.2-.18c0-.64.78-1.07,1.77-1.07s1.57.37,1.57.95-.44.72-.84.83c-.23.07-.38.11-.38.33H98.65C98.65,55.49,98.75,55.34,99.26,55.15Zm-.7,1.44a.65.65,0,1,1,.64.56A.58.58,0,0,1,98.56,56.59Z"/><path class="cls-2" d="M106.62,56l-1.36-2.16h1.37l.65,1.21.6-1.21h1.4L108,56v1.08h-1.33Z"/><path class="cls-2" d="M109.39,55.49c0-1,.88-1.69,2.19-1.69s2.19.65,2.19,1.69-.88,1.69-2.19,1.69S109.39,56.53,109.39,55.49Zm3,0c0-.45-.34-.7-.85-.7s-.85.25-.85.7.34.7.85.7S112.43,55.93,112.43,55.49Z"/><path class="cls-2" d="M114.15,55.63V53.87h1.34v1.72a.58.58,0,0,0,.6.6.57.57,0,0,0,.6-.6V53.87H118v1.76c0,1-.8,1.55-1.94,1.55S114.15,56.61,114.15,55.63Z"/><path class="cls-2" d="M120.53,55.49c0-1,.87-1.69,2.18-1.69s2.19.65,2.19,1.69-.87,1.69-2.19,1.69S120.53,56.53,120.53,55.49Zm3,0c0-.45-.34-.7-.86-.7s-.85.25-.85.7.34.7.85.7S123.57,55.93,123.57,55.49Z"/><path class="cls-2" d="M125.32,53.87h1.33v.94l.95-.94h1.62l-1.29,1.24,1.29,2h-1.6L127,56l-.36.34v.8h-1.33Z"/><path class="cls-2" d="M130.91,55.15c.19-.07.37-.15.37-.31s-.14-.21-.33-.21a.45.45,0,0,0-.51.4l-1.21-.18c.06-.64.79-1.07,1.77-1.07s1.58.37,1.58.95-.44.72-.84.83c-.23.07-.39.11-.39.33h-1.06C130.29,55.49,130.39,55.34,130.91,55.15Zm-.71,1.44a.66.66,0,1,1,.65.56A.59.59,0,0,1,130.2,56.59Z"/><path class="cls-2" d="M136.19,56l-1.36-2.16h1.37l.65,1.21.6-1.21h1.4L137.52,56v1.08h-1.33Z"/><path class="cls-2" d="M139,55.49c0-1,.87-1.69,2.19-1.69s2.18.65,2.18,1.69-.87,1.69-2.18,1.69S139,56.53,139,55.49Zm3,0c0-.45-.34-.7-.85-.7s-.86.25-.86.7.34.7.86.7S142,55.93,142,55.49Z"/><path class="cls-2" d="M143.74,55.63V53.87h1.34v1.72a.58.58,0,0,0,.6.6.57.57,0,0,0,.6-.6V53.87h1.33v1.76c0,1-.79,1.55-1.93,1.55S143.74,56.61,143.74,55.63Z"/><path class="cls-2" d="M150.1,55.49c0-1,.88-1.69,2.19-1.69s2.19.65,2.19,1.69-.88,1.69-2.19,1.69S150.1,56.53,150.1,55.49Zm3,0c0-.45-.34-.7-.85-.7s-.85.25-.85.7.34.7.85.7S153.14,55.93,153.14,55.49Z"/><path class="cls-2" d="M154.9,53.87h1.34v.94l.94-.94h1.63l-1.29,1.24,1.29,2H157.2L156.6,56l-.36.34v.8H154.9Z"/><path class="cls-2" d="M160.48,55.15c.2-.07.38-.15.38-.31s-.15-.21-.34-.21a.46.46,0,0,0-.51.4l-1.2-.18c.05-.64.78-1.07,1.77-1.07s1.57.37,1.57.95-.44.72-.84.83c-.23.07-.38.11-.38.33h-1.06C159.87,55.49,160,55.34,160.48,55.15Zm-.7,1.44a.65.65,0,1,1,.64.56A.58.58,0,0,1,159.78,56.59Z"/><path class="cls-2" d="M167.84,56l-1.36-2.16h1.38l.65,1.21.6-1.21h1.39L169.18,56v1.08h-1.34Z"/><path class="cls-2" d="M170.61,55.49c0-1,.88-1.69,2.19-1.69s2.19.65,2.19,1.69-.88,1.69-2.19,1.69S170.61,56.53,170.61,55.49Zm3,0c0-.45-.34-.7-.85-.7s-.85.25-.85.7.34.7.85.7S173.65,55.93,173.65,55.49Z"/><path class="cls-2" d="M175.37,55.63V53.87h1.34v1.72a.58.58,0,0,0,.6.6.57.57,0,0,0,.6-.6V53.87h1.33v1.76c0,1-.79,1.55-1.93,1.55S175.37,56.61,175.37,55.63Z"/><path class="cls-2" d="M181.73,55.49c0-1,.88-1.69,2.19-1.69s2.19.65,2.19,1.69-.87,1.69-2.19,1.69S181.73,56.53,181.73,55.49Zm3.05,0c0-.45-.35-.7-.86-.7s-.85.25-.85.7.34.7.85.7S184.78,55.93,184.78,55.49Z"/><path class="cls-2" d="M186.54,53.87h1.33v.94l.95-.94h1.62l-1.29,1.24,1.29,2h-1.6L188.23,56l-.36.34v.8h-1.33Z"/><path class="cls-2" d="M192.17,55.16c.2-.06.38-.14.38-.3s-.14-.21-.33-.21a.45.45,0,0,0-.52.39l-1.2-.22c.07-.63.81-1,1.8-1s1.56.41,1.55,1-.46.71-.86.81c-.23.07-.39.1-.39.33l-1.06,0C191.54,55.49,191.65,55.34,192.17,55.16Zm-.74,1.43a.65.65,0,1,1,.63.58A.59.59,0,0,1,191.43,56.59Z"/><path class="cls-2" d="M197.42,56.47l-1-2.35,1.36.22.46,1.3.78-1.11,1.38.22-1.65,1.93-.17,1.06-1.32-.21Z"/><path class="cls-2" d="M200.34,56.38c.26-1,1.27-1.41,2.54-1.08s2,1.18,1.69,2.18-1.28,1.41-2.55,1.08S200.07,57.39,200.34,56.38Zm2.94.77c.11-.43-.16-.76-.65-.89s-.89,0-1,.46.15.76.64.89S203.16,57.58,203.28,57.15Z"/><path class="cls-2" d="M205,57.79l.62-1.65,1.25.47-.6,1.61a.6.6,0,0,0,1.12.42L208,57l1.26.48-.63,1.65c-.34.92-1.29,1.16-2.35.76S204.64,58.7,205,57.79Z"/><path class="cls-2" d="M211,60.09c.51-.9,1.59-1,2.74-.39s1.6,1.63,1.09,2.54-1.59,1-2.74.4S210.51,61,211,60.09Zm2.66,1.49c.22-.38,0-.77-.4-1s-.87-.2-1.09.19,0,.77.41,1S213.45,62,213.67,61.58Z"/><path class="cls-2" d="M216.19,61.2l1.1.77-.55.78,1.32-.23,1.33.93-1.77.27-.1,2.38-1.31-.92.16-1.28-.49.07-.46.65-1.09-.77Z"/><path class="cls-2" d="M218.54,66.31a.65.65,0,0,1,1,.83.59.59,0,0,1-.86,0A.58.58,0,0,1,218.54,66.31Zm1.47-.66c.19.08.38.14.48,0s0-.25-.12-.37a.46.46,0,0,0-.65,0l-.8-.92c.45-.45,1.29-.31,2,.33s1,1.3.59,1.75a1,1,0,0,1-1.18.09c-.22-.09-.36-.17-.5,0l-.81-.68C219.32,65.52,219.49,65.47,220,65.65Z"/><path class="cls-2" d="M224.67,71.52l.8-2.42.88,1.06-.53,1.28,1.32-.31L228,72.2l-2.51.36-.83.68-.85-1Z"/><path class="cls-2" d="M226.92,73.41c.87-.58,1.89-.21,2.62.88s.68,2.18-.18,2.76-1.89.21-2.62-.88S226.06,74,226.92,73.41Zm1.7,2.53a.73.73,0,0,0,.1-1.1c-.28-.42-.68-.57-1.05-.32s-.39.67-.11,1.1S228.25,76.18,228.62,75.94Z"/><path class="cls-2" d="M229.47,77.53,231,76.7l.62,1.18-1.52.81a.6.6,0,1,0,.57,1.06l1.52-.81.63,1.18-1.57.83c-.86.46-1.74,0-2.27-1S228.61,78,229.47,77.53Z"/><path class="cls-2" d="M232.46,83.24c1-.34,1.88.27,2.32,1.51s.11,2.28-.87,2.62-1.88-.27-2.31-1.51S231.48,83.58,232.46,83.24Zm1,2.87c.42-.14.55-.55.38-1s-.52-.72-.94-.58-.55.55-.38,1S233.05,86.26,233.47,86.11Z"/><path class="cls-2" d="M235.62,87.52l.31,1.3L235,89l1.14.7.38,1.58-1.51-1-1.65,1.72L233,90.51l1-.86-.41-.27-.77.19-.31-1.31Z"/><path class="cls-2" d="M234,92.89a.65.65,0,1,1-.46.72A.6.6,0,0,1,234,92.89Zm1.54.48c.09.19.19.35.36.33s.18-.17.15-.36a.46.46,0,0,0-.47-.45V91.67c.64,0,1.17.62,1.32,1.6s-.14,1.61-.72,1.7-.77-.34-.94-.72c-.11-.21-.16-.36-.39-.33l-.15-1C235.1,92.81,235.26,92.89,235.53,93.37Z"/><path class="cls-2" d="M235.12,98.78l2.14-1.39,0,1.38-1.21.66,1.23.59v1.39l-2.17-1.3-1.08,0,0-1.34Z"/><path class="cls-2" d="M235.7,101.63c1,.09,1.6,1,1.49,2.33s-.83,2.12-1.87,2-1.61-1-1.5-2.32S234.66,101.54,235.7,101.63Zm-.27,3c.45,0,.73-.28.77-.79s-.18-.87-.62-.91-.72.28-.77.79S235,104.63,235.43,104.66Z"/><path class="cls-2" d="M235.11,106.44l1.73.33-.25,1.32-1.69-.32a.58.58,0,0,0-.7.47.55.55,0,0,0,.47.7l1.69.33-.25,1.31-1.73-.33c-1-.18-1.37-1.07-1.16-2.19S234.14,106.26,235.11,106.44Z"/><path class="cls-2" d="M233.86,112.79c1,.35,1.3,1.39.86,2.63s-1.34,1.85-2.32,1.5-1.3-1.39-.86-2.63S232.88,112.44,233.86,112.79Zm-1,2.87c.42.15.78-.09.95-.57s0-.89-.38-1-.77.09-.94.57S232.42,115.51,232.84,115.66Z"/><path class="cls-2" d="M233.65,118.08l-.58,1.21-.85-.4.44,1.25-.7,1.47-.56-1.69-2.36.31.69-1.45,1.29-.07-.15-.46-.72-.35.57-1.2Z"/><path class="cls-2" d="M229,121.26a.58.58,0,0,1,.16.84.57.57,0,1,1-.16-.84Zm.9,1.34c0,.2-.07.4.07.48s.25,0,.35-.19a.45.45,0,0,0-.09-.64l.77-1c.52.37.53,1.22,0,2.07s-1.12,1.17-1.62.88a1,1,0,0,1-.29-1.15c.05-.23.1-.38-.1-.49l.54-.92C229.93,121.89,230,122.06,229.92,122.6Z"/><path class="cls-2" d="M224.9,128.21l2.52.38-.9,1-1.34-.31.53,1.25-.91,1.06-.77-2.42-.82-.71.87-1Z"/><path class="cls-2" d="M223.46,130.71c.72.75.53,1.82-.42,2.73s-2,1.05-2.76.3-.53-1.83.42-2.74S222.74,130,223.46,130.71Zm-2.21,2.1a.73.73,0,0,0,1.1-.08c.37-.36.45-.78.14-1.1a.73.73,0,0,0-1.1.09C221,132.07,220.94,132.49,221.25,132.81Z"/><path class="cls-2" d="M219.82,133.92l1.07,1.4-1,.82-1.05-1.36a.58.58,0,0,0-.84-.11.57.57,0,0,0-.11.84l1,1.36-1.06.82-1.08-1.4c-.59-.77-.31-1.7.59-2.4S219.22,133.15,219.82,133.92Z"/><path class="cls-2" d="M214.67,137.86c.51.91.06,1.91-1.09,2.55s-2.23.49-2.73-.41-.06-1.91,1.09-2.55S214.17,137,214.67,137.86ZM212,139.34a.73.73,0,0,0,1.09.2c.45-.25.62-.64.41-1a.74.74,0,0,0-1.09-.19C212,138.57,211.8,139,212,139.34Z"/><path class="cls-2" d="M211,141.68l-1.23.53-.37-.87-.5,1.24-1.5.64.71-1.65-2-1.33,1.48-.63,1,.8.2-.45-.31-.73,1.23-.53Z"/><path class="cls-2" d="M205.23,142.6c-.17.13-.31.26-.26.42s.2.14.38.08a.45.45,0,0,0,.36-.54l1.2-.2c.15.62-.41,1.26-1.35,1.57s-1.61.14-1.79-.41.2-.82.54-1.05c.19-.14.33-.22.26-.44l1-.33C205.71,142.09,205.66,142.26,205.23,142.6Zm.22-1.59a.6.6,0,0,1-.44.74.57.57,0,1,1-.35-1.07A.59.59,0,0,1,205.45,141Z"/><path class="cls-2" d="M199.82,143.12l1.73,1.88-1.36.25-.86-1.08-.37,1.31-1.37.25.92-2.36-.2-1.07,1.32-.24Z"/><path class="cls-2" d="M197.12,144.17c.09,1-.73,1.76-2,1.86s-2.24-.46-2.32-1.5.73-1.75,2-1.86S197,143.13,197.12,144.17Zm-3,.25c0,.45.4.67.91.63s.83-.33.79-.77-.4-.67-.91-.62S194.05,144,194.09,144.42Z"/><path class="cls-2" d="M192.28,144.37v1.76H191v-1.72a.58.58,0,0,0-.6-.6.57.57,0,0,0-.6.6v1.72h-1.34v-1.76c0-1,.8-1.55,1.94-1.55S192.28,143.39,192.28,144.37Z"/><path class="cls-2" d="M186,144.51c0,1-.87,1.69-2.19,1.69s-2.19-.65-2.19-1.69.88-1.69,2.19-1.69S186,143.47,186,144.51Zm-3,0c0,.45.34.7.85.7s.85-.25.85-.7-.34-.7-.85-.7S182.91,144.06,182.91,144.51Z"/><path class="cls-2" d="M181.13,146.13H179.8v-.94l-1,.94h-1.62l1.29-1.24-1.29-2h1.6l.61,1.13.36-.33v-.8h1.33Z"/><path class="cls-2" d="M175.56,144.85c-.2.07-.38.15-.38.31s.14.21.34.21a.46.46,0,0,0,.51-.4l1.2.18c0,.64-.78,1.07-1.77,1.07s-1.57-.37-1.57-.95.44-.72.84-.83c.22-.07.38-.11.38-.33h1.06C176.17,144.51,176.07,144.66,175.56,144.85Zm.7-1.44a.65.65,0,1,1-.65-.56A.58.58,0,0,1,176.26,143.41Z"/><path class="cls-2" d="M168.2,144l1.35,2.16h-1.37l-.65-1.21-.6,1.21h-1.4l1.33-2.16v-1.08h1.34Z"/><path class="cls-2" d="M165.4,144.51c0,1-.87,1.69-2.19,1.69s-2.19-.65-2.19-1.69.88-1.69,2.19-1.69S165.4,143.47,165.4,144.51Zm-3,0c0,.45.34.7.85.7s.86-.25.86-.7-.35-.7-.86-.7S162.36,144.06,162.36,144.51Z"/><path class="cls-2" d="M160.64,144.37v1.76H159.3v-1.72a.58.58,0,0,0-.6-.6.57.57,0,0,0-.6.6v1.72h-1.33v-1.76c0-1,.79-1.55,1.93-1.55S160.64,143.39,160.64,144.37Z"/><path class="cls-2" d="M154.29,144.51c0,1-.88,1.69-2.19,1.69s-2.19-.65-2.19-1.69.88-1.69,2.19-1.69S154.29,143.47,154.29,144.51Zm-3,0c0,.45.34.7.85.7s.85-.25.85-.7-.34-.7-.85-.7S151.25,144.06,151.25,144.51Z"/><path class="cls-2" d="M149.49,146.13h-1.34v-.94l-.94.94h-1.63l1.29-1.24-1.29-2h1.6l.61,1.13.36-.33v-.8h1.34Z"/><path class="cls-2" d="M143.9,144.85c-.2.07-.37.15-.37.31s.14.21.33.21a.45.45,0,0,0,.51-.4l1.21.18c-.06.64-.79,1.07-1.77,1.07s-1.58-.37-1.58-.95.44-.72.84-.83c.23-.07.39-.11.39-.33h1.06C144.52,144.51,144.41,144.66,143.9,144.85Zm.7-1.44a.58.58,0,0,1-.64.56.57.57,0,1,1,0-1.12A.58.58,0,0,1,144.6,143.41Z"/><path class="cls-2" d="M138.61,144l1.36,2.16h-1.38l-.65-1.21-.6,1.21H136l1.32-2.16v-1.08h1.34Z"/><path class="cls-2" d="M135.84,144.51c0,1-.88,1.69-2.19,1.69s-2.19-.65-2.19-1.69.88-1.69,2.19-1.69S135.84,143.47,135.84,144.51Zm-3,0c0,.45.34.7.85.7s.85-.25.85-.7-.34-.7-.85-.7S132.8,144.06,132.8,144.51Z"/><path class="cls-2" d="M131.08,144.37v1.76h-1.33v-1.72a.58.58,0,0,0-.6-.6.57.57,0,0,0-.6.6v1.72h-1.34v-1.76c0-1,.8-1.55,1.94-1.55S131.08,143.39,131.08,144.37Z"/><path class="cls-2" d="M124.72,144.51c0,1-.87,1.69-2.19,1.69s-2.18-.65-2.18-1.69.87-1.69,2.18-1.69S124.72,143.47,124.72,144.51Zm-3,0c0,.45.34.7.85.7s.86-.25.86-.7-.34-.7-.86-.7S121.68,144.06,121.68,144.51Z"/><path class="cls-2" d="M119.9,146.13h-1.33v-.94l-.95.94H116l1.29-1.24-1.29-2h1.6l.61,1.13.36-.33v-.8h1.33Z"/><path class="cls-2" d="M114.31,144.85c-.2.07-.37.15-.37.31s.14.21.33.21a.45.45,0,0,0,.51-.4l1.21.18c-.06.64-.79,1.07-1.77,1.07s-1.58-.37-1.58-.95.44-.72.84-.83c.23-.07.39-.11.39-.33h1.06C114.93,144.51,114.82,144.66,114.31,144.85Zm.7-1.44a.58.58,0,0,1-.64.56.57.57,0,1,1,0-1.12A.58.58,0,0,1,115,143.41Z"/><path class="cls-2" d="M107,144l1.36,2.16H107l-.65-1.21-.6,1.21h-1.4l1.33-2.16v-1.08H107Z"/><path class="cls-2" d="M104.19,144.51c0,1-.88,1.69-2.19,1.69s-2.19-.65-2.19-1.69.88-1.69,2.19-1.69S104.19,143.47,104.19,144.51Zm-3,0c0,.45.34.7.85.7s.85-.25.85-.7-.34-.7-.85-.7S101.15,144.06,101.15,144.51Z"/><path class="cls-2" d="M99.41,144.37v1.76H98.08v-1.72a.58.58,0,0,0-.6-.6.57.57,0,0,0-.6.6v1.72H95.54v-1.76c0-1,.8-1.55,1.94-1.55S99.41,143.39,99.41,144.37Z"/><path class="cls-2" d="M93.07,144.51c0,1-.87,1.69-2.19,1.69s-2.19-.65-2.19-1.69.88-1.69,2.19-1.69S93.07,143.47,93.07,144.51Zm-3,0c0,.45.34.7.85.7s.86-.25.86-.7-.35-.7-.86-.7S90,144.06,90,144.51Z"/><path class="cls-2" d="M88.27,146.13H86.93v-.94l-.94.94H84.36l1.29-1.24-1.29-2H86l.6,1.13.36-.33v-.8h1.34Z"/><path class="cls-2" d="M82.67,144.85c-.19.07-.37.15-.37.31s.14.21.33.21a.47.47,0,0,0,.52-.4l1.2.18c-.06.64-.79,1.07-1.77,1.07s-1.58-.37-1.58-.95.44-.72.85-.83c.22-.07.38-.11.38-.33h1.06C83.29,144.51,83.19,144.66,82.67,144.85Zm.71-1.44a.66.66,0,1,1-.65-.56A.59.59,0,0,1,83.38,143.41Z"/><path class="cls-2" d="M77.4,144l1.36,2.16H77.38l-.65-1.21-.6,1.21H74.74L76.07,144v-1.08H77.4Z"/><path class="cls-2" d="M74.62,144.51c0,1-.87,1.69-2.19,1.69s-2.19-.65-2.19-1.69.88-1.69,2.19-1.69S74.62,143.47,74.62,144.51Zm-3,0c0,.45.34.7.85.7s.85-.25.85-.7-.34-.7-.85-.7S71.58,144.06,71.58,144.51Z"/><path class="cls-2" d="M69.84,144.4l0,1.76-1.34,0,0-1.72a.58.58,0,0,0-.59-.61.56.56,0,0,0-.61.58l0,1.72-1.33,0,0-1.77c0-1,.83-1.53,2-1.51S69.86,143.42,69.84,144.4Z"/><path class="cls-2" d="M63.36,144.23c-.18,1-1.15,1.52-2.45,1.29s-2-1-1.87-2,1.15-1.52,2.45-1.29S63.54,143.21,63.36,144.23Zm-3-.52c-.08.44.22.74.72.83s.89-.1,1-.54-.22-.75-.72-.83S60.43,143.27,60.36,143.71Z"/><path class="cls-2" d="M58.12,144.92l-1.29-.37.26-.91-1.17.66-1.57-.45,1.58-.84-.7-2.28,1.55.44.27,1.26.44-.23.22-.77,1.29.37Z"/><path class="cls-2" d="M53,142c-.21,0-.4,0-.46.15s.06.25.24.31a.46.46,0,0,0,.62-.19l1.06.6c-.27.58-1.11.72-2,.37s-1.35-.9-1.14-1.45.66-.51,1.08-.47c.24,0,.4,0,.48-.18l1,.38C53.74,141.89,53.59,142,53,142Zm1.17-1.11a.6.6,0,0,1-.81.3.57.57,0,1,1,.4-1.05A.59.59,0,0,1,54.21,140.88Z"/><path class="cls-2" d="M46.68,138l0,2.55-1.19-.71.08-1.38-1.15.73-1.19-.72,2.25-1.16.56-.92,1.15.69Z"/><path class="cls-2" d="M44,137c-.63.83-1.72.82-2.77,0s-1.37-1.83-.74-2.66,1.71-.82,2.77,0S44.58,136.14,44,137Zm-2.44-1.83a.72.72,0,0,0,.26,1.07.71.71,0,1,0,.84-1.11A.73.73,0,0,0,41.52,135.15Z"/><path class="cls-2" d="M40.19,133.93l-1.2,1.3-1-.91,1.16-1.27a.6.6,0,0,0-.88-.81l-1.16,1.27-1-.91,1.2-1.3c.66-.72,1.63-.59,2.47.18S40.85,133.21,40.19,133.93Z"/><path class="cls-2" d="M35.44,129.5c-.81.65-1.86.37-2.68-.66s-.87-2.11-.06-2.76,1.87-.37,2.69.66S36.25,128.85,35.44,129.5Zm-1.9-2.37c-.35.27-.33.7,0,1.1s.73.51,1.08.23a.73.73,0,0,0,0-1.1C34.3,127,33.89,126.85,33.54,127.13Z"/><path class="cls-2" d="M31.07,126.56l-.73-1.13.8-.51-1.31-.28L29,123.27l1.74.41,1-2.17.87,1.35L31.92,124l.48.12.67-.43.72,1.12Z"/><path class="cls-2" d="M29.19,121c-.15-.14-.3-.26-.45-.19s-.11.22,0,.4a.46.46,0,0,0,.59.26l.4,1.15c-.59.25-1.31-.19-1.77-1.06s-.41-1.57.1-1.84a1,1,0,0,1,1.13.36c.17.16.27.28.47.18l.5.93C29.78,121.38,29.6,121.36,29.19,121Zm1.61,0a.66.66,0,1,1,.19-.84A.59.59,0,0,1,30.8,121Z"/><path class="cls-2" d="M27.77,115.76l-1.56,2-.47-1.3.92-1-1.35-.14L24.83,114l2.48.5,1-.38.46,1.26Z"/><path class="cls-2" d="M26.27,113.24c-1,.26-1.85-.43-2.18-1.71s.09-2.28,1.1-2.54,1.85.43,2.18,1.71S27.28,113,26.27,113.24Zm-.75-2.95c-.43.11-.59.5-.47,1s.46.76.89.65.59-.5.47-1S26,110.18,25.52,110.29Z"/><path class="cls-2" d="M25.25,108.53l-1.75.27-.2-1.33,1.7-.25a.59.59,0,0,0,.51-.69.56.56,0,0,0-.68-.5l-1.71.26-.2-1.33,1.75-.26c1-.15,1.65.56,1.82,1.69S26.22,108.39,25.25,108.53Z"/><path class="cls-2" d="M24.33,102.12c-1,0-1.69-.88-1.69-2.19s.65-2.19,1.69-2.19S26,98.62,26,99.93,25.37,102.12,24.33,102.12Zm0-3c-.45,0-.7.34-.7.85s.25.85.7.85.7-.34.7-.85S24.77,99.08,24.33,99.08Z"/><path class="cls-2" d="M22.77,97.07l.14-1.34.94.1-.85-1,.17-1.62,1.1,1.41,2.12-1.08-.17,1.6L25,95.59l.29.39.8.08L26,97.4Z"/><path class="cls-2" d="M24.78,91.56c0-.21-.07-.4-.23-.43s-.23.1-.27.29a.47.47,0,0,0,.3.58l-.41,1.15c-.61-.18-.9-1-.72-1.94s.67-1.48,1.24-1.37.62.57.65,1c0,.24,0,.4.26.44l-.2,1C25,92.23,24.87,92.1,24.78,91.56Zm1.29,1a.65.65,0,0,1,.24-1.27.58.58,0,0,1,.43.74A.59.59,0,0,1,26.07,92.52Z"/><path class="cls-2" d="M27.63,84.61l-2.51.49.5-1.29L27,83.64l-.91-1,.51-1.3,1.53,2,1,.39L28.64,85Z"/><path class="cls-2" d="M28.17,81.75c-.93-.48-1.11-1.55-.51-2.72s1.57-1.66,2.5-1.18,1.11,1.54.51,2.71S29.1,82.22,28.17,81.75ZM29.55,79c-.39-.21-.77,0-1,.44a.73.73,0,0,0,.24,1.08c.4.2.78,0,1-.45S30,79.24,29.55,79Z"/><path class="cls-2" d="M30.54,77.51l-1.48-1,.73-1.13,1.44.94a.6.6,0,0,0,.65-1l-1.44-.93.72-1.13,1.48,1c.82.53.86,1.51.24,2.46S31.36,78.05,30.54,77.51Z"/><path class="cls-2" d="M34.08,72.11c-.78-.7-.68-1.78.19-2.76s1.95-1.21,2.72-.52.69,1.78-.19,2.76S34.86,72.8,34.08,72.11Zm2-2.28c-.34-.3-.75-.21-1.1.17a.74.74,0,0,0,0,1.11c.33.29.75.2,1.09-.18A.73.73,0,0,0,36.11,69.83Z"/><path class="cls-2" d="M36.26,67.29l1-.91.64.7.06-1.34,1.19-1.11L39,66.42l2.31.6-1.18,1.09-1.22-.42,0,.49.54.58-1,.91Z"/><path class="cls-2" d="M41.43,64.5c.12-.18.21-.35.11-.48s-.24-.07-.39,0a.45.45,0,0,0-.16.63l-1.07.58c-.34-.53,0-1.32.75-1.92s1.48-.67,1.83-.22a1,1,0,0,1-.16,1.18c-.14.19-.24.32-.1.49l-.84.65C41.15,65.14,41.14,65,41.43,64.5Zm.33,1.57a.65.65,0,1,1,.85.05A.59.59,0,0,1,41.76,66.07Z"/><path class="cls-2" d="M46.33,62.22,44.07,61l1.2-.69,1.17.73-.09-1.35,1.21-.7-.07,2.53.54.93-1.16.67Z"/><path class="cls-2" d="M48.56,60.31c-.43-1,.11-1.9,1.31-2.44s2.26-.31,2.69.64-.11,1.9-1.31,2.44S49,61.26,48.56,60.31Zm2.78-1.25c-.19-.41-.6-.5-1.07-.29s-.67.58-.49,1,.6.5,1.06.29S51.52,59.47,51.34,59.06Z"/><path class="cls-2" d="M53,58.49l-.56-1.68,1.27-.42L54.28,58a.58.58,0,0,0,.76.38.55.55,0,0,0,.38-.75L54.88,56l1.27-.42.56,1.68c.31.93-.27,1.72-1.35,2.07S53.34,59.42,53,58.49Z"/><path class="cls-2" d="M59.18,56.48c-.17-1,.59-1.81,1.88-2s2.27.27,2.44,1.29-.58,1.82-1.88,2S59.36,57.51,59.18,56.48Zm3-.51c-.07-.44-.45-.63-1-.54s-.8.39-.73.83.45.63,1,.54S62.26,56.41,62.18,56Z"/><path class="cls-2" d="M63.89,54.1,65.23,54l.06.94.88-1,1.63-.11-1.21,1.32L68,57.07l-1.6.11-.69-1.09-.34.36.06.79-1.34.09Z"/><path class="cls-2" d="M69.64,55.15c.2-.07.38-.15.38-.31s-.15-.21-.34-.21a.46.46,0,0,0-.51.4L68,54.85c0-.64.78-1.07,1.77-1.07s1.57.37,1.57.95-.44.72-.84.83c-.23.07-.38.11-.38.33H69C69,55.49,69.13,55.34,69.64,55.15Zm-.7,1.44a.65.65,0,1,1,.64.56A.58.58,0,0,1,68.94,56.59Z"/><g class="cls-3"><path class="cls-2" d="M191.45,98.63c.94-2.34.21-3.6-1.89-4.84a23.09,23.09,0,0,1-11.23-14.57A14.38,14.38,0,0,1,178.2,73c.85-3.93,5-5.22,7.56-2.21s4.31,6.58,6.53,9.84a33.41,33.41,0,0,0,3.92,4.93,3,3,0,0,0,2.61.26c2.79-1,3.75-1,6.29.8,6.54-3.07,10.35-2.2,14.53,3.81a45.8,45.8,0,0,1,4.82,8.93,17,17,0,0,1,.95,6.64,51.8,51.8,0,0,1-1.07,8.1,7.33,7.33,0,0,1-1.3,2.87c-3.72,5-11.9,6.63-17.27,3.52a10,10,0,0,0-2.16-.63c-4-1.2-8.15-2.13-12-3.7-3-1.22-4.76-3.93-5.73-7C184.23,103.91,186.25,100.13,191.45,98.63Zm17.86-4.3.72-.39,2.18,4.34c.36,0,.7-2,.51-3l.92,0a87.2,87.2,0,0,1-1.59,9.88c-1.08,4.73-3,6.13-7.68,5.47-1.1,3.14-2.38,4-6.68,4.19a7.08,7.08,0,0,0,8.41,3c1.76-.67,1.8-1.05.55-2.44-.87-1-1.56-2.08-2.33-3.12l.68-.47c.39.53.75,1.08,1.17,1.59A8.29,8.29,0,0,0,216.46,116a12,12,0,0,0,7-15.2A30.91,30.91,0,0,0,216.58,89c-3.58-3.8-8.16-3.82-11.71,0a15.53,15.53,0,0,0-3.1,5c-1.69,4.6-1.66,9,1.59,13.22,1,1.35,1.76,2.76,3.61,2.75s2.8-1.51,3.42-3a13.4,13.4,0,0,0,0-10C210.07,96.09,209.68,95.21,209.31,94.33Zm-12.78-6.79c-3-1.53-4.48-4.43-6.11-7.26A64.55,64.55,0,0,0,185,72c-1.89-2.35-4.59-1.57-5.47,1.34a8.47,8.47,0,0,0-.31,2.51c.09,6.76,6.81,15.7,13.29,17.85Zm-5.77,21.59.74-.71a13.71,13.71,0,0,0,1.6,1.79,25.19,25.19,0,0,0,4.59,3.25,4,4,0,0,0,4.81-1.27c1.2-1.38.77-2.93,0-4.36a13.68,13.68,0,0,0-8.72-7.22c-3.6-1-6.53,1.14-6.94,4.85-.57,5.11,4.6,10.72,10.51,10.62Zm8.92-7c-.27-4.78.55-9.34,3.73-13.25.8-1,.3-1.86-.77-2.1A4.7,4.7,0,0,0,200,87a11.72,11.72,0,0,0-6.61,11.43,1.62,1.62,0,0,0,.69,1.11C195.89,100.43,197.75,101.25,199.68,102.13Zm7.2,16.86c2.64,2.51,7.54,2.25,12.27-.56,2.74-1.64,3.89-3.42,3.36-5.35-.73.62-1.4,1.24-2.13,1.79-2.79,2.14-5.87,3.64-9.43,2.76C209.08,117.17,208.05,117.94,206.88,119Z"/></g><g class="cls-3"><path class="cls-2" d="M51.64,79.15h.08c6.06.57,11.34,2.87,14.85,8.4A5.22,5.22,0,0,0,68,88.91a10.18,10.18,0,0,1,4.4,7.61,6.09,6.09,0,0,0,.88,2.37c2.14,3.52,3.45,7.16.81,10.92A11.76,11.76,0,0,1,62.51,115a4.33,4.33,0,0,0-2.71.62,14.64,14.64,0,0,1-8.21,3,3.62,3.62,0,0,0-1.78.75,7.08,7.08,0,0,1-8.5.18,15.25,15.25,0,0,1-6.19-18.15,4.76,4.76,0,0,0,.08-2.13c-1.3-9.76,4.42-18.09,13.64-19.8C49.69,79.29,50.56,79.26,51.64,79.15Zm-15,24.4a.4.4,0,0,0-.74,0c-1.75,5.78,2.66,14.39,8.2,15.69a4.56,4.56,0,0,0,4.24-.82.41.41,0,0,0-.1-.68c-.83-.34-1.56-.64-2.27-1a23.54,23.54,0,0,1-2.67-1.43,21.09,21.09,0,0,1-2.1-1.7c-.08-.36.06-.49.32-.5,4.36,3.36,9.06,5.42,14.41,2.85,4.18-2,7.32-4.91,8.49-9.32a.4.4,0,0,1,.72-.1c.36.57,1.14.56,2.84-1.12a.4.4,0,0,1,.67.36,3.38,3.38,0,0,1-2.47,2.55c-1.95.6-2.65,2.12-3.63,3.51-.83,1.17-.37,1.7,1,1.78A10.59,10.59,0,0,0,71.18,111c2.95-2.47,3.64-5.49,2.14-9.06a12.69,12.69,0,0,0-9.69-7.74l-.36-.66h0a.38.38,0,0,1,.51-.22L70.29,96a.4.4,0,0,0,.53-.48c-2.08-7-8.15-7.42-13.84-8.45l.18-.64,7.53,1.19a3,3,0,0,0-.25-.77C60.28,82.25,55.18,79.7,49,80.9A14.57,14.57,0,0,0,37.21,91.67c-1.78,6-.05,11.71,2.54,17.17.24.51.49,1,.74,1.51a.39.39,0,0,1-.19.53h0a.39.39,0,0,1-.52-.2Z"/><path class="cls-2" d="M45.51,107.33c-1.16-4.06,0-7.62,2.29-10.88a1,1,0,0,1,.23-.23,1.1,1.1,0,0,1,1.6,1.31l-.07.19c-1.11,2.77-2.3,5.52-3.44,8.28C45.9,106.54,45.65,107.82,45.51,107.33Z"/><path class="cls-2" d="M41.75,101.41c-.11,0-.14-.2-.18-.41-.7-4.4.6-7.68,3.13-10.87a.9.9,0,0,1,.56-.3,1.05,1.05,0,0,1,1.26,1.36v0c-1.38,3.18-2.83,6.33-4.26,9.49C42.12,101,42,101.48,41.75,101.41Z"/><path class="cls-2" d="M39.12,96a.51.51,0,0,1-1-.13,12.86,12.86,0,0,1,2.71-8.49,3.9,3.9,0,0,1,1.77-.95.5.5,0,0,1,.59.15h0a.5.5,0,0,1,0,.56c-.91,1.63-1.91,3.22-2.67,4.91A40.69,40.69,0,0,0,39.12,96Z"/></g><path class="cls-4" d="M69.84,84.71a1.92,1.92,0,0,0-2.45,1.57c1-.56,2.16-.16,2.16.88a1.3,1.3,0,0,1-1.35,1.28A1.32,1.32,0,0,1,66.91,87a2.42,2.42,0,0,1,3-2.58Zm3.16,0a1.92,1.92,0,0,0-2.45,1.57c1-.56,2.15-.16,2.15.88a1.29,1.29,0,0,1-1.34,1.28A1.32,1.32,0,0,1,70.07,87a2.42,2.42,0,0,1,3-2.58Z"/><path class="cls-4" d="M75.07,84.59H77.9l.54,4.6h0l2.14-4.6h3.11l.69,4.6h0l2-4.6h2.83l-3.52,7H82.49L81.78,87h0l-2.17,4.57H76.36Z"/><path class="cls-4" d="M89.67,84.59h2.82L92.11,87h2.3l.38-2.39H97.6l-1.11,7H93.68L94.09,89h-2.3l-.42,2.63H88.56Z"/><path class="cls-4" d="M100.78,84.59h3.35l1.58,7h-2.89l-.16-1.1h-2.39l-.53,1.1H96.92Zm1.74,4.29-.38-2.4h0L101,88.88Z"/><path class="cls-4" d="M107.87,86.73H105.8l.34-2.14h7l-.34,2.14h-2.09l-.77,4.88H107.1Z"/><path class="cls-4" d="M115.45,84.59h3.83c2.41,0,3.74,1,3.74,2.92,0,2.63-1.66,4.1-4.68,4.1h-4Zm3,5a1.65,1.65,0,0,0,1.82-1.82c0-.78-.47-1.2-1.34-1.2h-1l-.47,3Z"/><path class="cls-4" d="M123.42,88.73c0-2.62,2.3-4.37,5.09-4.37,2.5,0,4,1.2,4,3.11,0,2.61-2.3,4.37-5.09,4.37C125,91.84,123.42,90.64,123.42,88.73Zm6.28-1c0-.79-.56-1.28-1.49-1.28a1.89,1.89,0,0,0-1.94,1.92c0,.79.55,1.28,1.49,1.28A1.89,1.89,0,0,0,129.7,87.78Z"/><path class="cls-4" d="M137,89.27l-2-4.68h2.89l.83,2.65h0l1.56-2.65h2.95l-3.42,4.68-.37,2.34h-2.82Z"/><path class="cls-4" d="M142.32,88.73c0-2.62,2.31-4.37,5.09-4.37,2.51,0,4,1.2,4,3.11,0,2.61-2.3,4.37-5.09,4.37C143.86,91.84,142.32,90.64,142.32,88.73Zm6.28-1c0-.79-.55-1.28-1.49-1.28a1.89,1.89,0,0,0-1.94,1.92c0,.79.56,1.28,1.49,1.28A1.89,1.89,0,0,0,148.6,87.78Z"/><path class="cls-4" d="M151.91,88.74l.66-4.15h2.82l-.63,4.06c-.11.64.24,1,1,1a1.16,1.16,0,0,0,1.3-1l.65-4.06h2.81l-.66,4.21c-.31,1.92-1.9,3-4.44,3S151.6,90.7,151.91,88.74Z"/><path class="cls-4" d="M163.06,84.59h3.28l1.94,4.09h0l.65-4.09h2.6l-1.12,7h-3.27l-1.94-4.12h0l-.65,4.12H162Z"/><path class="cls-4" d="M172.42,84.59h6.08l-.3,1.9h-3.36l-.13.75h3l-.26,1.62h-3l-.14.85h3.47l-.3,1.9h-6.18Z"/><path class="cls-4" d="M179.22,84.59h6.09l-.31,1.9h-3.36l-.13.75h3l-.27,1.62h-3l-.14.85h3.47l-.3,1.9h-6.18Z"/><path class="cls-4" d="M186,84.59h3.84c2.4,0,3.74,1,3.74,2.92,0,2.63-1.67,4.1-4.68,4.1h-4Zm3,5a1.65,1.65,0,0,0,1.82-1.82c0-.78-.48-1.2-1.34-1.2h-1.05l-.47,3Z"/><path class="cls-4" d="M86.81,96.28h3.35l1.58,7H88.85l-.16-1.1H86.3l-.53,1.1H83Zm1.73,4.29-.37-2.39h0L87,100.57Z"/><path class="cls-4" d="M98.54,102.15l-.15-.6a.78.78,0,0,0-.75-.49h-.55l-.35,2.24H93.92l1.11-7H99.7c1.75,0,2.73.71,2.73,2a2.33,2.33,0,0,1-1.92,2.29h0a.73.73,0,0,1,.46.6l.21.51a.38.38,0,0,0,.41.28.92.92,0,0,0,.42-.12l.17,1.15a3.78,3.78,0,0,1-1.89.51A1.69,1.69,0,0,1,98.54,102.15Zm0-2.7c.65,0,1-.29,1-.83,0-.38-.28-.58-.78-.58H97.57l-.23,1.41Z"/><path class="cls-4" d="M103.71,96.28h6.08l-.3,1.91h-3.37l-.12.75h3l-.26,1.61h-3l-.13.85h3.47l-.3,1.9H102.6Z"/><path class="cls-4" d="M110.07,96.28H113l.75,4.66h0L116,96.28h2.91l-3.87,7h-3.3Z"/><path class="cls-4" d="M119.3,96.28h2.81l-1.11,7h-2.81Z"/><path class="cls-4" d="M123,96.28h6.09l-.3,1.91h-3.37l-.12.75h3l-.26,1.61h-3l-.13.85h3.47l-.31,1.9h-6.18Z"/><path class="cls-4" d="M129.34,96.28h2.83l.54,4.61h0l2.14-4.61H138l.69,4.61h0l2-4.61h2.83l-3.52,7h-3.23l-.71-4.57h0l-2.17,4.57h-3.23Z"/><path class="cls-4" d="M145.68,96.28h6.18l-.34,2.15h-3.36l-.15.9h2.79l-.29,1.81h-2.78l-.34,2.16h-2.82Z"/><path class="cls-4" d="M151.63,100.43c0-2.62,2.3-4.38,5.09-4.38,2.5,0,4,1.21,4,3.11,0,2.61-2.3,4.38-5.09,4.38C153.16,103.54,151.63,102.33,151.63,100.43Zm6.28-1c0-.79-.56-1.27-1.5-1.27a1.88,1.88,0,0,0-1.94,1.92c0,.79.56,1.27,1.5,1.27A1.88,1.88,0,0,0,157.91,99.47Z"/><path class="cls-4" d="M165.44,102.15l-.16-.6a.77.77,0,0,0-.75-.49H164l-.36,2.24h-2.81l1.11-7h4.67c1.74,0,2.73.71,2.73,2a2.33,2.33,0,0,1-1.92,2.29h0a.75.75,0,0,1,.46.6l.2.51a.4.4,0,0,0,.41.28,1,1,0,0,0,.43-.12l.16,1.15a3.72,3.72,0,0,1-1.89.51A1.68,1.68,0,0,1,165.44,102.15Zm0-2.7c.64,0,1-.29,1-.83,0-.38-.27-.58-.78-.58h-1.23l-.22,1.41Z"/><path class="cls-4" d="M173,99.17l.51-.22c.44-.17.62-.36.62-.66s-.23-.38-.58-.38a1.14,1.14,0,0,0-1.14.9l-2.47-.41c.32-1.4,1.81-2.35,3.86-2.35,1.84,0,3.11.75,3.11,1.9,0,.93-.58,1.52-1.86,1.89l-.4.15a.81.81,0,0,0-.65.68h-2.24A1.81,1.81,0,0,1,173,99.17Zm-1.69,3.22a1.48,1.48,0,0,1,1.57-1.42,1.06,1.06,0,0,1,1.19,1,1.48,1.48,0,0,1-1.58,1.41A1,1,0,0,1,171.29,102.39Z"/><path class="cls-4" d="M63.92,108h2.83l.54,4.6h0l2.14-4.6h3.11l.69,4.6h0l2-4.6h2.83l-3.52,7H71.34l-.71-4.57h0L68.45,115H65.21Z"/><path class="cls-4" d="M78.52,108h2.82L81,110.37h2.3l.38-2.39h2.82l-1.12,7H82.53l.42-2.63h-2.3L80.23,115H77.41Z"/><path class="cls-4" d="M89.63,108H93l1.58,7h-2.9l-.16-1.1H89.12l-.53,1.1H85.77Zm1.74,4.29-.37-2.4h0l-1.18,2.4Z"/><path class="cls-4" d="M96.73,110.12H94.65L95,108h7l-.34,2.14H99.54L98.77,115H96Z"/><path class="cls-4" d="M102,111.4a1.92,1.92,0,0,0,2.45-1.57c-1,.56-2.16.17-2.16-.89a1.29,1.29,0,0,1,1.36-1.26c.79,0,1.27.59,1.27,1.48a2.41,2.41,0,0,1-3,2.58Z"/><path class="cls-4" d="M104.61,113.57l1.77-1.07a3,3,0,0,0,2.2.86c.63,0,1-.14,1-.42s-.29-.38-.82-.46l-1-.13c-1.76-.26-2.51-.84-2.51-2,0-1.83,1.78-2.63,3.82-2.63,1.7,0,2.91.57,3.37,1.44l-1.65,1a2.36,2.36,0,0,0-1.72-.68c-.64,0-1.1.14-1.1.4s.33.33.87.42l.92.12c1.81.27,2.58.89,2.58,2.05,0,1.75-1.91,2.66-4,2.66C106.51,115.2,105.12,114.58,104.61,113.57Z"/><path class="cls-4" d="M114.6,112.27a4.52,4.52,0,0,1,4.77-4.48c2.11,0,3.43,1,3.57,2.43l-2.68.42a1,1,0,0,0-1.1-.75,1.76,1.76,0,0,0-1.71,1.88,1.35,1.35,0,0,0,1.53,1.38,1.63,1.63,0,0,0,1.64-.83h-2.4l.22-1.42h5.1l-.64,4.1h-2.09l0-1.12h0a3.8,3.8,0,0,1-2.89,1.28C115.86,115.16,114.6,114,114.6,112.27Z"/><path class="cls-4" d="M124,112.12c0-2.62,2.3-4.37,5.09-4.37,2.51,0,4,1.2,4,3.11,0,2.61-2.3,4.37-5.09,4.37C125.49,115.23,124,114,124,112.12Zm6.28-1c0-.79-.55-1.28-1.49-1.28a1.89,1.89,0,0,0-1.94,1.92c0,.79.56,1.28,1.49,1.28A1.89,1.89,0,0,0,130.24,111.17Z"/><path class="cls-4" d="M134.26,108h2.81L136,115h-2.81Z"/><path class="cls-4" d="M137.94,108h3.27l1.95,4.09h0l.66-4.09h2.59l-1.11,7H142l-1.94-4.12h0l-.65,4.12h-2.59Z"/><path class="cls-4" d="M146.47,112.27a4.53,4.53,0,0,1,4.77-4.48c2.12,0,3.43,1,3.58,2.43l-2.68.42a1,1,0,0,0-1.1-.75,1.77,1.77,0,0,0-1.72,1.88,1.36,1.36,0,0,0,1.53,1.38,1.65,1.65,0,0,0,1.65-.83h-2.41l.23-1.42h5.1l-.65,4.1h-2.08l0-1.12h0a3.77,3.77,0,0,1-2.88,1.28C147.74,115.16,146.47,114,146.47,112.27Z"/><path class="cls-4" d="M157.58,112.12c0-2.62,2.31-4.37,5.09-4.37,2.51,0,4,1.2,4,3.11,0,2.61-2.3,4.37-5.09,4.37C159.11,115.23,157.58,114,157.58,112.12Zm6.28-1c0-.79-.55-1.28-1.49-1.28a1.89,1.89,0,0,0-1.94,1.92c0,.79.56,1.28,1.49,1.28A1.89,1.89,0,0,0,163.86,111.17Z"/><path class="cls-4" d="M167.89,108h3.27l1.94,4.09h0l.66-4.09h2.59l-1.11,7H172L170,110.88h0l-.65,4.12h-2.6Z"/><path class="cls-4" d="M179.62,110.87l.51-.23c.44-.17.62-.36.62-.65s-.23-.38-.58-.38a1.14,1.14,0,0,0-1.14.89l-2.47-.4c.32-1.41,1.81-2.35,3.86-2.35,1.84,0,3.11.75,3.11,1.9,0,.92-.58,1.52-1.86,1.89l-.4.14a.85.85,0,0,0-.66.69h-2.23A1.81,1.81,0,0,1,179.62,110.87Zm-1.69,3.21a1.48,1.48,0,0,1,1.57-1.42,1.06,1.06,0,0,1,1.19,1,1.49,1.49,0,0,1-1.58,1.42A1,1,0,0,1,177.93,114.08Z"/><path class="cls-4" d="M186.86,110.87l.51-.23c.44-.17.62-.36.62-.65s-.23-.38-.58-.38a1.14,1.14,0,0,0-1.14.89l-2.47-.4c.32-1.41,1.81-2.35,3.86-2.35,1.84,0,3.11.75,3.11,1.9,0,.92-.58,1.52-1.86,1.89l-.4.14a.82.82,0,0,0-.65.69h-2.24A1.81,1.81,0,0,1,186.86,110.87Zm-1.69,3.21a1.48,1.48,0,0,1,1.57-1.42,1.06,1.06,0,0,1,1.19,1,1.49,1.49,0,0,1-1.58,1.42A1,1,0,0,1,185.17,114.08Z"/><path class="cls-4" d="M191,111.4a1.93,1.93,0,0,0,2.46-1.57c-1.05.56-2.17.17-2.17-.89a1.3,1.3,0,0,1,1.36-1.26c.79,0,1.28.59,1.28,1.48a2.42,2.42,0,0,1-3,2.58Zm3.16,0a1.92,1.92,0,0,0,2.45-1.57c-1.05.56-2.16.17-2.16-.89a1.29,1.29,0,0,1,1.35-1.26c.8,0,1.28.59,1.28,1.48a2.41,2.41,0,0,1-3,2.58Z"/><rect class="cls-4" x="125.07" y="49.31" width="9.86" height="144.17" rx="4.93" transform="translate(3.16 246.09) rotate(-87.55)"/><rect class="cls-5" x="125.01" y="48.63" width="9.86" height="144.17" rx="4.93" transform="translate(3.77 245.37) rotate(-87.55)"/><path class="cls-4" d="M60.9,118.11l4.51.18v.24l-4.51-.18Z"/><path class="cls-4" d="M66,115.76l1.5.06-.07,1.52,2.26.09.07-1.52,1.49.06-.18,4.29-1.49-.06.07-1.71-2.26-.09-.07,1.71-1.49-.06Z"/><path class="cls-4" d="M71.54,118.73c0-1,1-1.6,2.39-1.55s2.2.74,2.16,1.74a1.28,1.28,0,0,1-.06.32L73,119.11c.14.37.65.54,1.2.56a3.42,3.42,0,0,0,1.49-.25l.34.68a3.74,3.74,0,0,1-2,.38C72.5,120.42,71.5,119.73,71.54,118.73Zm3.2-.15c0-.35-.38-.61-.86-.63a.84.84,0,0,0-.93.56Z"/><path class="cls-4" d="M80.2,118.8,79,119c0-.46-.19-.76-.47-.78s-.63.35-.65.94l-.06,1.38-1.35-.06.12-3.09,1.13,0,.15.72h0a1.33,1.33,0,0,1,1.26-.77C79.76,117.42,80.19,118,80.2,118.8Z"/><path class="cls-4" d="M81.87,117.61l1.35,0-.13,3.09-1.35,0Zm0-1a.68.68,0,0,1,.77-.66.69.69,0,1,1,0,1.38A.68.68,0,0,1,81.84,116.58Z"/><path class="cls-4" d="M88.06,119.2,88,121l-1.34,0,.06-1.6a.73.73,0,0,0-.76-.82.86.86,0,0,0-1,.9l-.06,1.45-1.35-.06.13-3.09,1.16,0,.12.75h0a1.71,1.71,0,0,1,1.61-.78A1.37,1.37,0,0,1,88.06,119.2Z"/><path class="cls-4" d="M88.44,119l2.38.1,0,.74-2.38-.1Z"/><path class="cls-4" d="M91.13,119.53c0-1,1-1.61,2.36-1.55,1.14,0,2,.56,2.09,1.29l-1.27.17a.76.76,0,0,0-.8-.59c-.61,0-1,.25-1,.74s.38.79,1,.82a1,1,0,0,0,1.11-.68l1.25.25c-.2.83-1.16,1.34-2.42,1.29C92,121.21,91.09,120.53,91.13,119.53Z"/><path class="cls-4" d="M96,120.52c0-.62.76-1,2-1.08l1.13-.06c.13,0,.21,0,.21-.11s-.32-.28-.81-.3a3.91,3.91,0,0,0-2.11.54l-.32-.76a4.44,4.44,0,0,1,2.46-.57c1.3,0,2.14.52,2.1,1.28l-.08,2-1.17,0-.15-.68h0a2,2,0,0,1-1.78.69C96.47,121.39,95.94,121.06,96,120.52Zm3.26-.49h0l-1.21.06c-.44,0-.68.1-.69.26s.2.26.6.27C98.69,120.64,99.21,120.41,99.22,120Z"/><path class="cls-4" d="M100.79,121.08l.39-.71a3.68,3.68,0,0,0,1.79.53c.64,0,.93-.06.94-.2s-.21-.21-.61-.25l-.73-.09c-1-.11-1.49-.39-1.47-1,0-.77.89-1.09,2.05-1a3.93,3.93,0,0,1,1.74.48l-.35.64a3.39,3.39,0,0,0-1.44-.41c-.47,0-.84,0-.85.2s.17.18.52.22l.73.1c1.08.13,1.61.41,1.59,1,0,.77-.91,1.08-2.06,1A5,5,0,0,1,100.79,121.08Z"/><path class="cls-4" d="M105.32,120.1c0-1,1-1.6,2.38-1.54s2.21.74,2.17,1.74a1.28,1.28,0,0,1-.06.32l-3.08-.13c.14.37.64.53,1.2.56a3.27,3.27,0,0,0,1.49-.26l.34.69a3.84,3.84,0,0,1-2,.38C106.28,121.79,105.28,121.11,105.32,120.1Zm3.2-.14c0-.36-.38-.61-.86-.63a.83.83,0,0,0-.93.56Z"/><path class="cls-4" d="M110.26,119.84l2.38.09,0,.75-2.38-.1Z"/><path class="cls-4" d="M113,120.42c0-1,1-1.61,2.44-1.55s2.34.75,2.3,1.74-1,1.61-2.44,1.55S112.91,121.42,113,120.42Zm3.39.14c0-.49-.37-.83-1-.86s-1,.28-1,.78.37.83,1,.85S116.32,121.05,116.34,120.56Z"/><path class="cls-4" d="M118.6,120l-.82,0,0-.86.82,0v-.22c0-.81.68-1.23,1.76-1.19a2.73,2.73,0,0,1,1.43.46l-.32.8a1.74,1.74,0,0,0-.89-.31c-.39,0-.62.15-.63.44v.08l1.59.06,0,.86L120,120l-.09,2.23-1.36,0Z"/><path class="cls-4" d="M121.72,120.3l2.38.1,0,.74-2.38-.09Z"/><path class="cls-4" d="M124.41,120.88c0-1,1-1.6,2.39-1.54s2.2.74,2.16,1.73a1.25,1.25,0,0,1-.05.32l-3.09-.12c.14.37.65.53,1.21.55a3.11,3.11,0,0,0,1.48-.25l.35.69a3.77,3.77,0,0,1-2,.37C125.37,122.57,124.37,121.89,124.41,120.88Zm3.2-.14c0-.36-.38-.61-.85-.63a.85.85,0,0,0-.94.55Z"/><path class="cls-4" d="M129.43,119.54l1.12,0,.15.79h0a1.62,1.62,0,0,1,1.54-.82,1.24,1.24,0,0,1,1.26,1h0a1.69,1.69,0,0,1,1.56-.84,1.3,1.3,0,0,1,1.34,1.44l-.08,1.81-1.35,0,.06-1.61a.61.61,0,0,0-.64-.71.77.77,0,0,0-.85.84l-.06,1.42-1.35-.06.07-1.61a.62.62,0,0,0-.64-.71.79.79,0,0,0-.86.84l-.05,1.42-1.36,0Z"/><path class="cls-4" d="M136.7,121.38c0-1,1-1.6,2.39-1.54s2.2.74,2.16,1.73a1.32,1.32,0,0,1-.05.33l-3.09-.13c.14.37.65.53,1.2.55a3.15,3.15,0,0,0,1.49-.25l.34.69a3.75,3.75,0,0,1-2,.37C137.66,123.07,136.66,122.39,136.7,121.38Zm3.2-.14c0-.36-.38-.61-.86-.63a.84.84,0,0,0-.93.55Z"/><path class="cls-4" d="M145.36,121.45l-1.24.2c0-.46-.19-.76-.47-.77s-.63.35-.65.93l-.06,1.38-1.35,0,.12-3.1,1.13,0,.15.72h0a1.32,1.32,0,0,1,1.26-.76C144.92,120.07,145.35,120.63,145.36,121.45Z"/><path class="cls-4" d="M145.18,124.22l.48-.91a3.09,3.09,0,0,0,1.57.47c.91,0,1.5-.28,1.53-.83v-.15h0a1.88,1.88,0,0,1-1.58.55,1.55,1.55,0,0,1-1.68-1.64,1.61,1.61,0,0,1,1.86-1.54,1.59,1.59,0,0,1,1.47.94h0l.2-.77,1.17,0-.1,2.59c-.05,1.14-1.15,1.81-2.87,1.74A4.3,4.3,0,0,1,145.18,124.22Zm3.66-2.34c0-.45-.35-.76-1-.79s-1,.26-1,.71.35.77,1,.79S148.83,122.33,148.84,121.88Z"/><path class="cls-4" d="M150.5,122c0-1,1-1.61,2.39-1.55s2.21.74,2.16,1.74a1.25,1.25,0,0,1-.05.32l-3.09-.13c.14.37.65.53,1.21.56a3.37,3.37,0,0,0,1.48-.25l.35.68a3.84,3.84,0,0,1-2,.38C151.47,123.64,150.46,123,150.5,122Zm3.2-.15c0-.35-.38-.61-.85-.63s-.87.21-.93.56Z"/><path class="cls-4" d="M159.88,122.13l-.08,1.75-1.34-.06.06-1.6a.72.72,0,0,0-.76-.81.85.85,0,0,0-1,.89l-.06,1.45-1.35,0,.13-3.09,1.17,0,.11.76h0a1.72,1.72,0,0,1,1.61-.79A1.39,1.39,0,0,1,159.88,122.13Z"/><path class="cls-4" d="M160.17,122.35c.05-1,1-1.62,2.36-1.56,1.14,0,2,.56,2.09,1.3l-1.27.16a.76.76,0,0,0-.8-.59c-.61,0-1,.25-1,.74s.38.8,1,.82a1,1,0,0,0,1.11-.68l1.25.26c-.2.82-1.16,1.34-2.41,1.29C161.06,124,160.13,123.34,160.17,122.35Z"/><path class="cls-4" d="M164.72,124.89l.46-.9a3.37,3.37,0,0,0,1.57.52c.88,0,1.47-.34,1.49-.94v-.23h0a1.45,1.45,0,0,1-1.49.82,1.51,1.51,0,0,1-1.54-1.62l.07-1.53,1.36,0-.06,1.38a.79.79,0,0,0,.75.91.89.89,0,0,0,1-.93l.05-1.29,1.35.05-.1,2.51c-.05,1.17-1.15,1.9-2.79,1.83A4.2,4.2,0,0,1,164.72,124.89Z"/><path class="cls-4" d="M171.46,121.26l1.17,0,.14.81h0a1.67,1.67,0,0,1,1.64-.83,1.64,1.64,0,1,1-.13,3.28,1.66,1.66,0,0,1-1.56-1h0l-.08,2-1.36,0Zm3.28,1.68c0-.43-.37-.72-1-.75s-1,.24-1.05.67.38.71,1,.74S174.72,123.36,174.74,122.94Z"/><path class="cls-4" d="M176.35,123c0-1,1-1.6,2.39-1.55s2.2.74,2.16,1.74a1.25,1.25,0,0,1-.05.32l-3.09-.12c.14.36.65.53,1.2.55a3.39,3.39,0,0,0,1.49-.25l.35.68a3.8,3.8,0,0,1-2,.38C177.31,124.69,176.31,124,176.35,123Zm3.2-.15c0-.35-.38-.61-.85-.63a.84.84,0,0,0-.94.56Z"/><path class="cls-4" d="M185,123.07l-1.24.2c0-.46-.19-.76-.47-.77s-.63.34-.65.93l-.06,1.38-1.35-.06.12-3.09,1.13,0,.16.72h0a1.33,1.33,0,0,1,1.26-.77C184.57,121.69,185,122.24,185,123.07Z"/><path class="cls-4" d="M185,124.51l.38-.7a3.83,3.83,0,0,0,1.8.52c.64,0,.93-.06.93-.2s-.2-.2-.61-.25l-.73-.09c-1-.11-1.49-.38-1.47-1,0-.77.89-1.08,2-1a3.94,3.94,0,0,1,1.75.48l-.35.64a3.29,3.29,0,0,0-1.44-.4c-.48,0-.85,0-.85.2s.17.17.52.21l.73.1c1.07.13,1.61.41,1.58,1s-.91,1.08-2.06,1A4.89,4.89,0,0,1,185,124.51Z"/><path class="cls-4" d="M189.56,123.54c0-1,1-1.61,2.44-1.55s2.34.75,2.3,1.75-1,1.6-2.44,1.54S189.52,124.54,189.56,123.54Zm3.39.14c0-.49-.37-.83-1-.86s-1,.29-1.05.78.37.83,1,.85S192.93,124.17,193,123.68Z"/><path class="cls-4" d="M199.07,123.73l-.07,1.75-1.35-.06.07-1.6A.73.73,0,0,0,197,123a.85.85,0,0,0-.95.9l-.06,1.45-1.35,0,.12-3.1,1.17,0,.11.76h0a1.69,1.69,0,0,1,1.61-.79A1.37,1.37,0,0,1,199.07,123.73Z"/></svg>